<?xml version="1.0" encoding="utf-8"?>
<!-- Generator: Adobe Illustrator 19.1.0, SVG Export Plug-In . SVG Version: 6.00 Build 0)  -->
<svg version="1.1" id="Layer_1" xmlns="http://www.w3.org/2000/svg" xmlns:xlink="http://www.w3.org/1999/xlink" x="0px" y="0px"
	 viewBox="0 0 59.5 52.2" style="enable-background:new 0 0 59.5 52.2;" xml:space="preserve">
<style type="text/css">
	.st0{fill:#FFFFFF;}
</style>
<g>
	<g>
		<path class="st0" d="M19.8,51.2c0,0.4,0.2,0.7,0.5,0.8c0.3,0.2,0.7,0.1,1-0.1l6.6-4.5l-8.1-3.9V51.2z M19.8,51.2"/>
		<path class="st0" d="M59.2,0.3C59,0.1,58.7,0,58.5,0c-0.1,0-0.3,0-0.4,0.1l-57.1,28C0.4,28.4,0,29,0,29.7c0,0.7,0.4,1.2,1,1.5
			L16,38.4l30.1-24.7L19.8,40.1l18.8,8.9c0.2,0.1,0.5,0.2,0.7,0.2c0.2,0,0.4,0,0.6-0.1c0.4-0.2,0.8-0.5,1-1L59.4,1.3
			C59.5,0.9,59.5,0.5,59.2,0.3L59.2,0.3z M59.2,0.3"/>
	</g>
</g>
</svg>
