<?xml version="1.0" encoding="utf-8"?>
<!-- Generator: Adobe Illustrator 19.1.0, SVG Export Plug-In . SVG Version: 6.00 Build 0)  -->
<svg version="1.1" id="Layer_1" xmlns="http://www.w3.org/2000/svg" xmlns:xlink="http://www.w3.org/1999/xlink" x="0px" y="0px"
	 viewBox="-239.3 378.8 84.2 84.2" style="enable-background:new -239.3 378.8 84.2 84.2;" xml:space="preserve">
<style type="text/css">
	.st0{fill:#999999;}
</style>
<path class="st0" d="M-197.2,378.8c-23.2,0-42.1,18.9-42.1,42.1c0,23.2,18.9,42.1,42.1,42.1s42.1-18.9,42.1-42.1
	C-155.1,397.7-174.1,378.8-197.2,378.8z M-197.2,458c-20.4,0-37.1-16.6-37.1-37.1s16.6-37.1,37.1-37.1c20.4,0,37.1,16.6,37.1,37.1
	S-176.8,458-197.2,458z M-176.6,425.2h-41.3c-1.1,0-2,0.9-2,2c0,14.8,11.4,22.6,22.6,22.6s22.6-7.8,22.6-22.6
	C-174.6,426.1-175.5,425.2-176.6,425.2z M-197.2,445.8c-8.5,0-17.6-5.2-18.6-16.6h37.1C-179.6,440.6-188.8,445.8-197.2,445.8z
	 M-210.7,414c1.8,0,3.3-1.5,3.3-3.3c0-1.8-1.5-3.3-3.3-3.3c-1.8,0-3.3,1.5-3.3,3.3C-214,412.5-212.5,414-210.7,414z M-184.3,414
	c1.8,0,3.3-1.5,3.3-3.3c0-1.8-1.5-3.3-3.3-3.3s-3.3,1.5-3.3,3.3C-187.6,412.5-186.1,414-184.3,414z"/>
</svg>
