<?xml version="1.0" encoding="utf-8"?>
<!-- Generator: Adobe Illustrator 19.1.0, SVG Export Plug-In . SVG Version: 6.00 Build 0)  -->
<svg version="1.1" id="Layer_1" xmlns="http://www.w3.org/2000/svg" xmlns:xlink="http://www.w3.org/1999/xlink" x="0px" y="0px"
	 viewBox="0 0 57.5 57.5" style="enable-background:new 0 0 57.5 57.5;" xml:space="preserve">
<style type="text/css">
	.st0{fill:#FFFFFF;}
</style>
<g>
	<g>
		<path class="st0" d="M53,26L42.2,36.8c-6,6-15.6,6-21.6,0c-0.9-0.9-1.7-2-2.3-3.1l5-5c0.2-0.2,0.5-0.4,0.8-0.5
			c0.3,1.2,1,2.3,1.9,3.2c3,3,7.8,3,10.8,0l10.8-10.8c3-3,3-7.8,0-10.8c-3-3-7.8-3-10.8,0L33,13.7c-3.1-1.2-6.5-1.5-9.7-1.1l8.2-8.2
			c6-6,15.6-6,21.6,0C58.9,10.4,58.9,20.1,53,26L53,26z M24.5,43.8l-3.8,3.8c-3,3-7.8,3-10.8,0c-3-3-3-7.8,0-10.8L20.6,26
			c3-3,7.8-3,10.8,0c0.9,0.9,1.5,2,1.9,3.2c0.3-0.2,0.6-0.3,0.8-0.5l5-5c-0.6-1.1-1.4-2.1-2.3-3.1c-6-6-15.6-6-21.6,0L4.5,31.4
			c-6,6-6,15.6,0,21.6c6,6,15.6,6,21.6,0l8.2-8.2C30.9,45.3,27.6,45,24.5,43.8L24.5,43.8z M24.5,43.8"/>
	</g>
</g>
</svg>
