<?xml version="1.0" encoding="UTF-8" standalone="no"?>
<!-- Generator: Adobe Illustrator 19.1.0, SVG Export Plug-In . SVG Version: 6.00 Build 0)  -->

<svg
   xmlns:dc="http://purl.org/dc/elements/1.1/"
   xmlns:cc="http://creativecommons.org/ns#"
   xmlns:rdf="http://www.w3.org/1999/02/22-rdf-syntax-ns#"
   xmlns:svg="http://www.w3.org/2000/svg"
   xmlns="http://www.w3.org/2000/svg"
   xmlns:sodipodi="http://sodipodi.sourceforge.net/DTD/sodipodi-0.dtd"
   xmlns:inkscape="http://www.inkscape.org/namespaces/inkscape"
   version="1.1"
   id="Layer_1"
   x="0px"
   y="0px"
   viewBox="-240 15.3 360 565"
   style="enable-background:new -240 15.3 360 565;"
   xml:space="preserve"
   sodipodi:docname="noimg3_it_icon.svg"
   inkscape:version="0.92.2 5c3e80d, 2017-08-06"><metadata
     id="metadata1201"><rdf:RDF><cc:Work
         rdf:about=""><dc:format>image/svg+xml</dc:format><dc:type
           rdf:resource="http://purl.org/dc/dcmitype/StillImage" /><dc:title></dc:title></cc:Work></rdf:RDF></metadata><defs
     id="defs1199" /><sodipodi:namedview
     pagecolor="#ffffff"
     bordercolor="#666666"
     borderopacity="1"
     objecttolerance="10"
     gridtolerance="10"
     guidetolerance="10"
     inkscape:pageopacity="0"
     inkscape:pageshadow="2"
     inkscape:window-width="2560"
     inkscape:window-height="1315"
     id="namedview1197"
     showgrid="false"
     inkscape:zoom="1"
     inkscape:cx="-197.37016"
     inkscape:cy="282.5"
     inkscape:window-x="0"
     inkscape:window-y="1"
     inkscape:window-maximized="1"
     inkscape:current-layer="Layer_1"
     inkscape:pagecheckerboard="true" /><style
     type="text/css"
     id="style1028">
	.st0{clip-path:url(#SVGID_2_);}
	.st1{clip-path:url(#SVGID_4_);fill:url(#SVGID_5_);}
	.st2{clip-path:url(#SVGID_7_);}
	.st3{clip-path:url(#SVGID_9_);}
	.st4{opacity:0.5;}
	.st5{clip-path:url(#SVGID_11_);}
	.st6{clip-path:url(#SVGID_13_);fill:url(#SVGID_14_);}
	.st7{clip-path:url(#SVGID_16_);}
	.st8{clip-path:url(#SVGID_18_);}
	.st9{clip-path:url(#SVGID_20_);fill:url(#SVGID_21_);}
	.st10{opacity:0.42;}
	.st11{clip-path:url(#SVGID_23_);}
	.st12{clip-path:url(#SVGID_25_);fill:url(#SVGID_26_);}
	.st13{fill:#FFFFFF;stroke:#000000;stroke-miterlimit:10;}
	.st14{fill:none;stroke:#000000;stroke-width:5;stroke-miterlimit:10;}
</style><path
     style="fill:#ffffff;stroke:#000000;stroke-miterlimit:10"
     d="m 10,297.60001 a 69,68 0 0 1 -69,68 69,68 0 0 1 -69,-68 69,68 0 0 1 69,-68 69,68 0 0 1 69,68 z"
     id="ellipse1180" /><g
     id="g1186"><g
       id="g1184"><path
         d="m -21.3,270.7 h -73 c -0.7,0 -1.5,0.5 -1.5,1.3 v 51.4 c 0,0.7 0.7,1.4 1.5,1.4 h 73 c 0.7,0 1.2,-0.7 1.2,-1.4 V 272 c 0,-0.8 -0.5,-1.3 -1.2,-1.3 z m -1.5,51.4 h -70.3 v -6.3 l 23.1,-23 20.7,20.7 c 0.5,0.5 1.4,0.5 1.9,0 l 12.6,-12.6 12.1,10.9 z m 0,-13.9 L -34,298 c -0.5,-0.5 -1.3,-0.5 -1.8,0 L -48.3,310.6 -69.1,290 c -0.5,-0.5 -1.4,-0.5 -2,0 l -22.1,22 v -38.6 h 70.3 z"
         id="path1182"
         inkscape:connector-curvature="0" /></g></g><g
     id="g1192"><g
       id="g1190"><path
         d="m -45.7,280.1 c -4.5,0 -8.1,3.6 -8.1,8.1 0,4.5 3.6,8.1 8.1,8.1 4.5,0 8.1,-3.6 8.1,-8.1 0,-4.5 -3.6,-8.1 -8.1,-8.1 z m 0,13.5 c -3,0 -5.4,-2.4 -5.4,-5.4 0,-3 2.4,-5.4 5.4,-5.4 3,0 5.4,2.4 5.4,5.4 0,3 -2.4,5.4 -5.4,5.4 z"
         id="path1188"
         inkscape:connector-curvature="0" /></g></g><path
     style="fill:none;stroke:#000000;stroke-width:5;stroke-miterlimit:10"
     d="M -22.799999,249.2 -80,347.60001"
     id="line1194" /><g
     aria-label="Nessuna Connessione"
     transform="translate(-80.131811,-45.767663)"
     style="font-style:normal;font-variant:normal;font-weight:normal;font-stretch:normal;font-size:40px;line-height:1.25;font-family:KonsensMedium;-inkscape-font-specification:'KonsensMedium, Normal';font-variant-ligatures:normal;font-variant-caps:normal;font-variant-numeric:normal;font-feature-settings:normal;text-align:start;letter-spacing:0px;word-spacing:0px;writing-mode:lr-tb;text-anchor:start;opacity:1;fill:#ffffff;fill-opacity:1;stroke:none"
     id="flowRoot1203"><path
       d="m -87.405531,434.0675 h -3.48 l -8.064,-14.4 v 14.4 h -2.471999 v -17.856 h 3.527999 l 8.016,14.424 v -14.424 h 2.472 z"
       style="font-style:normal;font-variant:normal;font-weight:normal;font-stretch:normal;font-size:24px;font-family:KonsensMedium;-inkscape-font-specification:'KonsensMedium, Normal';font-variant-ligatures:normal;font-variant-caps:normal;font-variant-numeric:normal;font-feature-settings:normal;text-align:start;writing-mode:lr-tb;text-anchor:start;fill:#ffffff"
       id="path1062"
       inkscape:connector-curvature="0" /><path
       d="m -73.262781,430.0595 v 0.12 q 0,1.848 -1.464,2.976 -1.464,1.128 -3.912,1.128 -2.448,0 -3.984,-1.272 -1.536,-1.296 -1.536,-3.528 v -3.024 q 0,-2.352 1.536,-3.768 1.536,-1.416 3.96,-1.416 2.424,0 3.936,1.416 1.512,1.392 1.512,3.792 v 2.136 h -8.616 v 0.72 q 0,1.416 0.864,2.16 0.888,0.72 2.328,0.72 3.048,0 3.048,-2.16 z m -2.256,-3.24 v -0.384 q 0,-1.488 -0.84,-2.28 -0.816,-0.816 -2.304,-0.816 -1.488,0 -2.328,0.816 -0.84,0.816 -0.84,2.304 v 0.36 z"
       style="font-style:normal;font-variant:normal;font-weight:normal;font-stretch:normal;font-size:24px;font-family:KonsensMedium;-inkscape-font-specification:'KonsensMedium, Normal';font-variant-ligatures:normal;font-variant-caps:normal;font-variant-numeric:normal;font-feature-settings:normal;text-align:start;writing-mode:lr-tb;text-anchor:start;fill:#ffffff"
       id="path1064"
       inkscape:connector-curvature="0" /><path
       d="m -60.008406,425.4755 h -2.4 q 0,-2.16 -2.832,-2.16 -1.344,0 -2.064,0.48 -0.696,0.48 -0.696,1.272 0,0.744 0.6,1.152 0.6,0.408 1.488,0.504 0.888,0.096 1.92,0.288 1.056,0.192 1.944,0.456 0.888,0.24 1.488,0.984 0.6,0.744 0.6,1.944 0,1.776 -1.416,2.832 -1.416,1.032 -3.888,1.032 -2.496,0 -3.936,-1.128 -1.416,-1.128 -1.416,-2.976 v -0.12 h 2.472 q 0,2.184 2.928,2.184 1.392,0 2.136,-0.456 0.768,-0.48 0.768,-1.272 0,-0.792 -0.84,-1.152 -0.816,-0.36 -1.992,-0.504 -1.176,-0.144 -2.376,-0.384 -1.176,-0.24 -2.016,-1.056 -0.816,-0.84 -0.816,-2.28 0,-1.776 1.368,-2.808 1.392,-1.032 3.792,-1.032 2.472,0 3.816,1.128 1.368,1.104 1.368,2.976 z"
       style="font-style:normal;font-variant:normal;font-weight:normal;font-stretch:normal;font-size:24px;font-family:KonsensMedium;-inkscape-font-specification:'KonsensMedium, Normal';font-variant-ligatures:normal;font-variant-caps:normal;font-variant-numeric:normal;font-feature-settings:normal;text-align:start;writing-mode:lr-tb;text-anchor:start;fill:#ffffff"
       id="path1066"
       inkscape:connector-curvature="0" /><path
       d="m -46.930281,425.4755 h -2.4 q 0,-2.16 -2.832,-2.16 -1.344,0 -2.064,0.48 -0.696,0.48 -0.696,1.272 0,0.744 0.6,1.152 0.6,0.408 1.488,0.504 0.888,0.096 1.92,0.288 1.056,0.192 1.944,0.456 0.888,0.24 1.488,0.984 0.6,0.744 0.6,1.944 0,1.776 -1.416,2.832 -1.416,1.032 -3.888,1.032 -2.496,0 -3.936,-1.128 -1.416,-1.128 -1.416,-2.976 v -0.12 h 2.472 q 0,2.184 2.928,2.184 1.392,0 2.136,-0.456 0.768,-0.48 0.768,-1.272 0,-0.792 -0.84,-1.152 -0.816,-0.36 -1.992,-0.504 -1.176,-0.144 -2.376,-0.384 -1.176,-0.24 -2.016,-1.056 -0.816,-0.84 -0.816,-2.28 0,-1.776 1.368,-2.808 1.392,-1.032 3.792,-1.032 2.472,0 3.816,1.128 1.368,1.104 1.368,2.976 z"
       style="font-style:normal;font-variant:normal;font-weight:normal;font-stretch:normal;font-size:24px;font-family:KonsensMedium;-inkscape-font-specification:'KonsensMedium, Normal';font-variant-ligatures:normal;font-variant-caps:normal;font-variant-numeric:normal;font-feature-settings:normal;text-align:start;writing-mode:lr-tb;text-anchor:start;fill:#ffffff"
       id="path1068"
       inkscape:connector-curvature="0" /><path
       d="m -33.372156,434.0675 h -2.376 v -1.656 l -1.44,0.888 q -1.512,0.912 -3,0.888 -1.776,0 -2.832,-1.08 -1.032,-1.104 -1.032,-2.928 v -8.736 h 2.448 v 8.448 q 0,0.936 0.504,1.512 0.504,0.552 1.368,0.552 0.816,0 1.896,-0.624 l 2.064,-1.224 v -8.664 h 2.4 z"
       style="font-style:normal;font-variant:normal;font-weight:normal;font-stretch:normal;font-size:24px;font-family:KonsensMedium;-inkscape-font-specification:'KonsensMedium, Normal';font-variant-ligatures:normal;font-variant-caps:normal;font-variant-numeric:normal;font-feature-settings:normal;text-align:start;writing-mode:lr-tb;text-anchor:start;fill:#ffffff"
       id="path1070"
       inkscape:connector-curvature="0" /><path
       d="m -19.236531,434.0675 h -2.448 v -8.424 q 0,-0.912 -0.504,-1.488 -0.48,-0.6 -1.368,-0.6 -0.816,0 -1.896,0.624 l -2.064,1.224 v 8.664 h -2.4 v -12.624 h 2.376 v 1.656 l 1.44,-0.888 q 1.416,-0.888 3,-0.888 1.776,0 2.808,1.104 1.056,1.104 1.056,2.928 z"
       style="font-style:normal;font-variant:normal;font-weight:normal;font-stretch:normal;font-size:24px;font-family:KonsensMedium;-inkscape-font-specification:'KonsensMedium, Normal';font-variant-ligatures:normal;font-variant-caps:normal;font-variant-numeric:normal;font-feature-settings:normal;text-align:start;writing-mode:lr-tb;text-anchor:start;fill:#ffffff"
       id="path1072"
       inkscape:connector-curvature="0" /><path
       d="m -7.8369062,430.3475 v -1.608 h -3.7679998 q -2.4,0 -2.4,1.824 0,0.744 0.432,1.176 0.432,0.408 1.224,0.408 1.176,0 2.4479997,-0.696 z m 2.4,3.72 h -2.4 v -1.632 l -1.3920001,0.768 q -1.8719997,1.008 -3.5279997,1.008 -1.656,0 -2.688,-0.984 -1.008,-0.984 -1.008,-2.568 0,-1.848 1.272,-2.832 1.296,-0.984 3.312,-0.984 h 4.0559998 v -0.792 q 0,-2.76 -2.9039998,-2.76 -3.072,0 -3.072,2.472 h -2.376 v -0.12 q 0,-2.064 1.488,-3.24 1.512,-1.176 3.936,-1.176 2.4959997,0 3.8879998,1.248 1.416,1.224 1.416,3.456 z"
       style="font-style:normal;font-variant:normal;font-weight:normal;font-stretch:normal;font-size:24px;font-family:KonsensMedium;-inkscape-font-specification:'KonsensMedium, Normal';font-variant-ligatures:normal;font-variant-caps:normal;font-variant-numeric:normal;font-feature-settings:normal;text-align:start;writing-mode:lr-tb;text-anchor:start;fill:#ffffff"
       id="path1074"
       inkscape:connector-curvature="0" /><path
       d="m 18.932094,427.7315 v 0.264 q 0,3 -1.944,4.68 -1.92,1.68 -5.16,1.68 -1.512,0 -2.8080002,-0.408 -1.272,-0.432 -2.3040001,-1.296 -1.0319999,-0.864 -1.608,-2.352 -0.576,-1.488 -0.576,-3.456 v -3.312 q 0,-1.968 0.576,-3.456 0.5760001,-1.488 1.608,-2.352 1.0320001,-0.864 2.3040001,-1.272 1.2960002,-0.432 2.8080002,-0.432 3.264,0 5.184,1.68 1.92,1.656 1.92,4.68 v 0.264 h -2.664 q 0,-2.16 -1.152,-3.216 -1.152,-1.08 -3.288,-1.08 -4.6560003,0 -4.6560003,5.256 v 3.168 q 0,5.256 4.6560003,5.256 2.136,0 3.288,-1.08 1.152,-1.08 1.152,-3.216 z"
       style="font-style:normal;font-variant:normal;font-weight:normal;font-stretch:normal;font-size:24px;font-family:KonsensMedium;-inkscape-font-specification:'KonsensMedium, Normal';font-variant-ligatures:normal;font-variant-caps:normal;font-variant-numeric:normal;font-feature-settings:normal;text-align:start;writing-mode:lr-tb;text-anchor:start;fill:#ffffff"
       id="path1076"
       inkscape:connector-curvature="0" /><path
       d="m 30.611844,428.9075 v -2.232 q 0,-1.536 -0.912,-2.4 -0.888,-0.864 -2.352,-0.864 -1.488,0 -2.376,0.864 -0.888,0.864 -0.888,2.4 v 2.232 q 0,1.536 0.888,2.424 0.888,0.864 2.376,0.864 1.464,0 2.352,-0.864 0.912,-0.864 0.912,-2.424 z m 2.352,-2.448 v 2.688 q 0,2.352 -1.584,3.768 -1.56,1.416 -4.032,1.416 -2.472,0 -4.056,-1.416 -1.56,-1.416 -1.56,-3.768 v -2.688 q 0,-2.352 1.56,-3.768 1.584,-1.416 4.056,-1.416 2.472,0 4.032,1.416 1.584,1.416 1.584,3.768 z"
       style="font-style:normal;font-variant:normal;font-weight:normal;font-stretch:normal;font-size:24px;font-family:KonsensMedium;-inkscape-font-specification:'KonsensMedium, Normal';font-variant-ligatures:normal;font-variant-caps:normal;font-variant-numeric:normal;font-feature-settings:normal;text-align:start;writing-mode:lr-tb;text-anchor:start;fill:#ffffff"
       id="path1078"
       inkscape:connector-curvature="0" /><path
       d="m 46.763469,434.0675 h -2.448 v -8.424 q 0,-0.912 -0.504,-1.488 -0.48,-0.6 -1.368,-0.6 -0.816,0 -1.896,0.624 l -2.064,1.224 v 8.664 h -2.4 v -12.624 h 2.376 v 1.656 l 1.44,-0.888 q 1.416,-0.888 3,-0.888 1.776,0 2.808,1.104 1.056,1.104 1.056,2.928 z"
       style="font-style:normal;font-variant:normal;font-weight:normal;font-stretch:normal;font-size:24px;font-family:KonsensMedium;-inkscape-font-specification:'KonsensMedium, Normal';font-variant-ligatures:normal;font-variant-caps:normal;font-variant-numeric:normal;font-feature-settings:normal;text-align:start;writing-mode:lr-tb;text-anchor:start;fill:#ffffff"
       id="path1080"
       inkscape:connector-curvature="0" /><path
       d="m 60.779094,434.0675 h -2.448 v -8.424 q 0,-0.912 -0.504,-1.488 -0.48,-0.6 -1.368,-0.6 -0.816,0 -1.896,0.624 l -2.064,1.224 v 8.664 h -2.4 v -12.624 h 2.376 v 1.656 l 1.44,-0.888 q 1.416,-0.888 3,-0.888 1.776,0 2.808,1.104 1.056,1.104 1.056,2.928 z"
       style="font-style:normal;font-variant:normal;font-weight:normal;font-stretch:normal;font-size:24px;font-family:KonsensMedium;-inkscape-font-specification:'KonsensMedium, Normal';font-variant-ligatures:normal;font-variant-caps:normal;font-variant-numeric:normal;font-feature-settings:normal;text-align:start;writing-mode:lr-tb;text-anchor:start;fill:#ffffff"
       id="path1082"
       inkscape:connector-curvature="0" /><path
       d="m 74.674719,430.0595 v 0.12 q 0,1.848 -1.464,2.976 -1.464,1.128 -3.912,1.128 -2.448,0 -3.984,-1.272 -1.536,-1.296 -1.536,-3.528 v -3.024 q 0,-2.352 1.536,-3.768 1.536,-1.416 3.96,-1.416 2.424,0 3.936,1.416 1.512,1.392 1.512,3.792 v 2.136 h -8.616 v 0.72 q 0,1.416 0.864,2.16 0.888,0.72 2.328,0.72 3.048,0 3.048,-2.16 z m -2.256,-3.24 v -0.384 q 0,-1.488 -0.84,-2.28 -0.816,-0.816 -2.304,-0.816 -1.488,0 -2.328,0.816 -0.84,0.816 -0.84,2.304 v 0.36 z"
       style="font-style:normal;font-variant:normal;font-weight:normal;font-stretch:normal;font-size:24px;font-family:KonsensMedium;-inkscape-font-specification:'KonsensMedium, Normal';font-variant-ligatures:normal;font-variant-caps:normal;font-variant-numeric:normal;font-feature-settings:normal;text-align:start;writing-mode:lr-tb;text-anchor:start;fill:#ffffff"
       id="path1084"
       inkscape:connector-curvature="0" /><path
       d="m 87.929094,425.4755 h -2.4 q 0,-2.16 -2.832,-2.16 -1.344,0 -2.064,0.48 -0.696,0.48 -0.696,1.272 0,0.744 0.6,1.152 0.6,0.408 1.488,0.504 0.888,0.096 1.92,0.288 1.056,0.192 1.944,0.456 0.888,0.24 1.488,0.984 0.6,0.744 0.6,1.944 0,1.776 -1.416,2.832 -1.416,1.032 -3.888,1.032 -2.496,0 -3.936,-1.128 -1.416,-1.128 -1.416,-2.976 v -0.12 h 2.472 q 0,2.184 2.928,2.184 1.392,0 2.136,-0.456 0.768,-0.48 0.768,-1.272 0,-0.792 -0.84,-1.152 -0.816,-0.36 -1.992,-0.504 -1.176,-0.144 -2.376,-0.384 -1.176,-0.24 -2.016,-1.056 -0.816,-0.84 -0.816,-2.28 0,-1.776 1.368,-2.808 1.392,-1.032 3.792,-1.032 2.472,0 3.816,1.128 1.368,1.104 1.368,2.976 z"
       style="font-style:normal;font-variant:normal;font-weight:normal;font-stretch:normal;font-size:24px;font-family:KonsensMedium;-inkscape-font-specification:'KonsensMedium, Normal';font-variant-ligatures:normal;font-variant-caps:normal;font-variant-numeric:normal;font-feature-settings:normal;text-align:start;writing-mode:lr-tb;text-anchor:start;fill:#ffffff"
       id="path1086"
       inkscape:connector-curvature="0" /><path
       d="m 101.00722,425.4755 h -2.400001 q 0,-2.16 -2.832,-2.16 -1.344,0 -2.064,0.48 -0.696,0.48 -0.696,1.272 0,0.744 0.6,1.152 0.6,0.408 1.488,0.504 0.888,0.096 1.92,0.288 1.056,0.192 1.944,0.456 0.888,0.24 1.488001,0.984 0.6,0.744 0.6,1.944 0,1.776 -1.416001,2.832 -1.416,1.032 -3.888,1.032 -2.496,0 -3.936,-1.128 -1.416,-1.128 -1.416,-2.976 v -0.12 h 2.472 q 0,2.184 2.928,2.184 1.392,0 2.136,-0.456 0.768,-0.48 0.768,-1.272 0,-0.792 -0.84,-1.152 -0.816,-0.36 -1.992,-0.504 -1.176,-0.144 -2.376,-0.384 -1.176,-0.24 -2.016,-1.056 -0.816,-0.84 -0.816,-2.28 0,-1.776 1.368,-2.808 1.392,-1.032 3.792,-1.032 2.472,0 3.816,1.128 1.368001,1.104 1.368001,2.976 z"
       style="font-style:normal;font-variant:normal;font-weight:normal;font-stretch:normal;font-size:24px;font-family:KonsensMedium;-inkscape-font-specification:'KonsensMedium, Normal';font-variant-ligatures:normal;font-variant-caps:normal;font-variant-numeric:normal;font-feature-settings:normal;text-align:start;writing-mode:lr-tb;text-anchor:start;fill:#ffffff"
       id="path1088"
       inkscape:connector-curvature="0" /><path
       d="m 106.52534,434.0675 h -2.472 v -12.624 h 2.472 z m 0.168,-16.752 v 0.504 q 0,0.552 -0.408,0.888 -0.384,0.336 -0.984,0.336 -0.648,0 -1.032,-0.312 -0.384,-0.336 -0.384,-0.912 v -0.504 q 0,-0.576 0.384,-0.888 0.384,-0.336 1.032,-0.336 0.6,0 0.984,0.336 0.408,0.336 0.408,0.888 z"
       style="font-style:normal;font-variant:normal;font-weight:normal;font-stretch:normal;font-size:24px;font-family:KonsensMedium;-inkscape-font-specification:'KonsensMedium, Normal';font-variant-ligatures:normal;font-variant-caps:normal;font-variant-numeric:normal;font-feature-settings:normal;text-align:start;writing-mode:lr-tb;text-anchor:start;fill:#ffffff"
       id="path1090"
       inkscape:connector-curvature="0" /><path
       d="m 118.59622,428.9075 v -2.232 q 0,-1.536 -0.912,-2.4 -0.888,-0.864 -2.352,-0.864 -1.488,0 -2.376,0.864 -0.888,0.864 -0.888,2.4 v 2.232 q 0,1.536 0.888,2.424 0.888,0.864 2.376,0.864 1.464,0 2.352,-0.864 0.912,-0.864 0.912,-2.424 z m 2.352,-2.448 v 2.688 q 0,2.352 -1.584,3.768 -1.56,1.416 -4.032,1.416 -2.472,0 -4.056,-1.416 -1.56,-1.416 -1.56,-3.768 v -2.688 q 0,-2.352 1.56,-3.768 1.584,-1.416 4.056,-1.416 2.472,0 4.032,1.416 1.584,1.416 1.584,3.768 z"
       style="font-style:normal;font-variant:normal;font-weight:normal;font-stretch:normal;font-size:24px;font-family:KonsensMedium;-inkscape-font-specification:'KonsensMedium, Normal';font-variant-ligatures:normal;font-variant-caps:normal;font-variant-numeric:normal;font-feature-settings:normal;text-align:start;writing-mode:lr-tb;text-anchor:start;fill:#ffffff"
       id="path1092"
       inkscape:connector-curvature="0" /><path
       d="m 134.74784,434.0675 h -2.448 v -8.424 q 0,-0.912 -0.504,-1.488 -0.48,-0.6 -1.368,-0.6 -0.816,0 -1.896,0.624 l -2.064,1.224 v 8.664 h -2.4 v -12.624 h 2.376 v 1.656 l 1.44,-0.888 q 1.416,-0.888 3,-0.888 1.776,0 2.808,1.104 1.056,1.104 1.056,2.928 z"
       style="font-style:normal;font-variant:normal;font-weight:normal;font-stretch:normal;font-size:24px;font-family:KonsensMedium;-inkscape-font-specification:'KonsensMedium, Normal';font-variant-ligatures:normal;font-variant-caps:normal;font-variant-numeric:normal;font-feature-settings:normal;text-align:start;writing-mode:lr-tb;text-anchor:start;fill:#ffffff"
       id="path1094"
       inkscape:connector-curvature="0" /><path
       d="m 148.64347,430.0595 v 0.12 q 0,1.848 -1.464,2.976 -1.464,1.128 -3.912,1.128 -2.448,0 -3.984,-1.272 -1.536,-1.296 -1.536,-3.528 v -3.024 q 0,-2.352 1.536,-3.768 1.536,-1.416 3.96,-1.416 2.424,0 3.936,1.416 1.512,1.392 1.512,3.792 v 2.136 h -8.616 v 0.72 q 0,1.416 0.864,2.16 0.888,0.72 2.328,0.72 3.048,0 3.048,-2.16 z m -2.256,-3.24 v -0.384 q 0,-1.488 -0.84,-2.28 -0.816,-0.816 -2.304,-0.816 -1.488,0 -2.328,0.816 -0.84,0.816 -0.84,2.304 v 0.36 z"
       style="font-style:normal;font-variant:normal;font-weight:normal;font-stretch:normal;font-size:24px;font-family:KonsensMedium;-inkscape-font-specification:'KonsensMedium, Normal';font-variant-ligatures:normal;font-variant-caps:normal;font-variant-numeric:normal;font-feature-settings:normal;text-align:start;writing-mode:lr-tb;text-anchor:start;fill:#ffffff"
       id="path1096"
       inkscape:connector-curvature="0" /></g></svg>