<?xml version="1.0" encoding="utf-8"?>
<!-- Generator: Adobe Illustrator 20.1.0, SVG Export Plug-In . SVG Version: 6.00 Build 0)  -->
<svg version="1.1" id="Layer_1" xmlns="http://www.w3.org/2000/svg" xmlns:xlink="http://www.w3.org/1999/xlink" x="0px" y="0px"
	 viewBox="0 0 100 100" style="enable-background:new 0 0 100 100;" xml:space="preserve">
<style type="text/css">
	.st0{fill:#999999;}
	.st1{fill-rule:evenodd;clip-rule:evenodd;fill:#999999;}
	.st2{fill:#FFFFFF;}
</style>
<path class="st0" d="M50,14.4c-19.6,0-35.6,16-35.6,35.6c0,19.6,16,35.6,35.6,35.6c19.6,0,35.6-16,35.6-35.6
	C85.6,30.4,69.6,14.4,50,14.4 M59,33.9c2.5,0,4.5,2,4.5,4.5c0,2.5-2,4.5-4.5,4.5c-2.5,0-4.5-2-4.5-4.5C54.5,35.9,56.5,33.9,59,33.9
	 M40.4,33.9c2.5,0,4.5,2,4.5,4.5c0,2.5-2,4.5-4.5,4.5c-2.5,0-4.5-2-4.5-4.5C35.9,35.9,37.9,33.9,40.4,33.9 M69.2,60.8
	c-5.2,4.7-12,7.4-19.1,7.4c-7.1,0-13.9-2.6-19.2-7.4c-0.9-0.8-1-2.2-0.2-3.2c0.8-0.9,2.2-1,3.1-0.2c4.4,4,10.2,6.2,16.2,6.2
	c6,0,11.7-2.2,16.1-6.2c0.9-0.8,2.3-0.8,3.2,0.2C70.2,58.5,70.1,59.9,69.2,60.8"/>
<path class="st0" d="M50,0.5C22.7,0.5,0.5,22.7,0.5,50c0,27.3,22.1,49.5,49.5,49.5S99.5,77.3,99.5,50C99.5,22.7,77.3,0.5,50,0.5
	 M50,88.6c-21.3,0-38.6-17.3-38.6-38.6c0-21.3,17.3-38.6,38.6-38.6c21.3,0,38.6,17.3,38.6,38.6C88.6,71.3,71.3,88.6,50,88.6"/>
<path class="st1" d="M0.5,50C0.5,22.7,22.7,0.5,50,0.5S99.5,22.7,99.5,50S77.3,99.5,50,99.5S0.5,77.3,0.5,50"/>
<path class="st2" d="M65.3,35c-1.4-0.4-4.7-1-4.7-1s-4.5-3.6-8.5-3.6c-4,0-8.5,3.6-8.5,3.6s-3.3,0.6-4.7,1
	c6.2,2.2,10.6,8.2,10.6,15.1c0,2.8-0.8,5.5-2.1,7.8h9.2c-1.3-2.3-2.1-5-2.1-7.8C54.7,43.2,59.1,37.3,65.3,35"/>
<path class="st2" d="M32.6,35.7c-8.3,0-15,6.7-15,15s6.7,15,15,15c8.3,0,15-6.7,15-15S40.9,35.7,32.6,35.7 M32.6,60.2
	c-5.2,0-9.5-4.2-9.5-9.5c0-5.2,4.2-9.5,9.5-9.5c5.2,0,9.5,4.2,9.5,9.5C42.1,55.9,37.8,60.2,32.6,60.2"/>
<path class="st2" d="M26.5,45.9c-2,2.7-1.9,6.3,0.2,8.8c-0.8-2.5-0.3-5.3,1.4-7.5c1.7-2.2,4.3-3.3,6.9-3.2
	C32.2,42.5,28.6,43.3,26.5,45.9"/>
<path class="st2" d="M71.7,35.7c-8.3,0-15,6.7-15,15s6.7,15,15,15c8.3,0,15-6.7,15-15S80,35.7,71.7,35.7 M71.7,60.2
	c-5.2,0-9.5-4.2-9.5-9.5c0-5.2,4.2-9.5,9.5-9.5c5.2,0,9.5,4.2,9.5,9.5C81.2,55.9,76.9,60.2,71.7,60.2"/>
<path class="st2" d="M69.2,43.9c2.6-0.1,5.2,1,6.9,3.2c1.7,2.2,2.1,5,1.4,7.5c2.1-2.4,2.3-6.1,0.2-8.8
	C75.7,43.3,72.1,42.5,69.2,43.9"/>
</svg>
