<?xml version="1.0" encoding="iso-8859-1"?>
<!-- Generator: Adobe Illustrator 19.0.0, SVG Export Plug-In . SVG Version: 6.00 Build 0)  -->
<svg version="1.1" id="Layer_1" xmlns="http://www.w3.org/2000/svg" xmlns:xlink="http://www.w3.org/1999/xlink" x="0px" y="0px"
	 viewBox="0 0 502 502" style="enable-background:new 0 0 502 502;" xml:space="preserve">
<g>
	<g>
		<rect x="213.885" y="233.68" style="fill:#DB4949;" width="74.23" height="103.922"/>
		<path style="fill:#DB4949;" d="M307.91,233.68H194.09v-65.877c0-17.732,14.375-32.107,32.107-32.107h49.606
			c17.732,0,32.107,14.375,32.107,32.107V233.68z"/>
		<circle style="fill:#DB4949;" cx="251" cy="71.363" r="35.63"/>
	</g>
	<g>
		<path d="M389.982,274.33c-5.362-1.325-10.782,1.948-12.106,7.31c-1.324,5.361,1.948,10.782,7.31,12.106
			c24.37,6.02,41.39,27.717,41.39,52.764c0,29.959-24.374,54.333-54.333,54.333H129.758c-29.959,0-54.333-24.374-54.333-54.333
			s24.374-54.333,54.333-54.333h74.127v45.425c0,5.523,4.478,10,10,10h74.23c5.522,0,10-4.477,10-10V243.68h9.794
			c5.522,0,10-4.477,10-10v-65.877c0-23.218-18.889-42.106-42.106-42.106h-49.605c-23.218,0-42.106,18.889-42.106,42.106v65.877
			c0,5.523,4.478,10,10,10h9.794v28.497h-74.127c-40.987,0-74.333,33.345-74.333,74.333s33.346,74.333,74.333,74.333h242.484
			c40.987,0,74.333-33.345,74.333-74.333C446.575,312.242,423.303,282.56,389.982,274.33z M204.091,223.68v-55.877
			c0-12.189,9.917-22.106,22.106-22.106h49.605c12.189,0,22.106,9.917,22.106,22.106v55.877H204.091z M278.115,243.68v83.922H261
			V270c0-5.523-4.478-10-10-10s-10,4.477-10,10v57.602h-17.115V243.68H278.115z"/>
		<path d="M330.179,292.177h17.815c5.522,0,10-4.477,10-10s-4.478-10-10-10h-17.815c-5.522,0-10,4.477-10,10
			S324.656,292.177,330.179,292.177z"/>
		<path d="M251,116.994c25.161,0,45.631-20.47,45.631-45.63s-20.47-45.63-45.631-45.63s-45.631,20.47-45.631,45.63
			S225.839,116.994,251,116.994z M251,45.733c14.133,0,25.631,11.498,25.631,25.63S265.133,96.994,251,96.994
			s-25.631-11.498-25.631-25.63S236.867,45.733,251,45.733z"/>
		<path d="M32.764,337.499H10c-5.522,0-10,4.477-10,10s4.478,10,10,10h22.764c5.522,0,10-4.477,10-10S38.286,337.499,32.764,337.499
			z"/>
		<path d="M492,337.499h-22.764c-5.522,0-10,4.477-10,10s4.478,10,10,10H492c5.522,0,10-4.477,10-10S497.522,337.499,492,337.499z"
			/>
		<path d="M251,433.503c-5.522,0-10,4.477-10,10v22.764c0,5.523,4.478,10,10,10s10-4.477,10-10v-22.764
			C261,437.98,256.522,433.503,251,433.503z"/>
	</g>
</g>
<g>
</g>
<g>
</g>
<g>
</g>
<g>
</g>
<g>
</g>
<g>
</g>
<g>
</g>
<g>
</g>
<g>
</g>
<g>
</g>
<g>
</g>
<g>
</g>
<g>
</g>
<g>
</g>
<g>
</g>
</svg>
