<?xml version="1.0" encoding="utf-8"?>
<!-- Generator: Adobe Illustrator 20.1.0, SVG Export Plug-In . SVG Version: 6.00 Build 0)  -->
<svg version="1.1" id="Layer_1" xmlns="http://www.w3.org/2000/svg" xmlns:xlink="http://www.w3.org/1999/xlink" x="0px" y="0px"
	 viewBox="0 0 100 100" style="enable-background:new 0 0 100 100;" xml:space="preserve">
<style type="text/css">
	.st0{fill:#009D4B;}
</style>
<path class="st0" d="M49.8,7.9C26.6,7.9,7.7,26.8,7.7,50s18.9,42.1,42.1,42.1c23.2,0,42.1-18.9,42.1-42.1S72.9,7.9,49.8,7.9z
	 M49.8,87.1c-20.4,0-37.1-16.6-37.1-37.1s16.6-37.1,37.1-37.1c20.4,0,37.1,16.6,37.1,37.1S70.2,87.1,49.8,87.1z M70.4,54.3H29.1
	c-1.1,0-2,0.9-2,2c0,14.8,11.4,22.6,22.6,22.6s22.6-7.8,22.6-22.6C72.4,55.2,71.5,54.3,70.4,54.3z M49.8,74.9
	c-8.5,0-17.6-5.2-18.6-16.6h37.1C67.4,69.7,58.2,74.9,49.8,74.9z M36.3,43.1c1.8,0,3.3-1.5,3.3-3.3c0-1.8-1.5-3.3-3.3-3.3
	S33,38,33,39.8S34.5,43.1,36.3,43.1z M62.7,43.1c1.8,0,3.3-1.5,3.3-3.3c0-1.8-1.5-3.3-3.3-3.3c-1.8,0-3.3,1.5-3.3,3.3
	S60.9,43.1,62.7,43.1z"/>
</svg>
