<?xml version="1.0" encoding="UTF-8" standalone="no"?>
<!-- Generator: Adobe Illustrator 20.1.0, SVG Export Plug-In . SVG Version: 6.00 Build 0)  -->

<svg
   xmlns:dc="http://purl.org/dc/elements/1.1/"
   xmlns:cc="http://creativecommons.org/ns#"
   xmlns:rdf="http://www.w3.org/1999/02/22-rdf-syntax-ns#"
   xmlns:svg="http://www.w3.org/2000/svg"
   xmlns="http://www.w3.org/2000/svg"
   xmlns:sodipodi="http://sodipodi.sourceforge.net/DTD/sodipodi-0.dtd"
   xmlns:inkscape="http://www.inkscape.org/namespaces/inkscape"
   version="1.1"
   id="Layer_1"
   x="0px"
   y="0px"
   viewBox="0 0 100 100"
   style="enable-background:new 0 0 100 100;"
   xml:space="preserve"
   inkscape:version="0.91 r13725"
   sodipodi:docname="nofeed.svg"><metadata
     id="metadata11"><rdf:RDF><cc:Work
         rdf:about=""><dc:format>image/svg+xml</dc:format><dc:type
           rdf:resource="http://purl.org/dc/dcmitype/StillImage" /></cc:Work></rdf:RDF></metadata><defs
     id="defs9" /><sodipodi:namedview
     pagecolor="#ffffff"
     bordercolor="#666666"
     borderopacity="1"
     objecttolerance="10"
     gridtolerance="10"
     guidetolerance="10"
     inkscape:pageopacity="0"
     inkscape:pageshadow="2"
     inkscape:window-width="1440"
     inkscape:window-height="837"
     id="namedview7"
     showgrid="false"
     inkscape:zoom="2.5854987"
     inkscape:cx="-43.34478"
     inkscape:cy="80.601023"
     inkscape:window-x="-8"
     inkscape:window-y="-8"
     inkscape:window-maximized="1"
     inkscape:current-layer="Layer_1" /><style
     type="text/css"
     id="style3">
	.st0{fill:#EA9423;}
</style><path
     class="st0"
     d="M 49.8,8.1 C 26.6,8.1 7.7,27 7.7,50.2 7.7,73.4 26.6,92.3 49.8,92.3 73,92.3 91.9,73.4 91.9,50.2 91.9,27 72.9,8.1 49.8,8.1 Z m 0,79.1 C 29.4,87.2 12.7,70.6 12.7,50.1 12.7,29.6 29.3,13 49.8,13 70.3,13 86.9,29.6 86.9,50.1 86.9,70.6 70.2,87.2 49.8,87.2 Z M 36.3,43.3 c 1.8,0 3.3,-1.5 3.3,-3.3 0,-1.8 -1.5,-3.3 -3.3,-3.3 -1.8,0 -3.3,1.5 -3.3,3.3 0,1.8 1.5,3.3 3.3,3.3 z m 26.4,0 c 1.8,0 3.3,-1.5 3.3,-3.3 0,-1.8 -1.5,-3.3 -3.3,-3.3 -1.8,0 -3.3,1.5 -3.3,3.3 0,1.8 1.5,3.3 3.3,3.3 z"
     id="path5"
     inkscape:connector-curvature="0"
     style="fill:#b3b3b3"
     sodipodi:nodetypes="ssssssssssssssssssss" /><path
     inkscape:connector-curvature="0"
     class="st0"
     d="M 70.413458,69.332529 57.310924,66.540976 30.020048,60.726536 c -1.07585,-0.229216 -2.14363,0.463488 -2.37285,1.539341 -0.22921,1.075854 0.46349,2.143637 1.53934,2.372852 l 40.39341,8.605993 c 1.075853,0.229216 2.143636,-0.463488 2.372852,-1.539341 0.229215,-1.075854 -0.463489,-2.143637 -1.539342,-2.372852 z"
     id="path5-4"
     style="fill:#b3b3b3"
     sodipodi:nodetypes="scssssss" /></svg>