<?xml version="1.0" encoding="utf-8"?>
<!-- Generator: Adobe Illustrator 19.1.0, SVG Export Plug-In . SVG Version: 6.00 Build 0)  -->
<svg version="1.1" id="Layer_1" xmlns="http://www.w3.org/2000/svg" xmlns:xlink="http://www.w3.org/1999/xlink" x="0px" y="0px"
	 viewBox="0 0 109.8 109.8" style="enable-background:new 0 0 109.8 109.8;" xml:space="preserve">
<style type="text/css">
	.st0{fill:#D4A4A2;}
	.st1{fill:#FFFFFF;}
	.st2{fill:#553F19;}
	.st3{fill:#FBB430;}
	.st4{enable-background:new    ;}
	.st5{fill:#707C7F;}
	.st6{fill:#623949;}
	.st7{fill:#FAFBFC;}
	.st8{fill:none;}
	.st9{fill:#786B2B;}
</style>
<circle class="st9" cx="54.9" cy="55.2" r="54.9"/>
<g class="st4">
	<path class="st1" d="M39.4,80.6v-5.2c0-0.2,0.1-0.2,0.2-0.2h0.5c0.1,0,0.2,0.1,0.2,0.2l0,5.1c0,0.5,0,1-0.2,1.5
		c-0.5,1.2-1.5,1.6-2.8,1.6c-1.4,0-2.3-0.5-2.7-1.6c-0.2-0.5-0.2-1-0.2-1.5v-5.1c0-0.2,0.1-0.2,0.2-0.2h0.6c0.1,0,0.2,0.1,0.2,0.2
		v5.2c0,1.4,0.7,2.2,2,2.2C38.7,82.8,39.4,82.1,39.4,80.6z M36.3,74.5c-0.5,0-0.5-0.3-0.5-0.5c0-0.3,0.1-0.5,0.5-0.5
		c0.4,0,0.5,0.2,0.5,0.5C36.8,74.3,36.7,74.5,36.3,74.5z M38.4,74.5c-0.5,0-0.5-0.3-0.5-0.5c0-0.3,0.1-0.5,0.5-0.5S39,73.7,39,74
		C39,74.3,38.9,74.5,38.4,74.5z"/>
	<path class="st1" d="M44.5,83.7c-0.8,0-1.8-0.1-2.3-0.3c-0.3-0.1-0.3-0.3-0.3-0.5v-8c0-0.2,0.1-0.2,0.2-0.2h0.5
		c0.2,0,0.2,0.1,0.2,0.2v2.7l0,0c0.7-0.3,1.3-0.4,1.8-0.4c2,0,2.5,1.2,2.5,3.2C47.1,82.5,46.5,83.7,44.5,83.7z M44.7,78.2
		c-0.5,0-1.2,0.1-1.8,0.3v4.2c0.5,0.1,1.1,0.1,1.6,0.1c1,0,1.6-0.3,1.6-2.2C46.1,78.8,45.7,78.2,44.7,78.2z"/>
	<path class="st1" d="M52.8,80.8h-3.6c0,1.5,0.5,2,1.7,2c0.5,0,1.3-0.1,1.8-0.2c0.2,0,0.3,0,0.3,0.2l0.1,0.3c0,0.1,0,0.2-0.1,0.3
		c-0.5,0.2-1.4,0.3-2,0.3c-2.3,0-2.6-1.6-2.6-3.2c0-1.2,0.3-3.2,2.6-3.2c2.2,0,2.5,1.4,2.6,2.8C53.4,80.5,53.3,80.8,52.8,80.8z
		 M50.8,78.1c-1.1,0-1.5,0.7-1.5,1.9h3.1C52.3,79.1,52.1,78.1,50.8,78.1z"/>
	<path class="st1" d="M57.8,78.3c-0.7,0.1-1.7,0.4-2,0.6v4.5c0,0.2-0.1,0.2-0.2,0.2h-0.5c-0.1,0-0.2-0.1-0.2-0.2v-5.7
		c0-0.2,0.1-0.2,0.2-0.2h0.5c0.2,0,0.2,0.1,0.2,0.2v0.5l0,0c0.3-0.3,1.3-0.7,1.9-0.8c0.2,0,0.2,0,0.2,0.2l0,0.5
		C58,78.2,58,78.3,57.8,78.3z"/>
	<path class="st1" d="M67,83.6h-0.5c-0.1,0-0.2,0-0.2-0.2v-0.5l0,0c-0.4,0.2-1.3,0.8-2.2,0.8c-1.6,0-2.1-1.1-2.1-3.1
		c0-2.1,0.5-3.3,2.5-3.3c0.5,0,1.1,0.1,1.7,0.4l0,0v-2.7c0-0.2,0-0.2,0.2-0.2H67c0.2,0,0.2,0.1,0.2,0.2v8.5
		C67.2,83.5,67.1,83.6,67,83.6z M66.2,78.4c-0.7-0.2-1.3-0.3-1.8-0.3c-1.1,0-1.4,0.6-1.4,2.4c0,1.9,0.4,2.2,1.2,2.2
		c0.6,0,1.7-0.5,2.1-0.7V78.4z"/>
	<path class="st1" d="M69.3,76.3c-0.5,0-0.5-0.3-0.5-0.6c0-0.3,0.1-0.5,0.5-0.5c0.5,0,0.5,0.2,0.5,0.5
		C69.8,76.1,69.8,76.3,69.3,76.3z M69.5,83.6H69c-0.2,0-0.2-0.1-0.2-0.2v-5.7c0-0.2,0.1-0.2,0.2-0.2h0.5c0.1,0,0.2,0.1,0.2,0.2v5.7
		C69.8,83.5,69.7,83.6,69.5,83.6z"/>
	<path class="st1" d="M75.8,80.8h-3.6c0,1.5,0.5,2,1.7,2c0.5,0,1.3-0.1,1.8-0.2c0.2,0,0.3,0,0.3,0.2l0.1,0.3c0,0.1,0,0.2-0.1,0.3
		c-0.5,0.2-1.4,0.3-2,0.3c-2.3,0-2.6-1.6-2.6-3.2c0-1.2,0.3-3.2,2.6-3.2c2.2,0,2.5,1.4,2.6,2.8C76.4,80.5,76.3,80.8,75.8,80.8z
		 M73.8,78.1c-1.1,0-1.5,0.7-1.5,1.9h3.1C75.4,79.1,75.2,78.1,73.8,78.1z"/>
	<path class="st1" d="M48.4,95.4c-0.1,0.2-0.1,0.2-0.3,0.2h-0.7c-0.1,0-0.2-0.1-0.1-0.2l2.6-8c0-0.1,0.1-0.2,0.2-0.2h0.7
		c0.2,0,0.2,0.1,0.2,0.2l2.6,8c0,0.1,0,0.2-0.1,0.2h-0.8c-0.1,0-0.2-0.1-0.2-0.2l-0.6-2.1H49L48.4,95.4z M51.2,90.3l-0.6-2.1h0
		l-0.6,2l-0.6,2.2h2.5L51.2,90.3z"/>
	<path class="st1" d="M57.5,95.7c-0.5,0-1.1-0.1-1.7-0.4l0,0v2.2c0,0.2-0.1,0.2-0.2,0.2H55c-0.2,0-0.2-0.1-0.2-0.2v-7.9
		c0-0.2,0.1-0.2,0.2-0.2h0.5c0.2,0,0.2,0.1,0.2,0.2v0.5l0,0c0.4-0.2,1.3-0.8,2.2-0.8c1.6,0,2.1,1.1,2.1,3.1
		C60,94.5,59.4,95.7,57.5,95.7z M57.8,90.2c-0.6,0-1.6,0.5-2.1,0.7v3.6c0.7,0.2,1.3,0.3,1.8,0.3c1.1,0,1.4-0.6,1.4-2.4
		C59,90.5,58.6,90.2,57.8,90.2z"/>
	<path class="st1" d="M63.8,95.7c-0.5,0-1.1-0.1-1.7-0.4l0,0v2.2c0,0.2-0.1,0.2-0.2,0.2h-0.5c-0.2,0-0.2-0.1-0.2-0.2v-7.9
		c0-0.2,0.1-0.2,0.2-0.2h0.5c0.2,0,0.2,0.1,0.2,0.2v0.5l0,0c0.4-0.2,1.3-0.8,2.2-0.8c1.6,0,2.1,1.1,2.1,3.1
		C66.3,94.5,65.7,95.7,63.8,95.7z M64.1,90.2c-0.6,0-1.6,0.5-2.1,0.7v3.6c0.7,0.2,1.3,0.3,1.8,0.3c1.1,0,1.4-0.6,1.4-2.4
		C65.3,90.5,64.9,90.2,64.1,90.2z"/>
</g>
<g>
	<path class="st1" d="M65.6,17.9H43.7c-2,0-3.7,1.6-3.7,3.7v40.1c0,2,1.7,3.7,3.7,3.7h21.9c2,0,3.7-1.6,3.7-3.7V21.6
		C69.3,19.6,67.6,17.9,65.6,17.9L65.6,17.9z M54.6,63.4c-1.3,0-2.3-1-2.3-2.3s1-2.3,2.3-2.3s2.3,1,2.3,2.3
		C57,62.3,55.9,63.4,54.6,63.4L54.6,63.4z M65.1,56.3c0,0.4-0.3,0.8-0.7,0.8H44.9c-0.4,0-0.8-0.4-0.8-0.8V22.6
		c0-0.4,0.4-0.8,0.8-0.8h19.5c0.4,0,0.7,0.3,0.7,0.8V56.3z"/>
</g>
<g>
	<g>
		<g>
			<path class="st1" d="M54.6,35c-0.6,0-1,0.5-1,1c0,0.6,0.5,1,1,1s1-0.5,1-1S55.2,35,54.6,35L54.6,35z M54.6,38.1c-0.6,0-1,0.5-1,1
				v3.1c0,0.6,0.5,1,1,1s1-0.5,1-1v-3.1C55.6,38.5,55.2,38.1,54.6,38.1L54.6,38.1z M54.6,30.9c-4.5,0-8.2,3.7-8.2,8.2
				s3.7,8.2,8.2,8.2s8.2-3.7,8.2-8.2S59.1,30.9,54.6,30.9L54.6,30.9z M54.6,45.8c-3.7,0-6.7-3-6.7-6.7s3-6.7,6.7-6.7s6.7,3,6.7,6.7
				S58.3,45.8,54.6,45.8L54.6,45.8z"/>
		</g>
	</g>
</g>
</svg>
