<?xml version="1.0" encoding="utf-8"?>
<!-- Generator: Adobe Illustrator 19.1.0, SVG Export Plug-In . SVG Version: 6.00 Build 0)  -->
<svg version="1.1" id="Layer_1" xmlns="http://www.w3.org/2000/svg" xmlns:xlink="http://www.w3.org/1999/xlink" x="0px" y="0px"
	 viewBox="0 0 109.8 109.8" style="enable-background:new 0 0 109.8 109.8;" xml:space="preserve">
<style type="text/css">
	.st0{fill:#D4A4A2;}
	.st1{fill:#FFFFFF;}
	.st2{fill:#553F19;}
	.st3{fill:#FBB430;}
	.st4{enable-background:new    ;}
	.st5{fill:#707C7F;}
	.st6{fill:#623949;}
	.st7{fill:#FAFBFC;}
	.st8{fill:none;}
	.st9{fill:#786B2B;}
</style>
<circle class="st0" cx="54.9" cy="54.9" r="54.9"/>
<g>
	<g>
		<path class="st1" d="M66.1,27.8c-1.2-0.3-4-0.8-4-0.8s-3.9-3.1-7.3-3.1c-3.4,0-7.3,3.1-7.3,3.1s-2.8,0.5-4,0.8
			c5.3,1.9,9.1,7,9.1,13c0,2.4-0.6,4.7-1.8,6.7h7.9c-1.1-2-1.8-4.3-1.8-6.7C57,34.8,60.8,29.8,66.1,27.8L66.1,27.8z"/>
	</g>
	<path class="st1" d="M38.1,28.4c-7.1,0-12.9,5.8-12.9,12.9S31,54.2,38.1,54.2S51,48.4,51,41.3S45.2,28.4,38.1,28.4L38.1,28.4z
		 M38.1,49.4c-4.5,0-8.1-3.7-8.1-8.1c0-4.5,3.7-8.1,8.1-8.1c4.5,0,8.1,3.7,8.1,8.1C46.2,45.8,42.6,49.4,38.1,49.4L38.1,49.4z"/>
	<path class="st1" d="M32.8,37.2c-1.8,2.3-1.6,5.4,0.2,7.5c-0.6-2.1-0.3-4.6,1.2-6.5s3.7-2.9,6-2.8C37.7,34.2,34.6,34.9,32.8,37.2
		L32.8,37.2z"/>
	<path class="st1" d="M71.6,28.4c-7.1,0-12.9,5.8-12.9,12.9s5.8,12.9,12.9,12.9s12.9-5.8,12.9-12.9S78.7,28.4,71.6,28.4L71.6,28.4z
		 M71.6,49.4c-4.5,0-8.1-3.7-8.1-8.1c0-4.5,3.7-8.1,8.1-8.1c4.5,0,8.1,3.7,8.1,8.1C79.8,45.8,76.1,49.4,71.6,49.4L71.6,49.4z"/>
	<path class="st1" d="M69.5,35.5c2.2-0.1,4.5,0.9,6,2.8c1.5,1.9,1.8,4.3,1.2,6.5c1.8-2.1,2-5.3,0.2-7.5C75.1,34.9,72,34.2,69.5,35.5
		L69.5,35.5z"/>
</g>
<g>
	<path class="st1" d="M11.9,74.3H7.4c-0.2,0-0.2-0.1-0.2-0.2v-8.2c0-0.2,0.1-0.2,0.2-0.2h4.5c0.2,0,0.2,0.1,0.2,0.2v0.5
		c0,0.2-0.1,0.2-0.2,0.2H8.1v2.7h3.3c0.2,0,0.2,0.1,0.2,0.2v0.5c0,0.2-0.1,0.2-0.2,0.2H8.1v3.1h3.8c0.2,0,0.2,0.1,0.2,0.2v0.5
		C12.1,74.3,12.1,74.3,11.9,74.3z"/>
	<path class="st1" d="M14.2,66.9c-0.5,0-0.6-0.3-0.6-0.6c0-0.3,0.1-0.6,0.6-0.6c0.5,0,0.6,0.2,0.6,0.6
		C14.7,66.6,14.7,66.9,14.2,66.9z M14.5,74.3h-0.5c-0.2,0-0.2-0.1-0.2-0.2v-5.9c0-0.2,0.1-0.2,0.2-0.2h0.5c0.1,0,0.2,0.1,0.2,0.2
		v5.9C14.7,74.2,14.6,74.3,14.5,74.3z"/>
	<path class="st1" d="M21.3,74.3h-0.5c-0.1,0-0.2-0.1-0.2-0.2l0-3.8c0-1.2-0.2-1.5-1.1-1.5c-0.6,0-1.8,0.5-2.2,0.7v4.6
		c0,0.2-0.1,0.2-0.2,0.2h-0.5c-0.1,0-0.2-0.1-0.2-0.2v-5.9c0-0.2,0.1-0.2,0.2-0.2h0.5c0.2,0,0.2,0,0.2,0.2v0.5l0,0
		c0.4-0.3,1.4-0.8,2.3-0.8c1.7,0,1.9,1,1.9,2.4v3.8C21.5,74.2,21.4,74.3,21.3,74.3z"/>
	<path class="st1" d="M27.5,71.4h-3.7c0,1.6,0.5,2.1,1.7,2.1c0.5,0,1.4-0.1,1.8-0.2c0.2,0,0.3,0,0.3,0.2l0.1,0.3
		c0,0.1,0,0.2-0.1,0.3c-0.5,0.2-1.4,0.4-2.1,0.4c-2.4,0-2.7-1.6-2.7-3.3c0-1.3,0.3-3.3,2.6-3.3c2.2,0,2.6,1.4,2.6,2.9
		C28.1,71.1,28,71.4,27.5,71.4z M25.4,68.7c-1.1,0-1.5,0.7-1.6,1.9H27C27,69.7,26.8,68.7,25.4,68.7z"/>
	<path class="st1" d="M36.4,74.3h-3.1c-0.2,0-0.3-0.1-0.3-0.2v-8.2c0-0.1,0.1-0.2,0.2-0.2H36c1.7,0,2.5,0.9,2.5,2.2
		c0,0.6-0.2,1.5-1.1,1.9l0,0c1.1,0.3,1.4,1.4,1.4,2.1C38.7,73.4,37.7,74.3,36.4,74.3z M35.8,66.6H34v2.8h2c0.8,0,1.4-0.6,1.4-1.4
		C37.4,67.2,36.9,66.6,35.8,66.6z M36.1,70.3H34v3.1h2.1c1.3,0,1.6-0.7,1.6-1.5C37.7,71,37.2,70.3,36.1,70.3z"/>
	<path class="st1" d="M44.6,71.4h-3.7c0,1.6,0.5,2.1,1.7,2.1c0.5,0,1.4-0.1,1.8-0.2c0.2,0,0.3,0,0.3,0.2l0.1,0.3
		c0,0.1,0,0.2-0.1,0.3c-0.5,0.2-1.4,0.4-2.1,0.4c-2.4,0-2.7-1.6-2.7-3.3c0-1.3,0.3-3.3,2.6-3.3c2.2,0,2.6,1.4,2.6,2.9
		C45.2,71.1,45.1,71.4,44.6,71.4z M42.5,68.7c-1.1,0-1.5,0.7-1.6,1.9h3.2C44.1,69.7,43.9,68.7,42.5,68.7z"/>
	<path class="st1" d="M48.9,74.4c-2.5,0-2.6-1.8-2.6-3.4c0-1.3,0.2-3.2,2.6-3.2c2.4,0,2.7,1.6,2.7,3.2
		C51.6,72.5,51.4,74.4,48.9,74.4z M48.9,68.7c-1.3,0-1.6,0.8-1.6,2.4c0,1.6,0.3,2.4,1.6,2.4c1.4,0,1.7-0.8,1.7-2.4
		C50.6,69.5,50.3,68.7,48.9,68.7z"/>
	<path class="st1" d="M55.6,74.4c-0.8,0-1.8-0.1-2.4-0.3c-0.3-0.1-0.3-0.3-0.3-0.5v-8.2c0-0.2,0.1-0.2,0.2-0.2h0.5
		c0.2,0,0.2,0.1,0.2,0.2v2.8l0,0c0.8-0.3,1.4-0.4,1.8-0.4c2,0,2.5,1.3,2.5,3.2C58.2,73.2,57.7,74.4,55.6,74.4z M55.8,68.7
		c-0.5,0-1.2,0.1-1.9,0.3v4.3c0.5,0.1,1.1,0.1,1.7,0.1c1,0,1.7-0.3,1.7-2.3C57.2,69.4,56.8,68.7,55.8,68.7z"/>
	<path class="st1" d="M63.6,73.6c-0.6,0.4-1.4,0.8-2.4,0.8c-1.3,0-1.8-0.6-1.8-1.8c0-1.5,0.7-2.2,2.4-2.2h1.8V70
		c0-1-0.4-1.3-1.5-1.3c-0.5,0-1.3,0.1-1.8,0.1c-0.2,0-0.2,0-0.3-0.1l-0.1-0.3c0-0.1,0-0.2,0.2-0.3c0.5-0.2,1.5-0.3,2.2-0.3
		c2.1,0,2.3,0.9,2.3,2.3V73c0,0.5,0.1,0.5,0.5,0.6c0.2,0,0.2,0.1,0.2,0.2v0.3c0,0.1-0.1,0.2-0.3,0.2c-0.2,0-0.3,0-0.5,0
		C64,74.3,63.7,74.1,63.6,73.6L63.6,73.6z M63.6,71.2h-1.9c-0.8,0-1.3,0.3-1.3,1.3c0,0.7,0.2,0.9,1,0.9c0.7,0,1.6-0.4,2.2-0.7V71.2z
		"/>
	<path class="st1" d="M70.7,74.1c-0.5,0.2-1.3,0.3-2,0.3c-2.3,0-2.6-1.5-2.6-3.3c0-1.7,0.3-3.2,2.6-3.2c0.5,0,1.4,0.1,2,0.3
		c0.1,0.1,0.1,0.2,0.1,0.3l-0.1,0.3c0,0.1-0.2,0.2-0.3,0.1c-0.5-0.1-1.3-0.1-1.7-0.1c-1.2,0-1.5,0.6-1.5,2.4c0,1.9,0.4,2.4,1.5,2.4
		c0.4,0,1.3-0.1,1.8-0.1c0.2,0,0.3,0,0.3,0.2l0.1,0.3C70.8,73.9,70.8,74,70.7,74.1z"/>
	<path class="st1" d="M76.7,74.3h-0.5c-0.1,0-0.2-0.1-0.2-0.2l0-4c0-1.1-0.2-1.4-1.1-1.4c-0.6,0-1.8,0.5-2.2,0.7v4.6
		c0,0.2-0.1,0.2-0.2,0.2h-0.5c-0.1,0-0.2-0.1-0.2-0.2v-8.7c0-0.2,0.1-0.2,0.2-0.2h0.5c0.2,0,0.2,0.1,0.2,0.2v3.3l0,0
		c0.4-0.3,1.4-0.8,2.3-0.8c1.7,0,1.9,1,1.9,2.4v3.8C76.9,74.2,76.8,74.3,76.7,74.3z"/>
	<path class="st1" d="M81.9,73.9c0,0.1,0,0.2-0.1,0.2c-0.3,0.2-1.1,0.3-1.5,0.3c-1.1,0-1.4-0.5-1.4-1.4v-4.2h-0.7
		c-0.2,0-0.2-0.1-0.2-0.2v-0.4C78,68,78,68,78.2,68h0.7v-1.4c0-0.2,0.1-0.2,0.2-0.2l0.5-0.1c0.1,0,0.2,0,0.2,0.2V68h1.4
		c0.2,0,0.2,0.1,0.2,0.2v0.4c0,0.2,0,0.2-0.2,0.2h-1.4v3.9c0,0.6,0.1,0.8,0.9,0.8c0.1,0,0.6,0,0.8-0.1c0.2,0,0.3,0,0.3,0.2
		L81.9,73.9z"/>
	<path class="st1" d="M87.6,74.3h-0.5c-0.2,0-0.2-0.1-0.2-0.2v-0.5l0,0c-0.4,0.3-1.4,0.8-2.3,0.8c-1.7,0-1.9-1-1.9-2.4v-3.8
		c0-0.2,0.1-0.2,0.2-0.2h0.6c0.1,0,0.2,0.1,0.2,0.2V72c0,1.2,0.3,1.5,1.1,1.5c0.6,0,1.8-0.5,2.2-0.8v-4.6c0-0.2,0.1-0.2,0.2-0.2h0.5
		c0.2,0,0.2,0.1,0.2,0.2v5.9C87.8,74.2,87.7,74.3,87.6,74.3z"/>
	<path class="st1" d="M94.2,74.3h-0.5c-0.1,0-0.2-0.1-0.2-0.2l0-3.8c0-1.2-0.2-1.5-1.1-1.5c-0.6,0-1.8,0.5-2.2,0.7v4.6
		c0,0.2-0.1,0.2-0.2,0.2h-0.5c-0.1,0-0.2-0.1-0.2-0.2v-5.9c0-0.2,0.1-0.2,0.2-0.2H90c0.2,0,0.2,0,0.2,0.2v0.5l0,0
		c0.4-0.3,1.4-0.8,2.3-0.8c1.7,0,1.9,1,1.9,2.4v3.8C94.4,74.2,94.3,74.3,94.2,74.3z"/>
	<path class="st1" d="M100.8,68.1c0.3,0.1,0.3,0.3,0.3,0.5v5.7c0,1.4-0.3,2.4-2.5,2.4c-0.6,0-1.6-0.1-2.1-0.3
		c-0.2-0.1-0.2-0.2-0.1-0.3l0.1-0.3c0-0.2,0.1-0.2,0.3-0.1c0.6,0.1,1.3,0.1,1.8,0.1c1.2,0,1.5-0.4,1.5-1.3V74
		c-0.8,0.3-1.4,0.4-1.8,0.4c-2,0-2.5-1.3-2.5-3.2c0-2.1,0.6-3.3,2.7-3.3C99.2,67.8,100.2,68,100.8,68.1z M98.2,73.5
		c0.5,0,1.2-0.1,1.9-0.3v-4.3c-0.5-0.1-1.1-0.1-1.7-0.1c-0.9,0-1.7,0.3-1.7,2.3C96.8,72.9,97.1,73.5,98.2,73.5z"/>
	<path class="st1" d="M28.2,86.6c-0.6,0.4-1.4,0.8-2.4,0.8c-1.3,0-1.8-0.6-1.8-1.8c0-1.5,0.7-2.2,2.4-2.2h1.8V83
		c0-1-0.4-1.3-1.5-1.3c-0.5,0-1.3,0.1-1.8,0.1c-0.2,0-0.2,0-0.3-0.1l-0.1-0.3c0-0.1,0-0.2,0.2-0.3c0.5-0.2,1.5-0.3,2.2-0.3
		c2.1,0,2.3,0.9,2.3,2.3V86c0,0.5,0.1,0.5,0.5,0.6c0.2,0,0.2,0.1,0.2,0.2v0.3c0,0.1-0.1,0.2-0.3,0.2c-0.2,0-0.3,0-0.5,0
		C28.6,87.3,28.3,87.1,28.2,86.6L28.2,86.6z M28.2,84.2h-1.9c-0.8,0-1.3,0.3-1.3,1.3c0,0.7,0.2,0.9,1,0.9c0.7,0,1.6-0.4,2.2-0.7
		V84.2z"/>
	<path class="st1" d="M35.8,87.3h-0.5c-0.2,0-0.2-0.1-0.2-0.2v-0.5l0,0c-0.4,0.3-1.4,0.8-2.3,0.8c-1.7,0-1.9-1-1.9-2.4v-3.8
		c0-0.2,0.1-0.2,0.2-0.2h0.6c0.1,0,0.2,0.1,0.2,0.2V85c0,1.2,0.3,1.5,1.1,1.5c0.6,0,1.8-0.5,2.2-0.8v-4.6c0-0.2,0.1-0.2,0.2-0.2h0.5
		C36,81,36,81,36,81.2v5.9C36,87.2,36,87.3,35.8,87.3z"/>
	<path class="st1" d="M41.6,78.4c0.1,0.1,0.1,0.2,0.1,0.3L41.7,79c0,0.1-0.2,0.2-0.3,0.1C40.8,79,40.5,79,40.3,79
		c-0.9,0-1.3,0.4-1.3,1.2V81h1.6c0.2,0,0.2,0.1,0.2,0.2v0.4c0,0.2-0.1,0.2-0.2,0.2H39v5.3c0,0.2-0.1,0.2-0.2,0.2h-0.5
		c-0.2,0-0.2-0.1-0.2-0.2v-5.3h-0.6c-0.2,0-0.2-0.1-0.2-0.2v-0.4c0-0.2,0.1-0.2,0.2-0.2H38v-0.7c0-1.3,0.5-2.1,2.1-2.1
		C40.4,78.1,41.1,78.2,41.6,78.4z"/>
	<path class="st1" d="M42,86.4l3.4-4.5h-3.1c-0.2,0-0.2-0.1-0.2-0.2v-0.5c0-0.1,0.1-0.2,0.2-0.2h4c0.1,0,0.2,0,0.2,0.2v0.5
		c0,0.2-0.1,0.3-0.1,0.4l-3.3,4.4h3.3c0.2,0,0.2,0.1,0.2,0.2v0.5c0,0.2-0.1,0.2-0.2,0.2h-4.3c-0.1,0-0.2,0-0.2-0.2v-0.4
		C41.9,86.6,41.9,86.5,42,86.4z"/>
	<path class="st1" d="M52.4,84.4h-3.7c0,1.6,0.5,2.1,1.7,2.1c0.5,0,1.4-0.1,1.8-0.2c0.2,0,0.3,0,0.3,0.2l0.1,0.3
		c0,0.1,0,0.2-0.1,0.3c-0.5,0.2-1.4,0.4-2.1,0.4c-2.4,0-2.7-1.6-2.7-3.3c0-1.3,0.3-3.3,2.6-3.3c2.2,0,2.6,1.4,2.6,2.9
		C53,84.1,52.8,84.4,52.4,84.4z M50.3,81.7c-1.1,0-1.5,0.7-1.6,1.9h3.2C51.9,82.7,51.7,81.7,50.3,81.7z"/>
	<path class="st1" d="M54.9,79.9c-0.5,0-0.6-0.3-0.6-0.6c0-0.3,0.1-0.6,0.6-0.6c0.5,0,0.6,0.2,0.6,0.6
		C55.4,79.6,55.4,79.9,54.9,79.9z M55.2,87.3h-0.5c-0.2,0-0.2-0.1-0.2-0.2v-5.9c0-0.2,0.1-0.2,0.2-0.2h0.5c0.1,0,0.2,0.1,0.2,0.2
		v5.9C55.4,87.2,55.3,87.3,55.2,87.3z"/>
	<path class="st1" d="M61.5,87.1c-0.5,0.2-1.3,0.3-2,0.3c-2.3,0-2.6-1.5-2.6-3.3c0-1.7,0.3-3.2,2.6-3.2c0.5,0,1.4,0.1,2,0.3
		c0.1,0.1,0.1,0.2,0.1,0.3l-0.1,0.3c0,0.1-0.2,0.2-0.3,0.1c-0.5-0.1-1.3-0.1-1.7-0.1c-1.2,0-1.5,0.6-1.5,2.4c0,1.9,0.4,2.4,1.5,2.4
		c0.4,0,1.3-0.1,1.8-0.1c0.2,0,0.3,0,0.3,0.2l0.1,0.3C61.7,86.9,61.6,87,61.5,87.1z"/>
	<path class="st1" d="M67.5,87.3H67c-0.1,0-0.2-0.1-0.2-0.2l0-4c0-1.1-0.2-1.4-1.1-1.4c-0.6,0-1.8,0.5-2.2,0.7v4.6
		c0,0.2-0.1,0.2-0.2,0.2h-0.5c-0.1,0-0.2-0.1-0.2-0.2v-8.7c0-0.2,0.1-0.2,0.2-0.2h0.5c0.2,0,0.2,0.1,0.2,0.2v3.3l0,0
		c0.4-0.3,1.4-0.8,2.3-0.8c1.7,0,1.9,1,1.9,2.4v3.8C67.8,87.2,67.7,87.3,67.5,87.3z"/>
	<path class="st1" d="M74.2,87.3h-0.5c-0.1,0-0.2-0.1-0.2-0.2l0-3.8c0-1.2-0.2-1.5-1.1-1.5c-0.6,0-1.8,0.5-2.2,0.7v4.6
		c0,0.2-0.1,0.2-0.2,0.2h-0.5c-0.1,0-0.2-0.1-0.2-0.2v-5.9c0-0.2,0.1-0.2,0.2-0.2h0.5c0.2,0,0.2,0,0.2,0.2v0.5l0,0
		c0.4-0.3,1.4-0.8,2.3-0.8c1.7,0,1.9,1,1.9,2.4v3.8C74.4,87.2,74.3,87.3,74.2,87.3z"/>
	<path class="st1" d="M80.4,84.4h-3.7c0,1.6,0.5,2.1,1.7,2.1c0.5,0,1.4-0.1,1.8-0.2c0.2,0,0.3,0,0.3,0.2l0.1,0.3
		c0,0.1,0,0.2-0.1,0.3c-0.5,0.2-1.4,0.4-2.1,0.4c-2.4,0-2.7-1.6-2.7-3.3c0-1.3,0.3-3.3,2.6-3.3c2.2,0,2.6,1.4,2.6,2.9
		C81,84.1,80.8,84.4,80.4,84.4z M78.3,81.7c-1.1,0-1.5,0.7-1.6,1.9h3.2C79.9,82.7,79.7,81.7,78.3,81.7z"/>
	<path class="st1" d="M87.1,87.3h-0.5c-0.1,0-0.2-0.1-0.2-0.2l0-3.8c0-1.2-0.2-1.5-1.1-1.5c-0.6,0-1.8,0.5-2.2,0.7v4.6
		c0,0.2-0.1,0.2-0.2,0.2h-0.5c-0.1,0-0.2-0.1-0.2-0.2v-5.9c0-0.2,0.1-0.2,0.2-0.2h0.5c0.2,0,0.2,0,0.2,0.2v0.5l0,0
		c0.4-0.3,1.4-0.8,2.3-0.8c1.7,0,1.9,1,1.9,2.4v3.8C87.3,87.2,87.2,87.3,87.1,87.3z"/>
</g>
</svg>
