<?xml version="1.0" encoding="utf-8"?>
<!-- Generator: Adobe Illustrator 20.1.0, SVG Export Plug-In . SVG Version: 6.00 Build 0)  -->
<svg version="1.1" id="Layer_1" xmlns="http://www.w3.org/2000/svg" xmlns:xlink="http://www.w3.org/1999/xlink" x="0px" y="0px"
	 viewBox="0 0 100 100" style="enable-background:new 0 0 100 100;" xml:space="preserve">
<style type="text/css">
	.st0{fill-rule:evenodd;clip-rule:evenodd;fill:#7065AD;}
	.st1{fill:#FFFFFF;}
</style>
<path class="st0" d="M0,50C0,22.4,22.4,0,50,0s50,22.4,50,50s-22.4,50-50,50S0,77.6,0,50"/>
<path class="st1" d="M36.1,27.9c0.1-0.3-0.2-0.6-0.4-0.4c-1.1,0.7-2.6,1.3-4,1.5c-2.3,0.3-4.6,0.4-6.7,1.3c-2,0.8-4.6,2.7-5.8,5
	c1.5,0.2,3,0.5,4.5,1c0.5-0.4,1-0.7,1.6-0.9c0.9-0.4,2-0.5,2.9-0.8c-1,0.5-2,1-3,1.6c-0.2,0.1-0.5,0.3-0.7,0.5
	c0.8,0.4,1.5,0.8,2.2,1.4c0.8,0.7,1.5,1.5,2.1,2.6c0.3-0.1,0.6-0.2,0.9-0.3c2.3-1.1,3.9-3.6,4.9-6.2C35.3,32.2,35.5,29.9,36.1,27.9"
	/>
<path class="st1" d="M10.2,33.7c-0.3,0-0.5,0.3-0.4,0.6c0.7,2.6,1.1,5.5,2,7.9c1.3,3.3,3.4,6,6.4,7.5c0.7,0.4,1.5,0.6,2.4,0.8
	c2.3,0.5,4.8,0.5,7,1.5c0.2,0.1,0.3,0.1,0.4,0.1c1.4,0-0.2-5-3.9-7.2c-0.7-0.4-1.5-0.9-2.3-1.3c-0.1-0.1-0.1-0.3,0.1-0.3
	c0,0,0,0,0,0c0.7,0.2,1.3,0.5,2,0.7c2.4,1,4.4,2.6,5.5,5.4c0.9,2.4,1.3,5.3,0.7,7.8c-0.1,0.4,0.3,0.6,0.5,0.4
	c0.2-0.2,0.2-0.5,0.3-0.8c0.3-1.1,0.3-2.3,0.3-3.5c0.1-2.9-0.3-5.7-1.1-8.5c-0.5-1.5-1-2.9-1.8-4.2c-0.5-0.8-1.1-1.5-1.8-2.1
	c-0.8-0.6-1.6-1.1-2.4-1.5c-0.3-0.1-0.6-0.2-0.9-0.3c-1.3-0.5-2.7-0.7-4.1-0.9c-2.9-0.4-5.9-0.6-8.4-2.2
	C10.3,33.7,10.2,33.7,10.2,33.7"/>
<path class="st1" d="M30.1,51.8c-1.7,1-1.9,1-1.9,1c0,0,0.4,0.7,3.8,1c3.5,0.3,4,3.7,4,3.7c1.3,8.3,6.4,9.8,10.7,10.7
	c4.4,0.9,18.1-0.1,18.1-0.1c3.4,0.1,7.3,5.2,12.1,5.9c4.8,0.6,5.3,0,10.3-3.5c5-3.5-0.6-5.3-5.3-6.1c-4.7-0.7-17.7-3.5-17.7-3.5
	s4.4-2.4,5.3-3.5C75.9,49.8,75.3,51,82,47c6.7-4,5.8-9.3,5.8-9.3s-5.5,3.2-10.5,4c-4.6,0.8-8.4,0-10.3,0.2c-2.9,0.3-4.4,1-5.4,1.7
	c-3.8,2.5-3.7,4.9-3.7,4.9s-1-5.6,9.7-7.4c0.8-0.1,1.7-0.4,2.5-0.8c1.3-0.8,2.8-2,4.3-3.8c3.6-4.2,0.5-10.3,0.5-10.3
	c-0.4,4.9-14.4,10.5-21.7,13.1c-7.2,2.7-7.1,14.2-7.1,14.2s-2.8-0.3-6.8-2.9C35.2,48.2,32.2,50.6,30.1,51.8"/>
</svg>
