<?xml version="1.0" encoding="UTF-8" standalone="no"?>
<!-- Generator: Adobe Illustrator 19.1.0, SVG Export Plug-In . SVG Version: 6.00 Build 0)  -->

<svg
   xmlns:dc="http://purl.org/dc/elements/1.1/"
   xmlns:cc="http://creativecommons.org/ns#"
   xmlns:rdf="http://www.w3.org/1999/02/22-rdf-syntax-ns#"
   xmlns:svg="http://www.w3.org/2000/svg"
   xmlns="http://www.w3.org/2000/svg"
   xmlns:sodipodi="http://sodipodi.sourceforge.net/DTD/sodipodi-0.dtd"
   xmlns:inkscape="http://www.inkscape.org/namespaces/inkscape"
   version="1.1"
   id="Layer_1"
   x="0px"
   y="0px"
   viewBox="-239.3 378.8 84.2 84.2"
   style="enable-background:new -239.3 378.8 84.2 84.2;"
   xml:space="preserve"
   sodipodi:docname="emoticon-active.svg"
   inkscape:version="0.92.2 5c3e80d, 2017-08-06"><metadata
     id="metadata11"><rdf:RDF><cc:Work
         rdf:about=""><dc:format>image/svg+xml</dc:format><dc:type
           rdf:resource="http://purl.org/dc/dcmitype/StillImage" /></cc:Work></rdf:RDF></metadata><defs
     id="defs9" /><sodipodi:namedview
     pagecolor="#ffffff"
     bordercolor="#666666"
     borderopacity="1"
     objecttolerance="10"
     gridtolerance="10"
     guidetolerance="10"
     inkscape:pageopacity="0"
     inkscape:pageshadow="2"
     inkscape:window-width="1823"
     inkscape:window-height="1102"
     id="namedview7"
     showgrid="false"
     inkscape:zoom="2.8028505"
     inkscape:cx="-29.255931"
     inkscape:cy="42.099998"
     inkscape:window-x="0"
     inkscape:window-y="0"
     inkscape:window-maximized="0"
     inkscape:current-layer="Layer_1" /><style
     type="text/css"
     id="style2">
	.st0{fill:#27393D;}
</style><path
     class="st0"
     d="M-197.2,378.8c-23.2,0-42.1,18.9-42.1,42.1c0,23.2,18.9,42.1,42.1,42.1s42.1-18.9,42.1-42.1  C-155.1,397.7-174.1,378.8-197.2,378.8z M-197.2,458c-20.4,0-37.1-16.6-37.1-37.1s16.6-37.1,37.1-37.1c20.4,0,37.1,16.6,37.1,37.1  S-176.8,458-197.2,458z M-176.6,425.2h-41.3c-1.1,0-2,0.9-2,2c0,14.8,11.4,22.6,22.6,22.6s22.6-7.8,22.6-22.6  C-174.6,426.1-175.5,425.2-176.6,425.2z M-197.2,445.8c-8.5,0-17.6-5.2-18.6-16.6h37.1C-179.6,440.6-188.8,445.8-197.2,445.8z   M-210.7,414c1.8,0,3.3-1.5,3.3-3.3c0-1.8-1.5-3.3-3.3-3.3c-1.8,0-3.3,1.5-3.3,3.3C-214,412.5-212.5,414-210.7,414z M-184.3,414  c1.8,0,3.3-1.5,3.3-3.3c0-1.8-1.5-3.3-3.3-3.3s-3.3,1.5-3.3,3.3C-187.6,412.5-186.1,414-184.3,414z"
     id="path4"
     style="fill:#fbb52a;fill-opacity:1" /></svg>