<?xml version="1.0" encoding="utf-8"?>
<!-- Generator: Adobe Illustrator 20.1.0, SVG Export Plug-In . SVG Version: 6.00 Build 0)  -->
<svg version="1.1" id="Layer_1" xmlns="http://www.w3.org/2000/svg" xmlns:xlink="http://www.w3.org/1999/xlink" x="0px" y="0px"
	 viewBox="0 0 100 100" style="enable-background:new 0 0 100 100;" xml:space="preserve">
<style type="text/css">
	.st0{fill:#999999;}
</style>
<path class="st0" d="M50,14.4c-19.6,0-35.6,16-35.6,35.6c0,19.6,16,35.6,35.6,35.6c19.6,0,35.6-16,35.6-35.6
	C85.6,30.4,69.6,14.4,50,14.4 M59,33.9c2.5,0,4.5,2,4.5,4.5c0,2.5-2,4.5-4.5,4.5c-2.5,0-4.5-2-4.5-4.5C54.5,35.9,56.5,33.9,59,33.9
	 M40.4,33.9c2.5,0,4.5,2,4.5,4.5c0,2.5-2,4.5-4.5,4.5c-2.5,0-4.5-2-4.5-4.5C35.9,35.9,37.9,33.9,40.4,33.9 M69.2,60.8
	c-5.2,4.7-12,7.4-19.1,7.4c-7.1,0-13.9-2.6-19.2-7.4c-0.9-0.8-1-2.2-0.2-3.2c0.8-0.9,2.2-1,3.1-0.2c4.4,4,10.2,6.2,16.2,6.2
	c6,0,11.7-2.2,16.1-6.2c0.9-0.8,2.3-0.8,3.2,0.2C70.2,58.5,70.1,59.9,69.2,60.8"/>
<path class="st0" d="M50,0.5C22.7,0.5,0.5,22.7,0.5,50c0,27.3,22.1,49.5,49.5,49.5S99.5,77.3,99.5,50C99.5,22.7,77.3,0.5,50,0.5
	 M50,88.6c-21.3,0-38.6-17.3-38.6-38.6c0-21.3,17.3-38.6,38.6-38.6c21.3,0,38.6,17.3,38.6,38.6C88.6,71.3,71.3,88.6,50,88.6"/>
</svg>
