<?xml version="1.0" encoding="UTF-8" standalone="no"?>
<!-- Generator: Adobe Illustrator 19.1.0, SVG Export Plug-In . SVG Version: 6.00 Build 0)  -->

<svg
   xmlns:dc="http://purl.org/dc/elements/1.1/"
   xmlns:cc="http://creativecommons.org/ns#"
   xmlns:rdf="http://www.w3.org/1999/02/22-rdf-syntax-ns#"
   xmlns:svg="http://www.w3.org/2000/svg"
   xmlns="http://www.w3.org/2000/svg"
   xmlns:sodipodi="http://sodipodi.sourceforge.net/DTD/sodipodi-0.dtd"
   xmlns:inkscape="http://www.inkscape.org/namespaces/inkscape"
   version="1.1"
   id="Layer_1"
   x="0px"
   y="0px"
   viewBox="-240 15.3 360 565"
   style="enable-background:new -240 15.3 360 565;"
   xml:space="preserve"
   sodipodi:docname="noimg3_hu.svg"
   inkscape:version="0.92.2 5c3e80d, 2017-08-06"><metadata
     id="metadata1201"><rdf:RDF><cc:Work
         rdf:about=""><dc:format>image/svg+xml</dc:format><dc:type
           rdf:resource="http://purl.org/dc/dcmitype/StillImage" /><dc:title /></cc:Work></rdf:RDF></metadata><defs
     id="defs1199" /><sodipodi:namedview
     pagecolor="#ffffff"
     bordercolor="#666666"
     borderopacity="1"
     objecttolerance="10"
     gridtolerance="10"
     guidetolerance="10"
     inkscape:pageopacity="0"
     inkscape:pageshadow="2"
     inkscape:window-width="1201"
     inkscape:window-height="1169"
     id="namedview1197"
     showgrid="false"
     inkscape:zoom="1"
     inkscape:cx="107.08736"
     inkscape:cy="282.5"
     inkscape:window-x="0"
     inkscape:window-y="1"
     inkscape:window-maximized="0"
     inkscape:current-layer="Layer_1"
     inkscape:pagecheckerboard="true" /><style
     type="text/css"
     id="style1028">
	.st0{clip-path:url(#SVGID_2_);}
	.st1{clip-path:url(#SVGID_4_);fill:url(#SVGID_5_);}
	.st2{clip-path:url(#SVGID_7_);}
	.st3{clip-path:url(#SVGID_9_);}
	.st4{opacity:0.5;}
	.st5{clip-path:url(#SVGID_11_);}
	.st6{clip-path:url(#SVGID_13_);fill:url(#SVGID_14_);}
	.st7{clip-path:url(#SVGID_16_);}
	.st8{clip-path:url(#SVGID_18_);}
	.st9{clip-path:url(#SVGID_20_);fill:url(#SVGID_21_);}
	.st10{opacity:0.42;}
	.st11{clip-path:url(#SVGID_23_);}
	.st12{clip-path:url(#SVGID_25_);fill:url(#SVGID_26_);}
	.st13{fill:#FFFFFF;stroke:#000000;stroke-miterlimit:10;}
	.st14{fill:none;stroke:#000000;stroke-width:5;stroke-miterlimit:10;}
</style><path
     style="fill:#ffffff;stroke:#000000;stroke-miterlimit:10"
     d="m 10,297.60001 a 69,68 0 0 1 -69,68 69,68 0 0 1 -69,-68 69,68 0 0 1 69,-68 69,68 0 0 1 69,68 z"
     id="ellipse1180" /><g
     id="g1186"><g
       id="g1184"><path
         d="m -21.3,270.7 h -73 c -0.7,0 -1.5,0.5 -1.5,1.3 v 51.4 c 0,0.7 0.7,1.4 1.5,1.4 h 73 c 0.7,0 1.2,-0.7 1.2,-1.4 V 272 c 0,-0.8 -0.5,-1.3 -1.2,-1.3 z m -1.5,51.4 h -70.3 v -6.3 l 23.1,-23 20.7,20.7 c 0.5,0.5 1.4,0.5 1.9,0 l 12.6,-12.6 12.1,10.9 z m 0,-13.9 L -34,298 c -0.5,-0.5 -1.3,-0.5 -1.8,0 L -48.3,310.6 -69.1,290 c -0.5,-0.5 -1.4,-0.5 -2,0 l -22.1,22 v -38.6 h 70.3 z"
         id="path1182"
         inkscape:connector-curvature="0" /></g></g><g
     id="g1192"><g
       id="g1190"><path
         d="m -45.7,280.1 c -4.5,0 -8.1,3.6 -8.1,8.1 0,4.5 3.6,8.1 8.1,8.1 4.5,0 8.1,-3.6 8.1,-8.1 0,-4.5 -3.6,-8.1 -8.1,-8.1 z m 0,13.5 c -3,0 -5.4,-2.4 -5.4,-5.4 0,-3 2.4,-5.4 5.4,-5.4 3,0 5.4,2.4 5.4,5.4 0,3 -2.4,5.4 -5.4,5.4 z"
         id="path1188"
         inkscape:connector-curvature="0" /></g></g><path
     style="fill:none;stroke:#000000;stroke-width:5;stroke-miterlimit:10"
     d="M -22.799999,249.2 -80,347.60001"
     id="line1194" /><g
     aria-label="Nincs internetkapcsolat
"
     transform="translate(-112.04745,-17.271178)"
     style="font-style:normal;font-variant:normal;font-weight:normal;font-stretch:normal;font-size:24px;line-height:1.25;font-family:KonsensMedium;-inkscape-font-specification:'KonsensMedium, Normal';font-variant-ligatures:normal;font-variant-caps:normal;font-variant-numeric:normal;font-feature-settings:normal;text-align:center;letter-spacing:0px;word-spacing:0px;writing-mode:lr-tb;text-anchor:middle;opacity:1;fill:#ffffff;fill-opacity:1;stroke:none"
     id="flowRoot1203"><path
       d="m -72.529555,419.3155 h -3.48 l -8.064,-14.4 v 14.4 h -2.472 v -17.856 h 3.528 l 8.016,14.424 v -14.424 h 2.472 z"
       style=""
       id="path830" /><path
       d="m -66.426805,419.3155 h -2.472 v -12.624 h 2.472 z m 0.168,-16.752 v 0.504 q 0,0.552 -0.408,0.888 -0.384,0.336 -0.984,0.336 -0.648,0 -1.032,-0.312 -0.384,-0.336 -0.384,-0.912 v -0.504 q 0,-0.576 0.384,-0.888 0.384,-0.336 1.032,-0.336 0.6,0 0.984,0.336 0.408,0.336 0.408,0.888 z"
       style=""
       id="path832" /><path
       d="m -52.21993,419.3155 h -2.448 v -8.424 q 0,-0.912 -0.504,-1.488 -0.48,-0.6 -1.368,-0.6 -0.816,0 -1.896,0.624 l -2.064,1.224 v 8.664 h -2.4 v -12.624 h 2.376 v 1.656 l 1.44,-0.888 q 1.416,-0.888 3,-0.888 1.776,0 2.808,1.104 1.056,1.104 1.056,2.928 z"
       style=""
       id="path834" /><path
       d="m -38.564305,414.6355 v 0.192 q 0,2.256 -1.44,3.48 -1.44,1.224 -3.912,1.224 -2.4,0 -3.864,-1.296 -1.44,-1.32 -1.44,-3.624 v -3.192 q 0,-2.28 1.44,-3.576 1.464,-1.32 3.864,-1.32 2.472,0 3.912,1.224 1.44,1.2 1.44,3.456 v 0.192 h -2.352 q 0,-2.736 -3,-2.736 -2.904,0 -2.904,2.976 v 2.76 q 0,2.976 2.904,2.976 3,0 3,-2.736 z"
       style=""
       id="path836" /><path
       d="m -25.44493,410.7235 h -2.4 q 0,-2.16 -2.832,-2.16 -1.344,0 -2.064,0.48 -0.696,0.48 -0.696,1.272 0,0.744 0.6,1.152 0.6,0.408 1.488,0.504 0.888,0.096 1.92,0.288 1.056,0.192 1.944,0.456 0.888,0.24 1.488,0.984 0.6,0.744 0.6,1.944 0,1.776 -1.416,2.832 -1.416,1.032 -3.888,1.032 -2.496,0 -3.936,-1.128 -1.416,-1.128 -1.416,-2.976 v -0.12 h 2.472 q 0,2.184 2.928,2.184 1.392,0 2.136,-0.456 0.768,-0.48 0.768,-1.272 0,-0.792 -0.84,-1.152 -0.816,-0.36 -1.992,-0.504 -1.176,-0.144 -2.376,-0.384 -1.176,-0.24 -2.016,-1.056 -0.816,-0.84 -0.816,-2.28 0,-1.776 1.368,-2.808 1.392,-1.032 3.792,-1.032 2.472,0 3.816,1.128 1.368,1.104 1.368,2.976 z"
       style=""
       id="path838" /><path
       d="m -12.989305,419.3155 h -2.472 v -12.624 h 2.472 z m 0.168,-16.752 v 0.504 q 0,0.552 -0.408,0.888 -0.384,0.336 -0.984,0.336 -0.648,0 -1.032,-0.312 -0.384,-0.336 -0.384,-0.912 v -0.504 q 0,-0.576 0.384,-0.888 0.384,-0.336 1.032,-0.336 0.6,0 0.984,0.336 0.408,0.336 0.408,0.888 z"
       style=""
       id="path840" /><path
       d="m 1.2175703,419.3155 h -2.448 v -8.424 q 0,-0.912 -0.504,-1.488 -0.48,-0.6 -1.368,-0.6 -0.816,0 -1.896,0.624 l -2.064,1.224 v 8.664 h -2.4 v -12.624 h 2.376 v 1.656 l 1.44,-0.888 q 1.416,-0.888 3,-0.888 1.77600001,0 2.80800001,1.104 1.05599999,1.104 1.05599999,2.928 z"
       style=""
       id="path842" /><path
       d="m 11.609195,419.3155 h -1.584 q -2.1599997,0 -3.4079997,-1.104 -1.248,-1.104 -1.248,-3.216 v -6.192 h -2.016 v -2.112 h 2.04 v -3.408 h 2.448 v 3.408 h 3.6719997 v 2.112 H 7.8411953 v 6.072 q 0,1.248 0.552,1.776 0.576,0.504 1.7759997,0.504 h 1.44 z"
       style=""
       id="path844" /><path
       d="m 24.675695,415.3075 v 0.12 q 0,1.848 -1.464,2.976 -1.464,1.128 -3.912,1.128 -2.448,0 -3.984,-1.272 -1.536,-1.296 -1.536,-3.528 v -3.024 q 0,-2.352 1.536,-3.768 1.536,-1.416 3.96,-1.416 2.424,0 3.936,1.416 1.512,1.392 1.512,3.792 v 2.136 h -8.616 v 0.72 q 0,1.416 0.864,2.16 0.888,0.72 2.328,0.72 3.048,0 3.048,-2.16 z m -2.256,-3.24 v -0.384 q 0,-1.488 -0.84,-2.28 -0.816,-0.816 -2.304,-0.816 -1.488,0 -2.328,0.816 -0.84,0.816 -0.84,2.304 v 0.36 z"
       style=""
       id="path846" /><path
       d="m 30.29807,419.3155 h -2.448 v -12.624 h 2.4 v 1.92 l 0.576,-0.576 q 1.512,-1.392 3.288,-1.392 h 0.648 v 2.496 h -0.624 q -1.632,0 -2.784,0.96 l -1.056,0.864 z"
       style=""
       id="path848" /><path
       d="m 47.53007,419.3155 h -2.448 v -8.424 q 0,-0.912 -0.504,-1.488 -0.48,-0.6 -1.368,-0.6 -0.816,0 -1.896,0.624 l -2.064,1.224 v 8.664 h -2.4 v -12.624 h 2.376 v 1.656 l 1.44,-0.888 q 1.416,-0.888 3,-0.888 1.776,0 2.808,1.104 1.056,1.104 1.056,2.928 z"
       style=""
       id="path850" /><path
       d="m 61.425695,415.3075 v 0.12 q 0,1.848 -1.464,2.976 -1.464,1.128 -3.912,1.128 -2.448,0 -3.984,-1.272 -1.536,-1.296 -1.536,-3.528 v -3.024 q 0,-2.352 1.536,-3.768 1.536,-1.416 3.96,-1.416 2.424,0 3.936,1.416 1.512,1.392 1.512,3.792 v 2.136 h -8.616 v 0.72 q 0,1.416 0.864,2.16 0.888,0.72 2.328,0.72 3.048,0 3.048,-2.16 z m -2.256,-3.24 v -0.384 q 0,-1.488 -0.84,-2.28 -0.816,-0.816 -2.304,-0.816 -1.488,0 -2.328,0.816 -0.84,0.816 -0.84,2.304 v 0.36 z"
       style=""
       id="path852" /><path
       d="m 71.65607,419.3155 h -1.584 q -2.16,0 -3.408,-1.104 -1.248,-1.104 -1.248,-3.216 v -6.192 h -2.016 v -2.112 h 2.04 v -3.408 h 2.448 v 3.408 h 3.672 v 2.112 h -3.672 v 6.072 q 0,1.248 0.552,1.776 0.576,0.504 1.776,0.504 h 1.44 z"
       style=""
       id="path854" /><path
       d="m 85.65857,419.3155 h -2.784 l -3.6,-6.36 -2.712,2.832 v 3.528 h -2.4 v -17.856 h 2.4 v 11.376 l 5.664,-6.144 h 3.192 l -4.344,4.512 z"
       style=""
       id="path856" /><path
       d="m 95.867195,415.5955 v -1.608 h -3.768 q -2.4,0 -2.4,1.824 0,0.744 0.432,1.176 0.432,0.408 1.224,0.408 1.176,0 2.448,-0.696 z m 2.4,3.72 h -2.4 v -1.632 l -1.392,0.768 q -1.872,1.008 -3.528,1.008 -1.656,0 -2.688,-0.984 -1.008,-0.984 -1.008,-2.568 0,-1.848 1.272,-2.832 1.296,-0.984 3.312,-0.984 h 4.056 v -0.792 q 0,-2.76 -2.904,-2.76 -3.072,0 -3.072,2.472 h -2.376 v -0.12 q 0,-2.064 1.488,-3.24 1.512,-1.176 3.936,-1.176 2.496,0 3.888,1.248 1.416,1.224 1.416,3.456 z"
       style=""
       id="path858" /><path
       d="m 110.2987,414.8995 v -3.816 q 0,-1.056 -0.6,-1.68 -0.6,-0.648 -1.608,-0.648 -1.008,0 -1.992,0.552 l -2.232,1.248 v 4.872 l 2.232,1.248 q 0.984,0.552 1.992,0.552 1.008,0 1.608,-0.624 0.6,-0.648 0.6,-1.704 z m -6.432,8.832 h -2.376 v -17.04 h 2.352 v 1.536 l 1.56,-0.864 q 1.44,-0.816 3,-0.816 1.896,0 3.072,1.176 1.2,1.176 1.2,3.072 v 4.32 q 0,1.896 -1.2,3.12 -1.2,1.2 -3.096,1.2 -1.536,0 -2.976,-0.816 l -1.536,-0.864 z"
       style=""
       id="path860" /><path
       d="m 126.15445,414.6355 v 0.192 q 0,2.256 -1.44,3.48 -1.44,1.224 -3.912,1.224 -2.4,0 -3.864,-1.296 -1.44,-1.32 -1.44,-3.624 v -3.192 q 0,-2.28 1.44,-3.576 1.464,-1.32 3.864,-1.32 2.472,0 3.912,1.224 1.44,1.2 1.44,3.456 v 0.192 h -2.352 q 0,-2.736 -3,-2.736 -2.904,0 -2.904,2.976 v 2.76 q 0,2.976 2.904,2.976 3,0 3,-2.736 z"
       style=""
       id="path862" /><path
       d="m 139.27382,410.7235 h -2.4 q 0,-2.16 -2.832,-2.16 -1.344,0 -2.064,0.48 -0.696,0.48 -0.696,1.272 0,0.744 0.6,1.152 0.6,0.408 1.488,0.504 0.888,0.096 1.92,0.288 1.056,0.192 1.944,0.456 0.888,0.24 1.488,0.984 0.6,0.744 0.6,1.944 0,1.776 -1.416,2.832 -1.416,1.032 -3.888,1.032 -2.496,0 -3.936,-1.128 -1.416,-1.128 -1.416,-2.976 v -0.12 h 2.472 q 0,2.184 2.928,2.184 1.392,0 2.136,-0.456 0.768,-0.48 0.768,-1.272 0,-0.792 -0.84,-1.152 -0.816,-0.36 -1.992,-0.504 -1.176,-0.144 -2.376,-0.384 -1.176,-0.24 -2.016,-1.056 -0.816,-0.84 -0.816,-2.28 0,-1.776 1.368,-2.808 1.392,-1.032 3.792,-1.032 2.472,0 3.816,1.128 1.368,1.104 1.368,2.976 z"
       style=""
       id="path864" /><path
       d="m 150.81595,414.1555 v -2.232 q 0,-1.536 -0.912,-2.4 -0.888,-0.864 -2.352,-0.864 -1.488,0 -2.376,0.864 -0.888,0.864 -0.888,2.4 v 2.232 q 0,1.536 0.888,2.424 0.888,0.864 2.376,0.864 1.464,0 2.352,-0.864 0.912,-0.864 0.912,-2.424 z m 2.352,-2.448 v 2.688 q 0,2.352 -1.584,3.768 -1.56,1.416 -4.032,1.416 -2.472,0 -4.056,-1.416 -1.56,-1.416 -1.56,-3.768 v -2.688 q 0,-2.352 1.56,-3.768 1.584,-1.416 4.056,-1.416 2.472,0 4.032,1.416 1.584,1.416 1.584,3.768 z"
       style=""
       id="path866" /><path
       d="m 158.75957,419.3155 h -2.472 v -17.856 h 2.472 z"
       style=""
       id="path868" /><path
       d="m 170.25782,415.5955 v -1.608 h -3.768 q -2.4,0 -2.4,1.824 0,0.744 0.432,1.176 0.432,0.408 1.224,0.408 1.176,0 2.448,-0.696 z m 2.4,3.72 h -2.4 v -1.632 l -1.392,0.768 q -1.872,1.008 -3.528,1.008 -1.656,0 -2.688,-0.984 -1.008,-0.984 -1.008,-2.568 0,-1.848 1.272,-2.832 1.296,-0.984 3.312,-0.984 h 4.056 v -0.792 q 0,-2.76 -2.904,-2.76 -3.072,0 -3.072,2.472 h -2.376 v -0.12 q 0,-2.064 1.488,-3.24 1.512,-1.176 3.936,-1.176 2.496,0 3.888,1.248 1.416,1.224 1.416,3.456 z"
       style=""
       id="path870" /><path
       d="m 182.93732,419.3155 h -1.584 q -2.16,0 -3.408,-1.104 -1.248,-1.104 -1.248,-3.216 v -6.192 h -2.016 v -2.112 h 2.04 v -3.408 h 2.448 v 3.408 h 3.672 v 2.112 h -3.672 v 6.072 q 0,1.248 0.552,1.776 0.576,0.504 1.776,0.504 h 1.44 z"
       style=""
       id="path872" /></g></svg>