<?xml version="1.0" encoding="utf-8"?>
<!-- Generator: Adobe Illustrator 20.1.0, SVG Export Plug-In . SVG Version: 6.00 Build 0)  -->
<svg version="1.1" id="Layer_1" xmlns="http://www.w3.org/2000/svg" xmlns:xlink="http://www.w3.org/1999/xlink" x="0px" y="0px"
	 viewBox="0 0 100 100" style="enable-background:new 0 0 100 100;" xml:space="preserve">
<style type="text/css">
	.st0{fill:#0690CF;stroke:#FFFFFF;stroke-miterlimit:10;}
</style>
<path class="st0" d="M50,20.1c-7.2,0-13.1,5.9-13.1,13.1S42.8,46.3,50,46.3s13.1-5.9,13.1-13.1S57.2,20.1,50,20.1z M53.2,98
	c2.1-23.6,28-44.8,28-65.4C81.2,15.7,67.3,2,50,2S18.8,15.7,18.8,32.6C18.8,53.2,45,74.4,47,98H53.2z M50,12.1
	c11.7,0,21.1,9.5,21.1,21.1c0,11.7-9.5,21.1-21.1,21.1s-21.1-9.5-21.1-21.1S38.3,12.1,50,12.1z"/>
</svg>
