<?xml version="1.0" encoding="utf-8"?>
<!-- Generator: Adobe Illustrator 19.1.0, SVG Export Plug-In . SVG Version: 6.00 Build 0)  -->
<svg version="1.1" id="Layer_1" xmlns="http://www.w3.org/2000/svg" xmlns:xlink="http://www.w3.org/1999/xlink" x="0px" y="0px"
	 viewBox="0 0 109.8 109.8" style="enable-background:new 0 0 109.8 109.8;" xml:space="preserve">
<style type="text/css">
	.st0{fill:#D4A4A2;}
	.st1{fill:#FFFFFF;}
	.st2{fill:#553F19;}
	.st3{fill:#FBB430;}
	.st4{enable-background:new    ;}
	.st5{fill:#707C7F;}
	.st6{fill:#623949;}
	.st7{fill:#FAFBFC;}
	.st8{fill:none;}
	.st9{fill:#786B2B;}
</style>
<circle class="st6" cx="54.9" cy="55.2" r="54.9"/>
<g>
	<g>
		<polygon class="st7" points="66.5,25.4 66.5,25.8 66,25.9 65.9,26.6 66.5,26.6 67.4,26.6 67.8,26 67.4,25.9 67.1,25.6 66.7,24.9 
			66.5,24 65.8,24.2 65.6,24.5 65.6,24.8 66,25.1 		"/>
		<polygon class="st7" points="65.8,25.7 65.9,25.2 65.4,25 64.8,25.2 64.4,25.9 64.4,26.4 64.9,26.4 		"/>
		<path class="st7" d="M53.5,27.7L53.4,28h-0.6v0.3H53c0,0,0,0.1,0,0.2h0.4l0.2-0.2l0.1-0.3H54l0.1-0.3l-0.3-0.1L53.5,27.7z"/>
		<polygon class="st7" points="51.8,28.3 51.8,28.7 52.3,28.6 52.3,28.3 52,28.1 		"/>
		<path class="st7" d="M79.6,38.7c0-0.7,0-1.4-0.1-2.1c-0.2-2.3-0.8-4.5-1.6-6.6c-0.1-0.2-0.1-0.3-0.2-0.5c-1.1-2.6-2.7-5-4.6-7
			c-0.1-0.1-0.3-0.3-0.4-0.4c-0.4-0.4-0.7-0.7-1.1-1.1c-4.3-3.9-10.1-6.3-16.4-6.3s-12.1,2.4-16.5,6.4c-1,0.9-1.9,1.9-2.8,3
			c-3,4.1-4.9,9.2-4.9,14.8c0,13.4,10.9,24.3,24.3,24.3c9.4,0,17.6-5.4,21.6-13.3c0.9-1.7,1.5-3.5,2-5.4c0.1-0.5,0.2-1,0.3-1.4
			c0.2-1.4,0.4-2.8,0.4-4.2C79.6,38.8,79.6,38.7,79.6,38.7z M75.1,28.9l0.1-0.2c0.2,0.4,0.4,0.7,0.5,1.1h-0.2l-0.4,0.1V28.9z
			 M71.6,24.7v-1.1c0.4,0.4,0.8,0.8,1.1,1.3l-0.4,0.7h-1.5l-0.1-0.3L71.6,24.7z M42.2,22L42.2,22h0.5v-0.2h0.8v0.3l-0.2,0.3h-1.1V22
			L42.2,22z M43,23.1l0.5-0.1v0.5l-1.1,0.1l-0.2-0.3L43,23.1z M76.6,32.7h-1.8l-1.1-0.8L72.6,32v0.7h-0.4l-0.4-0.3l-2-0.5v-1.3
			l-2.5,0.2l-0.7,0.5h-1h-0.5L63.9,32v1.3l-2.5,1.8l0.2,0.8h0.5L62,36.4l-0.4,0.1v1.9l2.1,2.4h0.9l0.1-0.1h1.7l0.5-0.4h0.9l0.5,0.5
			l1.4,0.1l-0.2,1.9l1.6,2.8l-0.8,1.6l0.1,0.7l0.6,0.6v1.8l0.9,1.1v1.5h0.7c-4.1,5-10.3,8.2-17.3,8.2C43,61.2,33,51.2,33,38.9
			c0-3.1,0.6-6,1.8-8.7v-0.7l0.8-1c0.3-0.5,0.6-1,0.9-1.5v0.4l-0.9,1.1c-0.3,0.5-0.6,1.1-0.8,1.7v1.3l0.9,0.4v1.8l0.9,1.5l0.7,0.1
			l0.1-0.5l-0.9-1.3l-0.2-1.3h0.5l0.2,1.3l1.2,1.8L38,35.9l0.8,1.2l1.9,0.5v-0.3l0.8,0.1L41.4,38l0.6,0.1l1,0.2l1.3,1.5l1.7,0.1
			l0.2,1.4L45,42.1v1.3l-0.2,0.8l1.7,2.1l0.1,0.7c0,0,0.6,0.2,0.7,0.2c0.1,0,1.4,1,1.4,1V52l0.5,0.1l-0.3,1.8l0.8,1l-0.1,1.7l1,1.8
			l1.3,1.2h1.3l0.1-0.4l-1-0.8l0.1-0.4l0.2-0.5V57h-0.7l-0.3-0.4l0.5-0.5l0.1-0.4l-0.6-0.2v-0.4l0.9-0.1l1.3-0.6l0.4-0.8l1.4-1.8
			l-0.2-1.5l0.4-0.7h1.3l0.9-0.7l0.3-2.7l1-1.2l0.2-0.8l-0.9-0.3L58,43h-2l-1.6-0.6l-0.1-1.1l-0.5-1h-1.4L51.6,39l-0.7-0.4V39
			l-1.3,0.1L49,38.5l-1.4-0.3l-1.1,1.3l-1.8-0.3l-0.1-2L43.3,37l0.5-1l-0.1-0.6L42,36.6l-1.1-0.1l-0.4-0.8l0.2-0.9l0.6-1.1l1.4-0.7
			h2.6v0.8l0.9,0.4l-0.1-1.4l0.7-0.7l1.4-0.9l0.1-0.6l1.4-1.4l1.5-0.8L51,28.3l1-0.9l0.4,0.1l0.2,0.2l0.4-0.4h0.1l-0.4-0.1l-0.4-0.1
			v-0.4l0.2-0.2H53l0.2,0.1l0.2,0.4h0.2l0,0h0.1l0.7-0.1l0.1-0.3l0.4,0.1v0.4l-0.4,0.2l0,0l0.1,0.4l1.2,0.4l0,0h0.3v-0.5l-1-0.4
			L55,26.6l0.8-0.3v-0.8L55,25.1l-0.1-1.3l-1.1,0.5h-0.4l0.1-1l-1.6-0.4l-0.7,0.5v1.5L50,25.3l-0.5,1L49,26.4v-1.3l-1.1-0.2
			l-0.6-0.4l-0.2-0.8l2-1.2l1-0.3l0.1,0.7h0.5v-0.3l0.6-0.1v-0.1l-0.2-0.1L51,22l0.7-0.1l0.4-0.4l0,0l0,0l0.1-0.1l1.5-0.2l0.6,0.5
			l-1.7,0.9l2.2,0.5l0.3-0.7H56l0.3-0.6l-0.7-0.2v-0.8l-2.1-0.9l-1.4,0.2l-0.8,0.4l0.1,1l-0.9-0.1l-0.1-0.6l0.8-0.7L49.7,20
			l-0.4,0.1l-0.2,0.5l0.6,0.1l0,0.6h-1l-0.1,0.4h-1.4c0,0,0-0.8-0.1-0.8s1.1,0,1.1,0l0.8-0.8l-0.4-0.2L48,20.5l-1-0.1l-0.6-0.8h-1.3
			l-1.3,1H45l0.1,0.4l-0.3,0.3h1.3l0.2,0.5l-1.5-0.1v-0.4l-0.9-0.2l-0.5-0.3h-1.1c3.7-2.7,8.2-4.3,13.1-4.3c5.6,0,10.8,2.1,14.7,5.6
			l-0.3,0.5l-1,0.4l-0.4,0.5l0.1,0.5l0.5,0.1l0.3,0.8l0.9-0.4l0.2,1.1h-0.3l-0.8-0.1l-0.8,0.1l-0.8,1.1l-1.2,0.2l-0.2,1l0.5,0.1
			l-0.1,0.6l-1.1-0.2l-1.1,0.2l-0.2,0.7l0.2,1.2l0.6,0.3h1l0.7-0.1l0.2-0.6l1.1-1.4l0.7,0.1l0.7-0.6l0.1,0.5l1.7,1.2l-0.1,0.4h-0.8
			l0.3,0.4l0.5,0.1l0.6-0.2v-0.7l0.3-0.1l-0.2-0.2L70.7,29l-0.3-0.9h1l0.3,0.3l0.8,0.7V30l0.9,0.9l0.3-1.3l0.6-0.3l0.1,1l0.6,0.6
			h1.2c0.2,0.6,0.4,1.2,0.6,1.8L76.6,32.7z M44.3,25.6l0.6-0.3l0.5,0.1l-0.2,0.7l-0.6,0.2L44.3,25.6z M47.4,27.3v0.5H46l-0.5-0.1
			l0.1-0.3l0.6-0.3h0.9v0.2H47.4z M48,27.9v0.4l-0.3,0.2l-0.4,0.1v-0.7H48z M47.6,27.8v-0.5l0.5,0.4L47.6,27.8z M47.8,28.8v0.5
			l-0.3,0.3h-0.7l0.1-0.5h0.3l0.1-0.2L47.8,28.8z M46.1,27.9h0.7l-0.9,1.4l-0.4-0.2l0.1-0.6L46.1,27.9z M49.1,28.7v0.4h-0.7
			l-0.2-0.3v-0.4h0.1L49.1,28.7z M48.4,28.1l0.2-0.2l0.3,0.2l-0.2,0.2L48.4,28.1z M77,33.9L77,33.9c0.1,0,0.1,0.2,0.2,0.3L77,33.9z"
			/>
		<path class="st7" d="M34.8,29.5v0.7c0.2-0.6,0.5-1.1,0.8-1.7L34.8,29.5z"/>
	</g>
</g>
<rect x="19.4" y="79.7" class="st8" width="72" height="31"/>
<g class="st4">
	<path class="st1" d="M31.1,80.5c0.2,0.1,0.2,0.1,0.2,0.3l-0.1,0.4c0,0.1-0.1,0.2-0.2,0.1c-0.6-0.1-1.4-0.2-2.1-0.2
		c-1.9,0-2.2,1.6-2.2,3.5c0,1.7,0.4,3.3,2.3,3.3c0.4,0,1.2-0.1,1.6-0.2V85h-1.2c-0.2,0-0.2-0.1-0.2-0.2v-0.5c0-0.1,0.1-0.2,0.2-0.2
		h1.9c0.2,0,0.2,0.1,0.2,0.2V88c0,0.2-0.1,0.4-0.3,0.4c-0.7,0.2-1.5,0.3-2.2,0.3c-2.5,0-3.4-1.6-3.4-4.2c0-2.2,0.5-4.4,3.2-4.4
		C29.4,80.1,30.5,80.2,31.1,80.5z"/>
	<path class="st1" d="M37.6,85.8H34c0,1.5,0.5,2,1.7,2c0.5,0,1.3-0.1,1.8-0.2c0.2,0,0.3,0,0.3,0.2l0.1,0.3c0,0.1,0,0.2-0.1,0.3
		c-0.5,0.2-1.4,0.3-2,0.3c-2.3,0-2.6-1.6-2.6-3.2c0-1.2,0.3-3.2,2.6-3.2c2.2,0,2.5,1.4,2.6,2.8C38.2,85.5,38.1,85.8,37.6,85.8z
		 M35.6,83.2c-1.1,0-1.5,0.7-1.5,1.9h3.1C37.1,84.2,36.9,83.2,35.6,83.2z"/>
	<path class="st1" d="M41.9,88.7c-0.8,0-1.8-0.1-2.3-0.3c-0.3-0.1-0.3-0.3-0.3-0.5v-8c0-0.2,0.1-0.2,0.2-0.2H40
		c0.2,0,0.2,0.1,0.2,0.2v2.7l0,0c0.7-0.3,1.3-0.4,1.8-0.4c2,0,2.5,1.2,2.5,3.2C44.5,87.6,44,88.7,41.9,88.7z M42.1,83.2
		c-0.5,0-1.2,0.1-1.8,0.3v4.2c0.5,0.1,1.1,0.1,1.6,0.1c1,0,1.6-0.3,1.6-2.2C43.5,83.8,43.2,83.2,42.1,83.2z"/>
	<path class="st1" d="M46.5,81.4c-0.5,0-0.5-0.3-0.5-0.6c0-0.3,0.1-0.5,0.5-0.5c0.5,0,0.5,0.2,0.5,0.5C47.1,81.1,47,81.4,46.5,81.4z
		 M46.8,88.6h-0.5c-0.2,0-0.2-0.1-0.2-0.2v-5.7c0-0.2,0.1-0.2,0.2-0.2h0.5c0.1,0,0.2,0.1,0.2,0.2v5.7C47,88.6,46.9,88.6,46.8,88.6z"
		/>
	<path class="st1" d="M53.1,85.8h-3.6c0,1.5,0.5,2,1.7,2c0.5,0,1.3-0.1,1.8-0.2c0.2,0,0.3,0,0.3,0.2l0.1,0.3c0,0.1,0,0.2-0.1,0.3
		c-0.5,0.2-1.4,0.3-2,0.3c-2.3,0-2.6-1.6-2.6-3.2c0-1.2,0.3-3.2,2.6-3.2c2.2,0,2.5,1.4,2.6,2.8C53.6,85.5,53.5,85.8,53.1,85.8z
		 M51,83.2c-1.1,0-1.5,0.7-1.5,1.9h3.1C52.6,84.2,52.4,83.2,51,83.2z"/>
	<path class="st1" d="M58.2,88.2c0,0.1,0,0.2-0.1,0.2c-0.3,0.2-1.1,0.3-1.4,0.3c-1.1,0-1.4-0.5-1.4-1.3v-4.1h-0.7
		c-0.2,0-0.2-0.1-0.2-0.2v-0.4c0-0.2,0.1-0.2,0.2-0.2h0.7v-1.4c0-0.2,0.1-0.2,0.2-0.2l0.5-0.1c0.1,0,0.2,0,0.2,0.2v1.6h1.4
		c0.2,0,0.2,0.1,0.2,0.2V83c0,0.2,0,0.2-0.2,0.2h-1.4v3.8c0,0.6,0.1,0.7,0.9,0.7c0.1,0,0.6,0,0.7-0.1c0.2,0,0.3,0,0.3,0.2L58.2,88.2
		z"/>
	<path class="st1" d="M60.8,88.7c-0.6,0-1.5-0.1-1.9-0.3c-0.1-0.1-0.2-0.2-0.1-0.3l0.1-0.3c0-0.2,0.1-0.2,0.3-0.2
		c0.5,0.1,1.4,0.1,1.8,0.1c0.9,0,1.3-0.3,1.3-0.9c0-0.7-0.2-0.9-1.2-1.1c-1.2-0.2-2.2-0.4-2.2-1.7c0-1.2,0.9-1.8,2.2-1.8
		c0.5,0,1.4,0.1,1.9,0.3c0.1,0.1,0.2,0.2,0.1,0.3l-0.1,0.3c0,0.1-0.1,0.2-0.3,0.1c-0.5-0.1-1.1-0.1-1.7-0.1c-1,0-1.2,0.3-1.2,0.9
		c0,0.6,0.3,0.7,1.3,0.9c1.1,0.2,2.2,0.4,2.2,1.9C63.2,88.2,62,88.7,60.8,88.7z"/>
	<path class="st1" d="M66.5,88.3c0,0.1,0,0.2-0.1,0.2c-0.2,0.1-0.5,0.1-0.7,0.1c-0.8,0-1-0.4-1-1v-7.7c0-0.2,0.1-0.2,0.2-0.2h0.5
		c0.2,0,0.2,0,0.2,0.2v7.4c0,0.4,0.2,0.5,0.6,0.5c0.2,0,0.2,0,0.2,0.1L66.5,88.3z"/>
	<path class="st1" d="M68.1,81.4c-0.5,0-0.5-0.3-0.5-0.6c0-0.3,0.1-0.5,0.5-0.5c0.5,0,0.5,0.2,0.5,0.5
		C68.7,81.1,68.6,81.4,68.1,81.4z M68.4,88.6h-0.5c-0.2,0-0.2-0.1-0.2-0.2v-5.7c0-0.2,0.1-0.2,0.2-0.2h0.5c0.1,0,0.2,0.1,0.2,0.2
		v5.7C68.6,88.6,68.5,88.6,68.4,88.6z"/>
	<path class="st1" d="M72.2,88.7c-0.6,0-1.5-0.1-1.9-0.3c-0.1-0.1-0.2-0.2-0.1-0.3l0.1-0.3c0-0.2,0.1-0.2,0.3-0.2
		c0.5,0.1,1.4,0.1,1.8,0.1c0.9,0,1.3-0.3,1.3-0.9c0-0.7-0.2-0.9-1.2-1.1c-1.2-0.2-2.2-0.4-2.2-1.7c0-1.2,0.9-1.8,2.2-1.8
		c0.5,0,1.4,0.1,1.9,0.3c0.1,0.1,0.2,0.2,0.1,0.3l0,0.3c0,0.1-0.1,0.2-0.3,0.1c-0.5-0.1-1.1-0.1-1.7-0.1c-0.9,0-1.2,0.3-1.2,0.9
		c0,0.6,0.3,0.7,1.3,0.9c1.1,0.2,2.2,0.4,2.2,1.9C74.5,88.2,73.4,88.7,72.2,88.7z"/>
	<path class="st1" d="M79.2,88.2c0,0.1,0,0.2-0.1,0.2c-0.3,0.2-1.1,0.3-1.4,0.3c-1.1,0-1.4-0.5-1.4-1.3v-4.1h-0.7
		c-0.2,0-0.2-0.1-0.2-0.2v-0.4c0-0.2,0.1-0.2,0.2-0.2h0.7v-1.4c0-0.2,0.1-0.2,0.2-0.2l0.5-0.1c0.1,0,0.2,0,0.2,0.2v1.6h1.4
		c0.2,0,0.2,0.1,0.2,0.2V83c0,0.2,0,0.2-0.2,0.2h-1.4v3.8c0,0.6,0.1,0.7,0.9,0.7c0.1,0,0.6,0,0.7-0.1c0.2,0,0.3,0,0.3,0.2L79.2,88.2
		z"/>
	<path class="st1" d="M84.3,85.8h-3.6c0,1.5,0.5,2,1.7,2c0.5,0,1.3-0.1,1.8-0.2c0.2,0,0.3,0,0.3,0.2l0.1,0.3c0,0.1,0,0.2-0.1,0.3
		c-0.5,0.2-1.4,0.3-2,0.3c-2.3,0-2.6-1.6-2.6-3.2c0-1.2,0.3-3.2,2.6-3.2c2.2,0,2.5,1.4,2.6,2.8C84.9,85.5,84.8,85.8,84.3,85.8z
		 M82.3,83.2c-1.1,0-1.5,0.7-1.5,1.9h3.1C83.8,84.2,83.6,83.2,82.3,83.2z"/>
</g>
</svg>
