<?xml version="1.0" encoding="utf-8"?>
<!-- Generator: Adobe Illustrator 19.1.0, SVG Export Plug-In . SVG Version: 6.00 Build 0)  -->
<svg version="1.1" id="Layer_1" xmlns="http://www.w3.org/2000/svg" xmlns:xlink="http://www.w3.org/1999/xlink" x="0px" y="0px"
	 viewBox="0 0 109.8 109.8" style="enable-background:new 0 0 109.8 109.8;" xml:space="preserve">
<style type="text/css">
	.st0{fill:#D4A4A2;}
	.st1{fill:#FFFFFF;}
	.st2{fill:#553F19;}
	.st3{fill:#FBB430;}
	.st4{enable-background:new    ;}
	.st5{fill:#707C7F;}
	.st6{fill:#623949;}
	.st7{fill:#FAFBFC;}
	.st8{fill:none;}
	.st9{fill:#786B2B;}
</style>
<circle class="st5" cx="54.9" cy="55.5" r="54.9"/>
<g>
	<path class="st1" d="M56.7,39.6c0,1.2-1,2.2-2.2,2.2s-2.2-1-2.2-2.2s1-2.2,2.2-2.2S56.7,38.3,56.7,39.6L56.7,39.6z"/>
	<path class="st1" d="M63,39.6c0,1.2-1,2.2-2.2,2.2s-2.2-1-2.2-2.2s1-2.2,2.2-2.2S63,38.3,63,39.6L63,39.6z"/>
	<path class="st1" d="M50.4,39.6c0,1.2-1,2.2-2.2,2.2s-2.2-1-2.2-2.2s1-2.2,2.2-2.2S50.4,38.3,50.4,39.6L50.4,39.6z"/>
	<path class="st1" d="M65.4,16.7H43.5c-2,0-3.7,1.6-3.7,3.7v40.1c0,2,1.7,3.7,3.7,3.7h21.9c2,0,3.7-1.6,3.7-3.7V20.4
		C69.1,18.3,67.5,16.7,65.4,16.7L65.4,16.7z M54.5,62.1c-1.3,0-2.3-1-2.3-2.3s1-2.3,2.3-2.3s2.3,1,2.3,2.3S55.8,62.1,54.5,62.1
		L54.5,62.1z M64.9,55.1c0,0.4-0.3,0.8-0.7,0.8H44.7c-0.4,0-0.8-0.4-0.8-0.8V21.4c0-0.4,0.4-0.8,0.8-0.8h19.5c0.4,0,0.7,0.3,0.7,0.8
		C64.9,21.4,64.9,55.1,64.9,55.1z"/>
</g>
<g>
	<path class="st1" d="M12.3,79.9c-0.1,0.2-0.1,0.2-0.3,0.2h-0.7c-0.1,0-0.2-0.1-0.1-0.2l2.7-8.2c0-0.1,0.1-0.2,0.2-0.2H15
		c0.2,0,0.2,0.1,0.2,0.2l2.7,8.2c0,0.1,0,0.2-0.1,0.2H17c-0.1,0-0.2-0.1-0.2-0.2l-0.6-2.1H13L12.3,79.9z M15.2,74.7l-0.6-2.1h0
		L14,74.7l-0.7,2.2h2.6L15.2,74.7z"/>
	<path class="st1" d="M23.8,80.1h-0.5c-0.1,0-0.2-0.1-0.2-0.2l0-3.8c0-1.2-0.2-1.5-1.1-1.5c-0.6,0-1.8,0.5-2.2,0.7v4.6
		c0,0.2-0.1,0.2-0.2,0.2h-0.5c-0.1,0-0.2-0.1-0.2-0.2V74c0-0.2,0.1-0.2,0.2-0.2h0.5c0.2,0,0.2,0,0.2,0.2v0.5l0,0
		c0.4-0.3,1.4-0.8,2.3-0.8c1.7,0,1.9,1,1.9,2.4v3.8C24.1,80.1,24,80.1,23.8,80.1z"/>
	<path class="st1" d="M34.3,80.1h-0.5c-0.2,0-0.2-0.1-0.2-0.2V76c0-1.1-0.2-1.4-1-1.4c-0.6,0-1.6,0.5-2.1,0.8c0,0.1,0,0.4,0,0.7v3.9
		c0,0.2-0.1,0.2-0.2,0.2h-0.6c-0.1,0-0.2-0.1-0.2-0.2l0-4c0-0.8-0.2-1.3-1-1.3c-0.6,0-1.5,0.4-2.1,0.7v4.6c0,0.2-0.1,0.2-0.2,0.2
		h-0.5c-0.1,0-0.2-0.1-0.2-0.2V74c0-0.2,0.1-0.2,0.2-0.2h0.5c0.2,0,0.2,0.1,0.2,0.2v0.4c0,0,0,0,0,0c0.5-0.3,1.3-0.8,2.1-0.8
		c0.9,0,1.5,0.3,1.7,0.9c0.7-0.5,1.5-0.9,2.4-0.9c1.6,0,1.9,0.9,1.9,2.3v3.9C34.5,80.1,34.5,80.1,34.3,80.1z"/>
	<path class="st1" d="M40.6,77.3h-3.7c0,1.6,0.5,2.1,1.7,2.1c0.5,0,1.4-0.1,1.8-0.2c0.2,0,0.3,0,0.3,0.2l0.1,0.3
		c0,0.1,0,0.2-0.1,0.3c-0.5,0.2-1.4,0.4-2.1,0.4c-2.4,0-2.7-1.6-2.7-3.3c0-1.3,0.3-3.3,2.6-3.3c2.2,0,2.6,1.4,2.6,2.9
		C41.2,77,41.1,77.3,40.6,77.3z M38.5,74.6c-1.1,0-1.5,0.7-1.6,1.9h3.2C40.1,75.6,39.9,74.6,38.5,74.6z"/>
	<path class="st1" d="M44.5,79.8c0,0.1,0,0.2-0.1,0.2c-0.2,0.1-0.5,0.1-0.7,0.1c-0.9,0-1.1-0.4-1.1-1.1v-7.9c0-0.2,0.1-0.2,0.2-0.2
		h0.5c0.2,0,0.2,0,0.2,0.2v7.6c0,0.4,0.2,0.5,0.7,0.5c0.2,0,0.2,0,0.2,0.1L44.5,79.8z"/>
	<path class="st1" d="M50.4,80.1h-0.5c-0.1,0-0.2,0-0.2-0.2v-0.5l0,0c-0.4,0.2-1.3,0.8-2.2,0.8c-1.6,0-2.1-1.2-2.1-3.2
		c0-2.2,0.5-3.4,2.6-3.4c0.5,0,1.1,0.1,1.8,0.4l0,0v-2.8c0-0.2,0-0.2,0.2-0.2h0.5c0.2,0,0.2,0.1,0.2,0.2v8.7
		C50.6,80.1,50.6,80.1,50.4,80.1z M49.6,74.9c-0.7-0.2-1.3-0.3-1.9-0.3c-1.1,0-1.5,0.6-1.5,2.5c0,2,0.4,2.3,1.2,2.3
		c0.6,0,1.7-0.5,2.1-0.7V74.9z"/>
	<path class="st1" d="M57.1,80.1h-0.5c-0.2,0-0.2-0.1-0.2-0.2v-0.5l0,0c-0.4,0.3-1.4,0.8-2.3,0.8c-1.7,0-1.9-1-1.9-2.4V74
		c0-0.2,0.1-0.2,0.2-0.2h0.6c0.1,0,0.2,0.1,0.2,0.2v3.8c0,1.2,0.3,1.5,1.1,1.5c0.6,0,1.8-0.5,2.2-0.8V74c0-0.2,0.1-0.2,0.2-0.2h0.5
		c0.2,0,0.2,0.1,0.2,0.2v5.9C57.3,80.1,57.2,80.1,57.1,80.1z"/>
	<path class="st1" d="M63.7,80.1h-0.5c-0.1,0-0.2-0.1-0.2-0.2l0-3.8c0-1.2-0.2-1.5-1.1-1.5c-0.6,0-1.8,0.5-2.2,0.7v4.6
		c0,0.2-0.1,0.2-0.2,0.2h-0.5c-0.1,0-0.2-0.1-0.2-0.2V74c0-0.2,0.1-0.2,0.2-0.2h0.5c0.2,0,0.2,0,0.2,0.2v0.5l0,0
		c0.4-0.3,1.4-0.8,2.3-0.8c1.7,0,1.9,1,1.9,2.4v3.8C63.9,80.1,63.8,80.1,63.7,80.1z"/>
	<path class="st1" d="M70.3,74c0.3,0.1,0.3,0.3,0.3,0.5v5.7c0,1.4-0.3,2.4-2.5,2.4c-0.7,0-1.6-0.1-2.1-0.3c-0.2-0.1-0.2-0.2-0.1-0.3
		l0.1-0.3c0-0.2,0.1-0.2,0.3-0.1c0.6,0.1,1.3,0.1,1.8,0.1c1.2,0,1.5-0.4,1.5-1.3v-0.5c-0.8,0.3-1.4,0.4-1.8,0.4
		c-2,0-2.5-1.3-2.5-3.2c0-2.1,0.6-3.3,2.7-3.3C68.7,73.7,69.7,73.8,70.3,74z M67.7,79.4c0.5,0,1.2-0.1,1.9-0.3v-4.3
		c-0.5-0.1-1.1-0.1-1.7-0.1c-0.9,0-1.7,0.3-1.7,2.3C66.2,78.7,66.6,79.4,67.7,79.4z"/>
	<path class="st1" d="M78,80.2c-2.5,0-2.6-1.8-2.6-3.4c0-1.3,0.2-3.2,2.6-3.2c2.4,0,2.7,1.6,2.7,3.2C80.7,78.4,80.5,80.2,78,80.2z
		 M78,74.6c-1.3,0-1.6,0.8-1.6,2.4c0,1.6,0.3,2.4,1.6,2.4c1.4,0,1.7-0.8,1.7-2.4C79.7,75.3,79.4,74.6,78,74.6z"/>
	<path class="st1" d="M87,80.1h-0.5c-0.1,0-0.2,0-0.2-0.2v-0.5l0,0c-0.4,0.2-1.3,0.8-2.2,0.8c-1.6,0-2.1-1.2-2.1-3.2
		c0-2.2,0.5-3.4,2.6-3.4c0.5,0,1.1,0.1,1.8,0.4l0,0v-2.8c0-0.2,0-0.2,0.2-0.2H87c0.2,0,0.2,0.1,0.2,0.2v8.7
		C87.2,80.1,87.1,80.1,87,80.1z M86.2,74.9c-0.7-0.2-1.3-0.3-1.9-0.3c-1.1,0-1.5,0.6-1.5,2.5c0,2,0.4,2.3,1.2,2.3
		c0.6,0,1.7-0.5,2.1-0.7V74.9z"/>
	<path class="st1" d="M93.2,77.3h-3.7c0,1.6,0.5,2.1,1.7,2.1c0.5,0,1.4-0.1,1.8-0.2c0.2,0,0.3,0,0.3,0.2l0.1,0.3
		c0,0.1,0,0.2-0.1,0.3c-0.5,0.2-1.4,0.4-2.1,0.4c-2.4,0-2.7-1.6-2.7-3.3c0-1.3,0.3-3.3,2.6-3.3c2.2,0,2.6,1.4,2.6,2.9
		C93.8,77,93.7,77.3,93.2,77.3z M91.1,74.6c-1.1,0-1.5,0.7-1.6,1.9h3.2C92.7,75.6,92.5,74.6,91.1,74.6z"/>
	<path class="st1" d="M98.4,74.7c-0.7,0.1-1.8,0.5-2.1,0.6v4.6c0,0.2-0.1,0.2-0.2,0.2h-0.6c-0.1,0-0.2-0.1-0.2-0.2V74
		c0-0.2,0.1-0.2,0.2-0.2h0.5c0.2,0,0.2,0.1,0.2,0.2v0.5l0,0c0.3-0.3,1.3-0.7,2-0.8c0.2,0,0.2,0,0.2,0.2l0.1,0.5
		C98.6,74.6,98.5,74.7,98.4,74.7z"/>
	<path class="st1" d="M27.7,92.1H27c-0.1,0-0.2,0-0.3-0.2L25,88.5h-1.7v3.4c0,0.2-0.1,0.2-0.2,0.2h-0.6c-0.2,0-0.2-0.1-0.2-0.2v-8.2
		c0-0.2,0.1-0.2,0.2-0.2h2.7c1.3,0,2.5,0.7,2.5,2.4c0,1-0.5,2-1.7,2.4l1.8,3.5C27.9,92,27.8,92.1,27.7,92.1z M24.9,84.5h-1.6v3.2
		h1.6c0.8,0,1.7-0.2,1.7-1.7C26.6,84.7,25.8,84.5,24.9,84.5z"/>
	<path class="st1" d="M33.6,89.3h-3.7c0,1.6,0.5,2.1,1.7,2.1c0.5,0,1.4-0.1,1.8-0.2c0.2,0,0.3,0,0.3,0.2l0.1,0.3
		c0,0.1,0,0.2-0.1,0.3c-0.5,0.2-1.4,0.4-2.1,0.4c-2.4,0-2.7-1.6-2.7-3.3c0-1.3,0.3-3.3,2.6-3.3c2.2,0,2.6,1.4,2.6,2.9
		C34.1,89,34,89.3,33.6,89.3z M31.5,86.6c-1.1,0-1.5,0.7-1.6,1.9h3.2C33.1,87.6,32.9,86.6,31.5,86.6z"/>
	<path class="st1" d="M40.3,86c0.3,0.1,0.3,0.3,0.3,0.5v5.7c0,1.4-0.3,2.4-2.5,2.4c-0.6,0-1.6-0.1-2.1-0.3c-0.2-0.1-0.2-0.2-0.1-0.3
		l0.1-0.3c0-0.2,0.1-0.2,0.3-0.1c0.6,0.1,1.3,0.1,1.8,0.1c1.2,0,1.5-0.4,1.5-1.3v-0.5c-0.8,0.3-1.4,0.4-1.8,0.4
		c-2,0-2.5-1.3-2.5-3.2c0-2.1,0.6-3.3,2.7-3.3C38.7,85.7,39.7,85.8,40.3,86z M37.7,91.4c0.5,0,1.2-0.1,1.9-0.3v-4.3
		c-0.5-0.1-1.1-0.1-1.7-0.1c-0.9,0-1.7,0.3-1.7,2.3C36.3,90.7,36.7,91.4,37.7,91.4z"/>
	<path class="st1" d="M42.7,84.7c-0.5,0-0.6-0.3-0.6-0.6c0-0.3,0.1-0.6,0.6-0.6c0.5,0,0.6,0.2,0.6,0.6
		C43.3,84.4,43.2,84.7,42.7,84.7z M43,92.1h-0.5c-0.2,0-0.2-0.1-0.2-0.2V86c0-0.2,0.1-0.2,0.2-0.2H43c0.1,0,0.2,0.1,0.2,0.2v5.9
		C43.2,92.1,43.1,92.1,43,92.1z"/>
	<path class="st1" d="M46.9,92.2c-0.7,0-1.5-0.1-2-0.3c-0.1-0.1-0.2-0.2-0.1-0.3l0.1-0.3c0-0.2,0.1-0.2,0.3-0.2
		c0.5,0.1,1.4,0.1,1.8,0.1c1,0,1.4-0.3,1.4-0.9c0-0.8-0.2-0.9-1.3-1.1c-1.2-0.2-2.3-0.5-2.3-1.8c0-1.2,0.9-1.9,2.3-1.9
		c0.5,0,1.4,0.1,2,0.3c0.1,0.1,0.2,0.2,0.1,0.3L49,86.5c0,0.1-0.1,0.2-0.3,0.1c-0.5-0.1-1.2-0.1-1.7-0.1c-1,0-1.2,0.3-1.2,0.9
		c0,0.6,0.3,0.7,1.3,0.9c1.2,0.2,2.2,0.4,2.2,1.9C49.3,91.8,48.1,92.2,46.9,92.2z"/>
	<path class="st1" d="M54.1,91.7c0,0.1,0,0.2-0.1,0.2c-0.3,0.2-1.1,0.3-1.5,0.3c-1.1,0-1.4-0.5-1.4-1.4v-4.2h-0.7
		c-0.2,0-0.2-0.1-0.2-0.2V86c0-0.2,0.1-0.2,0.2-0.2h0.7v-1.4c0-0.2,0.1-0.2,0.2-0.2l0.5-0.1c0.1,0,0.2,0,0.2,0.2v1.6h1.4
		c0.2,0,0.2,0.1,0.2,0.2v0.4c0,0.2,0,0.2-0.2,0.2h-1.4v3.9c0,0.6,0.1,0.8,0.9,0.8c0.1,0,0.6,0,0.8-0.1c0.2,0,0.3,0,0.3,0.2
		L54.1,91.7z"/>
	<path class="st1" d="M58.1,86.7c-0.7,0.1-1.8,0.5-2.1,0.6v4.6c0,0.2-0.1,0.2-0.2,0.2h-0.6c-0.1,0-0.2-0.1-0.2-0.2V86
		c0-0.2,0.1-0.2,0.2-0.2h0.5c0.2,0,0.2,0.1,0.2,0.2v0.5l0,0c0.3-0.3,1.3-0.7,2-0.8c0.2,0,0.2,0,0.2,0.2l0.1,0.5
		C58.3,86.6,58.3,86.7,58.1,86.7z"/>
	<path class="st1" d="M59.8,84.7c-0.5,0-0.6-0.3-0.6-0.6c0-0.3,0.1-0.6,0.6-0.6c0.5,0,0.6,0.2,0.6,0.6
		C60.3,84.4,60.2,84.7,59.8,84.7z M60,92.1h-0.5c-0.2,0-0.2-0.1-0.2-0.2V86c0-0.2,0.1-0.2,0.2-0.2H60c0.1,0,0.2,0.1,0.2,0.2v5.9
		C60.2,92.1,60.2,92.1,60,92.1z"/>
	<path class="st1" d="M66.5,89.3h-3.7c0,1.6,0.5,2.1,1.7,2.1c0.5,0,1.4-0.1,1.8-0.2c0.2,0,0.3,0,0.3,0.2l0.1,0.3
		c0,0.1,0,0.2-0.1,0.3c-0.5,0.2-1.4,0.4-2.1,0.4c-2.4,0-2.7-1.6-2.7-3.3c0-1.3,0.3-3.3,2.6-3.3c2.2,0,2.6,1.4,2.6,2.9
		C67.1,89,67,89.3,66.5,89.3z M64.4,86.6c-1.1,0-1.5,0.7-1.6,1.9H66C66,87.6,65.8,86.6,64.4,86.6z"/>
	<path class="st1" d="M71.7,86.7c-0.7,0.1-1.8,0.5-2.1,0.6v4.6c0,0.2-0.1,0.2-0.2,0.2h-0.6c-0.1,0-0.2-0.1-0.2-0.2V86
		c0-0.2,0.1-0.2,0.2-0.2h0.5c0.2,0,0.2,0.1,0.2,0.2v0.5l0,0c0.3-0.3,1.3-0.7,2-0.8c0.2,0,0.2,0,0.2,0.2l0.1,0.5
		C71.9,86.6,71.8,86.7,71.7,86.7z"/>
	<path class="st1" d="M77.5,92.1H77c-0.2,0-0.2-0.1-0.2-0.2v-0.5l0,0c-0.4,0.3-1.4,0.8-2.3,0.8c-1.7,0-1.9-1-1.9-2.4V86
		c0-0.2,0.1-0.2,0.2-0.2h0.6c0.1,0,0.2,0.1,0.2,0.2v3.8c0,1.2,0.3,1.5,1.1,1.5c0.6,0,1.8-0.5,2.2-0.8V86c0-0.2,0.1-0.2,0.2-0.2h0.5
		c0.2,0,0.2,0.1,0.2,0.2v5.9C77.8,92.1,77.7,92.1,77.5,92.1z"/>
	<path class="st1" d="M84.1,92.1h-0.5c-0.1,0-0.2-0.1-0.2-0.2l0-3.8c0-1.2-0.2-1.5-1.1-1.5c-0.6,0-1.8,0.5-2.2,0.7v4.6
		c0,0.2-0.1,0.2-0.2,0.2h-0.5c-0.1,0-0.2-0.1-0.2-0.2V86c0-0.2,0.1-0.2,0.2-0.2h0.5c0.2,0,0.2,0,0.2,0.2v0.5l0,0
		c0.4-0.3,1.4-0.8,2.3-0.8c1.7,0,1.9,1,1.9,2.4v3.8C84.3,92.1,84.3,92.1,84.1,92.1z"/>
	<path class="st1" d="M90.7,86c0.3,0.1,0.3,0.3,0.3,0.5v5.7c0,1.4-0.3,2.4-2.5,2.4c-0.6,0-1.6-0.1-2.1-0.3c-0.2-0.1-0.2-0.2-0.1-0.3
		l0.1-0.3c0-0.2,0.1-0.2,0.3-0.1c0.6,0.1,1.3,0.1,1.8,0.1c1.2,0,1.5-0.4,1.5-1.3v-0.5c-0.8,0.3-1.4,0.4-1.8,0.4
		c-2,0-2.5-1.3-2.5-3.2c0-2.1,0.6-3.3,2.7-3.3C89.1,85.7,90.1,85.8,90.7,86z M88.2,91.4c0.5,0,1.2-0.1,1.9-0.3v-4.3
		c-0.5-0.1-1.1-0.1-1.7-0.1c-0.9,0-1.7,0.3-1.7,2.3C86.7,90.7,87.1,91.4,88.2,91.4z"/>
</g>
</svg>
