<?xml version="1.0" encoding="utf-8"?>
<!-- Generator: Adobe Illustrator 19.1.0, SVG Export Plug-In . SVG Version: 6.00 Build 0)  -->
<svg version="1.1" id="Layer_1" xmlns="http://www.w3.org/2000/svg" xmlns:xlink="http://www.w3.org/1999/xlink" x="0px" y="0px"
	 viewBox="0 0 109.8 109.8" style="enable-background:new 0 0 109.8 109.8;" xml:space="preserve">
<style type="text/css">
	.st0{fill:#D4A4A2;}
	.st1{fill:#FFFFFF;}
	.st2{fill:#553F19;}
	.st3{fill:#FBB430;}
	.st4{enable-background:new    ;}
	.st5{fill:#707C7F;}
	.st6{fill:#623949;}
	.st7{fill:#FAFBFC;}
	.st8{fill:none;}
	.st9{fill:#786B2B;}
</style>
<circle class="st3" cx="54.9" cy="54.9" r="54.9"/>
<g class="st4">
	<path class="st1" d="M29.6,78.1c0.2,0.1,0.2,0.1,0.2,0.3l-0.1,0.4c0,0.1-0.1,0.2-0.2,0.1c-0.6-0.1-1.4-0.2-2.1-0.2
		c-1.9,0-2.2,1.6-2.2,3.5c0,1.7,0.4,3.3,2.3,3.3c0.4,0,1.2-0.1,1.6-0.2v-2.6h-1.2c-0.2,0-0.2-0.1-0.2-0.2V82c0-0.1,0.1-0.2,0.2-0.2
		h1.9c0.2,0,0.2,0.1,0.2,0.2v3.6c0,0.2-0.1,0.4-0.3,0.4c-0.7,0.2-1.5,0.3-2.2,0.3c-2.5,0-3.4-1.6-3.4-4.2c0-2.2,0.5-4.4,3.2-4.4
		C27.8,77.8,28.9,77.8,29.6,78.1z"/>
	<path class="st1" d="M36.1,83.5h-3.6c0,1.5,0.5,2,1.7,2c0.5,0,1.3-0.1,1.8-0.2c0.2,0,0.3,0,0.3,0.2l0.1,0.3c0,0.1,0,0.2-0.1,0.3
		c-0.5,0.2-1.4,0.3-2,0.3c-2.3,0-2.6-1.6-2.6-3.2c0-1.2,0.3-3.2,2.6-3.2c2.2,0,2.5,1.4,2.6,2.8C36.6,83.2,36.5,83.5,36.1,83.5z
		 M34,80.8c-1.1,0-1.5,0.7-1.5,1.9h3.1C35.6,81.8,35.4,80.8,34,80.8z"/>
	<path class="st1" d="M40.4,86.4c-0.8,0-1.8-0.1-2.3-0.3c-0.3-0.1-0.3-0.3-0.3-0.5v-8c0-0.2,0.1-0.2,0.2-0.2h0.5
		c0.2,0,0.2,0.1,0.2,0.2v2.7l0,0c0.7-0.3,1.3-0.4,1.8-0.4c2,0,2.5,1.2,2.5,3.2C43,85.2,42.4,86.4,40.4,86.4z M40.6,80.8
		c-0.5,0-1.2,0.1-1.8,0.3v4.2c0.5,0.1,1.1,0.1,1.6,0.1c1,0,1.6-0.3,1.6-2.2C42,81.5,41.6,80.8,40.6,80.8z"/>
	<path class="st1" d="M44.9,79c-0.5,0-0.5-0.3-0.5-0.6c0-0.3,0.1-0.5,0.5-0.5c0.5,0,0.5,0.2,0.5,0.5C45.5,78.8,45.4,79,44.9,79z
		 M45.2,86.3h-0.5c-0.2,0-0.2-0.1-0.2-0.2v-5.7c0-0.2,0.1-0.2,0.2-0.2h0.5c0.1,0,0.2,0.1,0.2,0.2V86C45.4,86.2,45.4,86.3,45.2,86.3z
		"/>
	<path class="st1" d="M51.5,83.5h-3.6c0,1.5,0.5,2,1.7,2c0.5,0,1.3-0.1,1.8-0.2c0.2,0,0.3,0,0.3,0.2l0.1,0.3c0,0.1,0,0.2-0.1,0.3
		c-0.5,0.2-1.4,0.3-2,0.3c-2.3,0-2.6-1.6-2.6-3.2c0-1.2,0.3-3.2,2.6-3.2c2.2,0,2.5,1.4,2.6,2.8C52.1,83.2,52,83.5,51.5,83.5z
		 M49.5,80.8c-1.1,0-1.5,0.7-1.5,1.9H51C51,81.8,50.8,80.8,49.5,80.8z"/>
	<path class="st1" d="M56.7,85.9c0,0.1,0,0.2-0.1,0.2c-0.3,0.2-1.1,0.3-1.4,0.3c-1.1,0-1.4-0.5-1.4-1.3v-4.1h-0.7
		c-0.2,0-0.2-0.1-0.2-0.2v-0.4c0-0.2,0.1-0.2,0.2-0.2h0.7v-1.4c0-0.2,0.1-0.2,0.2-0.2l0.5-0.1c0.1,0,0.2,0,0.2,0.2v1.6h1.4
		c0.2,0,0.2,0.1,0.2,0.2v0.4c0,0.2,0,0.2-0.2,0.2h-1.4v3.8c0,0.6,0.1,0.7,0.9,0.7c0.1,0,0.6,0,0.7-0.1c0.2,0,0.3,0,0.3,0.2
		L56.7,85.9z"/>
	<path class="st1" d="M59.3,86.4c-0.6,0-1.5-0.1-1.9-0.3c-0.1-0.1-0.2-0.2-0.1-0.3l0.1-0.3c0-0.2,0.1-0.2,0.3-0.2
		c0.5,0.1,1.4,0.1,1.8,0.1c0.9,0,1.3-0.3,1.3-0.9c0-0.7-0.2-0.9-1.2-1.1c-1.2-0.2-2.2-0.4-2.2-1.7c0-1.2,0.9-1.8,2.2-1.8
		c0.5,0,1.4,0.1,1.9,0.3c0.1,0.1,0.2,0.2,0.1,0.3l-0.1,0.3c0,0.1-0.1,0.2-0.3,0.1c-0.5-0.1-1.1-0.1-1.7-0.1c-1,0-1.2,0.3-1.2,0.9
		c0,0.6,0.3,0.7,1.3,0.9c1.1,0.2,2.2,0.4,2.2,1.9C61.6,85.9,60.5,86.4,59.3,86.4z"/>
	<path class="st1" d="M66.4,80.2c0.1-0.1,0.1-0.2,0.3-0.2h0.7c0.1,0,0.2,0.1,0.1,0.2l-1.9,2.3l2.1,3.4c0.1,0.1,0,0.2-0.1,0.2h-0.7
		c-0.2,0-0.2-0.1-0.3-0.2l-1.7-2.8l-1,1.2V86c0,0.2-0.1,0.2-0.2,0.2h-0.5c-0.1,0-0.2-0.1-0.2-0.2v-8.5c0-0.2,0.1-0.2,0.2-0.2h0.5
		c0.2,0,0.2,0.1,0.2,0.2v5.7l0,0l0.7-0.8L66.4,80.2z"/>
	<path class="st1" d="M72.4,85.6c-0.6,0.4-1.4,0.8-2.4,0.8c-1.2,0-1.7-0.6-1.7-1.7c0-1.4,0.7-2.1,2.4-2.1h1.7v-0.4
		c0-0.9-0.4-1.2-1.5-1.2c-0.5,0-1.3,0.1-1.8,0.1c-0.2,0-0.2,0-0.3-0.1l-0.1-0.3c0-0.1,0-0.2,0.2-0.3c0.5-0.2,1.5-0.3,2.1-0.3
		c2,0,2.3,0.9,2.3,2.3V85c0,0.5,0.1,0.5,0.5,0.5c0.2,0,0.2,0.1,0.2,0.2V86c0,0.1-0.1,0.2-0.3,0.2c-0.2,0-0.3,0-0.4,0
		C72.8,86.3,72.6,86.1,72.4,85.6L72.4,85.6z M72.5,83.3h-1.9c-0.8,0-1.3,0.3-1.3,1.3c0,0.7,0.2,0.9,1,0.9c0.6,0,1.6-0.4,2.2-0.7
		V83.3z"/>
	<path class="st1" d="M78.3,81c-0.7,0.1-1.7,0.4-2,0.6V86c0,0.2-0.1,0.2-0.2,0.2h-0.5c-0.1,0-0.2-0.1-0.2-0.2v-5.7
		c0-0.2,0.1-0.2,0.2-0.2h0.5c0.2,0,0.2,0.1,0.2,0.2v0.5l0,0c0.3-0.3,1.3-0.7,1.9-0.8c0.2,0,0.2,0,0.2,0.2l0.1,0.5
		C78.5,80.9,78.4,80.9,78.3,81z"/>
	<path class="st1" d="M82.6,85.9c0,0.1,0,0.2-0.1,0.2c-0.3,0.2-1.1,0.3-1.4,0.3c-1.1,0-1.4-0.5-1.4-1.3v-4.1H79
		c-0.2,0-0.2-0.1-0.2-0.2v-0.4c0-0.2,0.1-0.2,0.2-0.2h0.7v-1.4c0-0.2,0.1-0.2,0.2-0.2l0.5-0.1c0.1,0,0.2,0,0.2,0.2v1.6H82
		c0.2,0,0.2,0.1,0.2,0.2v0.4c0,0.2,0,0.2-0.2,0.2h-1.4v3.8c0,0.6,0.1,0.7,0.9,0.7c0.1,0,0.6,0,0.7-0.1c0.2,0,0.3,0,0.3,0.2
		L82.6,85.9z"/>
	<path class="st1" d="M87.7,83.5h-3.6c0,1.5,0.5,2,1.7,2c0.5,0,1.3-0.1,1.8-0.2c0.2,0,0.3,0,0.3,0.2l0.1,0.3c0,0.1,0,0.2-0.1,0.3
		c-0.5,0.2-1.4,0.3-2,0.3c-2.3,0-2.6-1.6-2.6-3.2c0-1.2,0.3-3.2,2.6-3.2c2.2,0,2.5,1.4,2.6,2.8C88.3,83.2,88.2,83.5,87.7,83.5z
		 M85.7,80.8c-1.1,0-1.5,0.7-1.5,1.9h3.1C87.2,81.8,87,80.8,85.7,80.8z"/>
</g>
<g>
	<path class="st1" d="M51.9,34.5H36.2c-0.6,0-1.2,0.4-1.4,1l-3,10.4L53,48.3l1.7-7.9C53.6,38.5,52.7,36.5,51.9,34.5L51.9,34.5z"/>
	<path class="st1" d="M71.7,50.3L78,51l-1.9-6.6c-0.3,0.4-0.5,0.7-0.8,1.1C74.1,47.3,72.8,48.9,71.7,50.3L71.7,50.3z"/>
	<g>
		<path class="st1" d="M57.9,45.5l-0.7,3.3l3.4,0.4C59.8,48,58.9,46.8,57.9,45.5L57.9,45.5L57.9,45.5z"/>
		<path class="st1" d="M27.8,60c-0.1,0.4,0,0.9,0.2,1.2c0.3,0.4,0.7,0.6,1.1,0.6h21l2-9.4l-21.4-2.3L27.8,60z"/>
		<path class="st1" d="M79.3,55.4l-22.9-2.5l-1.9,8.9h24.8c0.8,0,1.4-0.6,1.4-1.4c0-0.2,0-0.3-0.1-0.5L79.3,55.4z"/>
		<path class="st1" d="M66.1,52.1c0.2,0.2,0.4,0.3,0.6,0.3s0.4-0.1,0.6-0.3c1.3-1.4,3.8-4.2,6.4-7.8c3.2-4.5,7-11.2,7-17.1
			c0-7.7-6.3-14-14-14s-14,6.3-14,14c0,5.9,3.8,12.6,7.1,17.1C62.2,47.9,64.8,50.7,66.1,52.1L66.1,52.1z M66.6,18.5
			c4.7,0,8.6,3.8,8.6,8.6c0,4.7-3.8,8.6-8.6,8.6c-4.7,0-8.6-3.8-8.6-8.6C58.1,22.3,61.9,18.5,66.6,18.5L66.6,18.5z"/>
	</g>
</g>
</svg>
