<?xml version="1.0" encoding="utf-8"?>
<!-- Generator: Adobe Illustrator 20.1.0, SVG Export Plug-In . SVG Version: 6.00 Build 0)  -->
<svg version="1.1" id="Layer_1" xmlns="http://www.w3.org/2000/svg" xmlns:xlink="http://www.w3.org/1999/xlink" x="0px" y="0px"
	 viewBox="0 0 100 100" style="enable-background:new 0 0 100 100;" xml:space="preserve">
<style type="text/css">
	.st0{fill-rule:evenodd;clip-rule:evenodd;fill:#999999;}
</style>
<path class="st0" d="M65.6,43.7h-9.4v-9.4c0-3.4-2.8-6.3-6.2-6.3c-3.4,0-6.3,2.8-6.3,6.3v9.4h-9.4c-3.4,0-6.3,2.8-6.3,6.3
	c0,3.4,2.8,6.2,6.3,6.2h9.4v9.4c0,3.5,2.8,6.2,6.3,6.2c3.4,0,6.2-2.8,6.2-6.2v-9.4h9.4c3.4,0,6.2-2.8,6.2-6.2S69.1,43.7,65.6,43.7
	 M50,0C22.4,0,0,22.4,0,50c0,27.6,22.4,50,50,50c27.6,0,50-22.4,50-50C100,22.4,77.6,0,50,0 M50,90.6C27.6,90.6,9.4,72.4,9.4,50
	C9.4,27.6,27.6,9.4,50,9.4c22.4,0,40.6,18.2,40.6,40.6C90.6,72.4,72.4,90.6,50,90.6"/>
</svg>
