<?xml version="1.0" encoding="utf-8"?>
<!-- Generator: Adobe Illustrator 20.1.0, SVG Export Plug-In . SVG Version: 6.00 Build 0)  -->
<svg version="1.1" id="Layer_1" xmlns="http://www.w3.org/2000/svg" xmlns:xlink="http://www.w3.org/1999/xlink" x="0px" y="0px"
	 viewBox="0 0 360 565" style="enable-background:new 0 0 360 565;" xml:space="preserve">
<style type="text/css">
	.st0{clip-path:url(#SVGID_2_);}
	.st1{clip-path:url(#SVGID_4_);fill:url(#SVGID_5_);}
	.st2{opacity:0.5;clip-path:url(#SVGID_7_);}
	.st3{clip-path:url(#SVGID_9_);}
	.st4{clip-path:url(#SVGID_11_);fill:url(#SVGID_12_);}
	.st5{opacity:0.42;clip-path:url(#SVGID_7_);}
	.st6{clip-path:url(#SVGID_14_);}
	.st7{clip-path:url(#SVGID_16_);fill:url(#SVGID_17_);}
	.st8{clip-path:url(#SVGID_19_);fill:url(#SVGID_20_);}
</style>
<g>
	<defs>
		<rect id="SVGID_1_" x="0.3" width="359.7" height="565"/>
	</defs>
	<clipPath id="SVGID_2_">
		<use xlink:href="#SVGID_1_"  style="overflow:visible;"/>
	</clipPath>
	<g class="st0">
		<defs>
			<rect id="SVGID_3_" x="0.3" y="-0.6" width="359.5" height="565.6"/>
		</defs>
		<clipPath id="SVGID_4_">
			<use xlink:href="#SVGID_3_"  style="overflow:visible;"/>
		</clipPath>
		
			<radialGradient id="SVGID_5_" cx="1.005664e-03" cy="565.0009" r="0.9994" gradientTransform="matrix(255.0555 0 0 -400.1628 179.0202 226374.5469)" gradientUnits="userSpaceOnUse">
			<stop  offset="0" style="stop-color:#FFAF72"/>
			<stop  offset="0.2436" style="stop-color:#FBAC73"/>
			<stop  offset="0.4709" style="stop-color:#F0A475"/>
			<stop  offset="0.6917" style="stop-color:#DD9579"/>
			<stop  offset="0.9073" style="stop-color:#C3817F"/>
			<stop  offset="1" style="stop-color:#B57782"/>
		</radialGradient>
		<rect x="0.3" y="-0.6" class="st1" width="359.5" height="565.6"/>
	</g>
	<g class="st0">
		<defs>
			<rect id="SVGID_6_" y="-25.5" width="360" height="590.5"/>
		</defs>
		<clipPath id="SVGID_7_">
			<use xlink:href="#SVGID_6_"  style="overflow:visible;"/>
		</clipPath>
		<g class="st2">
			<g>
				<defs>
					<rect id="SVGID_8_" x="-1.4" y="-0.6" width="361.4" height="566.3"/>
				</defs>
				<clipPath id="SVGID_9_">
					<use xlink:href="#SVGID_8_"  style="overflow:visible;"/>
				</clipPath>
				<g class="st3">
					<defs>
						<rect id="SVGID_10_" x="-1.4" y="-0.6" width="361.4" height="566.3"/>
					</defs>
					<clipPath id="SVGID_11_">
						<use xlink:href="#SVGID_10_"  style="overflow:visible;"/>
					</clipPath>
					
						<linearGradient id="SVGID_12_" gradientUnits="userSpaceOnUse" x1="0" y1="565" x2="1" y2="565" gradientTransform="matrix(129.7564 424.0643 424.0643 -129.7564 -239474.2813 73407.9219)">
						<stop  offset="0" style="stop-color:#7F47DD"/>
						<stop  offset="3.627490e-02" style="stop-color:#7F47DD"/>
						<stop  offset="0.5942" style="stop-color:#F6AA20"/>
						<stop  offset="0.6859" style="stop-color:#FBAE17"/>
						<stop  offset="1" style="stop-color:#FBAE17"/>
					</linearGradient>
					<polygon class="st4" points="329.1,-101.7 518.4,517.2 29.5,666.8 -159.9,47.9 					"/>
				</g>
			</g>
		</g>
		<g class="st5">
			<g>
				<defs>
					<rect id="SVGID_13_" x="-3.8" y="426.7" width="363.8" height="140.2"/>
				</defs>
				<clipPath id="SVGID_14_">
					<use xlink:href="#SVGID_13_"  style="overflow:visible;"/>
				</clipPath>
				<g class="st6">
					<defs>
						<path id="SVGID_15_" d="M360,455.1c-0.1,0.1-0.2,0.2-0.4,0.2c0.1,0.5-0.2,0.5-0.3,0.3c0.1-0.2,0.3-0.4,0.3-0.8
							c-0.2-0.4-0.4,0.1-1-0.3c0.3-0.6-0.1-0.7,0.5-1.3c-0.1-0.3-0.5-0.4-0.5-0.8c-0.5,0.2-0.3,1.1-1.3,0.8c0.2-0.2,0.3-0.6,0.3-1
							c-0.8,0.1-0.8,0.9-1,1.6c-0.5,0.2-0.2-1.5-0.5-0.5c-0.1-0.5,0.3-1.3,0-2.6c1.1,0.1,1.7-0.4,2.1-1c-0.5-0.8-1.2,0.3-2.1,0
							c0.5-0.8-0.5-2,1-2.1c0.1-0.6-0.4-0.5-0.8-0.5v-1.8c-0.4-0.1-0.5,0.2-0.5,0.5c-0.6-0.1-0.6-0.7-0.3-1
							c-0.1-0.6-0.7,0.3-0.8,0.5c-0.5,0,0.3-0.9,0-1.6c-1.1,0.3-0.6,2.4-1.8,2.6c0,0.3,0.5,0.2,0.8,0.3c0.4,1.2-0.8,0.8-0.5,1.8
							c-0.2-0.2-0.6-0.3-1-0.3c-0.1,1.2,1.9,0.4,1.3,2.1c-0.5-0.1-0.8,0.1-0.8,0.5c0.1,0.4,0.3-0.1,0.8,0v1
							c-1.2,0.1-1.4-0.7-1.6-1.6c-0.3,0.2-0.3,0.6-0.8,0.5c0.1-0.6,0.7-1.2-0.5-1c0.3-0.5,0.5-1.1,1-1.3c-0.1-0.5-0.7-0.5-0.5-1.3
							c-1.2-0.1,0.3,2.6-1.3,2.1c-0.1,0.6,0.5,0.4,0.5,0.8c0.1,0.4-0.2,0.5-0.5,0.5c0.2,0.3,0.6,0.3,0.5,0.8
							c-0.6,0.1-0.6-0.5-1.3-0.3c0.3,0.6,0.1,1.7,1,1.6c-0.1,1.1,0.6,1.5,0.8,2.4c0.2,0,0.2-0.1,0.3-0.3c0.8,0.3-0.3,0.7-0.8,0.5
							c-0.3-0.5,0.3-1.1-0.8-1.3c0.8-0.8-0.5-0.6-0.3-1.6c-0.4,0.3-0.5,0.8-1,0.3c0,0.8,0,1.6,0.8,1.6c-0.5,0.2-0.7,0.7-1.3,0.8
							c-0.2,0.8,0.7,0.5,0.5,1.3h-1.3c-0.7,0.2-0.8,1.9-0.8,0c-0.4,0-1-0.1-1,0.3c-0.5-0.6,1.5-0.9,1.8-1.6
							c-0.1-0.8-0.4,0.4-0.8,0.3c-0.8-0.2-0.8-0.2-1.6,0c-0.2-0.5,0.5-1.4,0-0.8c-0.9-0.4,0.4-0.7,0.5-1c-1.3-0.1,0.1-2-1.3-2.4
							c-0.5,0.1-0.4,1.2,0.3,1.1c0.1,0,0.2-0.1,0.3-0.1c-0.1,0.1-0.2,0.1-0.3,0.1c-1.1,0.5,0.1,2.1-1.6,2c0,0.8,1.1,0.5,1,1.3
							c-0.2-0.1-0.4-0.3-0.8-0.3c0,0.7,0.4,0.8,0.8,1c-1,0.9-0.8-1.6-2.1-1.3c0.2-0.5,1-0.9-0.3-0.8c-0.1-0.7,0.1-1.1,0.8-1
							c-0.1-0.5-0.6-0.7-0.5-1.6H340c-0.7-0.5,0.9-1-0.3-1.3c0-0.5,0.9-0.2,1-0.5c0-0.6-0.9-0.1-1.3-0.3c-0.7-0.9,0.6-2.1,0-2.9
							c-0.5,0.1-0.5,0.7-0.8,1c-0.9,0.5-1.3-0.9-1.6-0.3c-0.3-0.3,0.2-2.1,1-2.1c-0.2-0.8-0.7,0.3-1.3,0c-0.2-0.8,0.9-0.4,0.3-1
							c-0.4,0.1-0.2,0.8-1,0.5c0.3-1.9-0.8-2.4-1-3.7c-0.2,0.2-0.4,0.5-0.5,0.8c-0.1,0.3,0,0.6,0,0.5c-0.1,0.2-0.5,0.5-0.5,0.5
							c-0.1,0.5,0.2,1.2,0,2.4c-0.5,0.1-0.7,0.5-1,0.8c-0.3,1,1,0.4,0.8,1.3c-0.8-0.7-1.4,0.5-2.6,0.3c-0.1,0.7,0.4,0.9,1,0.8
							c-0.1,0.3-0.5,0.2-0.5,0.5c-0.1,0.9,0.9,0.6,0.8,1.6c0.1,0.5,0.9-0.3,0.8,0.8c-1,0.3-0.7-0.6-1.6-0.5c-0.2,0.3,0.7,1.3-1,1
							c-0.3,0.5,0.5,0.5,0.5,0.5c0,0.2-0.5,0.7-0.5,0.8c0,0.7,1.1,0.6,1,1.8c-1.1-0.3-1.7-1.2-3.4-1c0.2,0.6,1.5,0.1,1.3,1
							c0.8-0.1,1.2,0.2,1,1c-1.3,0-1.5-1.2-3.1-0.8c1,1.1,3.4,0.8,3.7,2.6c-1.1-0.4-1.1-1.1-2.9-0.8c0,0.8,0.8,0.8,1.6,0.8
							c0.2,0.6,0.2,1,0,1.6c-1-0.2-1.9-0.6-3.1-0.5c0.6,0.4,1.1,0.8,1.6,1.3c-0.4,0.1-0.7,0.1-1.3,0.5c0.1-0.2,0.3-0.4,0.3-0.8
							c-0.4,0.1-0.2,0.8-1,0.5c0-0.6,0-1.3,0.3-1.6c-1.1,0.1-1.1,1.4-2.1,1.6c-0.1,0.5,0.3,1.3-0.5,1c-0.2-1.7,1.3-1.6,1.6-2.9
							c-0.2-0.6-0.8,0.6-1.6,0.3c0.1-0.5,0.1-1.1,0.8-1c-0.1-0.8,0.4-1,0.5-1.6c-0.9-0.1-0.6,1-1.3,1c-0.5,0-0.6-0.3-1-0.3
							c0-0.8,0.8-1.3,1.3-0.8c-0.2-0.8,0.4-0.8,0.5-1.3c-1-0.2-1.4,0.5-1.8,0c0.2-0.4,0.4-0.8,1-0.8c0-0.6-0.9-0.1-1.3-0.3
							c0.1-0.6,1.1-0.3,1.3-0.8c-0.3-0.2-1.7,0.2-1.8-0.8c1.1-0.2,0.2-1,1-1.3c-0.2-0.7-1.1-0.9-1.8-1c1.2-0.3-0.7-1,0.5-1
							c-0.3-0.6-1,0.4-1.8,0c0.1-0.5,0.1-1.1,0.8-1c-0.1-0.3-0.3-0.5-0.8-0.5c0.6-1.1-0.6-1.1-0.5-2.4c-0.2,0.6-1.1,1.8-0.5,2.4
							c-0.3,0.4-0.7,0.5-1,0.8c0,0.6,0.7,0.6,1.3,0.5c-0.3,0.4-0.9,0.5-1.6,0.5c-0.4,1,1.2,0.1,0.8,1c-0.6,0.1-1,0-1.3-0.3
							c-0.2,0.4,0.7,1.1-1,0.8c0,1.3,2,0.4,2.1,1.6c-0.3-0.4-1.2-0.2-1.6-0.5c-0.3,0.8-0.8,1.3-1.8,1.3c-0.2,0.9,0.8,0.8,0.8,1.6
							c-0.9-1,0,1.1-1,0.8c-0.2,0.8,0.9,0.3,0.5,1.3c-0.7,0.2-0.7-0.4-1.3-0.3c0.1,0.9,0.8,1.1,1.6,1.3c-0.4,1,0.7,0.5,0.5,1.3
							c-0.7,0-0.6-0.8-1.3-0.8c-0.5,0.1,0.4,0.8-0.5,0.3c-0.4,0.1,0.1,0.3,0,0.8c-0.7,0.1-1.1-0.1-1-0.8c-0.8,0.2,0.3,0.7,0,1.3
							c0.5,0.8,1.9,0.9,2.1,2.1c-1.1-0.5-1.2-0.6-2.1-1c-0.1,0.9,0.6,1,0.8,1.6c-0.1,0.3-0.8,0.3-0.8,0c-0.5,0.2-0.2,0.8-0.8,0.3
							c0.2,1.2,1,1.4,0.5,2.6c-0.3-0.3-0.5-0.5-0.8-0.8c-0.8-0.1,0.7,0.8-0.3,0.8c0.4,0.3,0.6,0.8,1.3,0.8c-0.1,0.6,0.1,1,0.5,1
							c-0.2,0.5-1.2-0.3-1.6-0.5c0.2,0.6,0.4,1.2,1,1.3c-0.4,0.6-0.4,1-0.5,1.3c0.3,0.4,0.7,0.6,1,0.3c0.3-0.8-0.8-0.2-0.5-1
							c0.2-0.2,1.6-0.7,1.3,0.3c0.7-0.2,1.1-0.3,1.6,0.3c0.1,0.5-0.2,0.5-0.3,0.3c-0.4,0.1-0.9,1.4-1,0.8c-0.4,0.1-0.2,0.7-0.3,1
							c-0.2-0.1-0.4-0.3-0.8-0.3c-0.3,0.7-0.1,1-0.8,1c-0.3,0.9,1.1,0.3,1.3,0.8c0-0.3-0.1-0.5-0.3-0.5c0.2-0.6,0.8,0.4,1,0.5
							c0.2,0.8-0.7,0.5-0.5,1.3c-0.9-0.1-0.3-0.7-1.3-0.3c0.1-0.5-0.2-0.5-0.3-0.3c-0.4-0.3-0.3-1.1-1.3-0.8
							c-0.1,0.6,0.4,0.5,0.8,0.5c-0.1,0.4-0.8,0.2-0.5,1c1.1,0.6,0.1,0.2,0.5,1.3c1,0.3,0.1-1.3,1.3-0.8c0,0.3,0.1,0.5,0.3,0.5
							c-0.1,0.4-0.2,0-0.5,0c-0.6,0.4-0.5,1.4-1,1.8c-0.2,0-0.2-0.1-0.3-0.3c-0.1-0.2-0.3-0.4-0.3-0.8c0.2,0.1,0.3,0.3,0.5,0.3
							c0.3-1.6-1.4-0.3-0.5-1.6c-0.3-0.9-1.1,0.1-1.6-0.8c0-1.5,0.6-1.1,0.3-2.6c-0.7,0.2-0.9,1-1,1.8c-1.7-0.7-0.4-2.7-1-3.9
							c-0.3,0.9-1.4,1-1.3,2.4c-1,0.2-0.9,1.5-2.1,1.6v-1.3c0.6,0.1,0.5-0.4,0.5-0.8c0.8,0.2,0.5-0.7,1.3-0.5
							c-0.3-0.4-0.3-1.1,0.3-0.5c0-0.7-0.5-0.8,0-1.3c-1.1,0-1,1-2.4,0.8c-0.1-0.5,0.5-0.6,0.5-0.3c0.3-0.2,0.3-0.6,0.8-0.5
							c0-0.6-0.2-0.8-0.8-0.8c0.4-1.2,0.5,0.4,1-0.3c0.2-0.7-0.5-0.5-0.8-0.8c0.2-0.5,0.6-0.8,1-1c-0.2-0.8-0.2-0.5,0.3-1
							c-0.1-0.4-0.5,0.2-0.5-0.3c-0.5,0.5-0.4,2.4-1.3,1.6c0,0.7,0,1.3-0.8,1.3c0.4-0.3,0.3-1.1,0.3-1.8c0.4-0.1,0.7-0.4,1-0.5
							c-0.1-0.6-0.4,0.3-0.8-0.3c0-0.7,1.1-0.3,0.8-1.3c0.4,0,0.7,0,0.8-0.3c-0.2-0.6-1.6,0.5-2.1-0.3c0-0.5,0.7-0.3,0.5-1
							c0.5-0.2,1.1,0.8,1.3,0c-0.4-0.1-1.1-0.8-2.1-0.3c0.5-1,1.2-1.6,0.8-2.9c-0.5,0.1-0.2,1-1,0.8c0.2-0.2,0.6-1-0.3-0.8
							c0.4-0.5,0.9,0.3,1.6-0.3c0-0.8-1.2-0.3-1.6-0.8c0.1-0.5,0.7-0.5,1-0.8c-1.1-1-1-1.5-1-3.4c-0.3,1.1-0.8,1.5-0.5,2.6
							c-0.2,0.1-0.4,0.3-0.8,0.3c0.1,0.5,0.6,0.7,0.5,1.3c-0.4-0.5-1,0.4-1.6-0.3c0.1-0.3,0.5-0.2,0.5-0.5c-0.1-0.4-0.8-0.2-0.5-1
							c-1-0.4-0.1,1.2-1,0.8c-0.1,0.4,0.2,0.5,0.5,0.5c-0.2,0.4-0.4,0.8-1,0.8c0.2,0.5,0.5,0.9,1.3,0.8c-0.1,0.7-1.2,1.1-1.8,0.5
							c0.1,0.7,1,0.6,1.3,1c0,0.9-0.8,0.1-1.3,0.8c0.6,0.5,0,0.8-0.3,1.3c-0.4-0.5,0.3-1.4-1-0.8c0-0.8,0.8-1.3,1.3-0.8
							c0-0.7-0.4-0.8-0.8-1c0.3-0.3,0.7-0.5,0.8-1c-0.6,0-0.8,0.5-1.6,0.3c0.8-0.7-0.8-1.1,0-1.8c-0.3-0.3-1.4-1.2-1.8-0.5
							c-0.4-0.1,0-0.5,0.3-0.5c-0.6-0.5-0.9-1.2-0.8-2.4c-1,0.3,0.2,1.3-1,1.6c0.1,0.2,0.3,0.4,0.3,0.8h-1c0.1,1.3,0,2.2-1,2.4
							c0.1,0.7,0.5-0.4,1,0c-0.4,0.3-0.8,1-1.3,0.5c0,0.7,1.2,0.3,1,1.3c-0.6,0.1-0.6-0.5-1.3-0.3c-0.3,0.7,0.8,1.1-0.3,1
							c0.2,0.7,0.7,1,0.8,1.8c-0.6,0.1-0.4-0.5-0.8-0.5c-0.4,0.9,1.6,1.5,1.3,3.1c-0.5,0.1-0.5-0.2-0.3-0.3
							c-0.4-0.6-0.8-1.3-1.3-1.8c-0.7,0.2,0.4,0.8,0,1.6c0.4-1.2,1.1,0.5,0.5,1c0,0.5,0.9-0.3,1.6,0c0,0.4,0.2,0.7,0.5,0.8
							c-0.1,0.6-1.4,0.2-1.6,0c-0.3,0.2-0.3,0.6-0.8,0.5c-0.1-1-0.4-1.2,0.3-1.8c-0.9-0.2-0.3,1.1-1.3,0.8c0.7,0.8-0.4,1.8,0.5,2.4
							c0.6,0,0.1-0.9-0.3-0.8c0.1-0.9,1,0.7,1-0.3c0.1,0.4,0.7,1.2,1.6,1.6c0.3,0,0.2-0.5,0.3-0.8c1-0.1,1.1,0.7,1.8,0.8
							c-0.1-0.8-0.9-0.8-1.6-1c1.4-0.3,0-2-0.5-2.6c0.4-0.8,1.3,0.1,1.6,0.3c0.3-0.1,0.3-0.8,0-0.8c0.4,0,0.6-0.7,1.6-0.8
							c-0.5,0.2-0.2,1.3-1,1.3c0.2,0.7,1.1-0.5,1.6,0.3c-0.6,0.2-0.5,1.1-0.8,1.6c0.4-0.2,1-0.2,0.8-1c0.5,0.1,0.8-0.1,0.8-0.5
							c0.3,0.2,0.3,0.6,0.8,0.5c0,0.2-0.1,0.2-0.3,0.3v0.5c-0.4,0-0.7-0.2-0.8-0.5c-0.4,1.3-1.5,1.5-2.6,0.8
							c0.3,0.4,0.9,0.5,0.8,1.3c0.6-0.5,1.8,0.6,1.8-0.8c0.5,0.2,0.1,0.9,0,1c-0.1,0.1-0.4-0.1-0.5,0c-0.1,0.1,0.1,0.5,0,0.5
							c-0.2,0.2-0.7,0-0.8,0.3c-0.1,0.2,0.4,0.9,0,1h-1c0.1,0.5,1,0.2,0.8,1c-0.6,0.2-2,0.7-1.8-0.5c0.2,0.2,0.6,0.3,1,0.3
							c-0.2-0.2-0.5-0.4-0.8-0.5c-0.8,0.4-0.9,0.7-1.6,0c0,0.9,1.3,0.4,1.3,1.3c0.8-0.2,0.8,0.5,1.6,0.3c-0.1,0.9,0.1,1.5,1,1.3
							c-0.2-0.3-0.6-0.3-0.5-0.8c1.6,0.3-0.2-1.3,1.3-1.3c-0.1,0.5,0.1,2,0.5,1c0.8,0.3-0.3,0.7-0.5,0.8c0.7,0.8-0.8,1.4,0.3,1.8
							c-0.8,0.5-0.6-0.2-0.8,0.8c0.7,0.2,0.4,1.3,1.3,1.3c-0.3,0-1.8,0.7-1.6-0.5c-0.9,0.4-0.2,0.9-0.5,1.8
							c-0.3-0.4-1.2-0.2-1.6-0.5c-0.3,0.9,1.1,0.3,1.3,0.8c-0.4,0.5,0,0.3,0,1c-0.4-0.1-0.7-0.4-1-0.5c-0.2,1.3,0.8,1.4,0.3,2.4
							c-0.2-0.2-1-0.6-0.8,0.3c-0.4-0.5-1-0.8-1.6-1c-0.3,0.8-1.4,0-2.1,0.8c-0.5-0.2,0.8-0.7,1.3-0.8c-0.1-0.3-0.8-0.3-0.8,0
							c-0.3-0.2,0.1-0.6-0.8-0.8c0.3-0.8,0.9,0.3,1.6,0c0-0.7-1-0.4-1.3-0.8c0.1-1.1,2.2-1,2.6-0.3c0.2-0.1,0.3-0.3,0.5-0.3
							c-0.7-0.5-0.2-0.7-0.8-1.3c-0.3,0.4-0.7-0.1-1,0c-0.5,0.2-0.1,0.6-1.3,0.3c0-0.5-0.3-0.6-0.3-1c0.3-0.6,1.4,0.6,1.8-0.3
							c-0.2-0.3-0.5-0.1-1.3-0.3c0.2-0.2,0.4-0.7,0-0.8c0-0.3,0.5-0.2,0.8-0.3c-0.1-0.4-0.4-0.7-0.5-1c-0.2,0.1-0.3,0.3-0.5,0.3
							c-0.8,0.8,0.2,2-0.8,2.4c0.8,0.6,0.1,1.3,0.3,2.6c-0.6-0.6-1,0.6-2.1,0.3c-0.3-1-1.3-1.3-1.6-2.4c-0.5,0.6,0.6,1.1,0,2.1
							c0,0.8,1.1,0.5,1,1.3c1.2,0,1-0.2,2.1,0c0.3-0.8-0.8-0.2-0.5-1h1c-0.6,0.5,0.5,1.3-0.8,1.3c-0.3,0.5,0.8,0.9,0,1
							c0.1,0.5,0.7-0.4,1,0.3c0,1-1.3,0.4-0.5,1.3c-0.2,0.5-0.8,0.8-1.6,0.8c0.4,0.4,1.1,0.4,1.8,0.5c0.1,1.1-0.6-0.1-1.3,0.3
							c0.2,0.4,0.6,0.5,1,0.5c-1,0.5-1.9-0.2-2.9,0.3c0-0.5,0.9-0.2,0.8-0.8c-0.8-0.3-0.7-1.4-1.8-1.3c-0.1-1.1,0.6,0.1,1.3-0.3
							c-0.3-0.5-0.4-1.3-1.3-1.3c0.3-0.7,1.1,0.1,1.6,0c0,0.5-0.3,0.6-0.3,1c0.9-0.2,0.6-1.3,0.5-1.8c0.3,0.1,0.5,0.3,0.5,0.8
							c0.2-0.2,0.7-0.2,0.8-0.5c0-0.2-0.3-0.3-0.3-0.5c-0.5,0.9-0.4,0.1-1.3,0c-0.3,0-0.2,0.3-0.3,0.5c-0.1-0.7-0.9-0.8-1.6-1
							c-0.3-0.9,1.4-1.3-0.3-1.3c0.4-0.6-0.1-1.1,0.3-1.3c-0.2-0.5-1.1-0.3-0.8-1.3c-1-0.4-0.1,1.2-1,0.8c0.8,0.3,0,0.7,0.5,1
							c-1,0.9-2-0.4-2.6-0.8c0-0.7,0.1-1.5-0.5-1.6c0.5-0.6,1.4,0.4,1.8-0.5c-0.2-0.8-0.8,0.2-1.3,0c-0.1-1,1.2-0.7,1-1.8
							c-0.8,0-0.7,0.8-1.8,0.5c-0.3-0.4-0.3-0.7,0-1c-1.6,0-3.7,0-5.2-0.8c0.6-0.6,1.7-1,2.6-0.5c0.7,0,0.3-1.2,1.3-1
							c0-0.6-0.9-0.1-1.3-0.3c-0.1-0.7,1-0.2,1-0.8c0.5,0.1,0.7,0.5,1,0.8c0.8-0.2-0.2-0.8,0-1.3c1,0.4,1.3-1.1,1.6-0.5
							c0.3-0.7,1.3-0.8,1.8-1.3c-0.1-0.3-0.5-0.2-0.5-0.5c-0.9,0.5-2.3,0.6-2.6,1.8c-0.9,0.3-1.3-0.3-1.3,0.5c-0.8,0-1.6,0-1.8,0.5
							c-0.5-0.5-1-0.1-1.6,0c-0.3-0.2-1.8-0.6-2.1-1.6c0.9,0.1,1.1-0.5,1.6-0.8c0.6,0.6,1.7,0.7,1.8,1.8c0.5-0.4-0.3-1.6-0.8-1.8
							c0.1-0.9,1,0.7,0.8-0.5c0.2,0.1,0.4,0.3,0.8,0.3c0.4-0.3,0.4-1.2,0.8-1.6c0.3,0.1,0.4,0.5,0.8,0.5V465
							c0.3,0.1,0.4,0.5,0.8,0.5c0.1-0.8-0.9-0.7-0.3-1.3c1.2-0.3,0.7,0,1.6,0.3c0.2-0.6,0-1.3,1.6-1c-0.5-0.4-1.6-0.2-1.2-1
							c-0.6,0.8-2.2,1.7-2.7,0.7c-0.3,0.5-0.9,1.2-1.6,0.5c0.8,0,1.4-1.3,1.8-0.8c0.4-0.1,0.2-0.7,0.3-1c1-0.2,2.1-0.1,2.9,0.5
							c0.6-0.4,0.4-0.6,0.3-1.3c-0.3,0-0.2,0.5-0.3,0.8c-0.7-0.5-0.4-0.9-1.6-0.5c0.4-0.7,0.7-0.3,1.6-0.8c-0.2-0.8,0.2-1,0.5-1.3
							c0.1-0.5-1,0-0.8,0.5c-1.7,0-2,1.5-3.1,2.1c-0.4-0.8-0.6-0.3-1.6-0.3c0.4-0.8,2.2-0.2,2.6-1c-0.2-0.2-2.2,0-2.9,0.3
							c-0.1-0.6,0.5-0.4,0.5-0.8c1.6,0,2.7-0.5,3.9-0.8c-0.7,0-2.4-0.4-2.9-1.3c0.1-0.4,0.5,0,0.5,0.3c0.6-0.4,1.6-0.5,1.8-1.3
							c-1-0.4-1.7,1.4-3.1,0.3c0.1-0.4,1.1-0.5,0-0.5c0.4-1.4,2.1-1.5,2.6-2.9c-1.4,0.4-1.9,1.7-3.4,2.1c0.1-0.8-1-0.4-1-1
							c0.4,0,1.1-0.5,1.8-0.8c-0.2-0.3-0.6-0.3-0.5-0.8h0.5c0.3-1.1,1.5-1.1,1.6-2.4c-0.4,0.8-1.4,1-1.8,1.8c0-0.7-0.7-0.6-0.8,0.5
							c-1.1-1.1-2.1-0.3-3.1-0.8c0-0.3,0.3-0.1,0.3,0c0.8,0.2,0.4-0.9,1-0.8c1.1,0,1.1,1.1,2.1,0.5c-0.2-0.7-0.9-0.9-1-1.6
							c0.5-0.3,1-0.5,1.6-0.8c-0.5-0.7-1.4,0.5-2.1,0.5c0.2-0.7,0.7-1,1.6-1c-0.5-0.8-1.4,0.2-2.1,0c0.2-1,0.7-0.1,1.6-0.5
							c-0.2-1-1.3-0.7-1.8-0.3c-0.8-0.2-0.5-0.2-1.3,0c0.3-0.8-0.8-0.2-0.5-1c0.4-0.1,0.5,0.2,0.8,0.3c0.4,0,1.1-1,1.3-0.3
							c0.3,0,0.2-0.3,0.3-0.5c0.5,0,0.6,0.3,1,0.3c-0.7-1.4-3.2,0.4-3.4-1.6c0.9,0.2,1-0.4,1.8-0.3c-0.3-1-0.8,0.1-1.6,0
							c0.1-0.9,0.3-1.1,0.3-2.6c-0.7,0-0.5,0.9-1.6,0.5c0.2,0.3,0.3,0.7,0.3,1.3c-0.3-0.1-0.4-0.5-0.8-0.5c0.2,0.8,0.6,1.4,1.3,1.8
							c0.1,0.4-1.4,0.4-1.3,0c-0.2,0.4,0.1,1.1-1,0.5c0.3,0.4,0.7,0.5,1,0.8c0,0.3-0.5,0.2-0.8,0.3c0.1,0.5,0.5,0.6,1,0.5
							c-1.2,0.4-2.6,0.5-4.2,0.5c0,0.3,0.5,0.2,0.8,0.3c-0.3,0.6-0.5,1.2-1.3,1.3c-0.7-0.8,0.8-2.5-0.8-1.8c0-0.6,0.2-0.8,0.8-0.8
							c-0.3-0.5,0.3-2.1-0.5-1.6c-0.9-0.3,0.3-0.5,0.3-0.8c0-0.3-0.5-0.2-0.8-0.3c-0.1-0.6,0.4-0.5,0.8-0.5
							c-0.3-0.7-1.3-0.8-2.4-0.8c0.1,0.6,0.2,1.2,1,1c0,0.6-0.5,0.8-0.3,1.6c-0.7,0.2-0.7-0.4-1.3-0.3c0.6,0.4,1,0.7,0.5,1.6
							c0.4-0.3,0.5-0.8,1-0.3c-0.1,0.4-0.8,0.2-0.5,1c-0.5-0.5-1-0.1-1.6,0c0.1,0.4,0.7,0.2,1,0.3c-0.4,0.4-0.1,1.2,0.3,1.6
							c-0.6,0.7-1.5-0.4-2.6,0c0.5,0.6,1.6,0.3,2.1,1.3c-0.6,0.2-0.7,0.9-1.6,0.8c0,1.1,0.2,2.1,1.3,2.1c-0.3,1.1,0.1,1.4-0.5,1.8
							c-0.9,0.2-0.3-1.1-1.3-0.8c0-0.4,0-0.7,0.3-0.8c-0.2-0.4-0.6-0.5-1-0.5c-0.5,0.6-0.9,0.8-0.5,1.6c-0.5-0.6-0.7,0.1-1.6,0
							c0.1-1.4,1.9-1.1,1.8-2.6c-1.2-0.2-0.6,1.3-1.6,1.3c-0.2-0.8,0.2-1,0.5-1.3c-0.2-0.5-1.5,0.1-1.6,0.5c-0.3-1,0.7-2.1,2.1-2.6
							c-0.8-0.6-1.9,0.7-3.1,0.5c0.2-0.5,0.6-0.8,0.8-1.3c0.5-0.1,0.7,0.2,1,0.3c-0.1-0.4-0.4-0.6-0.8-0.8c-0.3,0.2-0.3,0.6-0.8,0.5
							c-0.2-1-0.4-1.5,0.3-2.1c-0.9-0.4-0.6-0.4-0.5-1.6c-1.2-0.3-0.6,1.3-1.6,1.3c0.1,0.5,1,0.2,0.8,1c-1-0.6-0.2,0.6-0.3,1.3
							c-0.3-0.2-0.7-0.3-1.3-0.3c1.1,0.3,0.4,0.9,0.8,1.8c-0.3-0.8-0.8,0.1-0.8-0.8c-0.5,0.2-0.7,0.7-1.6,0.5c0.6,0.2,0.8,1,1.8,0.8
							c0,0.5-0.3,0.6-0.3,1c-0.7,0.2-0.5-0.5-1-0.5c-0.1,0.8,0.7,0.7,1,1c-0.2,0.5-0.5,0-0.8,0c0.3,0.8,0.5,1.5,1.3,1.8
							c-0.2,0.8-0.7-0.3-1.3,0c0-0.7-0.4-0.5,0-1c-0.2,0.1-1.3,0.5-0.5,0.8c-0.4,1-0.4-0.6-1-0.3c-0.7,0.5,0.9,1,0.8,1.8
							c-0.4,0-0.7-0.2-0.8-0.5c-0.6,0.6-1.2,0.5-2.4,0.3c0,0.5,0.3,0.6,0.3,1c-0.8-0.1-1.1,0.3-1.3,0.8c-1.2-0.3-2.3,1.2-2.9-0.3
							c0.8,0,1.7,0.1,2.1-0.3c-0.1-0.3-1.3-0.6-1.3-0.3c0-0.5-0.7-0.6-1-0.7c0-1.3,1-0.5,1.3,0c1-0.5-0.8-1.1,0-1.6
							c0-0.3-0.3-0.2-0.5-0.3c0.6-0.5-0.2-0.8,0.3-1.3c-1.7-0.2,0-1.3,0.3-1.8c-0.7-0.2-0.5,0.5-0.8,0.8c-0.7,0.1,0.2-1.5-0.8-1
							c0.2-0.6,0.6-0.9,1.6-0.8c-0.2-0.2-0.6-1.2,0-1.3c0-0.3-0.3-0.1-0.3,0c-0.4-0.2-0.1-0.5,0-0.8c0,0.1,0.2-0.8,0.3-0.8
							c0.1-0.2,0.7-0.1,0.8-0.3c0.1-0.3-0.4-0.9,0-1c-0.5-0.1-0.8,0.1-0.8,0.5c-0.7-1-1.4,0.8-1.8,0c-0.3,0.2-0.3,0.6-0.8,0.5
							c0.2-1.4-0.7-0.2-1-0.8c0.1-1.2,0.6-0.4,1.3-0.8c0.5-0.2,0.5-1,1.3-1c-0.2-0.3-0.6-0.3-0.5-0.8c-0.9,0-1,0.7-2.1,0.5
							c0.4-0.3,0.6-0.8,1.3-0.8c-0.1-0.9-1,0.7-0.8-0.5c-1.2,0.4-1.4,0.1-2.1-0.5c0.3-0.5,1.5-0.1,1.6-0.8c1.3-0.2,1.1,0.8,2.1,0.3
							c-0.6-0.4-1.4-0.7-2.4-0.8c0.8-0.4,1.4-1.1,2.4-1.3c-0.7-1.1-1.8,1.2-2.1-0.3c-0.2,0.4-0.8,0.4-0.8,1
							c-1.3-0.6,0.3-1.7,1.3-1.6c0.1-0.4-0.2-0.5-0.3-0.8c-0.2,0.3-1,0.1-0.8,0.8c-0.3-0.4-1.1-0.3-1-1h1c0.1-0.6-0.4-0.5-0.8-0.5
							c0.2-1,0-1,0.5-1.8c-0.1-0.4-0.3,0.1-0.8,0c-0.1-0.8,0.6-0.8,0.5-1.6c-0.9,0-0.4,1.4-1,1.6c0.1,0.2,0.3,0.4,0.3,0.8
							c-1.1-0.5,0.3,0.2,0,1c-1.2,0.2-1.6-0.5-2.1-1c-0.7,0.4,0.7,0.7,0.5,1.3c-0.3-0.3-0.9-0.3-1.6-0.3c0.5,1,0.7,1.1,0.8,2.1
							c-0.7,0-0.5,0.4-1,0c0.2,1.3-0.4,1.6-1.3,1.8c-0.1-1.3,1.1-1.2,1.3-2.1c-0.1-0.4-1.3,0.2-1,1c-1-0.4-0.5,0.7-1.3,0.5
							c-0.3-1.4,1.1,0.1,0.8-1.6h0.8c-0.1-0.6-0.7-1.2,0.5-1c-0.3-1.8,0.9-2.1,0.5-3.9c-0.6,0.6-0.3,1.9-1.3,2.1
							c-0.2-0.2-0.6-1,0.3-0.8c-0.3-0.7-0.1-1.1,0.3-1.8c-0.5,0.2-1,0.4-0.8,1.3c-0.6,0.7-1.2,1.4-1.8,2.1c-1-0.4,0.9-1.5,0-1.8
							c0.4-0.5,1-0.8,1-1.6c-0.8,0-1,0.6-1.3,1c-0.5-0.1-0.2-1-1-0.8c0.3-0.3,0.3-1,0.5-1.3c-0.5,0.5-1,0.9-1.3,1.6
							c-0.7,0.2,0.2-1.2-0.5-1c0.3-0.6,1-0.7,1.3-1.3c-0.1-0.3-1.4,0.3-1.6,0.8c-0.3-0.4-0.2-2.5,0.8-2.4c-0.1-0.3-1-0.9-0.8,0
							c-0.8-0.1-0.5-1.4,0-1.6c-0.3-0.3-0.5-0.5-0.8-0.8c-0.6-0.1,0.1,1.2-0.8,0.8c0.2,0.5,0.7,0.7,0.5,1.6
							c-0.9-0.1-0.6-1.7-0.8-2.9c-0.6,1.5-0.8,2.1-0.3,3.7c-0.6,0.1-0.3-0.8-0.8-0.8c-0.4,0.1,0.1,0.3,0,0.8c-0.4,0-1-0.1-1,0.3
							c-0.7-0.1,0-1,0.5-0.8c-0.8-0.9-0.6-1.1-0.8-2.6c-0.1-0.3-0.3-0.1-0.3,0c-0.5-0.6,0.2-1.3-0.3-1.8c-0.6,0.3,0.1,2-1,1.8
							c0.2,0.5,0.6,0.7,0.5,1.6h-1c0,0.6,0.2,0.8,0.8,0.8c-0.5,0.5,0,0.7,0,1.3c-0.6,0.6-0.8-0.3-1.6-0.3c0.4,0.8,0.6,1.7,1,2.4
							c-0.5,0.6-1.3-0.7-2.1-0.8c-0.7,0.2,0.6,0.6,0.8,0.8c-0.1,0.4,0.2,0.5,0.5,0.5c-0.8,0.6-2.3,0.3-2.9,0.5c-0.1,0.7,1,0.2,0.8,1
							c0,0.3,0.5,0.2,0.8,0.3c0,0.2-0.1,0.2-0.3,0.3v0.5c-0.6-0.2-1.1,0-1.3-1c-0.5,0.3,0.1,1.6,0.8,1.6c-0.8,0.6-0.1,0.2,0,1
							c-0.6-0.2-0.8,0.7-0.8-0.3c-0.6,0.1,0,1.1,0.3,1.3c-0.1,0.3-1.3-0.2-1.8,0.3c0.1,1.1,1.3,1.2,1.3,2.4
							c-0.8-0.2-1.1-0.8-1.6-1.3c-0.9,0.4,0.5,0.6,0.3,1.3c-0.8,0.3-0.6-0.4-1-0.5c-0.3,0.1,0.9,2.3,1.3,1.6c0.2,0.4,0,2.5,1.3,2.6
							c0,0.7-1.1,0.3-0.8,1.3c0.2,0.6,1.5,0.1,1.3,1c-0.3,0-0.5,0.1-0.5,0.3c-0.5-0.7-1.1-1.1-1.6-1.8c-0.4,0.1-0.5-0.2-0.5-0.5
							c-0.2,0.1-0.4,0.3-0.8,0.3c0-1.2-1.1-1.2-1.8-1.6c-0.1,1,1.1,0.8,1,1.8c0.5-0.5,0.8,0.1,1,0.5c0.1,0.4-0.2,0.5-0.5,0.5
							c0.6,0.8,1.9,0.9,2.1,2.1c-0.6,0.2-1.3-1.2-1.3,0c-1.2,0.1-1.1-1.2-2.4-1c-0.2,0.8,0.7,0.5,0.5,1.3c0.5-0.8,1.3,1.1,1.8,0.3
							c0.8,0.3-0.3,0.7-0.5,0.8c0.2,0.6,0.8,0.8,0.8,1.6c-0.6-0.4-2.3-0.4-1.6-1.3c-0.9,0.9-0.4-0.9-1.3-0.8c-0.9,0.1,0.9,0.7,0,0.8
							c0.1,0.2,0.7,0.4,0.3,0.5c0.4,0.4,1.7,0.7,1,1.3c0.3,0.6,1.2-0.5,1,0.8c-0.3,0-0.5-0.1-0.5-0.3c-0.3,0-0.2,0.5-0.3,0.8
							c-0.6,0.1-1.7-1.3-1.8,0c-0.5-0.1-0.6-0.4-0.3-0.8c-1.3,0.9-0.5-1-1.8-0.8c-0.7,0.2,0.7,0.5,0.3,1.3c0.4,0.4,1.1,0.7,1,1.6
							c0.8-0.1,1.1,0.4,1.3,1c-1.5-0.1-1.6-1.6-3.1-1.6c-0.2,0.7,0.5,0.5,0.8,0.8c-0.2,0.2-0.7,1.3,0.3,1c-0.2,0.6-1.2,2.1-0.3,2.4
							c0,0.7-0.9,0.1-1,0c0.2,0.4,1.2,1.2,1.3,0.8c0.7,0.9-1.3,0.8-1.8,0.3c0.2,0.9,0.9,1.2,1.8,1.3c0.3,1,1.5,1.3,1.8,2.4
							c0,0.3,0.5,0.2,0.8,0.3c0,0.2-0.1,0.2-0.3,0.3c0.2,0.4,0.8,0.4,1.3,0.5c0.1,0.4-0.2,0.5-0.3,0.8c0.4,0,0.7,0,0.8-0.3
							c0.3,0.1,0.1,0.3,0,0.3c0,0.2,0.1,0.2,0.3,0.3c-0.6,0.7-1.6-0.4-1.8-1c-0.2,0.1-0.4,0.3-0.8,0.3c0-0.8-1.8-1.2-1-1.8
							c0-0.3-0.5-0.2-0.8-0.3c0.3-0.4,0.3-0.7,0-1c-0.3,0-0.2,0.5-0.3,0.8c-0.9-0.3-0.9-1.5-1.8-1.8c-0.5,1,2.6,3,0.5,3.4
							c0.4,0.7,1.5,0.8,0.5,1.6c0.8,0.1,1-0.6,1.6,0c-0.2,0.2-0.3,0.5,0,0.5c0,0.7-0.9,0.1-1,0c-0.7,0.2,0.6,0.6,0.5,1
							c0.8-0.9,1,0,2.1,0c0.1,0.7-1.4-0.2-1.3,0.5c0.1,0.3,0.8,0.3,0.8,0c1,1.3,2.6,0.4,3.4,1.8c-1.1,1-2.1-0.5-2.9-0.8
							c-0.4,0.1-0.1,0.8-0.5,0.8c0.4,0.5,1.2,0.8,1.3,1.6c-1-0.4-1.9,0.1-2.9-0.3c0.1-0.6,1.3-0.1,1.8-0.3c-0.1-0.5-1-0.2-0.8-1
							c-0.4,0.5-1.3,0.6-1.6,1.3c0.6,0.7,2.3,0.8,3.1,0.5c-0.3,0.8,0.6,0.5,1,0.5c-0.2,0.8,0.5,0.8,0,1.3c-0.8,0.2-0.8-0.4-1.3-0.5
							c-0.5,0,0.6,1.1-0.8,0.8v2.1c0.7,0,0.3-1.1,1.3-0.8c-0.1-0.5-0.7-0.5-0.5-1.3c0.7,0,0.6,0.6,1,0.8c0.6,0.3,1.3-0.6,1.3,0
							c0,1.2-1.2,0.1-1.6,0c-0.2,0.7,0.4,0.7,0.3,1.3c-0.4,0.1-0.5-0.2-0.8-0.3c-0.4-0.1,0,1,0.3,1c-0.8,0.5-1.5-1.2-2.9-1
							c0-1,0.4-0.7,1-0.5c0.1-0.4-0.2-0.5-0.3-0.8c-0.8,0.6-1.1,0.2-2.1,0.5c-0.1-0.5-1-0.2-0.8-1c-0.9-0.1-2.4-0.5-1.8-1.3
							c-0.2,0.1-0.4,0.3-0.8,0.3c0.5-0.5-0.3-0.8,0.3-1.3c-0.3,0.3-1,0.3-1.3,0c0,0.9,1.4,1.2,0.5,2.1c0.2-0.1,0.5-0.2,0.5-0.5
							c0.2,0.2,0.4,0.5,0.5,0.8c0.3-0.3,0.5-0.2,0.5,0.3h1v0.8c0.5,0.1,1.9,0.9,2.9,1.3v1c1.1-0.2,1.5,0.3,2.4,0.3
							c0.2,0.6-0.7,0.8,0.3,0.8c-0.2,1-2.3-0.1-1.6,0.8c-0.5,0.9-1.7-1.2-2.4-0.3c-0.5-0.2-0.8-0.6-1.3-0.8c-0.5-0.1,0,1,0.5,0.8
							c0,0.8-1.1,0.5-1,1.3c-0.5-0.6,0.6-1.1,0-2.1c-1.2,0.7-1.5-0.7-2.6-0.8c-0.7,0.1,0.4,0.5,0,1c0.4,0.9,1.4,0.4,1.8,0.8
							c0.2,0.8-0.3,1-0.3,1.6c0,1.5-0.7-0.9,0-0.8c-0.3-0.8-0.5-0.1-1.3-0.5c0-0.9-0.6,0-1-0.8c-0.5,0.5,0.1,0.5,0.3,1.3
							c-1.5-0.6-0.1,1.9-1.6,1.3c0.1,0.5,0.4,0.6,1,0.5c-0.3,0.4-0.3,0.6,0.3,0.8c-0.4,0.6-1.4-0.5-1.6-1c0,1.1-2.1,0.1-2.1-1
							c-0.9,0.4,1,1.6,0.3,1.8c0.3,0.4,0.9,0.3,1,0.8c-0.1,0.6-1,0-1-0.3c-0.7,0.1,0.4,0.4,0,1c-0.3-0.3-0.5-0.7-1-0.8
							c0,1.2,1.1,1.2,0.8,2.6c-0.5,0-0.6-0.3-1-0.3c-0.6,0.1,0.3,0.7,0.5,0.8c-0.2,0.4-0.6,0.2-0.5-0.3c-0.8,0.4,0.3,1,0,1.8
							c-0.3-0.1-0.5-0.3-0.5-0.8c-0.9,0.2,0,0.6-0.3,1.6c0.1,0.4,0.5,0,0.5-0.3c0.4,0.2,0.6,0.7,0.5,1.3c-0.5-0.2-1-0.4-1.6-0.5
							c-0.1,1,1,0.8,1.6,1c0.4,1.2-0.9,0.7-0.8,1.6c-0.3,0-0.2-0.3-0.3-0.5c-0.9-0.2-1.3-1.9-2.4-1c0.7,0.5,0.7,1.7,2.1,1.6
							c0,0.4-0.4,1.1,0,0.5c0.5,0.4-0.3,0.9,0.3,1.6c-0.7-0.6-1.8-0.8-2.6-1.3c-0.6,0.2-0.1,1.3,0.5,1c-0.8,0.5-1.2,2.5-2.6,1.6
							c0.2-0.7,0.8-1,1-1.6c-0.3,0-0.5,0.1-0.5,0.3c0-0.4-0.6-0.7-0.5-1.8c1,0.4,0.4-0.2,1.3-0.3c-0.7,0.9,0.7-0.1,1.3,0.5
							c-0.1-0.8-1.7-0.2-1.3-1.6c-0.4,0.6-0.5,0.2-0.8,0.5c-0.8-0.5,0.4-1.1,0.3-1.8c0.4,0.2,0.5,0.6,0.5,1c0.6-0.6,1.3-1.1,2.1-1.6
							c-0.2-0.6-1.5-0.1-1.3,0.5c-0.3-0.2-0.7-0.3-1.3-0.3c0.1-0.7,0.4-1.2,0.8-1.6c-0.2-0.7-0.6,0.2-1-0.2c0.3,0.6,0.2,1.9-0.6,2
							c0.5-1.5-0.3-1.5-0.8-2.6c0.4,0.1,0.5-0.2,0.5-0.5c0.3,0.3,0.4,0.1,0.8,0c0.1-0.4-1-0.6-0.3-0.8c0.4-0.1,0.5,0.2,0.5,0.5
							c0.9,0.1,1.1-0.5,1.6-0.3c0.4,0.9-0.9,0.2-0.8,0.8c0.4,0.8,1.2-0.2,1-0.8c0.8-0.2,0.4,0.9,1,0.8c0.4-0.2,0.2-0.6-0.3-0.5
							c-0.1-0.8,1.3-0.1,1-1c-0.3-0.5-0.2,0.6-1,0c0.1-0.3,0.5-0.2,0.5-0.5c-0.1-0.8-0.4,0.4-0.8,0.3c-0.8-0.2-0.5-0.2-1.3,0
							c-0.2,0.2-0.4,0.5-0.5,0.8c-0.4-0.6-0.5-0.5-1.3-0.3c-0.1-0.8,0.6-0.8,0.5-1.6c-1,0.3-0.3,2.2-1.8,1.8
							c0.8,0.4,0.3,0.6,0.3,1.6c-0.4-0.1-0.2-0.7-0.3-1c-0.3,0.3-0.5,0.2-0.5-0.3c-0.5,0.4,0.3,0.9-0.3,1.6c-0.2,0-0.2-0.1-0.3-0.3
							h-0.5c-0.1-0.4,0.2-0.5,0.5-0.5c-0.1-0.3-0.5-0.2-0.5-0.5c-0.7,0-0.3,1.2-1.3,1c0.4-0.4,0.4-1-0.5-0.8c0.1,0.5,0.1,1.1,0.8,1
							c0.2,1-1.8,1.1-1,1.8c-0.2,0.9-0.6,0.2-1,0c0,0.5,0.3,0.6,0.3,1c-0.7,0-0.5-0.9-0.5-1.6c-0.7-0.1-0.9,0.4-0.8,1
							c-0.2,0-0.3-0.3-0.5-0.3c-0.1,0.9-0.6,1.5-0.5,2.6c-0.5-0.6-0.8,0.2-1.3-0.3c-0.4,0.3-0.3,0.9-0.8,1c0.2,1,0.9-0.2,1,0.8
							c0.4,0,0.7,0,0.8-0.3c0.9,0,0.4,1.3,1.3,1.3c0.2,0.8-0.3,1-0.3,1.6c-0.5-0.5,0-2.1-1.3-1.8c-0.3,0-0.1,0.3,0,0.3
							c-0.2,0-1.8,0.5-1.8-0.3c-0.3,0.3-0.5,0.5-0.8,0.8c-0.6-0.2-0.4-1.9,0.5-1.6c-0.4-1.2,0.8-0.8,0.5-1.8c0.4-0.1,0.7-0.4,1-0.5
							v-1.3c-0.8,0.2-0.8,0.9-0.8-0.5c-0.7,0-0.8,0.4-1,0.8c-0.8-0.6,0.8-1.1,1-1.6c-0.6-0.7-1,0.4-1.8,0.8
							c-0.1-0.4,0.2-0.5,0.5-0.5c0-0.3-0.5-0.2-0.8-0.3c0.1-0.3,0.3-0.5,0.8-0.5c0.2-0.8-0.7-0.5-0.5-1.3c0.7-0.1,0.5-0.8,0-1
							c0.1-0.9,0.7-0.6,0.3-1.6c-0.3,0.2-0.3,0.6-0.8,0.5c0,0.5,0.3,0.6,0.3,1c-1.6-0.1-0.9,1.4-0.5,2.1c-0.8,0.2-1.2-0.2-1.8-0.3
							c0,0.9,1.6,0.2,1.3,1.3c-0.7-0.2-0.5,0.5-0.8,0.8c-0.3-0.6-1,0.3-1-0.3c-0.5,0.6-1,0.2-1.3,1.3c-0.3,0-0.2-0.3-0.3-0.5
							c-0.7,0.5-0.2,1.4-0.5,1.8c-0.8,0.4-1.1-1-1.3-0.3c-0.6,0,0.3-0.7,0-1.3c-0.9-0.2-0.1-2.1-1.6-1.8c0.1-1.2-0.9-1.1-1.6-0.8
							c-0.6-0.3,0.6-1.1-0.5-1c-0.1-0.4,0.2-0.5,0.3-0.8c-0.9-0.3-1.3,1.3-1,1.3c-0.2,0.3-0.9-0.1-1.3,0.5c-0.4,0.1-0.5-0.2-0.5-0.5
							c-1.4,0.3-0.6,1.5-1.3,2.1c-0.3,0-0.2-0.3-0.3-0.5c-0.7,0-0.5,1.1-0.5,1.8c-1.1,0.1,0-0.4-0.3-1c-0.7,0.2-0.5,1.2-1,1.6
							c0.1,0.2,0.3,0.3,0.3,0.5c0.8,0.3,0.2-0.8,1-0.5c-0.5,0.4,0.4,1-0.8,1c0.3,0.4,0.3,0.7,0,1c-0.6-0.1,0-1.4-0.5-1.6
							c-0.9,0.5,0.3,1.8-0.8,1.8c0.2,0.2,0.5,0.4,0.8,0.5c0,0.8-0.4,1.3-0.3,1.6c-0.8,0.9-1-1.1,0-1c0.1-0.4-1-0.9-1-0.3
							c-0.8-0.9-0.2-1.9-0.3-3.4c-0.1-1-1,0.3-0.8-1c-0.7,0.5-0.5,2-0.8,2.9c-0.6-0.4-0.4-1.6-0.8-2.1c-0.1,1.4-1.2,2.5-0.8,3.7
							c-0.8-0.1-1.3-0.4-1.8-0.8c0.3,0.7,0.2,1.8,0.8,2.1c-1.2,1-2-1.5-2.4-2.9c0.6-0.9,0-1.5,1-1.8c-0.6-0.8,0.1-1.4-1-1.6
							c0.3-0.8-0.1-0.7,0-1.8c-0.8-0.2-0.4,0.9-0.8,1c-0.3,0-0.2-0.5-0.3-0.8c-0.9,0.2-1.2,0.9-1.3,1.8c-0.2,0-0.3-0.3-0.5-0.3
							c0,0.5-0.3,0.6-0.3,1c-0.1,0.9,1.6,1.8,0.3,2.4c-1,0-0.6-1.5-1.6-1.6c0-0.7-0.4-0.8-0.5-1.3c-0.8-0.3-1.1,0.2-2.1-0.3
							c0.1-1-0.2-1.5-1-1.6c-0.2,0.3-0.2,1.1-0.8,1.6c-0.5,0,0.2-1,0.5-1c-0.5-0.7,0.3-1.3,0.3-1.6c-0.4,0-1-1.2-1.3-0.5
							c-0.2-0.6-0.1-1.8-1-2.4c-0.8,0.6-0.5,2.5-1.8,2.6c0.2,0.8,0.4,0.3,1,0.3c0.8,0.3-0.7,0.3-0.8,0.5c-0.2,1.1,1.3,0.5,1,1.6
							c-0.7-0.4-1.2-0.9-1.8-1.3c0.2,0.7,0.5,1.2,1,1.6c-0.2,0.6-0.8-0.6-1.6-0.3c-0.8,0.2,0.6,0.4,0.3,1c-0.7,0-1.6-0.2-1.3,0.8
							c-0.8-0.3-3.2-0.2-3.1,1.3c-0.5,0.1-0.7-0.2-1-0.3c-1.1,0.7-0.7,2.3-0.5,3.1c-0.7,0.1-0.7-1.8-0.3-2.1c-0.3-0.7-0.7-1.4-1-2.1
							c-0.8,0.2-0.3,0.7-0.3,1.3c-0.2,0.5-0.5-1-1-1v-1c-0.7-0.2-0.6-1.2-1.6-1c-0.1-0.4,0.2-0.5,0.5-0.5c0-0.7-0.4-0.8-0.8-1
							c0.4-0.8,0.1-1.4-0.3-2.1c-0.7,0.4-0.8,1.4-0.5,2.1c-0.7,0.6-0.8,1.8-2.4,1.6c0.4-0.3,0.2-1.2,0.5-1.6
							c-0.4-0.7-1.2-0.9-1.8-1.3c0.5-0.4,0.7,0.1,1-0.8c-0.1-0.4-0.3,0.1-0.8,0c-0.6-1.1,0.7-1.2,0.8-2.4c-0.6-0.2-0.9,1.3-1,0
							c-0.3,0-0.2,0.5-0.3,0.8c-0.4-0.7-0.3-1.9-0.5-2.9c-0.7,0.2,0,1.9-1,1.8c0.4,0.2,0.4,0.8,0.8,1c-0.5,0.1-1.8,2.3-0.3,2.1
							c-0.2,1.1-1.6,1-2.1,1.8c0.1,0.8,0.9,0.8,0.8,1.8c-0.8,0.2-1-0.3-1.6-0.3c1,0.5,1,2,2.4,2.1c-0.1,0.4-0.8,0.1-0.8,0.5
							c-0.4-0.1,0.1-0.3,0-0.5c-0.1-0.2-0.4-0.4-0.5-0.5c-0.2-0.2-0.4-0.7-1.3-0.5v-1c-1.5-0.3-1.3,1.1-1.6,2.1
							c-0.4-0.2-0.6-0.7-0.5-1.3c-0.8,0-1.7,1.2-1.3,1.6c0,0.3-0.5,0.2-0.8,0.3c-0.5,0-0.2,0.9-0.5,1c-0.2,0.9,0.6,1.3,0,1.8
							c0.3,0.6,0.1,1.8,0.5,2.4c-0.2,0.8-0.2,0.5,0,1.3c0,0.2,0.3,0.3,0.3,0.5c0.6,0,0.4,0.3,0,0.3c0-0.3-0.5-0.2-0.8-0.3
							c-0.3,1.2,1.1,1.5,0.3,2.4c0,0.3,0.3,0.1,0.3,0c1.1,0.5-1.1,2.5,1,2.6c-0.4,0.4-0.3,1.6,0.5,1.6c-0.1,0.3-0.5,0.7-0.5,0.3
							c-0.5,0.3-0.6,1-0.5,1.8c0,0.3,0.3,0.2,0.5,0.3c0,0.3-0.3,0.2-0.5,0.3c0,1.2,0.8,1.6,1.3,1.6c-0.6,1.4-1.5,0.4-2.9,0.5
							c0.7-1.1-0.5-1.2,0-2.4c-0.2,0-0.2,0.1-0.3,0.3c-0.8-0.4,0.7-0.7,1-0.8c-0.5-0.7-0.7-0.2-1.6-0.3c0.3-0.9,1.5-0.9,1.8-1.8
							c-0.2-0.6-1.2,0.7-1.6,0c1.2-1.2,0.2-2,0.3-3.9c-0.1-0.4-0.3,0.1-0.8,0c0.2-0.2,0.2-0.7,0.5-0.8c-0.4-0.6-0.6,0.2-1.3-0.3
							c0.9-1-0.6-1.3-0.3-2.6c-0.3-0.7-0.7,0.4-1-0.3c0.6-0.9,0.5-1.6,0.3-2.9c-0.4,0.2-0.5,0.6-0.5,1c-0.9-0.1,0.7-1-0.5-0.8
							c0.1-0.9,0.7-0.3,0.3-1.3c-0.6-0.1-0.5,0.4-0.5,0.8c-0.5-0.2-0.7-1,0-1c-0.6-0.2-0.5-1.3-1-1.6c-0.4,0.1,0.1,0.3,0,0.8
							c-1.1-0.1,0,2.1-1.3,1.8c-0.1,0.4,0.4,0.7,0,0.8c-1.4-0.1,0.4-1.6-0.5-2.1c-0.5,0.6-1,1-1.8,0.5c0.1-0.2,0.7-1,0-1
							c0.5,0,0.8-0.9,1-1.8c-0.6-0.6-0.9,1.4-2.1,1c-0.4,0.1-0.2,0.7-0.3,1h-1c0.9-1.2,2.2-2,3.1-3.1c-0.2-0.5-0.8-0.2-0.3-0.8
							c-0.6-0.1-0.6,0.5-1.3,0.3c0.6-0.8,1.4-1.3,1.3-2.9c-0.6,0.2-0.8,0.8-1,1.3c-0.8-0.8,0.5-1.6,0.8-2.1c-0.6-0.7-1.1,1-1.8,1
							c0.1-1.4,0.9-2.1,1-3.4c0.5-0.2,0.9-0.5,0.8-1.3c0-0.3-0.5-0.2-0.8-0.3c-0.3,0-0.2,0.5-0.3,0.8c-1.2,0.8-1.9,1.9-3.1,2.6
							c-0.2,0.2-0.4,0.5-0.5,0.8c-0.8-0.9,1.2-1.2,1-2.4c0.8,0.3,0.2-0.8,1-0.5c0.4-1.2,0.9-2.2,1-3.7c-0.7,0.3-0.9,1.1-1.3,1.6
							c-0.4-0.6,0.8-1.9,1-2.9c-1.2-0.5-1.1,2.6-2.4,2.9c0.1-1.4,1.1-2,1.6-3.1c-0.1-0.4-0.3,0.1-0.8,0c-0.2-1,0.7-1.1,0.5-2.1
							c-1.4-0.2-1.1,1.2-2.1,1.3c0.1-0.9,0.6-1.3,1-1.8c-0.2-0.8-0.8-1.1-0.3-2.1c-0.3,0.4-0.8,0.6-0.8,1.3c-0.6-0.1-0.2-1.1,0-1.3
							c-0.6,0.6-0.6-0.1-0.5-0.8c-1.1,0.4-0.8-0.6-1.6-0.5V471c-0.7-0.1-0.2,1-1,0.8c-0.6,0.1,0.3,0.4-0.3,0.8c-0.5,0.4-0.3,0-1,0
							c0.2,0.6,0.6,1.1,0.5,2.1c-0.8,0.1-0.7-0.7-1.3-0.8c-0.7,0.3,0.8,0.5,0.5,1.3c-0.4,0.1-0.5-0.2-0.8-0.3c0.8,0.5-0.7,0.5,0,0.8
							c0,0.3-0.3,0.2-0.5,0.3c-0.2,1.7,1.1,1.9,1.3,3.1c-0.8,0.1-0.7-0.7-1.3-0.8c-0.8,0.2,0.3,0.7,0,1.3c-0.7-0.3-0.8-1.2-0.8-2.1
							c-0.7,0.8-1.3,1.7-1.6,2.9c0.6-1.3,0.9,0.7-0.3,0.5c0.2-1.1-0.7-1.9,0.3-2.4c0-0.3-0.5-0.2-0.8-0.3c0.1-0.5-0.4-1.6,0.5-1.3
							c-0.1-0.8-0.7-0.7-0.3-2.1c0.1-0.4,0.6-0.8,0.5-1.3c-0.8,0.1-0.7,1-1.8,0.8c0.4-0.3,0.2-1.2,0.5-1.6c-0.8-0.2-0.5,0.7-1.3,0.5
							c-0.1-0.4,0.3-1.4-0.3-1.3c0-0.3,0.5-0.2,0.8-0.3c-0.8-0.4-0.1-0.7-0.3-1.8c-0.3,0.5-1.1,0.7-1.3,1.3c-0.7-0.1-0.6-1-1-1.3
							c-0.3,0.1-0.3,0.5,0,0.5c-0.1,0.6-1.4,0.2-1.6,0c0.3-0.4,0.7-0.5,1-0.8c-0.2-0.4-0.6-0.5-1-0.5c-0.1-0.5,0.8-1.1-0.3-1
							c0.1-0.4-0.3-1.4,0.3-1.3c-0.6-0.9-0.1-1.2-0.5-2.1c-0.5,1.1-1,2.1-1,3.7h-0.5c0,0.5,0.7,0.3,0.5,1c-0.5,0.4-2,0.9-2.4,0
							c0.1-0.5,0.7,0.4,1-0.3c-0.2-0.4-0.7-0.6-1.3-0.5c0.5-1-0.1-1.2-0.5-1.8c0.1-0.9,0.8-1.2,0.3-2.1c-0.5,0-0.6,0.3-1,0.3
							c0.8,0.6,0.1,1.1,0.3,2.4h-1.3c1.2,0.1,0.1,1.6,0.8,2.6c-1-0.4-1.6-1.4-2.4-2.1c-0.4,0.3-0.3,0.9-0.8,1c1.3,0.2,0,1.3,1.3,1.3
							c-0.9,1.5-1.9,0-3.4,0c0.4,1,0.7,2.1,2.1,2.1c-0.2,0.8,0.3,1,0.3,1.6c-0.9-0.5,0,0.1-0.5,0.5c-0.3,0-0.2-0.5-0.3-0.8
							c-0.7,0-0.5,0.4-1,0c-0.5,0.2-0.8,0.8-0.8,1.6c-0.8,0.2-1-0.3-1.6-0.3c-0.4,0.6-0.2,1.4-1.3,0.8c-0.1,0.6,0.5,0.6,0.3,1.3
							c0,0.3,0.3,0.2,0.5,0.3c-0.6,0.9,1,1.3,1,2.4c-0.4,0.3-0.7,0.3-1,0c0.6,1.2,2,1.5,2.4,2.9c-1.4-0.6-2.1,1-2.4-0.8
							c-0.7,0.4,0,1.6,0.3,1.8c-0.3,0.8-0.2-1-1-0.5c-0.4-0.5-0.7-1.2-1.6-1.3c-1,0.9,0.4,1.3-0.3,2.4c0.6,0.3,0.7,1,1.3,1.3
							c-0.2,0.2-0.6,1.5,0,1.6c-0.4,0.4-0.9,0.7-1.6,0.8c-0.2-0.8-1-0.9-1.6-1.3c-0.6,0.4-0.4,0.6-0.3,1.3h-1
							c0.1-0.3,0.5-0.4,0.5-0.8c-0.6-0.2-0.8,0.7-0.8-0.3c-0.4,0.1-0.2,0.7-0.3,1c0.1,0.5,1.2,0,0.8,1c-1-0.3-0.8-0.4-1.8-0.5
							c0.1-0.6-0.5-0.6-0.3-1.3c0.1-0.6-1.2,0.1-0.8-0.8c-0.8,0.4,0.3,1,0,1.8c-1.2,0.1-1.3-0.9-2.1-1.3c-0.6,0.1-0.3,1.5,0.5,1
							c-0.3,0.5-0.4,1.3-1.3,1.3c0.1,0.6-0.1,1-0.5,1c0.8,1.2-0.8,1.8-0.3,2.9c-0.4-0.1-0.5,0.2-0.8,0.3c0,0.5,0.3,0.6,0.3,1
							c-0.4,0.1-0.5-0.2-0.8-0.3c0,1.7-0.7,2.2-0.3,3.7c-0.8,0.1-1-0.4-1.6-0.5c-0.4-0.1-0.5,0.2-0.5,0.5c-0.7-0.3-1.1-0.3-1.8,0
							c0.5-0.5,0.5-0.2,0.3-1c0.5,0,0.9-0.2,1-0.5c0.1,0.7,1.3,0.3,0.8,0c0.2-0.8,0.8,0.2,1.3,0c0.4-0.1,0-0.5-0.3-0.5
							c0.3-0.7,0.6-1.3,0.3-2.1c0.3,0.3,0.4,0.1,0.8,0c-0.3-0.4-0.7-0.5-1-0.8c0.1-0.6,1.3-0.1,1.8-0.3c-0.2-0.4-0.8-0.4-1.3-0.5
							c0.2-0.5,0.6-0.8,1-1c-0.6-0.8-0.6-0.1-1.3,0c0-0.3-0.1-0.5-0.3-0.5c0.4-0.1,0.9-0.4,1.3-1c-0.2-0.5-0.8-0.6-1.6-0.5
							c0-0.4,0.2-0.7,0.5-0.8c-0.8-0.4-0.8-0.8-0.3-1.6c-1,0-0.9,1.1-1.3,1.6c-0.9-0.3-1,0-1.8-0.3c0.5-0.6,0.7-0.9-0.5-0.8
							c0.9-0.5-1-0.7,0.3-0.8c0-0.6-0.7-0.6-1.3-0.5c0.4,0.3,1,1.1,0.5,1.6c-1.1-0.4-1.8,0-2.6-0.3c0-0.7,0.7-0.9,1-0.5
							c0.1-0.6-0.5-0.4-0.5-0.8c-0.6,0.9-1.8-0.1-2.1,0.8c-0.3-0.1-0.2-0.5-0.5-0.5c-0.3,0-0.1,0.3,0,0.3c-0.3,1.1-0.9-1.2-0.8,0.3
							c-0.8-0.1-1.6-0.3-1.6-1.3c0.8,0.6,1.1,0.5,1.6-0.3c0.3-0.8-0.8-0.2-0.5-1c0.8-0.4,0.8,0,1.8-0.3c-0.1-1.2-1.1-0.5-2.4-0.8
							c0.2-1.1,1.8-0.7,2.4,0c0.5-0.2-0.4-1-0.3-1.6c0.6,0.4,0.5,0.6,1.3,0.3c-0.3-0.4-1.1-0.3-1.6-0.5c0.3-0.7,1.1-0.9,2.1-0.8
							c0.4-0.1,0-0.5-0.3-0.5c0.1-0.5,1.1-0.1,1.3-0.5c-0.8-0.8-1.9,0.4-2.4,0.8c-0.2-0.3-1-0.1-0.8-0.8c-2,0.1-3.3-0.3-4.7-0.8
							c-0.1-0.6,0.7-0.8,1-1c0.3-0.2,0.4-1,1-0.8c-1.2-0.9-1.9,0.9-3.4,0.5c-0.4-0.2-0.4-0.8-1-0.8c0.2-0.3,0.6-0.3,0.5-0.8
							c0.3,0,0.5,0.1,0.5,0.3c0.4-0.6,1.5-0.5,2.6-1c-0.1-0.6-1.3-0.1-1.8-0.3c0-0.4,0.1-1-0.3-1c0.3-0.2,0.7-0.2,1-0.8
							c0.6,0.1,1,0,1.3-0.3c-0.3-1.3-2-1.6-3.4-1c0.1,0.2,0.2,0.5,0.5,0.5c-0.8,0.7-0.8-0.6-0.5-1.3c0.9-0.1,1-1.1,2.1-1
							c-0.6-1.2-1.6,0.4-2.4-0.8c-0.8-0.1-0.6,0.8-1.6,0.5c-0.1-0.5,0.5-0.6,0.5-0.3c0.4-0.8,1.2-1.1,2.1-1.3
							c-0.6-1.1-1.1,0.1-2.1,0c0.6-0.1,0.6-1.3,0-0.5c-0.4-0.2-0.2-0.6,0.3-0.5c-0.2-0.9-0.8-0.2-1.6-0.3c-0.2-0.5-0.8-0.6-1.6-0.5
							c0.6-0.8,2.3-0.5,3.1-1c-0.3-0.9-2.3-0.2-2.9-0.8c-0.2-0.6,1.3-0.9,0-1c0.3-0.4,0.7-0.6,1-0.3c-0.1-0.2-0.3-0.4-0.3-0.8
							c0.5,0.5,1.1,0,1.3-0.5c-0.1-0.6-1.1,0-1.3,0.3c-0.4-0.7,0.5-0.9,0-2.1c0.5,0.5,0.5-0.1,0.8-0.5c-0.8,0.1-1.6,1-2.4,0.3
							c0-0.6,0.2-0.8,0.8-0.8c-0.2-0.8,0.3-1,0.3-1.6c-1.1-0.1-1.2,0.8-2.4,0.5c-0.2-0.8,0.4-0.8,0.5-1.3c0.7,0.1,0.2-1,1-0.8
							c-0.8-0.3-1.9,0-2.6-0.8c0.1-0.5,0.7-0.5,0.8-1c-1.1,0-0.6-0.1-0.3-0.5c-0.1-0.4-0.7-0.2-1-0.3c0-0.7,0.1-1.5-0.3-1.8
							c-0.5-0.3-0.4,0.4-0.5,0.5c-0.1,0-0.5,0-0.7,0c-0.2,0-0.6,0.1-0.7,0c-0.2-0.1,0-0.8-0.5-0.5c-0.4,0.3-0.3,1.1-0.3,1.8
							c-0.4,0-1-0.1-1,0.3c0.4,0.4,0.8,0.6-0.3,0.5c0.1,0.5,0.7,0.5,0.8,1c-0.8,0.8-1.8,0.5-2.6,0.8c0.8-0.2,0.4,0.9,1,0.8
							c0.1,0.5,0.7,0.5,0.5,1.3c-1.2,0.2-1.3-0.7-2.4-0.5c0,0.6,0.5,0.8,0.3,1.6c0.6,0,0.8,0.2,0.8,0.8c-0.8,0.7-1.6-0.2-2.4-0.3
							c0.3,0.4,0.2,1.1,0.8,0.5c-0.5,1.2,0.4,1.4,0,2.1c-0.2-0.2-1.2-0.8-1.3-0.3c0.2,0.5,0.8,1.1,1.3,0.5c0,0.4-0.1,0.6-0.3,0.8
							c0.3-0.3,0.8-0.2,1,0.3c-1.3,0.1,0.2,0.5,0,1c-0.6,0.6-2.6-0.1-2.9,0.8c0.8,0.6,2.5,0.3,3.1,1c-0.8-0.1-1.3,0.1-1.6,0.5
							c-0.8,0.1-1.3-0.7-1.6,0.3c0.4-0.1,0.7,0.4,0.3,0.5c-0.6-0.8-0.6,0.4,0,0.5c-1,0.1-1.4-1.1-2.1,0c0.9,0.2,1.7,0.5,2.1,1.3
							c0-0.4,0.7-0.3,0.5,0.3c-1,0.3-0.7-0.6-1.6-0.5c-0.7,1.2-1.8-0.4-2.4,0.8c1.1,0,1.2,0.9,2.1,1c0.3,0.7,0.3,2-0.5,1.3
							c0.3-0.1,0.4-0.3,0.5-0.5c-1.4-0.5-3.1-0.3-3.4,1c0.3,0.2,0.7,0.3,1.3,0.3c0.4,0.6,0.8,0.6,1,0.8c-0.4,0-0.2,0.6-0.3,1
							c-0.5,0.2-1.7-0.3-1.8,0.3c1.1,0.5,2.2,0.4,2.6,1c0.1-0.2,0.2-0.3,0.5-0.3c-0.1,0.5,0.4,0.5,0.5,0.8c-0.7,0-0.6,0.6-1,0.8
							c-1.5,0.4-2.2-1.5-3.4-0.5c0.6-0.2,0.8,0.5,1,0.8c0.3,0.3,1.1,0.4,1,1c-1.4,0.5-2.7,0.9-4.7,0.8c0.2,0.7-0.5,0.5-0.8,0.8
							c-0.5-0.4-1.6-1.6-2.4-0.8c0.2,0.5,1.2,0,1.3,0.5c-0.3,0.1-0.6,0.4-0.3,0.5c1-0.1,1.8,0.1,2.1,0.8c-0.5,0.2-1.3,0.1-1.6,0.5
							c0.8,0.3,0.7,0.1,1.3-0.3c0.1,0.6-0.8,1.4-0.3,1.6c0.5-0.7,2.2-1.1,2.4,0c-1.3,0.3-2.2-0.4-2.4,0.8c1,0.3,1.1-0.1,1.8,0.3
							c0.3,0.8-0.8,0.2-0.5,1c0.5,0.7,0.8,0.8,1.6,0.3c0,1-0.8,1.2-1.6,1.3c0.1-1.4-0.5,0.8-0.8-0.3c0.1,0,0.3-0.2,0-0.3
							c-0.3,0-0.2,0.5-0.5,0.5c-0.2-0.9-1.5,0.1-2.1-0.8c0,0.4-0.7,0.2-0.5,0.8c0.3-0.3,1.1-0.2,1,0.5c-0.9,0.3-1.6-0.1-2.6,0.3
							c-0.5-0.4,0.1-1.2,0.5-1.6c-0.6,0-1.3,0-1.3,0.5c1.3,0.1-0.6,0.3,0.3,0.8c-1.3-0.1-1,0.2-0.5,0.8c-0.9,0.3-0.9-0.1-1.8,0.3
							c-0.5-0.5-0.3-1.6-1.3-1.6c0.6,0.8,0.5,1.1-0.3,1.6c0.3,0.1,0.5,0.3,0.5,0.8c-0.8-0.1-1.3,0.1-1.6,0.5c0.4,0.7,0.9,1,1.3,1
							c-0.2,0.1-0.3,0.2-0.3,0.5c-0.7-0.1-0.7-0.8-1.3,0c0.5,0.2,0.8,0.6,1,1c-0.5,0.1-1.1,0.1-1.3,0.5c0.5,0.2,1.7-0.3,1.8,0.3
							c-0.3,0.3-0.8,0.4-1,0.8c0.4,0.1,0.4,0.3,0.8,0c-0.4,0.8-0.1,1.4,0.3,2.1c-0.3,0.1-0.6,0.4-0.3,0.5c0.5,0.2,1.1-0.8,1.3,0
							c-0.5,0.3,0.7,0.7,0.8,0c0.2,0.4,0.6,0.5,1,0.5c-0.2,0.8-0.2,0.5,0.3,1c-0.7-0.3-1.1-0.3-1.8,0c0-0.3-0.1-0.6-0.5-0.5
							c-0.5,0.2-0.7,0.6-1.6,0.5c0.4-1.5-0.3-2-0.3-3.7c-0.3,0-0.4,0.3-0.8,0.3c-0.1-0.5,0.3-0.6,0.3-1c-0.3,0-0.4-0.3-0.8-0.3
							c0.6-1-1-1.7-0.3-2.9c-0.5-0.1-0.6-0.5-0.5-1c-0.9,0-1-0.8-1.3-1.3c0.9,0.5,1.1-0.9,0.5-1c-0.7,0.4-0.8,1.4-2.1,1.3
							c-0.3-0.8,0.8-1.5,0-1.8c0.4,0.9-0.9,0.2-0.8,0.8c0.2,0.7-0.4,0.7-0.3,1.3c-1,0.1-0.8,0.2-1.8,0.5c-0.4-1,0.7-0.5,0.8-1
							c0-0.4,0.1-1-0.3-1c0,1-0.2,0.1-0.8,0.3c0.1,0.4,0.4,0.4,0.5,0.8h-1c0.1-0.7,0.3-0.9-0.3-1.3c-0.6,0.4-1.4,0.5-1.6,1.3
							c-0.7-0.1-1.2-0.4-1.6-0.8c0.6-0.1,0.2-1.4,0-1.6c0.6-0.3,0.7-1,1.3-1.3c-0.7-1.1,0.8-1.5-0.3-2.4c-0.9,0.1-1.1,0.8-1.6,1.3
							c-0.8-0.4-0.7,1.3-1,0.5c0.3-0.3,1-1.4,0.3-1.8c-0.3,1.8-1,0.2-2.4,0.8c0.4-1.4,1.8-1.7,2.4-2.9c-0.4,0.3-0.7,0.3-1,0
							c0-1,1.6-1.5,1-2.4c0.2-0.1,0.5,0,0.5-0.3c-0.2-0.7,0.4-0.7,0.3-1.3c-1.1,0.6-0.9-0.2-1.3-0.8c-0.6,0-0.8,0.5-1.6,0.3
							c0-0.8-0.2-1.3-0.8-1.6c-0.5,0.4-0.3,0-1,0c0,0.3,0,0.7-0.3,0.8c-0.5-0.5,0.4-1-0.5-0.5c0-0.6,0.5-0.8,0.3-1.6
							c1.4,0,1.7-1.1,2.1-2.1c-1.5,0-2.5,1.5-3.4,0c1.3,0,0.1-1.1,1.3-1.3c-0.4-0.2-0.4-0.8-0.8-1c-0.8,0.7-1.3,1.6-2.4,2.1
							c0.7-1-0.4-2.5,0.8-2.6h-1.3c0.2-1.3-0.5-1.8,0.3-2.4c-0.5,0.1-0.6-0.3-1-0.3c-0.5,0.9,0.1,1.2,0.3,2.1
							c-0.4,0.7-1.1,0.9-0.5,1.8c-0.3,0-0.6,0-0.8,0.1v0.6c0.3-0.1,0.5-0.3,0.6,0c-0.1,0.3-0.3,0.4-0.6,0.5v97H360V455.1z"/>
					</defs>
					<clipPath id="SVGID_16_">
						<use xlink:href="#SVGID_15_"  style="overflow:visible;"/>
					</clipPath>
					
						<radialGradient id="SVGID_17_" cx="0" cy="565" r="1" gradientTransform="matrix(137.8243 0 0 -137.8243 202.4809 78348.7266)" gradientUnits="userSpaceOnUse">
						<stop  offset="0" style="stop-color:#776928"/>
						<stop  offset="1" style="stop-color:#543D13"/>
					</radialGradient>
					<rect x="-3.8" y="426.7" class="st7" width="363.8" height="140.2"/>
				</g>
				<g class="st6">
					<defs>
						<path id="SVGID_18_" d="M360,514.4c-0.6,0.3-1.5,0.4-1.8-0.2c0.1-0.5,0.6,0.3,0.9-0.2c-0.2-0.3-0.6-0.5-1.2-0.5
							c0.5-0.8-0.1-1-0.5-1.6c0.1-0.8,0.7-1,0.2-1.8c-0.4,0-0.5,0.3-0.9,0.2c0.7,0.5,0.1,0.9,0.2,2h-1.2c1.1,0.1,0.1,1.4,0.7,2.3
							c-0.9-0.4-1.4-1.2-2.1-1.8c-0.3,0.2-0.3,0.8-0.7,0.9c1.1,0.2,0,1.1,1.2,1.1c-0.8,1.3-1.8,0-3.1,0c0.4,0.9,0.6,1.8,1.9,1.8
							c-0.2,0.7,0.2,0.8,0.2,1.4c-0.8-0.4,0,0.1-0.5,0.5c-0.3,0-0.2-0.4-0.2-0.7c-0.6,0-0.5,0.4-0.9,0c-0.5,0.2-0.7,0.7-0.7,1.4
							c-0.7,0.2-0.9-0.2-1.4-0.2c-0.4,0.5-0.2,1.2-1.2,0.7c-0.1,0.5,0.4,0.5,0.2,1.1c0,0.2,0.3,0.2,0.5,0.2c-0.5,0.7,0.9,1.1,0.9,2
							c-0.3,0.3-0.6,0.3-0.9,0c0.5,1,1.8,1.3,2.1,2.5c-1.3-0.5-1.9,0.9-2.1-0.7c-0.6,0.4,0,1.4,0.2,1.6c-0.3,0.7-0.2-0.8-0.9-0.5
							c-0.4-0.5-0.6-1.1-1.4-1.1c-0.9,0.8,0.3,1.1-0.2,2c0.5,0.2,0.7,0.9,1.2,1.1c-0.2,0.2-0.5,1.3,0,1.4c-0.3,0.4-0.8,0.6-1.4,0.7
							c-0.2-0.7-0.9-0.8-1.4-1.1c-0.5,0.3-0.4,0.6-0.2,1.1h-0.9c0.1-0.3,0.4-0.4,0.5-0.7c-0.5-0.1-0.8,0.6-0.7-0.2
							c-0.3,0.1-0.2,0.6-0.2,0.9c0.1,0.4,1.1,0,0.7,0.9c-0.9-0.3-0.7-0.4-1.7-0.5c0.1-0.5-0.4-0.5-0.2-1.1c0.1-0.5-1.1,0.1-0.7-0.7
							c-0.7,0.3,0.3,0.9,0,1.6c-1.1,0.1-1.2-0.8-1.9-1.1c-0.5,0.1-0.3,1.3,0.5,0.9c-0.3,0.5-0.4,1.1-1.2,1.1
							c0.1,0.5-0.1,0.9-0.5,0.9c0.7,1.1-0.8,1.6-0.2,2.5c-0.4-0.1-0.4,0.2-0.7,0.2c0,0.4,0.3,0.5,0.2,0.9c-0.4,0.1-0.4-0.2-0.7-0.2
							c0,1.5-0.6,1.9-0.2,3.2c-0.7,0.1-0.9-0.3-1.4-0.5c-0.4-0.1-0.4,0.2-0.5,0.5c-0.7-0.2-1-0.2-1.7,0c0.4-0.4,0.4-0.2,0.2-0.9
							c0.4,0,0.8-0.1,0.9-0.5c0.1,0.6,1.2,0.3,0.7,0c0.2-0.7,0.8,0.1,1.2,0c0.3-0.1,0-0.4-0.2-0.5c0.3-0.6,0.6-1.1,0.2-1.8
							c0.3,0.3,0.4,0.1,0.7,0c-0.2-0.3-0.6-0.5-0.9-0.7c0.1-0.5,1.2-0.1,1.7-0.2c-0.2-0.3-0.8-0.3-1.2-0.5c0.2-0.4,0.5-0.7,0.9-0.9
							c-0.5-0.7-0.5-0.1-1.2,0c0-0.3-0.1-0.4-0.2-0.5c0.3,0,0.8-0.3,1.2-0.9c-0.2-0.4-0.7-0.5-1.4-0.5c0-0.4,0.2-0.6,0.5-0.7
							c-0.7-0.4-0.7-0.7-0.2-1.4c-0.9,0-0.8,0.9-1.2,1.4c-0.8-0.3-0.9,0-1.7-0.2c0.4-0.5,0.7-0.8-0.5-0.7c0.8-0.4-0.9-0.6,0.2-0.7
							c0-0.5-0.6-0.5-1.2-0.5c0.4,0.3,0.9,1,0.5,1.4c-0.9-0.4-1.6,0-2.4-0.2c0-0.6,0.7-0.7,0.9-0.5c0.1-0.5-0.5-0.3-0.5-0.7
							c-0.6,0.7-1.7-0.1-1.9,0.7c-0.3-0.1-0.2-0.5-0.5-0.5c-0.3,0-0.1,0.2,0,0.2c-0.3,0.9-0.8-1-0.7,0.2c-0.7-0.1-1.5-0.3-1.4-1.1
							c0.7,0.5,1,0.4,1.4-0.2c0.3-0.7-0.8-0.2-0.5-0.9c0.7-0.3,0.7,0,1.7-0.2c-0.1-1-1-0.4-2.1-0.7c0.1-0.9,1.7-0.6,2.1,0
							c0.5-0.1-0.3-0.9-0.2-1.4c0.6,0.3,0.4,0.5,1.2,0.2c-0.2-0.4-1-0.2-1.4-0.5c0.2-0.6,1-0.7,1.9-0.7c0.3-0.1,0-0.4-0.2-0.5
							c0.1-0.5,1-0.1,1.2-0.5c-0.7-0.7-1.7,0.3-2.1,0.7c-0.2-0.2-0.9-0.1-0.7-0.7c-1.8,0.1-3-0.3-4.3-0.7c0-0.5,0.6-0.7,0.9-0.9
							c0.2-0.2,0.4-0.8,0.9-0.7c-1.1-0.8-1.7,0.8-3.1,0.5c-0.4-0.2-0.4-0.7-0.9-0.7c0.2-0.2,0.5-0.2,0.5-0.7c0.3,0,0.4,0,0.5,0.2
							c0.4-0.6,1.4-0.4,2.4-0.9c-0.1-0.5-1.2-0.1-1.7-0.2c0-0.4,0.1-0.9-0.2-0.9c0.2-0.2,0.6-0.1,0.9-0.7c0.5,0.1,0.9,0,1.2-0.2
							c-0.3-1.1-1.8-1.3-3.1-0.9c0.1,0.2,0.2,0.4,0.5,0.5c-0.7,0.6-0.7-0.5-0.5-1.1c0.8-0.1,0.9-0.9,1.9-0.9c-0.5-1-1.5,0.3-2.1-0.7
							c-0.7-0.1-0.5,0.7-1.4,0.5c-0.1-0.5,0.5-0.5,0.5-0.2c0.3-0.7,1.1-0.9,1.9-1.1c-0.6-0.9-1,0-1.9,0c0.5-0.1,0.5-1.1,0-0.5
							c-0.4-0.1-0.1-0.5,0.2-0.5c-0.2-0.8-0.7-0.1-1.4-0.2c-0.2-0.4-0.7-0.5-1.4-0.5c0.6-0.7,2.1-0.4,2.8-0.9
							c-0.3-0.8-2-0.2-2.6-0.7c-0.2-0.5,1.2-0.8,0-0.9c0.2-0.4,0.6-0.5,0.9-0.2c-0.1-0.2-0.2-0.4-0.2-0.7c0.5,0.5,1,0,1.2-0.5
							c-0.1-0.5-1,0-1.2,0.2c-0.4-0.6,0.4-0.7,0-1.8c0.5,0.5,0.5-0.1,0.7-0.5c-0.7,0.1-1.4,0.8-2.1,0.2c0-0.5,0.2-0.7,0.7-0.7
							c-0.2-0.7,0.2-0.8,0.2-1.4c-1-0.1-1,0.7-2.1,0.5c-0.2-0.7,0.4-0.7,0.5-1.1c0.6,0.1,0.2-0.9,0.9-0.7c-0.7-0.2-1.7,0-2.4-0.7
							c0.1-0.5,0.6-0.4,0.7-0.9c-1,0-0.6-0.1-0.2-0.5c-0.1-0.3-0.6-0.2-0.9-0.2c0-0.6,0.1-1.3-0.2-1.6c-0.5-0.2-0.3,0.4-0.5,0.5
							c-0.1,0-0.4,0-0.6,0c-0.2,0-0.5,0.1-0.6,0c-0.1-0.1,0-0.7-0.5-0.5c-0.3,0.3-0.2,1-0.2,1.6c-0.4,0-0.9-0.1-0.9,0.2
							c0.3,0.3,0.8,0.5-0.2,0.5c0.1,0.5,0.6,0.4,0.7,0.9c-0.7,0.7-1.6,0.5-2.4,0.7c0.8-0.2,0.3,0.7,0.9,0.7c0.1,0.4,0.7,0.4,0.5,1.1
							c-1.1,0.2-1.1-0.6-2.1-0.5c0,0.5,0.4,0.7,0.2,1.4c0.5,0,0.8,0.2,0.7,0.7c-0.7,0.6-1.4-0.2-2.1-0.2c0.2,0.4,0.2,0.9,0.7,0.5
							c-0.4,1.1,0.4,1.2,0,1.8c-0.2-0.2-1.1-0.7-1.2-0.2c0.2,0.5,0.7,0.9,1.2,0.5c0,0.3-0.1,0.5-0.2,0.7c0.3-0.3,0.7-0.1,0.9,0.2
							c-1.2,0.1,0.2,0.4,0,0.9c-0.6,0.5-2.3-0.1-2.6,0.7c0.7,0.5,2.3,0.2,2.8,0.9c-0.7,0-1.2,0.1-1.4,0.5c-0.7,0.1-1.2-0.6-1.4,0.2
							c0.4-0.1,0.6,0.3,0.2,0.5c-0.5-0.7-0.5,0.4,0,0.5c-0.9,0-1.3-0.9-1.9,0c0.8,0.2,1.6,0.5,1.9,1.1c0-0.3,0.6-0.2,0.5,0.2
							c-0.9,0.2-0.7-0.6-1.4-0.5c-0.7,1-1.6-0.3-2.1,0.7c1,0,1.1,0.8,1.9,0.9c0.2,0.6,0.3,1.8-0.5,1.1c0.3,0,0.4-0.3,0.5-0.5
							c-1.3-0.4-2.8-0.2-3.1,0.9c0.3,0.2,0.6,0.3,1.2,0.2c0.4,0.5,0.7,0.5,0.9,0.7c-0.3,0-0.2,0.5-0.2,0.9c-0.5,0.1-1.6-0.3-1.7,0.2
							c1,0.5,2,0.3,2.4,0.9c0.1-0.2,0.2-0.3,0.5-0.2c-0.1,0.4,0.3,0.4,0.5,0.7c-0.6,0-0.6,0.5-0.9,0.7c-1.4,0.3-2-1.3-3.1-0.5
							c0.6-0.2,0.7,0.5,0.9,0.7c0.3,0.2,1,0.4,0.9,0.9c-1.2,0.4-2.5,0.8-4.3,0.7c0.2,0.6-0.5,0.4-0.7,0.7c-0.4-0.3-1.4-1.4-2.1-0.7
							c0.1,0.4,1.1,0,1.2,0.5c-0.3,0.1-0.6,0.4-0.2,0.5c0.9-0.1,1.6,0.1,1.9,0.7c-0.4,0.2-1.2,0.1-1.4,0.5c0.7,0.3,0.6,0.1,1.2-0.2
							c0.1,0.5-0.7,1.2-0.2,1.4c0.5-0.6,2-0.9,2.1,0c-1.2,0.3-2-0.4-2.1,0.7c0.9,0.2,1-0.1,1.7,0.2c0.3,0.7-0.8,0.2-0.5,0.9
							c0.5,0.6,0.7,0.7,1.4,0.2c0,0.9-0.7,1-1.4,1.1c0.1-1.2-0.4,0.7-0.7-0.2c0.1,0,0.3-0.2,0-0.2c-0.3,0-0.2,0.4-0.5,0.5
							c-0.2-0.7-1.3,0.1-1.9-0.7c0,0.4-0.6,0.2-0.5,0.7c0.3-0.3,1-0.2,0.9,0.5c-0.8,0.3-1.4-0.1-2.4,0.2c-0.4-0.4,0.1-1.1,0.5-1.4
							c-0.6,0-1.1,0-1.2,0.5c1.2,0.1-0.5,0.2,0.2,0.7c-1.1-0.1-0.9,0.2-0.5,0.7c-0.8,0.2-0.8-0.1-1.7,0.2c-0.4-0.4-0.3-1.4-1.2-1.4
							c0.5,0.7,0.5,1-0.2,1.4c0.3,0.1,0.5,0.3,0.5,0.7c-0.7,0-1.2,0.1-1.4,0.5c0.4,0.6,0.9,0.9,1.2,0.9c-0.2,0-0.3,0.2-0.2,0.5
							c-0.7-0.1-0.7-0.7-1.2,0c0.4,0.2,0.7,0.5,0.9,0.9c-0.4,0.1-1,0.1-1.2,0.5c0.5,0.1,1.6-0.3,1.7,0.2c-0.3,0.2-0.7,0.4-0.9,0.7
							c0.3,0.1,0.4,0.3,0.7,0c-0.3,0.7-0.1,1.2,0.2,1.8c-0.3,0.1-0.6,0.4-0.2,0.5c0.4,0.1,1-0.7,1.2,0c-0.5,0.3,0.7,0.6,0.7,0
							c0.2,0.3,0.5,0.4,0.9,0.5c-0.2,0.7-0.2,0.5,0.2,0.9c-0.7-0.2-1-0.2-1.7,0c0-0.3-0.1-0.5-0.5-0.5c-0.5,0.1-0.7,0.6-1.4,0.5
							c0.4-1.3-0.3-1.7-0.2-3.2c-0.3,0-0.3,0.3-0.7,0.2c-0.1-0.4,0.3-0.5,0.2-0.9c-0.3,0-0.3-0.3-0.7-0.2c0.5-0.9-0.9-1.4-0.2-2.5
							c-0.4-0.1-0.5-0.4-0.5-0.9c-0.8,0-0.9-0.7-1.2-1.1c0.8,0.4,1-0.8,0.5-0.9c-0.7,0.3-0.8,1.2-1.9,1.1c-0.3-0.7,0.7-1.3,0-1.6
							c0.4,0.8-0.8,0.1-0.7,0.7c0.2,0.6-0.3,0.6-0.2,1.1c-0.9,0.1-0.7,0.2-1.7,0.5c-0.4-0.9,0.6-0.5,0.7-0.9c0-0.3,0.1-0.8-0.2-0.9
							c0,0.9-0.2,0.1-0.7,0.2c0.1,0.3,0.4,0.4,0.5,0.7h-0.9c0.1-0.6,0.3-0.8-0.2-1.1c-0.5,0.3-1.2,0.5-1.4,1.1
							c-0.6-0.1-1.1-0.3-1.4-0.7c0.5-0.1,0.2-1.2,0-1.4c0.5-0.3,0.6-0.9,1.2-1.1c-0.6-0.9,0.7-1.3-0.2-2c-0.8,0.1-1,0.7-1.4,1.1
							c-0.7-0.4-0.7,1.1-0.9,0.5c0.3-0.2,0.9-1.2,0.2-1.6c-0.3,1.6-0.9,0.2-2.1,0.7c0.3-1.2,1.6-1.5,2.1-2.5c-0.3,0.3-0.6,0.3-0.9,0
							c0-0.9,1.5-1.3,0.9-2c0.2-0.1,0.5,0,0.5-0.2c-0.2-0.6,0.3-0.6,0.2-1.1c-1,0.5-0.8-0.2-1.2-0.7c-0.6,0-0.7,0.4-1.4,0.2
							c0-0.7-0.2-1.2-0.7-1.4c-0.5,0.4-0.3,0-0.9,0c0,0.3,0,0.6-0.2,0.7c-0.4-0.4,0.3-0.9-0.5-0.5c0-0.5,0.4-0.7,0.2-1.4
							c1.3,0,1.5-0.9,1.9-1.8c-1.3,0-2.2,1.3-3.1,0c1.2,0,0.1-1,1.2-1.1c-0.4-0.1-0.4-0.7-0.7-0.9c-0.7,0.6-1.2,1.4-2.1,1.8
							c0.6-0.9-0.4-2.2,0.7-2.3h-1.2c0.1-1.1-0.5-1.5,0.2-2c-0.4,0.1-0.5-0.3-0.9-0.2c-0.5,0.8,0.1,1,0.2,1.8
							c-0.4,0.6-1,0.8-0.5,1.6c-0.6,0-1,0.1-1.2,0.5c0.3,0.6,0.9-0.2,0.9,0.2c-0.3,0.8-1.7,0.4-2.1,0c-0.2-0.6,0.5-0.5,0.5-0.9h-0.5
							c0-1.3-0.5-2.2-0.9-3.2c-0.4,0.8,0,1-0.5,1.8c0.5,0,0.1,0.8,0.2,1.1c-1-0.1-0.1,0.5-0.2,0.9c-0.4,0-0.8,0.1-0.9,0.5
							c0.3,0.2,0.7,0.4,0.9,0.7c-0.2,0.2-1.3,0.5-1.4,0c0.2,0,0.3-0.4,0-0.5c-0.4,0.3-0.3,1.1-0.9,1.1c-0.2-0.6-0.9-0.7-1.2-1.1
							c-0.2,1,0.5,1.3-0.2,1.6c0.3,0,0.7,0,0.7,0.2c-0.5,0-0.1,0.8-0.2,1.1c-0.7,0.2-0.5-0.6-1.2-0.5c0.3,0.3,0.1,1.1,0.5,1.4
							c-1,0.2-0.9-0.6-1.7-0.7c-0.1,0.4,0.4,0.8,0.5,1.1c0.4,1.2-0.1,1.1-0.2,1.8c0.8-0.2,0.4,0.7,0.5,1.1c-0.3,0-0.7,0-0.7,0.2
							c0.9,0.4,0,1.1,0.2,2c-1,0.2-0.8-1.5-0.2-0.5c-0.3-1-0.8-1.8-1.4-2.5c0,0.8-0.1,1.6-0.7,1.8c-0.3-0.6,0.7-0.9,0-1.1
							c-0.6,0.1-0.4,0.8-1.2,0.7c0.2-1.1,1.3-1.3,1.2-2.7c-0.2-0.1-0.5,0-0.5-0.2c0.7-0.2-0.8-0.2,0-0.7c-0.3,0-0.3,0.3-0.7,0.2
							c-0.3-0.7,1.1-0.8,0.5-1.1c-0.6,0.1-0.4,0.8-1.2,0.7c-0.1-0.8,0.3-1.3,0.5-1.8c-0.6,0-0.5,0.4-0.9,0c-0.5-0.3,0.3-0.6-0.2-0.7
							c-0.8,0.2-0.3-0.7-0.9-0.7v1.1c-0.7,0-0.5,0.8-1.4,0.5c0,0.6,0,1.2-0.5,0.7c0.1,0.1,0.6,1.1,0,1.1c0-0.6-0.4-0.8-0.7-1.1
							c0.5,0.8,0,1.1-0.2,1.8c0.4,0.5,0.9,0.8,0.9,1.6c-0.9-0.1-0.6-1.3-1.9-1.1c-0.2,0.9,0.6,0.9,0.5,1.8c-0.4,0.1-0.6-0.3-0.7,0
							c0.4,1,1.3,1.5,1.4,2.7c-1.2-0.3-1-3-2.1-2.5c0.2,0.8,1.3,1.9,0.9,2.5c-0.4-0.4-0.6-1.1-1.2-1.4c0.1,1.3,0.6,2.1,0.9,3.2
							c0.8-0.3,0.2,0.7,0.9,0.5c-0.1,1,1.7,1.3,0.9,2c-0.1-0.3-0.3-0.5-0.5-0.7c-1.1-0.6-1.8-1.6-2.8-2.3c0-0.3,0-0.6-0.2-0.7
							c-0.3,0-0.7,0-0.7,0.2c-0.1,0.7,0.3,0.9,0.7,1.1c0.2,1.1,0.9,1.7,0.9,2.9c-0.7,0-1.1-1.5-1.7-0.9c0.3,0.4,1.5,1.1,0.7,1.8
							c-0.2-0.5-0.4-1-0.9-1.1c-0.1,1.3,0.7,1.8,1.2,2.5c-0.7,0.2-0.6-0.3-1.2-0.2c0.5,0.5-0.1,0.3-0.2,0.7c0.8,1,2,1.7,2.8,2.7
							h-0.9c0-0.3,0.1-0.8-0.2-0.9c-1.1,0.3-1.3-1.4-1.9-0.9c0.2,0.8,0.5,1.6,0.9,1.6c-0.6,0-0.1,0.8,0,0.9
							c-0.8,0.4-1.2,0.1-1.7-0.5c-0.8,0.4,0.8,1.7-0.5,1.8c-0.4-0.1,0.1-0.3,0-0.7c-1.2,0.2-0.2-1.7-1.2-1.6c-0.1-0.4,0.4-0.6,0-0.7
							c-0.5,0.3-0.4,1.2-0.9,1.4c0.7,0.1,0.4,0.7,0,0.9c0-0.4,0-0.8-0.5-0.7c-0.4,0.8,0.1,0.4,0.2,1.1c-1.1-0.2,0.3,0.6-0.5,0.7
							c0-0.4-0.2-0.8-0.5-0.9c-0.2,1.1-0.3,1.7,0.2,2.5c-0.3,0.6-0.7-0.4-0.9,0.2c0.3,1.1-1,1.4-0.2,2.3c-0.6,0.4-0.8-0.3-1.2,0.2
							c0.3,0.1,0.3,0.5,0.5,0.7c-0.4,0.1-0.6-0.3-0.7,0c0.1,1.7-0.9,2.4,0.2,3.4c-0.3,0.6-1.3-0.5-1.4,0c0.3,0.8,1.3,0.8,1.7,1.6
							c-0.8,0-1-0.4-1.4,0.2c0.4,0.1,1.7,0.3,0.9,0.7c0-0.1,0-0.3-0.2-0.2c0.4,1-0.6,1.1,0,2c-1.2-0.1-2.1,0.7-2.6-0.5
							c0.5,0.1,1.2-0.4,1.2-1.4c-0.2-0.1-0.5,0-0.5-0.2c0.2-0.1,0.5,0,0.5-0.2c0-0.7,0-1.4-0.5-1.6c-0.1,0.3-0.4,0-0.5-0.2
							c0.7,0,0.8-1,0.5-1.4c1.9-0.1,0-1.9,0.9-2.3c0,0.1,0.2,0.3,0.2,0c-0.7-0.8,0.5-1,0.2-2c-0.3,0-0.7,0-0.7,0.2
							c-0.4,0-0.6-0.3,0-0.2c0-0.2,0.2-0.3,0.2-0.5c0.2-0.7,0.2-0.4,0-1.1c0.4-0.5,0.2-1.5,0.5-2c-0.5-0.5,0.2-0.8,0-1.6
							c-0.3-0.1,0-0.9-0.5-0.9c-0.3,0-0.7,0-0.7-0.2c0.4-0.3-0.5-1.4-1.2-1.4c0,0.6-0.1,0.9-0.5,1.1c-0.2-0.9-0.1-2-1.4-1.8v0.9
							c-0.8-0.2-1,0.2-1.2,0.5c-0.1,0.1-0.4,0.3-0.5,0.5c-0.1,0.2,0.4,0.4,0,0.5c0-0.4-0.7-0.1-0.7-0.5c1.2-0.1,1.3-1.4,2.1-1.8
							c-0.6,0-0.7,0.4-1.4,0.2c-0.1-0.9,0.6-0.9,0.7-1.6c-0.4-0.7-1.7-0.7-1.9-1.6c1.4,0.2,0.3-1.7-0.2-1.8c0.3-0.2,0.3-0.8,0.7-0.9
							c-0.9,0.1-0.3-1.4-0.9-1.6c-0.2,0.8-0.1,1.9-0.5,2.5c0-0.3,0-0.6-0.2-0.7c-0.1,1.1-0.4-0.2-0.9,0c0.1,1,1.3,1.1,0.7,2
							c-0.4,0.1-0.6-0.3-0.7,0c0.3,0.7,0.5,0.4,0.9,0.7c-0.5,0.4-1.3,0.6-1.7,1.1c0.3,0.3,0.1,1.1,0.5,1.4c-1.4,0.2-1.5-0.9-2.1-1.4
							c0.3-0.6,0.2-1.5-0.5-1.8c-0.3,0.6-0.6,1.1-0.2,1.8c-0.3,0.2-0.7,0.3-0.7,0.9c0.3,0,0.6,0.1,0.5,0.5c-0.9-0.1-0.8,0.7-1.4,0.9
							v0.9c-0.5,0-0.8,1.4-0.9,0.9c0.1-0.5,0.5-1-0.2-1.1c-0.3,0.6-0.6,1.2-0.9,1.8c0.4,0.2,0.4,1.9-0.2,1.8
							c0.2-0.7,0.5-2.1-0.5-2.7c-0.3,0.1-0.5,0.3-0.9,0.2c0.1-1.3-2.1-1.4-2.8-1.1c0.3-0.9-0.6-0.7-1.2-0.7
							c-0.3-0.6,0.9-0.7,0.2-0.9c-0.7-0.3-1.2,0.8-1.4,0.2c0.5-0.3,0.8-0.7,0.9-1.4c-0.6,0.4-1,0.8-1.7,1.1
							c-0.2-0.9,1.1-0.4,0.9-1.4c0-0.2-1.4-0.2-0.7-0.5c0.6,0,0.7,0.4,0.9-0.2c-1.2-0.1-0.9-1.7-1.7-2.3c-0.8,0.4-0.7,1.5-0.9,2
							c-0.3-0.6-0.8,0.4-1.2,0.5c0,0.3,0.7,0.8,0.2,1.4c0.3,0,0.9,0.9,0.5,0.9c-0.5-0.4-0.6-1.1-0.7-1.4c-0.8,0-1,0.5-0.9,1.4
							c-0.9,0.4-1.1,0-1.9,0.2c-0.1,0.4-0.5,0.6-0.5,1.1c-0.8,0.1-0.5,1.3-1.4,1.4c-1.2-0.5,0.3-1.2,0.2-2c0.1-0.4-0.3-0.5-0.2-0.9
							c-0.2,0-0.3,0.2-0.5,0.2c-0.1-0.8-0.4-1.4-1.2-1.6c0,0.3,0,0.6-0.2,0.7c-0.4-0.2,0.1-1.1-0.7-0.9c0.1,0.9-0.3,0.9,0,1.6
							c-1,0.2-0.4,0.6-0.9,1.4c0.9,0.3,0.4,0.8,0.9,1.6c-0.3,1.2-1.1,3.4-2.1,2.5c0.6-0.3,0.5-1.2,0.7-1.8c-0.5,0.3-1,0.6-1.7,0.7
							c0.4-1-0.6-1.9-0.7-3.2c-0.4,0.5-0.2,1.5-0.7,1.8c-0.3-0.8,0-2.1-0.7-2.5c0.2,1.2-0.6,0-0.7,0.9c0,1.3,0.5,2.2-0.2,2.9
							c-0.1-0.5-1-0.1-0.9,0.2c0.9,0,0.7,1.7,0,0.9c0.1-0.2-0.2-0.7-0.2-1.4c0.3-0.1,0.5-0.2,0.7-0.5c-1,0,0.1-1.1-0.7-1.6
							c-0.5,0.2,0.1,1.3-0.5,1.4c-0.3-0.3-0.3-0.6,0-0.9c-1.1,0-0.3-0.5-0.7-0.9c0.8-0.3,0.2,0.7,0.9,0.5c0-0.2,0.2-0.3,0.2-0.5
							c-0.5-0.3-0.3-1.2-0.9-1.4c-0.3,0.6,0.7,1-0.2,0.9c0-0.6,0.2-1.6-0.5-1.6c-0.1,0.2,0,0.4-0.2,0.5c-0.7-0.5,0.1-1.6-1.2-1.8
							c0,0.3-0.1,0.5-0.5,0.5c-0.4-0.5-1-0.2-1.2-0.5c0.2,0-0.1-1.4-0.9-1.1c0,0.3,0.3,0.3,0.2,0.7c-1,0,0.1,0.6-0.5,0.9
							c-0.6-0.2-1.5-0.4-1.4,0.7c-1.3-0.3-0.6,1.4-1.4,1.6c-0.3,0.6,0.5,1.1,0,1.1c-0.2-0.6-0.4,0.6-1.2,0.2
							c-0.3-0.4,0.2-1.1-0.5-1.6c-0.1,0.2,0,0.4-0.2,0.5c-0.3-1-0.8-0.6-1.2-1.1c-0.1,0.5-0.6-0.3-0.9,0.2c-0.3-0.2-0.1-0.8-0.7-0.7
							c-0.2-1,1.2-0.4,1.2-1.1c-0.6,0.1-0.9,0.4-1.7,0.2c0.3-0.6,0.9-1.9-0.5-1.8c-0.1-0.4,0.3-0.5,0.2-0.9
							c-0.5,0.1-0.5-0.3-0.7-0.5c-0.4,0.8,0.2,0.6,0.2,1.4c-0.4,0.2-0.7,0.8,0,0.9c0.2,0.7-0.6,0.4-0.5,1.1c0.4,0,0.6,0.2,0.7,0.5
							c-0.3,0-0.7,0-0.7,0.2c0.3,0,0.6,0.1,0.5,0.5c-0.8-0.3-1.1-1.3-1.7-0.7c0.2,0.4,1.6,0.8,0.9,1.4c-0.2-0.3-0.4-0.7-0.9-0.7
							c0,1.2,0,0.6-0.7,0.5v1.1c0.4,0.1,0.6,0.3,0.9,0.5c-0.2,0.9,0.8,0.6,0.5,1.6c0.8-0.3,1,1.1,0.5,1.4c-0.2-0.2-0.5-0.5-0.7-0.7
							c0,0.7-1.5,0.2-1.7,0.2c0.1,0,0.3-0.2,0-0.2c-1.2-0.3-0.7,1.1-1.2,1.6c0-0.5-0.4-0.7-0.2-1.4c0.8,0,0.4-1.1,1.2-1.1
							c0,0.3,0.4,0.2,0.7,0.2c0.2-0.8,0.8,0.2,0.9-0.7c-0.4-0.1-0.4-0.7-0.7-0.9c-0.4,0.4-0.7-0.3-1.2,0.2c0.1-1-0.4-1.5-0.5-2.3
							c-0.2,0-0.3,0.2-0.5,0.2c0.1-0.6-0.1-1-0.7-0.9c0,0.6,0.1,1.3-0.5,1.4c-0.1-0.4,0.3-0.5,0.2-0.9c-0.4,0.2-0.7,0.8-0.9,0
							c0.7-0.6-1.1-0.7-0.9-1.6c0.6,0.1,0.6-0.5,0.7-0.9c-0.8-0.2-0.8,0.3-0.5,0.7c-0.9,0.2-0.5-0.9-1.2-0.9c0,0.3-0.4,0.2-0.5,0.5
							c0.3,0,0.6,0.1,0.5,0.5h-0.5c0,0.1,0,0.3-0.2,0.2c-0.5-0.6,0.2-1-0.2-1.4c0,0.4-0.2,0.5-0.5,0.2c0,0.3,0.1,0.8-0.2,0.9
							c0-0.8-0.5-1,0.2-1.4c-1.4,0.3-0.8-1.4-1.7-1.6c-0.1,0.7,0.5,0.7,0.5,1.4c-0.7-0.2-0.8-0.3-1.2,0.2c-0.1-0.3-0.3-0.5-0.5-0.7
							c-0.7-0.2-0.5-0.2-1.2,0c-0.3,0.1-0.6-0.9-0.7-0.2c0,0.3,0.4,0.2,0.5,0.5c-0.7,0.5-0.7-0.4-0.9,0c-0.2,0.8,1.1,0.2,0.9,0.9
							c-0.4-0.1-0.6,0.3-0.2,0.5c0.6,0.1,0.2-0.9,0.9-0.7c-0.1,0.5,0.6,1.4,0.9,0.7c0.1-0.5-1.1,0.1-0.7-0.7
							c0.4-0.2,0.6,0.3,1.4,0.2c0-0.3,0.1-0.5,0.5-0.5c0.7,0.1-0.4,0.4-0.2,0.7c0.3,0.1,0.4,0.3,0.7,0c0,0.3,0.1,0.5,0.5,0.5
							c-0.4,1-1.1,0.9-0.7,2.3c-0.7-0.1-0.8-1.2-0.5-1.7c-0.3,0.4-0.7-0.5-0.9,0.1c0.4,0.3,0.6,0.8,0.7,1.4c-0.5-0.1-0.9,0-1.2,0.2
							c0.2-0.6-1-1-1.2-0.5c0.7,0.4,1.4,0.8,1.9,1.4c0-0.4,0.2-0.8,0.5-0.9c-0.1,0.6,1,1.2,0.2,1.6c-0.2-0.3-0.4,0.1-0.7-0.5
							c0.4,1.2-1.1,0.6-1.2,1.4c0.6-0.5,1.8,0.3,1.2-0.5c0.8,0.1,0.3,0.6,1.2,0.2c0.1,1-0.4,1.3-0.5,1.6c-0.1-0.2-0.2-0.3-0.5-0.2
							c0.3,0.5,0.8,0.8,0.9,1.4c-1.3,0.8-1.6-0.9-2.4-1.4c0.6,0.2,1-0.8,0.5-0.9c-0.7,0.4-1.8,0.6-2.4,1.1c0.5-0.6-0.2-1,0.2-1.4
							c0.4,0.5,0-0.1,0-0.5c1.3,0.1,1.3-0.9,1.9-1.4c-1-0.7-1.3,0.7-2.1,0.9c-0.1,0.2,0,0.4-0.2,0.5c0.1-0.8-1-0.4-0.7-1.4
							c0.6-0.2,1.5-0.1,1.4-0.9c-0.6,0.1-1,0.3-1.4,0.5c0-0.6,0.1-0.9,0.5-1.1c0.1,0.2,0.4,0.5,0.5,0.2c-0.2-0.8,0.6-1.2-0.2-1.4
							c0,0.4-0.2,0.6-0.5,0.7c-0.3-0.7,0.7-1.3,0-1.6c0.1,0.4-0.3,0.6-0.5,0.2c0.2-0.1,1-0.6,0.5-0.7c-0.4-0.1-0.5,0.3-0.9,0.2
							c-0.3-1.2,0.7-1.3,0.7-2.3c-0.5,0.1-0.6,0.5-0.9,0.7c-0.3-0.5,0.6-0.9,0-0.9c-0.1,0.2-0.9,0.8-0.9,0.2
							c0.2-0.4,0.7-0.4,0.9-0.7c-0.7-0.2,1-1.3,0.2-1.6c0,1-1.9,1.9-1.9,0.9c-0.1,0.5-1.1,1.4-1.4,0.9c0.5-0.1,0.5-0.4,0.2-0.7
							c0.5,0.1,0.9-0.1,0.9-0.5c-1.4,0.5,0-1.6-1.4-1.1c0.2-0.7,0.7-0.7,0.2-1.1c-0.4,0.6-0.9-0.1-0.9,0.7c-0.7,0.3-0.9-0.3-1.2,0.5
							c0.6-0.1,0,2,0,0.7c0-0.5-0.4-0.7-0.2-1.4c0.4-0.3,1.3,0.1,1.7-0.7c-0.3-0.5,0.6-0.9,0-0.9c-1,0.1-1.3,1.3-2.4,0.7
							c-0.5,0.9,0.5,1.3,0,1.8c0.1-0.7-0.9-0.5-0.9-1.1c0.5,0.2,0.9-0.7,0.5-0.7c-0.5,0.1-0.8,0.5-1.2,0.7c-0.6-0.8-1.6,1-2.1,0.2
							c0.6-0.7-1.2,0.2-1.4-0.7c0.9,0,0.1-0.2,0.2-0.7c0.8,0,1.2-0.4,2.1-0.2v-0.9c0.9-0.4,2.1-1,2.6-1.1v-0.7h0.9
							c0-0.4,0.2-0.5,0.5-0.2c0.1-0.3,0.3-0.5,0.5-0.7c0,0.3,0.3,0.4,0.5,0.5c-0.8-0.8,0.5-1,0.5-1.8c-0.3,0.3-0.9,0.3-1.2,0
							c0.5,0.5-0.2,0.7,0.2,1.1c-0.3,0-0.5-0.1-0.7-0.2c0.5,0.7-0.8,1.1-1.7,1.1c0.2,0.7-0.6,0.5-0.7,0.9c-0.9-0.3-1.1,0.1-1.9-0.5
							c0,0.3-0.3,0.3-0.2,0.7c0.6-0.1,0.9-0.4,0.9,0.5c-1.2-0.2-1.9,1.4-2.6,0.9c0.2-0.1,0.6-1,0.2-0.9c-0.3,0-0.3,0.3-0.7,0.2
							c-0.1-0.5,0.4-0.5,0.2-1.1c-0.3,0.1-1.4,1-1.4,0c0-0.5,0.6,0.3,1.2,0c0.4-0.2,0.4-0.7,0.9-0.7c0.2,0.7-0.4,0.7-0.5,1.1
							c0.9-0.3,0.6,0.7,1.2,0.7v-1.8c-1.2,0.3-0.3-0.7-0.7-0.7c-0.5,0.1-0.4,0.6-1.2,0.5c-0.4-0.4,0.1-0.4,0-1.1
							c0.4-0.1,1.2,0.2,0.9-0.5c0.7,0.2,2.3,0.1,2.8-0.5c-0.3-0.6-1-0.7-1.4-1.1c0.2,0.7-0.6,0.5-0.7,0.9c0.5,0.1,1.6-0.3,1.7,0.2
							c-0.9,0.3-1.7-0.1-2.6,0.2c0.1-0.7,0.8-0.9,1.2-1.4c-0.4,0-0.1-0.6-0.5-0.7c-0.7,0.2-1.6,1.5-2.6,0.7c0.8-1.2,2.2-0.5,3.1-1.6
							c0,0.3,0.7,0.3,0.7,0c0.1-0.6-1.3,0.2-1.2-0.5c1,0,1.2-0.8,1.9,0c-0.1-0.4,1.1-0.7,0.5-0.9c-0.1,0.1-0.9,0.6-0.9,0
							c0.3,0,0.1-0.3,0-0.5c0.5-0.5,0.7,0.1,1.4,0c-0.9-0.7,0.1-0.7,0.5-1.4c-1.9-0.4,0.9-2.1,0.5-2.9c-0.8,0.3-0.9,1.3-1.7,1.6
							c0-0.3,0-0.6-0.2-0.7c-0.3,0.3-0.3,0.6,0,0.9c-0.3,0-0.7,0-0.7,0.2c0.6,0.6-0.9,0.9-0.9,1.6c-0.3,0-0.5-0.1-0.7-0.2
							c-0.2,0.5-1.1,1.5-1.7,0.9c0.1,0,0.3,0,0.2-0.2c-0.1,0-0.3-0.2,0-0.2c0,0.3,0.4,0.2,0.7,0.2c0-0.3-0.3-0.3-0.2-0.7
							c0.4-0.1,1-0.1,1.2-0.5c-0.1,0-0.3,0-0.2-0.2c0.3,0,0.7,0,0.7-0.2c0.3-0.9,1.3-1.1,1.7-2c0.9-0.1,1.5-0.4,1.7-1.1
							c-0.5,0.5-2.3,0.6-1.7-0.2c0.1,0.4,1-0.4,1.2-0.7c-0.1,0.1-0.9,0.6-0.9,0c0.9-0.2,0-1.5-0.2-2c0.8,0.2,0.4-0.7,0.2-0.9
							c0.2-0.2,0.9-0.1,0.7-0.7c-1.4,0-1.5,1.3-2.8,1.4c0.2-0.5,0.4-1,1.2-0.9c0-0.8,0.6-1,0.9-1.4c-0.4-0.7,0.9-0.9,0.2-1.1
							c-1.2-0.2-0.5,1.4-1.7,0.7c0.3,0.3,0.3,0.6-0.2,0.7c-0.1-1.1-1.1,0.1-1.7,0c0-0.3,0-0.6-0.2-0.7c-0.1,0.2-0.2,0.3-0.5,0.2
							c-0.1-1.1,0.7-0.1,0.9-0.7c-0.6-0.6,0.6-0.8,0.9-1.1c-0.4-0.1,0.1-0.2,0.2-0.5c-0.8-0.1,0.8-0.6,0-0.7
							c-0.8-0.1-0.4,1.5-1.2,0.7c0.7,0.7-0.9,0.8-1.4,1.1c0-0.7,0.5-0.9,0.7-1.4c-0.2-0.1-1.2-0.5-0.5-0.7c0.5,0.8,1.2-0.9,1.7-0.2
							c-0.2-0.7,0.6-0.4,0.5-1.1c-1.1-0.1-1,1-2.1,0.9c0-1-0.6,0.2-1.2,0c0.2-1.1,1.4-1.1,1.9-1.8c-0.3,0-0.6-0.1-0.5-0.5
							c0.2-0.4,0.5-0.9,0.9-0.5c-0.1-0.9,1-0.7,0.9-1.6c-0.6,0.4-1.7,0.4-1.7,1.4c-0.3,0-0.5-0.1-0.7-0.2c0,0.3-0.1,0.5-0.5,0.5
							c-0.4,0.6-1,1-1.4,1.6c-0.1-0.2-0.2-0.3-0.5-0.2c-0.2-0.8,1-0.4,1.2-0.9c0.3-0.9-0.7-0.5-0.7-1.1c1.2-0.1,1-2,1.2-2.3
							c0.4,0.6,1.5-1.3,1.2-1.4c-0.4,0.1-0.2,0.7-0.9,0.5c-0.3-0.6,1-0.8,0.2-1.1c-0.4,0.4-0.7,1-1.4,1.1c0-1,1.1-1.1,1.2-2
							c-0.5-0.4-1.5,0-1.7-0.2c0.2-0.1,0.7-1.1,0.2-1.1c0,0.9-0.2,0.1-0.7,0.2c0.1-0.8,0.7-0.4,0-0.9c0.6,0,1.2-1.1,0.7-1.4
							c-0.2,0.9-0.7,0.7-1.2,0.9V486c-0.1,0-0.3,0-0.2-0.2c0.3,0,0.7,0,0.7-0.2c-0.2-0.7,0.8-0.3,0.7-0.9c-0.5-0.2-1.8,0.1-2.6-0.5
							c0.3,0,0.6-0.1,0.5-0.5c0.2-0.1,1.3-0.5,0.7-0.7c-0.7,0-1.4,1.2-1.9,0.7c0.4-0.6,0.6-1.4,0.9-2c-0.7-0.1-0.9,0.7-1.4,0.2
							c0-0.6,0.4-0.7,0-1.1c0.5,0,0.8-0.2,0.7-0.7h-0.9c-0.1-0.7,0.3-0.9,0.5-1.4c-1,0.2-0.4-1.3-0.9-1.6c-0.5,0.5,0.2,1.1-0.2,1.6
							c0-0.1-0.2-0.3-0.2,0c-0.1,1.3,0,1.5-0.7,2.3c0.5-0.2,1.1,0.6,0.5,0.7c0-0.3-0.6-0.2-0.9-0.2c-0.1-0.4,0.4-0.6,0-0.7
							c-0.4,0-0.2,0.7-0.7,0.7c0.5-1.4,0.3-1.9-0.2-3.2c-0.1,1,0.1,2.4-0.7,2.5c-0.2-0.8,0.3-1,0.5-1.4c-0.8,0.4-0.1-0.8-0.7-0.7
							c-0.2,0.2-0.5,0.4-0.7,0.7c0.5,0.2,0.8,1.3,0,1.4c0.2-0.8-0.6-0.2-0.7,0c0.9-0.1,1,1.7,0.7,2c-0.2-0.4-1.4-0.9-1.4-0.7
							c0.2,0.5,0.9,0.6,1.2,1.1c-0.6-0.2,0.2,1.1-0.5,0.9c-0.2-0.6-0.7-0.9-1.2-1.4c0.2,0.3,0.2,0.8,0.5,1.1
							c-0.8-0.2-0.5,0.6-0.9,0.7c-0.3-0.4-0.5-0.9-1.2-0.9c0,0.7,0.6,0.9,0.9,1.4c-0.8,0.3,0.9,1.2,0,1.6c-0.6-0.6-1.1-1.2-1.7-1.8
							c0.2-0.8-0.2-1-0.7-1.1c0.3,0.6,0.5,0.9,0.2,1.6c0.8-0.2,0.4,0.5,0.2,0.7c-0.9-0.2-0.7-1.3-1.2-1.8c-0.3,1.6,0.8,1.8,0.5,3.4
							c1.1-0.2,0.5,0.4,0.5,0.9h0.7c-0.2,1.4,0.9,0.1,0.7,1.4c-0.7,0.2-0.3-0.8-1.2-0.5c0.2-0.7-0.9-1.2-0.9-0.9
							c0.2,0.8,1.3,0.7,1.2,1.8c-0.8-0.2-1.4-0.5-1.2-1.6c-0.5,0.4-0.3,0-0.9,0c0.1-0.9,0.2-1,0.7-1.8c-0.6,0-1.1,0-1.4,0.2
							c-0.2-0.6,1.1-0.8,0.5-1.1c-0.4,0.5-0.8,1.1-1.9,0.9c-0.2-0.8,1-1.3,0-0.9c0-0.3,0.1-0.5,0.2-0.7c-0.6-0.2-0.1-1.4-0.9-1.4
							c-0.1,0.7,0.5,0.7,0.5,1.4c-0.4,0.1-0.6-0.3-0.7,0c0.4,0.8,0.3,0.7,0.5,1.6c-0.4,0-0.8,0-0.7,0.5h0.9c0,0.6-0.7,0.6-0.9,0.9
							c0.2-0.6-0.5-0.4-0.7-0.7c0,0.3-0.3,0.3-0.2,0.7c0.9-0.1,2.4,0.8,1.2,1.4c0-0.6-0.5-0.5-0.7-0.9c-0.3,1.2-1.3-0.7-1.9,0.2
							c0.9,0.2,1.4,0.8,2.1,1.1c-0.9,0.1-1.6,0.3-2.1,0.7c0.9,0.5,0.7-0.4,1.9-0.2c0.1,0.6,1.2,0.2,1.4,0.7
							c-0.6,0.5-0.8,0.8-1.9,0.5c0.2,1.1-0.6-0.3-0.7,0.5c0.6,0,0.8,0.4,1.2,0.7c-1,0.2-1.1-0.4-1.9-0.5c0.1,0.4-0.3,0.5-0.5,0.7
							c0.7,0,0.7,0.7,1.2,0.9c0.7,0.3,1.1-0.3,1.2,0.7c-0.3,0.5-1.1-0.5-0.9,0.7c-0.5,0.1-0.5-0.3-0.7-0.5c-0.4,0.7-1.1-0.8-1.7,0
							c0-0.4-0.2-0.5-0.7-0.5c0.3,0.1-0.1,0.7,0,0.9c0.1,0.2,0.6,0.1,0.7,0.2c0,0,0.3,0.7,0.2,0.7c0.1,0.2,0.4,0.5,0,0.7
							c0-0.1-0.2-0.3-0.2,0c0.6,0.1,0.1,1,0,1.1c0.8-0.1,1.2,0.2,1.4,0.7c-0.9-0.4-0.1,1-0.7,0.9c-0.3-0.2-0.1-0.8-0.7-0.7
							c0.3,0.5,1.7,1.4,0.2,1.6c0.4,0.4-0.3,0.7,0.2,1.1c-0.2,0.1-0.5,0-0.5,0.2c0.7,0.4-0.9,0.9,0,1.4c0.3-0.4,1.2-1.1,1.2,0
							c-0.3,0.1-0.9,0.2-0.9,0.6c0-0.2-1.1,0.1-1.2,0.3c0.3,0.3,1.2,0.2,1.9,0.2c-0.5,1.3-1.5,0-2.6,0.2c-0.2-0.4-0.4-0.8-1.2-0.7
							c-0.1-0.4,0.3-0.5,0.2-0.9c-1,0.2-1.6,0.3-2.1-0.2c-0.1,0.3-0.3,0.5-0.7,0.5c-0.1-0.7,1.3-1.2,0.7-1.6
							c-0.6-0.3-0.6,1.1-0.9,0.2c0.7-0.2-0.3-0.6-0.5-0.7c0.4,0.5,0,0.3,0,0.9c-0.6-0.3-1,0.7-1.2,0c0.7-0.2,0.9-0.9,1.2-1.6
							c-0.3,0-0.5,0.4-0.7,0c0.4-0.3,1.1-0.2,0.9-0.9c-0.5,0-0.3,0.6-0.9,0.5c0.1-0.4-0.3-0.5-0.2-0.9c1,0.2,1.1-0.5,1.7-0.7
							c-0.8,0.2-1-0.3-1.4-0.5c0,0.8-0.4,0-0.7,0.7c0.4-0.8-0.3-1.3,0.7-1.6c-0.5-0.1-0.9,0-1.2,0.2c-0.1-0.6,0.7-1.7-0.2-1.1
							c-0.2-0.7,0.6-0.5,0.7-0.9c-0.9,0-0.3-1.4-1.4-1.1c0.1,1.1,0.3,1-0.5,1.4c0.6,0.5,0.4,1,0.2,1.8c-0.5,0.1-0.5-0.3-0.7-0.5
							c-0.3,0.1-0.6,0.4-0.7,0.7c0.3-0.1,0.4-0.3,0.9-0.2c0.1,0.5,0.5,0.7,0.7,1.1c-1.1,0.2-2.1-1-2.8-0.5c1.2,0.5,2.2,1.4,1.9,2.3
							c-0.1-0.4-1.2-0.9-1.4-0.5c0.3,0.3,0.7,0.4,0.5,1.1c-0.9,0-0.3-1.3-1.4-1.1c0,1.3,1.6,1.1,1.7,2.3c-0.7,0.1-0.9-0.5-1.4,0
							c0.3-0.7,0-0.9-0.5-1.4c-0.4,0-0.8,0.1-0.9,0.5c0.3,0,0.3,0.4,0.2,0.7c-0.9-0.2-0.4,0.9-1.2,0.7c-0.6-0.4-0.2-0.7-0.5-1.6
							c1,0,1.2-0.8,1.2-1.8c-0.8,0.1-0.9-0.5-1.4-0.7c0.5-0.9,1.5-0.6,1.9-1.1c-1-0.3-1.8,0.6-2.4,0c0.3-0.3,0.6-1,0.2-1.4
							c0.4,0,0.9,0.1,0.9-0.2c-0.6-0.1-1-0.4-1.4,0c0.3-0.7-0.4-0.5-0.5-0.9c0.5-0.5,0.6-0.1,0.9,0.2c-0.4-0.8-0.1-1,0.5-1.4
							c-0.6-0.1-0.5,0.4-1.2,0.2c0.2-0.7-0.2-0.8-0.2-1.4c0.8,0.2,0.9-0.4,0.9-0.9c-1,0-1.8,0.1-2.1,0.7c0.4,0,0.8,0,0.7,0.5
							c-0.3,0-0.7,0-0.7,0.2c0,0.2,1,0.5,0.2,0.7c-0.7-0.5-0.2,0.9-0.5,1.4c0.5,0,0.8,0.2,0.7,0.7c-1.4-0.6-0.1,0.9-0.7,1.6
							c-0.7-0.1-0.9-0.6-1.2-1.1c0.3,0,0.7,0,0.7-0.2c-1.4,0-2.7-0.1-3.8-0.5c0.5,0.1,0.9-0.1,0.9-0.5c-0.3,0-0.7,0-0.7-0.2
							c0.3-0.2,0.7-0.4,0.9-0.7c-1,0.5-0.8-0.1-0.9-0.5c0.1,0.4-1.3,0.4-1.2,0c0.6-0.3,1-0.9,1.2-1.6c-0.3,0.1-0.4,0.4-0.7,0.5
							c-0.1-0.5,0-0.9,0.2-1.1c-1,0.3-0.7-0.5-1.4-0.5c0,1.3,0.1,1.4,0.2,2.3c-0.7,0.1-1.2-0.9-1.4,0c0.7-0.1,0.8,0.4,1.7,0.2
							c-0.2,1.7-2.4,0.1-3.1,1.4c0.4,0.1,0.5-0.3,0.9-0.2c0.1,0.2,0,0.4,0.2,0.5c0.2-0.6,0.8,0.2,1.2,0.2c0.3,0,0.3-0.3,0.7-0.2
							c0.3,0.7-0.8,0.2-0.5,0.9c-0.7-0.2-0.5-0.2-1.2,0c-0.5-0.3-1.5-0.7-1.7,0.2c0.8,0.4,1.3-0.4,1.4,0.5c-0.6,0.1-1.5-0.7-1.9,0
							c0.8,0,1.3,0.3,1.4,0.9c-0.7,0-1.4-1.1-1.9-0.5c0.5,0.2,1,0.4,1.4,0.7c-0.2,0.6-0.8,0.8-0.9,1.4c0.9,0.5,0.9-0.5,1.9-0.5
							c0.6-0.1,0.2,0.9,0.9,0.7c0-0.1,0.2-0.3,0.2,0c-1,0.4-1.9-0.2-2.8,0.7c-0.1-1-0.7-1-0.7-0.5c-0.4-0.7-1.3-0.9-1.7-1.6
							c0,1.1,1.2,1.1,1.4,2h0.5c0.1,0.4-0.3,0.5-0.5,0.7c0.7,0.3,1.3,0.7,1.7,0.7c-0.1,0.5-1,0.2-0.9,0.9c-1.3-0.3-1.8-1.5-3.1-1.8
							c0.4,1.2,2,1.3,2.4,2.5c-1,0,0,0.1,0,0.5c-1.3,1-2-0.5-2.8-0.2c0.2,0.7,1.1,0.8,1.7,1.1c0.1-0.2,0.4-0.5,0.5-0.2
							c-0.5,0.8-2,1.1-2.6,1.1c1.1,0.3,2.1,0.7,3.5,0.7c0,0.4,0.6,0.2,0.5,0.7c-0.6-0.2-2.4-0.4-2.6-0.2c0.4,0.7,2,0.2,2.4,0.9
							c-0.8,0-1-0.4-1.4,0.2c-1-0.5-1.3-1.8-2.8-1.8c0.2-0.5-0.8-0.9-0.7-0.5c0.3,0.3,0.7,0.4,0.5,1.1c0.8,0.4,1,0.1,1.4,0.7
							c-1.1-0.3-0.7,0-1.4,0.5c0-0.3,0-0.6-0.2-0.7c-0.1,0.6-0.3,0.8,0.2,1.1c0.7-0.6,1.7-0.6,2.6-0.5c0,0.3-0.1,0.8,0.2,0.9
							c0.3-0.5,1,0.7,1.7,0.7c-0.6,0.6-1.1-0.1-1.4-0.5c-0.4,0.8-1.9,0.1-2.4-0.6c0.3,0.7-0.6,0.5-1.1,0.9c1.4-0.2,1.2,0.4,1.4,0.9
							c0.8-0.3,0.4-0.5,1.4-0.2c0.6,0.5-0.4,0.4-0.2,1.1c0.3-0.1,0.4-0.4,0.7-0.5v1.4c0.3-0.1,0.4-0.4,0.7-0.5
							c0.3,0.4,0.3,1.1,0.7,1.4c0.3,0,0.5-0.1,0.7-0.2c-0.2,1.1,0.6-0.3,0.7,0.5c-0.4,0.2-1.2,1.3-0.7,1.6c0.1-1,1.1-1.1,1.7-1.6
							c0.4,0.3,0.6,0.8,1.4,0.7c-0.3,0.9-1.6,1.2-1.9,1.4c-0.6-0.1-1-0.4-1.4,0c-0.2-0.5-0.9-0.5-1.7-0.5c0-0.7-0.4-0.2-1.2-0.5
							c-0.3-1-1.5-1.1-2.4-1.6c0,0.3-0.4,0.2-0.5,0.5c0.5,0.4,1.4,0.5,1.7,1.1c0.2-0.5,0.6,0.8,1.4,0.5c0.1,0.4-0.7,0.9,0,1.1
							c0.3-0.2,0.5-0.6,0.9-0.7c0.1,0.5,1,0.1,0.9,0.7c-0.3,0.1-1.2-0.3-1.2,0.2c0.9-0.2,0.5,0.9,1.2,0.9c0.8-0.4,1.8-0.1,2.4,0.5
							c-1.4,0.6-3.3,0.6-4.7,0.7c0.3,0.3,0.3,0.6,0,0.9c-1,0.3-0.9-0.5-1.7-0.5c-0.2,1,1,0.7,0.9,1.6c-0.4,0.1-1-0.7-1.2,0
							c0.4,0.8,1.2-0.1,1.7,0.5c-0.6,0-0.5,0.8-0.5,1.4c-0.5,0.3-1.5,1.4-2.4,0.7c0.5-0.3-0.3-0.6,0.5-0.9c-0.9,0.3,0-1-0.9-0.7
							c0.3,0.8-0.5,0.7-0.7,1.1c0.3,0.2-0.1,0.6,0.2,1.1c-1.5,0,0,0.4-0.2,1.1c-0.6,0.2-1.3,0.3-1.4,0.9c-0.1-0.2,0-0.4-0.2-0.5
							c-0.8,0-0.7,0.7-1.2,0c0,0.2-0.2,0.3-0.2,0.5c0.1,0.3,0.5,0.3,0.7,0.5c0-0.4,0.2-0.6,0.5-0.7c-0.1,0.5-0.3,1.5,0.5,1.6
							c0.1-0.4-0.3-0.5-0.2-0.9c0.4,0.1,1.2-0.6,1.4,0c-0.8,0-0.9,0.7-1.2,1.1c0.7,0.3,1.3-0.7,1.2,0.2c-1-0.1-0.9,0.9-1.7,1.1
							c-0.1,0.5,0.7,0.3,0.7,0.7c-0.9-0.4-1.7,0.2-2.6-0.2c0.4,0,0.8-0.2,0.9-0.5c-0.7-0.3-1.3,0.7-1.2-0.2c0.6-0.1,1.3-0.1,1.7-0.5
							c-0.7,0-1.2-0.2-1.4-0.7c0.7-0.8-0.5-0.3-0.5-1.1c0.3-0.6,0.9,0.2,0.9-0.2c-0.7-0.1,0.2-0.5,0-0.9c-1.2,0-0.2-0.7-0.7-1.1h0.9
							c0.3,0.7-0.8,0.2-0.5,0.9c1-0.2,0.8,0,1.9,0c-0.1-0.7,0.9-0.5,0.9-1.1c-0.5-0.9,0.5-1.3,0-1.8c-0.3,0.9-1.2,1.2-1.4,2
							c-1,0.3-1.3-0.7-1.9-0.2c0.2-1.2-0.5-1.8,0.2-2.3c-0.9-0.3,0-1.4-0.7-2c-0.2,0-0.3-0.2-0.5-0.2c-0.1,0.3-0.3,0.6-0.5,0.9
							c0.3,0,0.7,0,0.7,0.2c-0.4,0.1-0.2,0.5,0,0.7c-0.7,0.2-1,0-1.2,0.2c0.4,0.7,1.4-0.3,1.7,0.2c0.1,0.4-0.3,0.5-0.2,0.9
							c-1.1,0.3-0.7,0-1.2-0.2c-0.3-0.1-0.7,0.4-0.9,0c-0.6,0.6-0.1,0.7-0.7,1.1c0.2,0,0.3,0.2,0.5,0.2c0.4-0.6,2.2-0.7,2.4,0.2
							c-0.3,0.3-1.2,0.1-1.2,0.7c0.6,0.2,1.1-0.7,1.4,0c-0.8,0.1-0.4,0.5-0.7,0.7c0-0.3-0.7-0.3-0.7,0c0.4,0.1,1.7,0.5,1.2,0.7
							c-0.6-0.7-1.6,0-1.9-0.7c-0.5,0.2-1.1,0.5-1.4,0.9c0.2-0.8-0.5-0.4-0.7-0.2c-0.5-0.8,0.4-0.9,0.2-2c-0.3,0.1-0.6,0.3-0.9,0.5
							c0-0.6,0.4-0.5,0-0.9c0.2-0.4,1.4,0.1,1.2-0.7c-0.3,0.3-1.1,0.1-1.4,0.5c-0.3-0.8,0.3-1.2-0.5-1.6c0.2,1.1-1.1,0.5-1.4,0.5
							c0.8,0,0.6-1,1.2-1.1c-0.2-0.9,0-0.3-0.7-0.7c1-0.3-0.4-0.9,0.2-1.6c-0.2-0.1-1.2-0.5-0.5-0.7c0.4,0.8,0.6-0.4,0.5-0.9
							c1.3,0-0.3,1.4,1.2,1.1c0.1,0.4-0.3,0.5-0.5,0.7c0.9,0.2,1-0.4,0.9-1.1c0.7,0.2,0.7-0.4,1.4-0.2c0-0.8,1.2-0.4,1.2-1.1
							c-0.6,0.6-0.7,0.3-1.4,0c-0.3,0.1-0.5,0.2-0.7,0.5c0.4,0,0.7,0,0.9-0.2c0.1,1-1.1,0.6-1.7,0.5c-0.2-0.7,0.6-0.5,0.7-0.9h-0.9
							c-0.4-0.1,0.1-0.7,0-0.9c-0.1-0.2-0.5-0.1-0.7-0.2c-0.1-0.1,0.1-0.4,0-0.5c-0.1-0.1-0.4,0.1-0.5,0c-0.1-0.1-0.4-0.8,0-0.9
							c0,1.2,1.1,0.3,1.7,0.7c-0.1-0.7,0.4-0.8,0.7-1.1c-1,0.6-2,0.4-2.4-0.7c-0.1,0.3-0.3,0.5-0.7,0.5v-0.5c-0.1,0-0.3,0-0.2-0.2
							c0.5,0.1,0.5-0.3,0.7-0.5c0,0.4,0.2,0.5,0.7,0.5c-0.2,0.7,0.4,0.7,0.7,0.9c-0.3-0.4-0.2-1.2-0.7-1.4c0.4-0.7,1.2,0.4,1.4-0.2
							c-0.7,0-0.5-0.9-0.9-1.1c0.9,0.1,1,0.7,1.4,0.7c-0.3,0-0.3,0.6,0,0.7c0.3-0.2,1.1-0.9,1.4-0.2c-0.5,0.6-1.7,2-0.5,2.3
							c-0.6,0.2-1.4,0.2-1.4,0.9c0.7-0.1,0.7-0.8,1.7-0.7c0,0.3,0,0.6,0.2,0.7c0.8-0.3,1.4-1,1.4-1.4c0.1,0.8,0.9-0.6,0.9,0.2
							c-0.3-0.1-0.8,0.7-0.2,0.7c0.8-0.5-0.1-1.3,0.5-2c-0.9,0.2-0.4-0.8-1.2-0.7c0.6,0.5,0.4,0.7,0.2,1.6c-0.5,0.1-0.5-0.3-0.7-0.5
							c-0.2,0.2-1.3,0.5-1.4,0c0.3-0.1,0.5-0.3,0.5-0.7c0.6-0.3,1.4,0.4,1.4,0c-0.5-0.5,0.1-1.9,0.5-0.9c-0.3-0.7,0.6-1.2,0-1.4
							c-0.5,0.4-0.8,1.1-1.2,1.6c0.2,0,0.2,0.3-0.2,0.2c-0.3-1.4,1.6-2,1.2-2.7c-0.4,0-0.2,0.6-0.7,0.5c0.1-0.7,0.5-1,0.7-1.6
							c-1,0.1,0-0.3-0.2-0.9c-0.7-0.2-0.6,0.3-1.2,0.2c-0.2-0.9,0.9-0.5,0.9-1.1c-0.4,0.4-0.8-0.2-1.2-0.5c0.5-0.3,0.9,0.6,0.9,0
							c-0.9-0.1-1.1-0.9-0.9-2h-0.9c0-0.3,0.1-0.5,0.2-0.7c-1.1-0.2,0-1.1-0.9-1.4c0.1,1-0.2,1.6-0.7,2c0.3,0.1,0.6,0.4,0.2,0.5
							c-0.4-0.6-1.4,0.2-1.7,0.5c0.7,0.6-0.7,1,0,1.6c-0.7,0.2-0.9-0.2-1.4-0.2c0.1,0.5,0.5,0.6,0.7,0.9c-0.3,0.2-0.7,0.3-0.7,0.9
							c0.5-0.5,1.2,0,1.2,0.7c-1.2-0.6-0.6,0.2-0.9,0.7c-0.2-0.4-0.7-0.7-0.2-1.1c-0.5-0.6-1.2,0.1-1.2-0.7c0.3-0.4,1.1-0.3,1.2-0.9
							c-0.5,0.5-1.6,0.2-1.7-0.5c0.7,0.1,1-0.3,1.2-0.7c-0.6,0-0.7-0.3-0.9-0.7c0.3,0,0.6-0.1,0.5-0.5c-0.9,0.3,0-1-0.9-0.7
							c0.3,0.7-0.4,0.6-0.5,0.9c0,0.3,0.4,0.2,0.5,0.5c-0.5,0.6-1-0.2-1.4,0.2c0-0.6,0.4-0.7,0.5-1.1c-0.3,0-0.5-0.1-0.7-0.2
							c0.3-0.9-0.2-1.4-0.5-2.3c0,1.6,0,2.1-0.9,2.9c0.3,0.2,0.9,0.2,0.9,0.7c-0.3,0.4-1.4,0-1.4,0.7c0.6,0.5,1.1-0.2,1.4,0.2
							c-0.8-0.2-0.4,0.5-0.2,0.7c-0.8,0.2-0.5-0.6-0.9-0.7c-0.4,1.1,0.3,1.6,0.7,2.5c-0.9-0.5-1.6,0.1-1.9,0.2
							c0.2,0.7,0.8-0.1,1.2,0c-0.2,0.6,0.5,0.5,0.5,0.9c-0.4,0.7-1.7-0.3-1.9,0.2c0,0.3,0.4,0.2,0.7,0.2c-0.3,0.9,0.7,0.5,0.7,1.1
							c-0.3,0.5-0.6-0.3-0.7,0.2c0.3,0.1,0.6,0.3,0.9,0.5c0,0.6-0.1,1.3,0.2,1.6c-0.7,0-0.7-0.6-0.7-1.1c-0.8,0.7-0.7-1-1.2-1.4
							c-0.1,0.4-0.4-0.1-0.5,0.2c0.4,0.4,0.4,0.2,0.2,0.9c0.4,0.2,0.7,0.5,0.9,0.9c-0.2,0.2-0.9,0.1-0.7,0.7
							c0.5,0.6,0.6-0.8,0.9,0.2c-0.5,0-0.8,0.2-0.7,0.7c0.5-0.1,0.5,0.3,0.7,0.5c0-0.3,0.6-0.2,0.5,0.2c-1.2,0.2-1.2-0.7-2.1-0.7
							c0.4,0.4,0,0.6,0,1.1c0.5-0.5,0.5,0.1,0.2,0.5c0.7-0.2,0.5,0.6,1.2,0.5c0,0.4,0,0.8,0.5,0.7v1.1c-1.1,0-1-1.2-1.9-1.4
							c0.1-1.2-0.9-1.3-1.2-2c-0.6,1.1,0.6,2.8-0.9,3.4c-0.1-0.7-0.3-1.4-0.9-1.6c-0.3,1.3,0.2,1,0.2,2.3c-0.5,0.7-1.2-0.1-1.4,0.7
							c0.8,1.1-0.7,0-0.5,1.4c0.2,0,0.3-0.2,0.5-0.2c0,0.3-0.1,0.5-0.2,0.7c0,0.1,0,0.3-0.2,0.2c-0.5-0.4-0.4-1.3-0.9-1.6
							c-0.3,0-0.4,0.3-0.5,0c0.2,0,0.3-0.2,0.2-0.5c1.1-0.4,0.3,0.9,1.2,0.7c0.4-0.9-0.6-0.6,0.5-1.1c0.3-0.7-0.4-0.6-0.5-0.9
							c0.4,0,0.8,0,0.7-0.5c-1-0.3-0.8,0.4-1.2,0.7c0-0.2-0.3-0.2-0.2,0.2c-0.9-0.4-0.4,0.1-1.2,0.2c0.2-0.7-0.6-0.4-0.5-1.1
							c0.2-0.1,0.8-1,0.9-0.5c-0.2,0-0.3,0.2-0.2,0.5c0.2-0.5,1.4,0.1,1.2-0.7c-0.6,0-0.5-0.3-0.7-0.9c-0.3,0-0.5,0.1-0.7,0.2
							c0-0.3,0.1-0.8-0.2-0.9c-0.2,0.5-0.6-0.6-0.9-0.7c0,0.2-0.3,0.2-0.2-0.2c0.4-0.4,0.8-0.4,1.4-0.2c-0.2-0.8,1-0.4,1.2-0.2
							c0.3,0.7-0.8,0.2-0.5,0.9c0.3,0.3,0.7,0.1,0.9-0.2c-0.1-0.3-0.1-0.6-0.5-1.1c0.6-0.1,0.8-0.6,0.9-1.1
							c-0.3,0.2-1.3,0.9-1.4,0.5c0.4-0.1,0.5-0.4,0.5-0.9c0.6,0,0.8-0.4,1.2-0.7c-0.8,0,0.5-0.7-0.2-0.7c-0.2,0.2-0.5,0.5-0.7,0.7
							c-0.4-1.1,0.3-1.2,0.5-2.3c-0.5,0.4-0.3-0.1-0.7-0.2c0,0.3-0.7,0.3-0.7,0c0.2-0.5,0.8-0.6,0.7-1.4c-0.8,0.4-0.9,0.5-1.9,0.9
							c0.2-1,1.4-1.1,1.9-1.8c-0.3-0.6,0.7-0.9,0-1.1c0.1,0.6-0.3,0.7-0.9,0.7c-0.1-0.4,0.4-0.6,0-0.7c-0.8,0.5,0-0.1-0.5-0.2
							c-0.6,0-0.5,0.7-1.2,0.7c-0.2-0.7,0.8-0.3,0.5-1.1c0.7-0.1,1.4-0.4,1.4-1.1c-0.6-0.1-0.5,0.4-1.2,0.2
							c-0.3-0.9,0.6-0.4,0.5-1.1c-0.9,0.3-0.1-1.5-0.9-0.7c0-0.7,0.9-0.5,0.7-1.4c-0.9,0-1.4-0.5-1.7-1.1c-0.3,0.3-1.1,0.1-1.4,0.5
							c0-1,1.9-0.3,1.9-1.4c-1.6,0.2-0.7-0.4-0.9-0.7c-0.3,0.2-0.6,0.3-1.2,0.2c-0.3-0.9,1.1,0,0.7-0.9c-0.6,0-1.1-0.1-1.4-0.5
							c0.6,0,1.1,0,1.2-0.5c-0.3-0.2-0.7-0.4-0.9-0.7c0.6-0.5-0.3-1.5-0.5-2c0.1,1.1-1,1.1-0.5,2c-0.4,0-0.6,0.2-0.7,0.5
							c0.6-0.1,0.6,0.5,0.7,0.9c-0.7,0.3-1.4-0.6-1.7,0c1.1,0.1-0.6,0.6,0.5,0.9c-0.7,0.2-1.4,0.3-1.7,0.9c0.7,0.3-0.1,0.9,0.9,1.1
							c-0.1,0.8-1.4,0.5-1.7,0.7c0.2,0.5,1.1,0.1,1.2,0.7c-0.3,0.1-1.2-0.3-1.2,0.2c0.6,0,0.7,0.3,0.9,0.7c-0.4,0.4-0.8-0.2-1.7,0
							c0.1,0.4,0.7,0.4,0.5,1.1c0.5-0.5,1.2,0,1.2,0.7c-0.4-0.1-0.5,0.3-0.9,0.2c-0.7,0-0.4-1-1.2-0.9c0.1,0.5,0.6,0.6,0.5,1.4
							c0.6-0.1,0.6,0.5,0.7,0.9c-0.7,0.3-1.2-0.8-1.4-0.2c0.2,1.1,1.6,1,1.4,2.5c-0.7,0.2-0.4-0.5-0.5-0.9c-0.9-0.2-0.9-1.2-1.9-1.4
							c0.3,0.3,0.3,0.8,0.2,1.4c-0.7,0.3-0.6-0.4-0.9-0.5c0,0.3,0.1,0.5,0.2,0.7c-0.6-0.3-0.9-0.4-1.2-0.5c0.5-0.4,0.9-0.8,1.4-1.1
							c-1.1,0-1.9,0.3-2.8,0.5c-0.2-0.5-0.2-0.9,0-1.4c0.7,0,1.4,0,1.4-0.7c-1.6-0.3-1.6,0.3-2.6,0.7c0.3-1.6,2.4-1.3,3.3-2.3
							c-1.5-0.3-1.7,0.6-2.8,0.7c-0.1-0.7,0.2-1,0.9-0.9c-0.2-0.8,1-0.4,1.2-0.9c-1.5-0.2-2,0.6-3.1,0.9c-0.1-1,0.9-1,0.9-1.6
							c0-0.1-0.5-0.5-0.5-0.7c0,0,0.8-0.1,0.5-0.5c-1.6,0.2-0.8-0.7-0.9-0.9c-0.7-0.1-0.5,0.7-1.4,0.5c-0.1-1,0.6-0.3,0.7-0.7
							c-0.1-0.8,0.8-0.6,0.7-1.4c0-0.3-0.4-0.2-0.5-0.5c0.6,0.1,1-0.1,0.9-0.7c-1.1,0.2-1.7-0.8-2.4-0.2c-0.2-0.8,1-0.3,0.7-1.1
							c-0.3-0.2-0.5-0.6-0.9-0.7c-0.2-1,0.1-1.6,0-2c0-0.1-0.4-0.3-0.5-0.5c0,0,0.1-0.2,0-0.5c-0.1-0.3-0.3-0.5-0.5-0.7
							c-0.3,1.1-1.2,1.6-0.9,3.2c-0.7,0.3-0.6-0.4-0.9-0.5c-0.6,0.6,0.4,0.2,0.2,0.9c-0.6,0.3-1-0.7-1.2,0c0.8,0,1.2,1.5,0.9,1.8
							c-0.2-0.5-0.6,0.6-1.4,0.2c-0.2-0.3-0.2-0.8-0.7-0.9c-0.6,0.7,0.6,1.7,0,2.5c-0.3,0.1-1.2-0.3-1.2,0.2c0.1,0.3,0.9,0,0.9,0.5
							c-1.1,0.3,0.4,0.7-0.2,1.1h-1.2c0.1,0.7-0.3,0.9-0.5,1.4c0.6-0.1,0.8,0.3,0.7,0.9c-1.1-0.1-0.4,0.3-0.2,0.7
							c-1.2-0.3-1,1.9-1.9,1.1c0.3-0.2,0.7-0.3,0.7-0.9c-0.3,0-0.5,0.1-0.7,0.2c-0.1-0.7,0.9-0.5,0.9-1.1c-1.5,0-0.5-1.3-1.4-1.7
							c-0.1,0-0.1,0-0.2-0.1c0.1,0,0.2,0,0.2,0.1c0.6,0.1,0.7-0.9,0.2-1c-1.3,0.3,0,2-1.2,2c0.1,0.3,1.3,0.6,0.5,0.9
							c-0.4-0.6,0.1,0.2,0,0.7c-0.7-0.2-0.7-0.2-1.4,0c-0.3,0.1-0.6-0.9-0.7-0.2c0.3,0.5,2.1,0.8,1.7,1.4c0-0.3-0.6-0.2-0.9-0.2
							c0,1.6-0.1,0.2-0.7,0h-1.2c-0.2-0.7,0.6-0.4,0.5-1.1c-0.5-0.1-0.8-0.5-1.2-0.7c0.7,0,0.7-0.7,0.7-1.4
							c-0.5,0.5-0.6,0.1-0.9-0.2c0.2,0.9-1,0.7-0.2,1.4c-1,0.1-0.4,0.7-0.7,1.1c-0.5,0.2-1.5-0.2-0.7-0.5c0,0.1,0,0.3,0.2,0.2
							c0.1-0.8,0.8-1.1,0.7-2c0.9,0.1,0.7-0.8,0.9-1.4c-0.7-0.2-0.6,0.3-1.2,0.2c-0.1-0.4,0.3-0.4,0.5-0.7c-0.3,0-0.6-0.1-0.5-0.5
							c0-0.4,0.6-0.2,0.5-0.7c-1.5,0.4-0.1-1.9-1.2-1.8c0.2,0.7-0.4,0.7-0.5,1.1c0.5,0.2,0.7,0.7,0.9,1.1c-1.1-0.2-0.5,0.4-0.5,0.9
							c-0.5,0.1-0.5-0.3-0.7-0.5c-0.1,0.8-0.3,1.5-1.4,1.4v-0.9c0.4-0.1,0.6,0.3,0.7,0c0-0.4-0.2-0.5-0.7-0.5
							c-0.5-1.5,1.3-0.7,1.2-1.8c-0.4,0-0.7,0.1-0.9,0.2c0.2-0.9-0.8-0.6-0.5-1.6c0.3,0,0.7,0,0.7-0.2c-1.1-0.2-0.6-2-1.7-2.3
							c-0.3,0.6,0.5,1.3,0,1.4c-0.1-0.2-0.6-1-0.7-0.5c0.3,0.3,0.3,0.8-0.2,0.9c0-0.3-0.1-0.5-0.5-0.5v1.6c-0.4,0-0.8,0-0.7,0.5
							c1.4,0.1,0.5,1.1,0.9,1.8c-0.8,0.3-1.5-0.7-1.9,0c0.3,0.6,0.9,1,1.9,0.9c-0.3,1.1,0.1,1.8,0,2.3c-0.3-0.8,0,0.7-0.5,0.5
							c-0.2-0.6-0.2-1.3-0.9-1.4c0,0.4,0.1,0.7,0.2,0.9c-0.9,0.2-0.8-0.5-1.2-0.7c-0.1,0.3-0.4,0.4-0.5,0.7c0.5,0.5,0.2,0.6,0.5,1.1
							c-0.6,0.3-0.7-0.1-0.9,0.2c0,0.3,0.1,0.5,0.2,0.7c0,0.2-0.3,0.2-0.2-0.2c-0.2,0-0.3-0.2-0.5-0.2c-0.6,1-2.2-0.4-2.6,0.9
							c0.9-0.5,0.4,0.3,1.4,0.2c0.4,1.4-1.2,1.4-0.5,2.5c-0.5-0.1-0.5,0.3-0.7,0.5c-0.1-0.4-0.3,0.1-0.5,0.2
							c0.2-0.7,0.3-0.8-0.2-1.1c0.5-0.1,0.8-0.4,0.9-0.9c0.2-0.2,0.9-0.1,0.7-0.7c-1.2-0.2-0.6,1.2-1.7,1.1c0.1-0.8,0.3-1.2-0.5-1.6
							c0.2,0.6,0.3,1-0.2,1.4c-0.2-1.1-0.2-1.2,0.2-2c-0.6,0.1-0.6,0.9-1.4,0.9c0.3-0.9-1.1,0-0.7-0.9c0.5-0.2,1.4-0.3,2.1-0.5
							c0.4,0.2,0.4,0.7,0.9,0.7c-0.1-0.4,0.3-0.5,0.2-0.9c0.4,0,0.7,0.1,0.9,0.2c-0.1-0.9,0.6,0.2,0.7-0.7c-0.2,0-0.3-0.4,0-0.5
							c0,0.1,0.2,0.3,0.2,0c-0.4-0.3-0.4-1-0.9-1.1c0,0.2-0.2,0.3-0.2,0.5c0.1,0.4,0.7,0.2,0.5,0.9c-0.8,0.3-0.2-0.7-0.9-0.5
							c0-0.5,0.4-0.7,0.2-1.4c-0.3-0.3-0.9-0.1-1.2,0.2c0.1,1.2,1-0.7,0.9,0.5c-0.4-0.1-0.5,0.3-0.9,0.2c0-0.4-0.2-0.6-0.5-0.7
							c0,0.4,0.1,0.7,0.2,0.9c-0.5,0.1-0.5-0.3-0.7-0.5c-0.2,0.3-0.2,0.9-0.9,0.7c-0.4-0.9,0.6-0.5,0.7-0.9
							c-0.8-0.3,0.8-0.3,0.5-0.9c0.6,0.1,1,0.5,1.2-0.2c0-0.2-1-0.5-0.2-0.7c0.2,0.8,0.7,0.2,0.2-0.2h1.4c0.3,1.2-0.8,0.6-0.9,0.9
							c0.4,0,0.1,0.6,0.5,0.7c1,0.1,1.1-0.8,1.7-1.1v-0.5c0.6,0,0.5,0.4,0.9,0c0,0.4,0.2,0.5,0.7,0.5c-0.6-0.6-0.1-0.8-0.5-1.6
							c0.1-0.6,0.6-0.8,0.7-1.4c-0.7,0.4-1-0.8-1.2-0.2c0,0.3,0.1,0.5,0.2,0.7c-1-0.3-0.9,0.5-1.7,0.5c-0.1-0.3-0.3-0.5-0.5-0.7
							c-0.3,0.1-1.2-0.3-1.2,0.2c0.3,0.1,0.4,0.3,0.7,0c0.3,0.8-0.2,1,0.2,1.4c0.5-0.2,1.1-0.7,1.7-0.2c0-0.4,0.2-0.6,0.5-0.7v1.4
							c-0.5,0.1-0.5-0.3-0.7-0.5c-0.3,0.9-1.4-0.2-2.1,0.5c-0.4-0.4,0.1-0.9,0.2-1.4c-1.2,0.1-0.6-0.8-0.9-1.1
							c-0.4,0.3-0.4,0.9-0.7,1.1c-0.1-1.2-0.3,0.5-0.9,0.2c0.1-0.8,0.8-1.6,1.4-1.1c-0.3-1.3,2-0.6,1.2-1.8c0.5-0.1,0.5,0.3,0.7,0.5
							c0.1-0.8-0.5-0.9-0.7-1.4c0,0.9-1.2,0.8-1.4,1.6c-0.4-0.2-0.8,0.7-0.9,0c0.3-0.2,0.7-0.4,0.9-0.7c-0.3-0.5-0.6,0.3-0.7-0.2
							c0.7-0.1-0.2-0.5,0-0.9c0.9,0.2,0.7-0.6,1.4-0.5c0.4-0.7,1.1-1.1,1.4-1.8c-0.6,0.2-1.1,0.4-1.4-0.2c-0.1,0.3-0.3,0.5-0.7,0.5
							c-0.4-0.7-0.1-1,0-1.8c1.2,0.2,1-0.7,0.5-1.1c0.3-0.1,1.2,0.3,1.2-0.2c0-0.2-0.2-0.3-0.2-0.5c0.3,0,0.7,0,0.7-0.2
							c-0.8-0.4,0.7-0.4,0.2-1.1c0.3-0.5,0.6,0.3,0.7-0.2c-0.4,0-0.2-0.8-0.7-0.7c-0.2,1-1.8,2-2.6,1.1c0.1,0.5-0.4,0.5-0.2,1.1
							c-0.8-0.4-1.2-0.2-1.4,0.5c-0.6-0.5,0.6-0.6,0-1.1c0.5-0.5,1.1-0.8,1.4-1.4c-0.6-0.2,0.5-0.5,0.5-0.9c1.1,0.3,0.9-0.6,1.4-0.9
							c0,0.3,0.1,0.5,0.5,0.5c-0.2-0.7,0.4-0.7,0.2-1.4c-0.6,0.4-1.3,0.7-1.9,0v0.7c-0.6-0.5-1.2,0.3-1.7-0.2c0.5,0,0.8-0.2,0.7-0.7
							c-0.1-0.5-1-0.2-0.9-0.9c0.3-0.1,1.2,0.3,1.2-0.2c-0.4-0.3-1.1-0.3-1.4-0.7c0.9-0.4-0.5-0.4-0.5-0.7c0.3-0.1,0.6-0.4,0.7-0.7
							c-1.4-0.1,0.8-1,0-1.1c-0.5,0.6-0.8-0.7-1.4,0c0.1-1.1-0.8-0.1-0.9-1.1c0,1-0.5,0.2-0.7,0c0,0.3,0.1,0.5,0.2,0.7
							c-1-0.5-1.3,0.9-1.7,0.2c0.5-0.2,0.5-1,1.2-1.1v-0.7c0.7-0.2,1.4-0.5,1.7-1.1c-0.7-0.6-1.4,0.2-2.4,0c0.4-0.8,0.9-1.4,0.5-2
							c0.2-0.2,0.9-0.1,0.7-0.7c-0.1-0.3-0.5-0.3-0.7-0.5c0.5,0.5-0.1,0.9-0.7,0.9c-0.3-0.7-0.2-1,0-1.8c-1.5,0.4-0.2-0.2-1.2-0.7
							c-1.2,1,0.2,3.2-0.5,4.3c-0.1-0.5-1-0.1-0.9,0.2c0.6,0.1,0.9,0.5,1.2,0.9c-0.7,0.2-0.5,0.2-1.2,0c0.6,0.3-0.4,0.7,0.2,0.9
							c0.6-0.1,0.7-0.7,1.4-0.7v0.9c-0.4,0.1-0.5-0.3-0.9-0.2c-0.4,0.7-0.4,0.9-0.2,1.8c-1.2,0-1.6-0.5-2.4,0c0.2,0.1,0.5,0,0.5,0.2
							c-1.5,0-0.8-1.3-0.9-1.6c-0.2,0.6-1.2,0.3-1.7,0.7c-0.5-0.8,0.1-1.2-1.2-1.1c0.6-1.2-1-1.6-0.5-2c-0.1,0.4,1.1,0.7,1.2,0.2
							c0-0.5-0.6-0.5-1.2-0.5c-0.1-1.3,0.3-1.8,0-2.7c0.2-0.4,1.2,0.1,0.9-0.7c-1.9,0.3-0.2-1.5-1.9-1.4c-0.2,0.6,0.3,0.6,0.2,1.1
							c-0.4,0.1-0.6-0.3-0.7,0c0.2,0.7,0.2,0.5-0.2,0.9c0.9,0.2,0.2,1.1,0.2,1.8c0.4-0.4,1.1-0.1,0.9,0.7c-0.6,0.6-0.5-0.5-1.4-0.2
							c-0.2,1,0.7,1,1.2,1.4c0.1-0.2,0-0.4,0.2-0.5c0.2,1-0.2,2.2-0.9,1.6c-0.3-0.7,0.8-0.2,0.5-0.9c-0.9,0.2-1,1.2-2.1,1.1
							c-0.1-0.1-1.1-0.5-1.2,0c0,0.4,0.8,0.2,0.7,0.7c-0.7-0.2-0.5-0.2-1.2,0c-0.2-0.4-0.9-0.6-0.9,0c1-0.1,0.7,1,1.7,0.5
							c-0.3,1.2,1.4,0.7,1.9,1.1c-0.3,0.7,0.3,0.8-0.5,1.1c0-1-0.4,0-0.7,0c0.2-1.1-0.6-0.5-0.9-0.2c-0.1-0.6-0.2-1.2-0.9-1.1
							c0.5,0.7,0,0.7-0.5,0.2c-0.1,0.3-0.4,0.4-0.5,0.7c-0.1,0.9,0.3,0.9,0,1.6h0.5c0.3,0.7-0.8,0.2-0.5,0.9
							c0.8-0.1,1.2,0.1,1.4,0.5c0-0.2,0.4-0.3,0.5,0c-1.3,0.3-2.9-0.5-3.5-1.6c0.5,0.1,0-0.7-0.2-0.7c-0.3,0.1,0,0.9-0.5,0.9
							c-0.2-0.4-0.5-0.7-0.9-0.9c0.1,0.4-0.3,0.5-0.2,0.9c0.3,0,0.5,0.1,0.7,0.2C3.7,482,5.6,483,5,484.5c-0.1-0.4-0.3,0.1-0.5,0.2
							c-0.1-0.3-0.3-0.5-0.5-0.7c-0.7,0.7,0.7,0.7,0.5,1.6c0.7,0,0.9,0.5,1.2,0.9c-0.4,0.1,0.1,0.2,0.2,0.5c-0.3,0-0.6,0.1-0.5,0.5
							c0.7,0.2,1.2,0.5,1.7,0.9c-0.1,0-0.3,0.2,0,0.2c0.1,0.4-0.3,0.5-0.5,0.7c0.3,0.1,0.4,0.5,0.5,0.9c-1-0.2-2-2-2.8-0.9
							c-0.6-0.5-1.2-1-1.7-1.6v1.4c0.5,0.1,1,0.1,0.9,0.7c-1.2-0.2-1.5-1.3-2.4-1.8c0.2,1.2,1.1,1.7,1.7,2.5c-1,0-0.1,0.6,0,0.9
							c-1.2-0.1-1-1.6-1.9-2c0,0.3,0.1,0.5,0.2,0.7c-0.8,0.2-0.5-0.6-0.9-0.7c-0.5-0.1-0.6-0.5-0.9-0.7c-0.3,1,1.2,1,0.5,1.8
							c0.3,0.1,0.6,0.3,0.9,0.5c0.3,0.7-0.8,0.2-0.5,0.9c0.9-0.2,0.9,0.5,1.2,0.9H0.5c-0.3-0.5-0.5-1.9-1.2-1.4
							c0.3-0.6-0.5-1.3-0.7-0.7c0.2,0.4,0.7,0.2,0.2,0.7c0.2,0.1,1,0.6,0.5,0.7c-0.4-0.2-0.7-0.6-1.2-0.7c-0.1,0.7,0.6,0.9-0.2,1.1
							c-0.1-0.2-0.5-1.3-0.7-0.7c0.2,0.9,2.4,2.4,0.7,2.9c0-0.4,0.1-0.7,0.2-0.9c-0.9,0.2-0.1-1.3-0.9-1.1c-0.4,0.1,0,1.1-0.5,1.1
							c0-0.3-0.2-0.4-0.5-0.5v1.8c0.2,0.1,0.2,0.1,0,0.2c0,0,0,0,0,0v0.5c0.4,0.2,0.7,0.5,0.7,1c-0.2,0-0.5-0.1-0.7-0.2v0.8
							c0.1,0.1,0.2,0.3,0.3,0.6c-0.1,0-0.2,0-0.3,0v68.9H360V514.4z"/>
					</defs>
					<clipPath id="SVGID_19_">
						<use xlink:href="#SVGID_18_"  style="overflow:visible;"/>
					</clipPath>
					
						<linearGradient id="SVGID_20_" gradientUnits="userSpaceOnUse" x1="4.588119e-07" y1="565.0001" x2="1" y2="565.0001" gradientTransform="matrix(363.7502 0 0 -363.7502 -3.7502 206036.4844)">
						<stop  offset="0" style="stop-color:#7B6526"/>
						<stop  offset="1" style="stop-color:#543D13"/>
					</linearGradient>
					<rect x="-3.8" y="468.3" class="st8" width="363.7" height="98.7"/>
				</g>
			</g>
		</g>
	</g>
</g>
</svg>
