<?xml version="1.0" encoding="UTF-8" standalone="no"?>
<!-- Generator: Adobe Illustrator 16.0.0, SVG Export Plug-In . SVG Version: 6.00 Build 0)  -->

<svg
   xmlns:dc="http://purl.org/dc/elements/1.1/"
   xmlns:cc="http://creativecommons.org/ns#"
   xmlns:rdf="http://www.w3.org/1999/02/22-rdf-syntax-ns#"
   xmlns:svg="http://www.w3.org/2000/svg"
   xmlns="http://www.w3.org/2000/svg"
   xmlns:sodipodi="http://sodipodi.sourceforge.net/DTD/sodipodi-0.dtd"
   xmlns:inkscape="http://www.inkscape.org/namespaces/inkscape"
   version="1.1"
   id="Calque_1"
   x="0px"
   y="0px"
   width="40.001px"
   height="32px"
   viewBox="0 0 40.001 32"
   enable-background="new 0 0 40.001 32"
   xml:space="preserve"
   sodipodi:docname="camera-active.svg"
   inkscape:version="0.92.2 5c3e80d, 2017-08-06"><metadata
     id="metadata9"><rdf:RDF><cc:Work
         rdf:about=""><dc:format>image/svg+xml</dc:format><dc:type
           rdf:resource="http://purl.org/dc/dcmitype/StillImage" /></cc:Work></rdf:RDF></metadata><defs
     id="defs7" /><sodipodi:namedview
     pagecolor="#ffffff"
     bordercolor="#666666"
     borderopacity="1"
     objecttolerance="10"
     gridtolerance="10"
     guidetolerance="10"
     inkscape:pageopacity="0"
     inkscape:pageshadow="2"
     inkscape:window-width="2342"
     inkscape:window-height="1167"
     id="namedview5"
     showgrid="false"
     inkscape:zoom="7.1998201"
     inkscape:cx="-7.7779721"
     inkscape:cy="16"
     inkscape:window-x="0"
     inkscape:window-y="0"
     inkscape:window-maximized="0"
     inkscape:current-layer="Calque_1" /><path
     fill="#27393D"
     d="M20,12c-3.314,0-6,2.688-6,6c0,3.314,2.686,6,6,6c3.312,0,6-2.686,6-6C26,14.688,23.312,12,20,12 M36,6  h-4.801c-0.66,0-1.371-0.512-1.578-1.139l-1.242-3.724C28.17,0.511,27.461,0,26.801,0H13.199c-0.66,0-1.371,0.511-1.578,1.138  l-1.242,3.724C10.17,5.489,9.461,6,8.801,6H4c-2.199,0-4,1.801-4,4v18c0,2.199,1.801,4,4,4h32c2.199,0,4-1.801,4-4V10  C40,7.801,38.199,6,36,6 M20,28c-5.523,0-10-4.477-10-10c0-5.522,4.477-10,10-10c5.521,0,10,4.478,10,10C30,23.524,25.521,28,20,28   M34.6,12.797c-0.771,0-1.4-0.627-1.4-1.4c0-0.771,0.629-1.398,1.4-1.398c0.773,0,1.4,0.627,1.4,1.398  C36,12.17,35.373,12.797,34.6,12.797"
     id="path2"
     style="fill:#fbb52a;fill-opacity:1" /></svg>