<?xml version="1.0" encoding="utf-8"?>
<!-- Generator: Adobe Illustrator 19.1.0, SVG Export Plug-In . SVG Version: 6.00 Build 0)  -->
<svg version="1.1" id="Layer_1" xmlns="http://www.w3.org/2000/svg" xmlns:xlink="http://www.w3.org/1999/xlink" x="0px" y="0px"
	 viewBox="0 0 52 52" style="enable-background:new 0 0 52 52;" xml:space="preserve">
<style type="text/css">
	.st0{fill-rule:evenodd;clip-rule:evenodd;fill:#FFFFFF;}
</style>
<g>
	<g>
		<g>
			<path class="st0" d="M26,13c-1.8,0-3.3,1.5-3.3,3.3c0,1.8,1.5,3.3,3.3,3.3c1.8,0,3.2-1.5,3.2-3.3C29.3,14.5,27.8,13,26,13L26,13z
				 M26,22.8c-1.8,0-3.3,1.5-3.3,3.3v9.8c0,1.8,1.5,3.2,3.3,3.2c1.8,0,3.2-1.5,3.2-3.2V26C29.3,24.2,27.8,22.8,26,22.8L26,22.8z
				 M26,0C11.7,0,0,11.7,0,26c0,14.3,11.7,26,26,26c14.3,0,26-11.7,26-26C52,11.7,40.4,0,26,0L26,0z M26,47.2
				C14.4,47.2,4.9,37.7,4.9,26C4.9,14.4,14.4,4.9,26,4.9c11.7,0,21.1,9.5,21.1,21.1C47.2,37.7,37.7,47.2,26,47.2L26,47.2z M26,47.2"
				/>
		</g>
	</g>
</g>
</svg>
