<?xml version="1.0" encoding="utf-8"?>
<!-- Generator: Adobe Illustrator 20.1.0, SVG Export Plug-In . SVG Version: 6.00 Build 0)  -->
<svg version="1.1" id="Layer_1" xmlns="http://www.w3.org/2000/svg" xmlns:xlink="http://www.w3.org/1999/xlink" x="0px" y="0px"
	 viewBox="0 0 297.6 206.9" style="enable-background:new 0 0 297.6 206.9;" xml:space="preserve">
<style type="text/css">
	.st0{clip-path:url(#SVGID_2_);fill:#0E4096;}
	.st1{clip-path:url(#SVGID_2_);fill:#FFFFFF;}
	.st2{clip-path:url(#SVGID_2_);fill:none;stroke:#FFFFFF;stroke-width:0.87;stroke-linejoin:round;stroke-miterlimit:10;}
	.st3{clip-path:url(#SVGID_2_);fill:#009D82;}
	.st4{clip-path:url(#SVGID_2_);fill:none;stroke:#0E4096;stroke-width:0.443;stroke-miterlimit:3.864;}
	.st5{clip-path:url(#SVGID_2_);fill:none;stroke:#009D82;stroke-width:0.865;stroke-miterlimit:3.864;}
	.st6{clip-path:url(#SVGID_2_);fill:none;stroke:#0E4096;stroke-width:0.865;stroke-miterlimit:3.864;}
	.st7{clip-path:url(#SVGID_2_);fill:none;stroke:#0E4096;stroke-width:0.21;stroke-miterlimit:3.864;}
</style>
<g>
	<defs>
		<rect id="SVGID_1_" x="3" y="3.6" width="291.9" height="200.9"/>
	</defs>
	<clipPath id="SVGID_2_">
		<use xlink:href="#SVGID_1_"  style="overflow:visible;"/>
	</clipPath>
	<path class="st0" d="M268.2,191c0-5.7-0.2-9.4-0.5-11.2c-0.2-1.3-0.6-1.9-1-1.9c-0.5,0-0.9,0.9-1.2,2.8c-0.3,1.9-0.4,5.4-0.4,10.7
		c0,4.4,0.2,7.6,0.5,9.4c0.2,1.1,0.5,1.7,1,1.7c0.3,0,0.5-0.3,0.8-0.8c0.2-0.5,0.4-1.6,0.5-3.3C268.1,196.1,268.2,193.6,268.2,191
		 M266.7,176c1,0,1.9,0.5,2.8,1.5c0.8,1,1.5,2.6,2.1,4.9c0.6,2.3,0.8,4.9,0.8,7.9c0,3-0.3,5.6-0.8,7.8c-0.5,2.2-1.2,3.8-2.1,4.8
		c-0.9,1-1.8,1.5-2.8,1.5c-1.5,0-2.8-1.1-3.8-3.3c-1.3-2.8-1.9-6.3-1.9-10.7c0-3.1,0.3-5.7,0.8-8c0.5-2.2,1.2-3.8,2.1-4.8
		C264.7,176.5,265.6,176,266.7,176"/>
	<path class="st0" d="M290.7,191.1c0-5.7-0.2-9.4-0.5-11.2c-0.2-1.3-0.6-1.9-1-1.9c-0.5,0-0.9,0.9-1.2,2.8
		c-0.3,1.9-0.4,5.4-0.4,10.7c0,4.4,0.2,7.6,0.5,9.4c0.2,1.1,0.5,1.7,1,1.7c0.3,0,0.5-0.3,0.7-0.8c0.2-0.5,0.4-1.6,0.5-3.3
		C290.6,196.2,290.7,193.7,290.7,191.1 M289.2,176.1c1,0,1.9,0.5,2.8,1.5c0.8,1,1.5,2.6,2.1,4.9c0.6,2.3,0.8,4.9,0.8,7.9
		c0,3-0.3,5.6-0.8,7.8c-0.5,2.2-1.2,3.8-2.1,4.8c-0.9,1-1.8,1.5-2.8,1.5c-1.5,0-2.8-1.1-3.8-3.3c-1.3-2.8-1.9-6.3-1.9-10.7
		c0-3.1,0.3-5.7,0.8-8c0.5-2.2,1.2-3.8,2.1-4.8C287.2,176.6,288.2,176.1,289.2,176.1"/>
	<path class="st0" d="M245.6,191c0-5.7-0.2-9.4-0.5-11.2c-0.2-1.3-0.6-1.9-1-1.9c-0.5,0-0.9,0.9-1.2,2.8c-0.3,1.9-0.4,5.4-0.4,10.7
		c0,4.4,0.2,7.6,0.5,9.4c0.2,1.1,0.5,1.7,1,1.7c0.3,0,0.5-0.3,0.7-0.8c0.2-0.5,0.4-1.6,0.5-3.3C245.5,196.1,245.6,193.6,245.6,191
		 M244.1,176c1,0,1.9,0.5,2.8,1.5c0.8,1,1.5,2.6,2.1,4.9c0.6,2.3,0.8,4.9,0.8,7.9c0,3-0.3,5.6-0.8,7.8c-0.5,2.2-1.2,3.8-2.1,4.8
		c-0.9,1-1.8,1.5-2.8,1.5c-1.5,0-2.8-1.1-3.8-3.3c-1.3-2.8-1.9-6.3-1.9-10.7c0-3.1,0.3-5.7,0.8-8c0.5-2.2,1.2-3.8,2.1-4.8
		C242.1,176.5,243,176,244.1,176"/>
	<path class="st1" d="M21,26.8v128.4h144.4c0.9,3,3.4,5.7,7.3,8.1c5.3,3.1,11.6,4.6,19.1,4.6c7.5,0,13.8-1.5,19.1-4.6
		c0,0,15.2-6,20-6.4c4.7-0.3,14.4-2.7,19.4,1c5,3.7,11.1,8.7,16.2,8.7c5,0,26.2,0.3,26.2,0.3v-11.8v-17.5v-111H21z"/>
	<path class="st2" d="M21,26.8v128.4h144.4c0.9,3,3.4,5.7,7.3,8.1c5.3,3.1,11.6,4.6,19.1,4.6c7.5,0,13.8-1.5,19.1-4.6
		c0,0,15.2-6,20-6.4c4.7-0.3,14.4-2.7,19.4,1c5,3.7,11.1,8.7,16.2,8.7c5,0,26.2,0.3,26.2,0.3v-11.8v-17.5v-111H21z"/>
	<polygon class="st3" points="21,170.6 199.2,170.7 150.7,112.3 128.8,135.5 106.9,145.6 92.4,124.6 86.4,138.7 80.1,124.5 
		69.7,110.2 21,85.1 	"/>
	<path class="st0" d="M222.5,10.6l-7.6,6.5c0,0-1.6,2.8-2.2,3.4c-0.7,0.7-2.5,1.6-4.5,2.7c-2.6,1.5-5.5,2.9-7.6,5
		c-3,3-4.5,7-5.5,10.8c-1.3,5.6-3.1,8.8-9,10.3c-2.5,0.7-9.6,1.1-13,1.3c-0.3,0-16.2,0.3-18.1,0.2c-0.8,0-9.4-0.3-10.8-0.5
		c-0.3-0.1-4.3-2.8-6.6-3.2c-1.3-0.2-2.5-0.1-3.4,0.3c-0.4,0.2-1.2,0.7-1.9,1.5c-1.1,1.3-1.3,1.6-2.3,2.1c-0.3,0.1-4.1,1.2-4.2,1.2
		c-0.5,0.2-0.6,0.4-0.6,0.4l0.3,0.2c0,0,7.1,0,7.4,0c0.3,0,3,0.5,6.1,0.5c1.4,0,2.9,0.5,4.1,0.6c4.9,0.4,22.8,3,27.7,3.7
		c7.9,1.1,26.8,7.1,33.6,8.2c9.2,1.4,19.3,0.3,26.7-1.2c13.7-2.8,25.7-4.8,40.3-6.7c1.4-0.2,11.5-1.6,11.9-1.6
		c2.5-0.3,2.4-1.5,2.4-1.5s-0.1-0.8-1.7-0.8c-1.9,0.1-10.9,0.6-12.5,0.7c-12.2,0.7-30.7-0.2-35.3-1.3c-0.6-0.1-0.9-0.2-1.9-0.6
		c-3.7-1.5-5-5.8-3.9-13.5c0.7-4.9,7.1-35.8,7.1-35.8V3.6c0,0-0.2,0-0.4,0.4c-0.3,0.6-9.9,17.6-9.9,17.6l2.8-14.5l-7.9,11
		L222.5,10.6z"/>
	<path class="st0" d="M107.6,20l-7.2-10.1c0,0-0.2,1.4-1.4,3.2C95.7,18.2,88.8,25,79,32.2c-0.5,0.4-4.9,3.6-6.3,4.8
		c-1.2,1-0.8,2.2-0.3,3.1c0.5,1,1.5,2.6,1.9,3.5c1.8,4,1.6,7.3-1.6,10.2c-1.2,1.1-2.8,2-5.2,3.1c-0.7,0.3-2.1,0.9-3.4,1.2
		c-2.1,0.5-6.2,1.1-8.7,1.3c-2.1,0.2-6.8,0.2-9.1,0.2c-2.1,0.1-11,0-13.3,0c-8.5-0.1-10.8-0.5-10.8-0.5s-2-1.4-3.3-2.1
		c-1.7-0.9-3.5-1.3-5-1.1c-0.9,0-2.1,0.3-2.9,1c-0.3,0.3-0.4,0.4-0.7,0.8C9.5,58.9,9,59.5,8,59.9c-0.6,0.2-3.6,1-4.3,1.2
		C3,61.3,3,61.5,3,61.5l0.5,0.2h7.4c0,0,2.5,0.5,4.3,0.5c1,0,1,0,1.9,0c0.9,0,1.4,0.2,2.1,0.3c0.7,0.1,1.7,0.3,2.5,0.5
		c0.8,0.2,8.8,1.1,12.7,1.5c2.9,0.3,7.1,0.8,9.8,1.3c3.1,0.7,7.8,1.6,10.4,2.4c0.7,0.2,7.1,2.1,7.7,2.2c5.9,1.9,11.4,3.3,20.2,4.2
		c7.5,0.7,13.6,0.7,21.4-0.4c6.6-0.8,12.1-2.3,19.7-3.9c8.8-1.9,18.2-2.6,25.9-3.5c3.3-0.4,9.5-1.4,11.9-1.8
		c2.7-0.4,2.3-1.5,2.3-1.5s-0.2-0.8-1.7-0.7c-0.4,0-5.5,0.5-6.9,0.6c-2.9,0.2-7.2,0.3-11,0.3c-4.1,0-10-0.2-15.7-0.7
		c-10.9-1-15.8-1.5-19.1-2.2c-1-0.3-2.4-0.5-2.3-1.4c0-0.6,0.5-1.1,1.6-2.3c1.9-1.8,1.6-3.2,1.7-8.8c0.1-7.6,1-17,0.8-17.8
		c-0.1-0.6-0.8-0.9-1.5-0.5c-0.9,0.5-2.7,2.1-2.7,2.1s-0.1-0.3,0-0.7c0.4-1.1,1.8-3.6,2.4-4.6c0.5-1,0.7-1.3,0.7-1.7
		c0-0.3-0.3-0.7-1.2-0.5c-0.6,0.1-0.8,0.2-1.5,0.2c-0.7,0-1.6-0.4-1.2-1.8C106.3,22.3,107.6,20,107.6,20"/>
	<path class="st0" d="M48.2,56.8c0,0-0.4-2.7-0.4-5.5c0.1-2.8,0.4-5.4,0.4-5.4s0.7,1,1.3,1.7c3.8,4.2,8.1,5.9,15.4,5.6
		c2.6-0.1,4.4-0.5,4.4-0.5s-1.6,0.9-3.4,1.6C57.9,57.1,48.2,56.8,48.2,56.8"/>
	<polygon class="st0" points="32.9,193.9 25.6,176.9 19.2,176.9 21.7,177.9 21.7,202.7 19.2,203.6 25.7,203.6 23.4,202.7 
		23.4,181.7 32.7,203.6 34.5,203.6 34.5,177.9 37,176.9 30.3,176.9 32.9,177.9 	"/>
	<polygon class="st4" points="32.9,193.9 25.6,176.9 19.2,176.9 21.7,177.9 21.7,202.7 19.2,203.6 25.7,203.6 23.4,202.7 
		23.4,181.7 32.7,203.6 34.5,203.6 34.5,177.9 37,176.9 30.3,176.9 32.9,177.9 	"/>
	<polygon class="st0" points="57.5,193.8 59.7,193.8 57.6,183.8 57.5,184.1 57.5,179.1 58.1,176.8 59.4,176.8 66.2,202.7 
		68.6,203.6 59.6,203.6 62,202.7 59.9,194.5 57.5,194.5 	"/>
	<polygon class="st4" points="57.5,193.8 59.7,193.8 57.6,183.8 57.5,184.1 57.5,179.1 58.1,176.8 59.4,176.8 66.2,202.7 
		68.6,203.6 59.6,203.6 62,202.7 59.9,194.5 57.5,194.5 	"/>
	<polygon class="st0" points="57.5,184.1 55.4,193.8 57.5,193.8 57.5,194.5 55.3,194.5 53.1,202.7 55.5,203.6 48.9,203.6 
		51.4,202.7 57.5,179.1 	"/>
	<polygon class="st4" points="57.5,184.1 55.4,193.8 57.5,193.8 57.5,194.5 55.3,194.5 53.1,202.7 55.5,203.6 48.9,203.6 
		51.4,202.7 57.5,179.1 	"/>
	<polygon class="st0" points="97.1,185.2 97.1,176.9 82.5,176.9 82.5,185.2 82.7,185.2 85.5,177.6 87.8,177.6 87.8,202.7 
		84.8,203.6 94.8,203.6 91.9,202.7 91.9,177.6 94.2,177.6 97,185.2 	"/>
	<polygon class="st4" points="97.1,185.2 97.1,176.9 82.5,176.9 82.5,185.2 82.7,185.2 85.5,177.6 87.8,177.6 87.8,202.7 
		84.8,203.6 94.8,203.6 91.9,202.7 91.9,177.6 94.2,177.6 97,185.2 	"/>
	<path class="st0" d="M127.3,177.8l2.4-0.9h-6.6l2.5,0.9c0,0,0,16.9,0,17.2c-0.2,3-0.6,4.4-1.3,5.7c-0.7,1.2-1.7,2.3-3.1,2.2
		c-1.3-0.1-1.8-1-2-1.6c-0.1-0.3-0.2-1.1-0.4-4.2c0-0.5,0-19.4,0-19.4l2.5-0.9h-9l2.5,0.9c0,0,0,15.7,0,16c0.1,7.4,2.5,8.7,3.6,9.4
		c2.2,1,4,0.9,5.6-0.2c0.8-0.5,3.2-2.3,3.2-9.1C127.3,193.6,127.3,177.8,127.3,177.8"/>
	<path class="st4" d="M127.3,177.8l2.4-0.9h-6.6l2.5,0.9c0,0,0,16.9,0,17.2c-0.2,3-0.6,4.4-1.3,5.7c-0.7,1.2-1.7,2.3-3.1,2.2
		c-1.3-0.1-1.8-1-2-1.6c-0.1-0.3-0.2-1.1-0.4-4.2c0-0.5,0-19.4,0-19.4l2.5-0.9h-9l2.5,0.9c0,0,0,15.7,0,16c0.1,7.4,2.5,8.7,3.6,9.4
		c2.2,1,4,0.9,5.6-0.2c0.8-0.5,3.2-2.3,3.2-9.1C127.3,193.6,127.3,177.8,127.3,177.8z"/>
	<path class="st0" d="M152.9,203.6h0.2H152.9z"/>
	<path class="st4" d="M152.9,203.6h0.2H152.9z"/>
	<path class="st0" d="M152.9,177.9c-0.6-0.2-2.3-0.2-2.3-0.2v11.1c0,0,1,0.1,2.3-0.2l0,1.1l-0.6-0.1l-1.7-0.1v13.2l2.3,0.9H144
		l2.5-0.9v-24.9l-2.5-0.9h6c0,0,2.5,0,3,0.1c0.5,0,3.9,0.4,5.5,2.7c1.3,1.8,1,4.5,0.6,5.6c-0.7,1.6-1.6,2.3-3.3,3.1
		c-0.4,0.2-2.6,0.7-2.6,0.7s1.5,0.3,2,0.4c1.4,0.1,2.2,0.7,2.5,1.6c0.2,0.4,0.4,1.2,0.5,1.6c0.1,0.4,2.4,10,2.4,10l2.3,0.9h-6.4
		c0,0-2.3-12.1-2.5-12.8c-0.3-0.9-1-1.1-1-1.1l0-1.1l0.1-0.1c0,0,1.8-0.5,2-2.6c0.3-2.2,0.2-4,0-5.4
		C154.8,178.4,153.4,178,152.9,177.9"/>
	<path class="st4" d="M152.9,177.9c-0.6-0.2-2.3-0.2-2.3-0.2v11.1c0,0,1,0.1,2.3-0.2l0,1.1l-0.6-0.1l-1.7-0.1v13.2l2.3,0.9H144
		l2.5-0.9v-24.9l-2.5-0.9h6c0,0,2.5,0,3,0.1c0.5,0,3.9,0.4,5.5,2.7c1.3,1.8,1,4.5,0.6,5.6c-0.7,1.6-1.6,2.3-3.3,3.1
		c-0.4,0.2-2.6,0.7-2.6,0.7s1.5,0.3,2,0.4c1.4,0.1,2.2,0.7,2.5,1.6c0.2,0.4,0.4,1.2,0.5,1.6c0.1,0.4,2.4,10,2.4,10l2.3,0.9h-6.4
		c0,0-2.3-12.1-2.5-12.8c-0.3-0.9-1-1.1-1-1.1l0-1.1l0.1-0.1c0,0,1.8-0.5,2-2.6c0.3-2.2,0.2-4,0-5.4
		C154.8,178.4,153.4,178,152.9,177.9z"/>
	<polygon class="st0" points="183.5,193.8 185.7,193.8 183.7,183.8 183.5,184.2 183.5,179.1 184.2,176.8 185.5,176.8 192.2,202.7 
		194.7,203.6 185.6,203.6 188,202.7 185.9,194.5 183.5,194.5 	"/>
	<polygon class="st4" points="183.5,193.8 185.7,193.8 183.7,183.8 183.5,184.2 183.5,179.1 184.2,176.8 185.5,176.8 192.2,202.7 
		194.7,203.6 185.6,203.6 188,202.7 185.9,194.5 183.5,194.5 	"/>
	<polygon class="st0" points="183.5,184.2 181.5,193.8 183.5,193.8 183.5,194.5 181.3,194.5 179.1,202.7 181.6,203.6 175,203.6 
		177.4,202.7 183.5,179.1 	"/>
	<polygon class="st4" points="183.5,184.2 181.5,193.8 183.5,193.8 183.5,194.5 181.3,194.5 179.1,202.7 181.6,203.6 175,203.6 
		177.4,202.7 183.5,179.1 	"/>
	<path class="st0" d="M219.6,178.4l-1.3-1.9v8.6h0.1c0,0,1.3-5.2,2.3-6.6c0.9-1.3,2.6-1.2,3.4,0c0.5,0.7,1.1,2.3-0.1,7
		c-0.7,2.6-6.4,18.1-6.4,18.1h9.2v-8.3h-0.1l-1.8,6.4h-5.6c0,0,7.2-13.5,7.9-17c0.9-4.3-1-6.9-3.2-7.7
		C221.4,176,219.6,178.4,219.6,178.4"/>
	<path class="st4" d="M219.6,178.4l-1.3-1.9v8.6h0.1c0,0,1.3-5.2,2.3-6.6c0.9-1.3,2.6-1.2,3.4,0c0.5,0.7,1.1,2.3-0.1,7
		c-0.7,2.6-6.4,18.1-6.4,18.1h9.2v-8.3h-0.1l-1.8,6.4h-5.6c0,0,7.2-13.5,7.9-17c0.9-4.3-1-6.9-3.2-7.7
		C221.4,176,219.6,178.4,219.6,178.4z"/>
	<path class="st5" d="M21,54.7V26.6h60.9 M113,26.6h85.3"/>
	<line class="st6" x1="21" y1="170.7" x2="21" y2="69.4"/>
	<path class="st3" d="M172.7,130c0,0,0.3,0.2,0.4,0.4c2.6,2.8,11,13.1,11,13.1s7.5,3.4,20.3,3c6.2-0.2,13.1-1.9,16.4-2.5
		c1.3-0.2,2.5-0.5,4.4-0.7c6.9-0.8,10-0.8,15.3,2.6c1.3,0.8,14.7,8.9,15.6,9.5c4.9,3,12.1,2.4,14.9,1.5c5.7-1.8,10.2-3.3,17.7-2.2
		c1,0.1,3.6,0.7,3.6,0.7s-7.4-5.4-10.8-7.3c-4.6-2.6-9.4-3.7-13.8-2.8c-0.9,0.2-0.1-0.1-0.1-0.1s-9.8,2.4-14.9,2.6
		c-2.3,0.1-8.3,0.6-14.9-5.4c-3.1-3.1-5.4-5.2-6.7-6c-2.9-1.8-6.7-2.3-10-2.3c-1.1,0-9.8,0.3-17,0.5c-7,0.2-20-0.7-26.4-2.9
		C176.5,131.2,172.7,130,172.7,130"/>
	<path class="st3" d="M293.2,170.3l-0.3-7.1c0,0-4.4-2.3-10.4-2.4c-4-0.1-8.1,1.2-14.8,2.7c-2.9,0.6-8.2,1-11.7-1.3
		c-2.8-1.8-5.1-3.6-7.1-5.6c-1-1-1.8-2-3.3-3.5c-3.4-3.3-4.7-4-7.9-4.3c-5-0.4-9.5,0.6-14.6,1c-7,0.6-19.4,2-35.6-2.7
		c-0.9-0.3-0.9-0.4-0.9-0.4s2,2,2.7,2.8c5.7,5.9,17,19.4,17,19.4s0.7-0.4,2.3-1.1c13.2-6.3,25.2-8.1,27.5-8.5c6.5-1,11.7-1,16,1.9
		c1.3,0.8,1.2,0.8,2.6,1.7c4.9,3.2,12.7,8.2,16.7,9.6c4.3,1.4,7.4,1.5,11.1,0.6C286.9,172,293.2,170.3,293.2,170.3"/>
	<polyline class="st6" points="236.2,26.6 293.4,26.6 293.4,170.3 	"/>
	<path class="st7" d="M134.4,77.3l-2.3,6h-7.7l6.2,3.9l-2.4,6.3l6.3-3.9l6.3,3.9l-2.4-6.2l6.3-3.9h-7.8L134.4,77.3z M162.5,72.4
		l-2.3,6h-7.6l6.2,3.8l-2.5,6.4l6.2-3.9l6.3,3.9l-2.5-6.3l6.3-3.9h-7.9L162.5,72.4z M190.7,77.4l-2.3,5.9h-7.7l6.2,3.9l-2.4,6.2
		l6.3-3.8l6.3,3.8l-2.5-6.2l6.3-3.9H193L190.7,77.4z M209.4,94.7l-2.3,6h-7.6l6.2,3.9l-2.5,6.3l6.3-3.9l6.3,3.9l-2.6-6.2l6.3-3.9
		h-7.8L209.4,94.7z M216.6,117.5l-2.3,6h-7.8l6.3,3.9l-2.4,6.3l6.3-3.9l6.2,3.9l-2.4-6.2l6.3-3.9h-7.8L216.6,117.5z M108.3,117.5
		l-2.3,5.9h-7.7l6.3,3.9l-2.5,6.3l6.3-3.9l6.3,3.9l-2.5-6.2l6.3-3.9h-7.9L108.3,117.5z M115.7,94.7l-2.3,6h-7.7l6.2,3.9l-2.4,6.3
		l6.3-3.9l6.3,3.9l-2.5-6.2l6.3-3.9H118L115.7,94.7z"/>
</g>
</svg>
