<?xml version="1.0" encoding="UTF-8" standalone="no"?>
<!-- Generator: Adobe Illustrator 19.1.0, SVG Export Plug-In . SVG Version: 6.00 Build 0)  -->

<svg
   xmlns:dc="http://purl.org/dc/elements/1.1/"
   xmlns:cc="http://creativecommons.org/ns#"
   xmlns:rdf="http://www.w3.org/1999/02/22-rdf-syntax-ns#"
   xmlns:svg="http://www.w3.org/2000/svg"
   xmlns="http://www.w3.org/2000/svg"
   xmlns:sodipodi="http://sodipodi.sourceforge.net/DTD/sodipodi-0.dtd"
   xmlns:inkscape="http://www.inkscape.org/namespaces/inkscape"
   version="1.1"
   id="Layer_1"
   x="0px"
   y="0px"
   viewBox="-240 15.3 360 565"
   style="enable-background:new -240 15.3 360 565;"
   xml:space="preserve"
   sodipodi:docname="noimg3_de_icon.svg"
   inkscape:version="0.92.2 5c3e80d, 2017-08-06"><metadata
     id="metadata1201"><rdf:RDF><cc:Work
         rdf:about=""><dc:format>image/svg+xml</dc:format><dc:type
           rdf:resource="http://purl.org/dc/dcmitype/StillImage" /><dc:title></dc:title></cc:Work></rdf:RDF></metadata><defs
     id="defs1199" /><sodipodi:namedview
     pagecolor="#ffffff"
     bordercolor="#666666"
     borderopacity="1"
     objecttolerance="10"
     gridtolerance="10"
     guidetolerance="10"
     inkscape:pageopacity="0"
     inkscape:pageshadow="2"
     inkscape:window-width="2560"
     inkscape:window-height="1315"
     id="namedview1197"
     showgrid="false"
     inkscape:zoom="1"
     inkscape:cx="-60.639999"
     inkscape:cy="282.5"
     inkscape:window-x="0"
     inkscape:window-y="1"
     inkscape:window-maximized="1"
     inkscape:current-layer="Layer_1"
     inkscape:pagecheckerboard="true" /><style
     type="text/css"
     id="style1028">
	.st0{clip-path:url(#SVGID_2_);}
	.st1{clip-path:url(#SVGID_4_);fill:url(#SVGID_5_);}
	.st2{clip-path:url(#SVGID_7_);}
	.st3{clip-path:url(#SVGID_9_);}
	.st4{opacity:0.5;}
	.st5{clip-path:url(#SVGID_11_);}
	.st6{clip-path:url(#SVGID_13_);fill:url(#SVGID_14_);}
	.st7{clip-path:url(#SVGID_16_);}
	.st8{clip-path:url(#SVGID_18_);}
	.st9{clip-path:url(#SVGID_20_);fill:url(#SVGID_21_);}
	.st10{opacity:0.42;}
	.st11{clip-path:url(#SVGID_23_);}
	.st12{clip-path:url(#SVGID_25_);fill:url(#SVGID_26_);}
	.st13{fill:#FFFFFF;stroke:#000000;stroke-miterlimit:10;}
	.st14{fill:none;stroke:#000000;stroke-width:5;stroke-miterlimit:10;}
</style><path
     style="fill:#ffffff;stroke:#000000;stroke-miterlimit:10"
     d="m 10,297.60001 a 69,68 0 0 1 -69,68 69,68 0 0 1 -69,-68 69,68 0 0 1 69,-68 69,68 0 0 1 69,68 z"
     id="ellipse1180" /><g
     id="g1186"><g
       id="g1184"><path
         d="m -21.3,270.7 h -73 c -0.7,0 -1.5,0.5 -1.5,1.3 v 51.4 c 0,0.7 0.7,1.4 1.5,1.4 h 73 c 0.7,0 1.2,-0.7 1.2,-1.4 V 272 c 0,-0.8 -0.5,-1.3 -1.2,-1.3 z m -1.5,51.4 h -70.3 v -6.3 l 23.1,-23 20.7,20.7 c 0.5,0.5 1.4,0.5 1.9,0 l 12.6,-12.6 12.1,10.9 z m 0,-13.9 L -34,298 c -0.5,-0.5 -1.3,-0.5 -1.8,0 L -48.3,310.6 -69.1,290 c -0.5,-0.5 -1.4,-0.5 -2,0 l -22.1,22 v -38.6 h 70.3 z"
         id="path1182"
         inkscape:connector-curvature="0" /></g></g><g
     id="g1192"><g
       id="g1190"><path
         d="m -45.7,280.1 c -4.5,0 -8.1,3.6 -8.1,8.1 0,4.5 3.6,8.1 8.1,8.1 4.5,0 8.1,-3.6 8.1,-8.1 0,-4.5 -3.6,-8.1 -8.1,-8.1 z m 0,13.5 c -3,0 -5.4,-2.4 -5.4,-5.4 0,-3 2.4,-5.4 5.4,-5.4 3,0 5.4,2.4 5.4,5.4 0,3 -2.4,5.4 -5.4,5.4 z"
         id="path1188"
         inkscape:connector-curvature="0" /></g></g><path
     style="fill:none;stroke:#000000;stroke-width:5;stroke-miterlimit:10"
     d="M -22.799999,249.2 -80,347.60001"
     id="line1194" /><g
     aria-label="Keine Internetverbindung"
     transform="translate(-103.09843,-45.467464)"
     style="font-style:normal;font-variant:normal;font-weight:normal;font-stretch:normal;font-size:40px;line-height:1.25;font-family:KonsensMedium;-inkscape-font-specification:'KonsensMedium, Normal';font-variant-ligatures:normal;font-variant-caps:normal;font-variant-numeric:normal;font-feature-settings:normal;text-align:start;letter-spacing:0px;word-spacing:0px;writing-mode:lr-tb;text-anchor:start;opacity:1;fill:#ffffff;fill-opacity:1;stroke:none"
     id="flowRoot1203-4"><path
       d="m -87.429531,434.0675 h -3 l -4.848,-8.832 -3.528,4.224 v 4.608 h -2.615999 v -17.856 h 2.615999 v 9.864 l 7.824,-9.864 h 3.288 l -5.712,6.936 z"
       style="font-style:normal;font-variant:normal;font-weight:normal;font-stretch:normal;font-size:24px;font-family:KonsensMedium;-inkscape-font-specification:'KonsensMedium, Normal';font-variant-ligatures:normal;font-variant-caps:normal;font-variant-numeric:normal;font-feature-settings:normal;text-align:start;writing-mode:lr-tb;text-anchor:start;fill:#ffffff"
       id="path1062"
       inkscape:connector-curvature="0" /><path
       d="m -74.575281,430.0595 v 0.12 q 0,1.848 -1.464,2.976 -1.464,1.128 -3.912,1.128 -2.448,0 -3.984,-1.272 -1.536,-1.296 -1.536,-3.528 v -3.024 q 0,-2.352 1.536,-3.768 1.536,-1.416 3.96,-1.416 2.424,0 3.936,1.416 1.512,1.392 1.512,3.792 v 2.136 h -8.616 v 0.72 q 0,1.416 0.864,2.16 0.888,0.72 2.328,0.72 3.048,0 3.048,-2.16 z m -2.256,-3.24 v -0.384 q 0,-1.488 -0.84,-2.28 -0.816,-0.816 -2.304,-0.816 -1.488,0 -2.328,0.816 -0.84,0.816 -0.84,2.304 v 0.36 z"
       style="font-style:normal;font-variant:normal;font-weight:normal;font-stretch:normal;font-size:24px;font-family:KonsensMedium;-inkscape-font-specification:'KonsensMedium, Normal';font-variant-ligatures:normal;font-variant-caps:normal;font-variant-numeric:normal;font-feature-settings:normal;text-align:start;writing-mode:lr-tb;text-anchor:start;fill:#ffffff"
       id="path1064"
       inkscape:connector-curvature="0" /><path
       d="m -68.880906,434.0675 h -2.472 v -12.624 h 2.472 z m 0.168,-16.752 v 0.504 q 0,0.552 -0.408,0.888 -0.384,0.336 -0.984,0.336 -0.648,0 -1.032,-0.312 -0.384,-0.336 -0.384,-0.912 v -0.504 q 0,-0.576 0.384,-0.888 0.384,-0.336 1.032,-0.336 0.6,0 0.984,0.336 0.408,0.336 0.408,0.888 z"
       style="font-style:normal;font-variant:normal;font-weight:normal;font-stretch:normal;font-size:24px;font-family:KonsensMedium;-inkscape-font-specification:'KonsensMedium, Normal';font-variant-ligatures:normal;font-variant-caps:normal;font-variant-numeric:normal;font-feature-settings:normal;text-align:start;writing-mode:lr-tb;text-anchor:start;fill:#ffffff"
       id="path1066"
       inkscape:connector-curvature="0" /><path
       d="m -54.674031,434.0675 h -2.448 v -8.424 q 0,-0.912 -0.504,-1.488 -0.48,-0.6 -1.368,-0.6 -0.816,0 -1.896,0.624 l -2.064,1.224 v 8.664 h -2.4 v -12.624 h 2.376 v 1.656 l 1.44,-0.888 q 1.416,-0.888 3,-0.888 1.776,0 2.808,1.104 1.056,1.104 1.056,2.928 z"
       style="font-style:normal;font-variant:normal;font-weight:normal;font-stretch:normal;font-size:24px;font-family:KonsensMedium;-inkscape-font-specification:'KonsensMedium, Normal';font-variant-ligatures:normal;font-variant-caps:normal;font-variant-numeric:normal;font-feature-settings:normal;text-align:start;writing-mode:lr-tb;text-anchor:start;fill:#ffffff"
       id="path1068"
       inkscape:connector-curvature="0" /><path
       d="m -40.778406,430.0595 v 0.12 q 0,1.848 -1.464,2.976 -1.464,1.128 -3.912,1.128 -2.448,0 -3.984,-1.272 -1.536,-1.296 -1.536,-3.528 v -3.024 q 0,-2.352 1.536,-3.768 1.536,-1.416 3.96,-1.416 2.424,0 3.936,1.416 1.512,1.392 1.512,3.792 v 2.136 h -8.616 v 0.72 q 0,1.416 0.864,2.16 0.888,0.72 2.328,0.72 3.048,0 3.048,-2.16 z m -2.256,-3.24 v -0.384 q 0,-1.488 -0.84,-2.28 -0.816,-0.816 -2.304,-0.816 -1.488,0 -2.328,0.816 -0.84,0.816 -0.84,2.304 v 0.36 z"
       style="font-style:normal;font-variant:normal;font-weight:normal;font-stretch:normal;font-size:24px;font-family:KonsensMedium;-inkscape-font-specification:'KonsensMedium, Normal';font-variant-ligatures:normal;font-variant-caps:normal;font-variant-numeric:normal;font-feature-settings:normal;text-align:start;writing-mode:lr-tb;text-anchor:start;fill:#ffffff"
       id="path1070"
       inkscape:connector-curvature="0" /><path
       d="m -27.858531,434.0675 h -2.688 v -17.856 h 2.688 z"
       style="font-style:normal;font-variant:normal;font-weight:normal;font-stretch:normal;font-size:24px;font-family:KonsensMedium;-inkscape-font-specification:'KonsensMedium, Normal';font-variant-ligatures:normal;font-variant-caps:normal;font-variant-numeric:normal;font-feature-settings:normal;text-align:start;writing-mode:lr-tb;text-anchor:start;fill:#ffffff"
       id="path1072"
       inkscape:connector-curvature="0" /><path
       d="m -13.564656,434.0675 h -2.448 v -8.424 q 0,-0.912 -0.504,-1.488 -0.48,-0.6 -1.368,-0.6 -0.816,0 -1.896,0.624 l -2.064,1.224 v 8.664 h -2.4 v -12.624 h 2.376 v 1.656 l 1.44,-0.888 q 1.416,-0.888 3,-0.888 1.776,0 2.808,1.104 1.056,1.104 1.056,2.928 z"
       style="font-style:normal;font-variant:normal;font-weight:normal;font-stretch:normal;font-size:24px;font-family:KonsensMedium;-inkscape-font-specification:'KonsensMedium, Normal';font-variant-ligatures:normal;font-variant-caps:normal;font-variant-numeric:normal;font-feature-settings:normal;text-align:start;writing-mode:lr-tb;text-anchor:start;fill:#ffffff"
       id="path1074"
       inkscape:connector-curvature="0" /><path
       d="m -3.1730313,434.0675 h -1.584 q -2.1599999,0 -3.408,-1.104 -1.248,-1.104 -1.248,-3.216 v -6.192 h -2.0159997 v -2.112 h 2.0399997 v -3.408 h 2.4480001 v 3.408 h 3.6719999 v 2.112 h -3.6719999 v 6.072 q 0,1.248 0.552,1.776 0.576,0.504 1.7759999,0.504 h 1.44 z"
       style="font-style:normal;font-variant:normal;font-weight:normal;font-stretch:normal;font-size:24px;font-family:KonsensMedium;-inkscape-font-specification:'KonsensMedium, Normal';font-variant-ligatures:normal;font-variant-caps:normal;font-variant-numeric:normal;font-feature-settings:normal;text-align:start;writing-mode:lr-tb;text-anchor:start;fill:#ffffff"
       id="path1076"
       inkscape:connector-curvature="0" /><path
       d="m 9.8934688,430.0595 v 0.12 q 0,1.848 -1.464,2.976 -1.4640001,1.128 -3.912,1.128 -2.448,0 -3.98400005,-1.272 -1.53599995,-1.296 -1.53599995,-3.528 v -3.024 q 0,-2.352 1.53599995,-3.768 1.53600005,-1.416 3.96000005,-1.416 2.424,0 3.936,1.416 1.512,1.392 1.512,3.792 v 2.136 H 1.3254687 v 0.72 q 0,1.416 0.864,2.16 0.8880001,0.72 2.3280001,0.72 3.048,0 3.048,-2.16 z m -2.2560001,-3.24 v -0.384 q 0,-1.488 -0.84,-2.28 -0.8159999,-0.816 -2.3039999,-0.816 -1.488,0 -2.328,0.816 -0.8400001,0.816 -0.8400001,2.304 v 0.36 z"
       style="font-style:normal;font-variant:normal;font-weight:normal;font-stretch:normal;font-size:24px;font-family:KonsensMedium;-inkscape-font-specification:'KonsensMedium, Normal';font-variant-ligatures:normal;font-variant-caps:normal;font-variant-numeric:normal;font-feature-settings:normal;text-align:start;writing-mode:lr-tb;text-anchor:start;fill:#ffffff"
       id="path1078"
       inkscape:connector-curvature="0" /><path
       d="m 15.515844,434.0675 h -2.448 v -12.624 h 2.4 v 1.92 l 0.576,-0.576 q 1.512,-1.392 3.288,-1.392 h 0.648 v 2.496 h -0.624 q -1.632,0 -2.784,0.96 l -1.056,0.864 z"
       style="font-style:normal;font-variant:normal;font-weight:normal;font-stretch:normal;font-size:24px;font-family:KonsensMedium;-inkscape-font-specification:'KonsensMedium, Normal';font-variant-ligatures:normal;font-variant-caps:normal;font-variant-numeric:normal;font-feature-settings:normal;text-align:start;writing-mode:lr-tb;text-anchor:start;fill:#ffffff"
       id="path1080"
       inkscape:connector-curvature="0" /><path
       d="m 32.747844,434.0675 h -2.448 v -8.424 q 0,-0.912 -0.504,-1.488 -0.48,-0.6 -1.368,-0.6 -0.816,0 -1.896,0.624 l -2.064,1.224 v 8.664 h -2.4 v -12.624 h 2.376 v 1.656 l 1.44,-0.888 q 1.416,-0.888 3,-0.888 1.776,0 2.808,1.104 1.056,1.104 1.056,2.928 z"
       style="font-style:normal;font-variant:normal;font-weight:normal;font-stretch:normal;font-size:24px;font-family:KonsensMedium;-inkscape-font-specification:'KonsensMedium, Normal';font-variant-ligatures:normal;font-variant-caps:normal;font-variant-numeric:normal;font-feature-settings:normal;text-align:start;writing-mode:lr-tb;text-anchor:start;fill:#ffffff"
       id="path1082"
       inkscape:connector-curvature="0" /><path
       d="m 46.643469,430.0595 v 0.12 q 0,1.848 -1.464,2.976 -1.464,1.128 -3.912,1.128 -2.448,0 -3.984,-1.272 -1.536,-1.296 -1.536,-3.528 v -3.024 q 0,-2.352 1.536,-3.768 1.536,-1.416 3.96,-1.416 2.424,0 3.936,1.416 1.512,1.392 1.512,3.792 v 2.136 h -8.616 v 0.72 q 0,1.416 0.864,2.16 0.888,0.72 2.328,0.72 3.048,0 3.048,-2.16 z m -2.256,-3.24 v -0.384 q 0,-1.488 -0.84,-2.28 -0.816,-0.816 -2.304,-0.816 -1.488,0 -2.328,0.816 -0.84,0.816 -0.84,2.304 v 0.36 z"
       style="font-style:normal;font-variant:normal;font-weight:normal;font-stretch:normal;font-size:24px;font-family:KonsensMedium;-inkscape-font-specification:'KonsensMedium, Normal';font-variant-ligatures:normal;font-variant-caps:normal;font-variant-numeric:normal;font-feature-settings:normal;text-align:start;writing-mode:lr-tb;text-anchor:start;fill:#ffffff"
       id="path1084"
       inkscape:connector-curvature="0" /><path
       d="m 56.873844,434.0675 h -1.584 q -2.16,0 -3.408,-1.104 -1.248,-1.104 -1.248,-3.216 v -6.192 h -2.016 v -2.112 h 2.04 v -3.408 h 2.448 v 3.408 h 3.672 v 2.112 h -3.672 v 6.072 q 0,1.248 0.552,1.776 0.576,0.504 1.776,0.504 h 1.44 z"
       style="font-style:normal;font-variant:normal;font-weight:normal;font-stretch:normal;font-size:24px;font-family:KonsensMedium;-inkscape-font-specification:'KonsensMedium, Normal';font-variant-ligatures:normal;font-variant-caps:normal;font-variant-numeric:normal;font-feature-settings:normal;text-align:start;writing-mode:lr-tb;text-anchor:start;fill:#ffffff"
       id="path1086"
       inkscape:connector-curvature="0" /><path
       d="m 65.308344,434.0675 h -2.736 l -4.512,-12.624 h 2.664 l 3.264,9.864 3.312,-9.864 h 2.52 z"
       style="font-style:normal;font-variant:normal;font-weight:normal;font-stretch:normal;font-size:24px;font-family:KonsensMedium;-inkscape-font-specification:'KonsensMedium, Normal';font-variant-ligatures:normal;font-variant-caps:normal;font-variant-numeric:normal;font-feature-settings:normal;text-align:start;writing-mode:lr-tb;text-anchor:start;fill:#ffffff"
       id="path1088"
       inkscape:connector-curvature="0" /><path
       d="m 82.502844,430.0595 v 0.12 q 0,1.848 -1.464,2.976 -1.464,1.128 -3.912,1.128 -2.448,0 -3.984,-1.272 -1.536,-1.296 -1.536,-3.528 v -3.024 q 0,-2.352 1.536,-3.768 1.536,-1.416 3.96,-1.416 2.424,0 3.936,1.416 1.512,1.392 1.512,3.792 v 2.136 h -8.616 v 0.72 q 0,1.416 0.864,2.16 0.888,0.72 2.328,0.72 3.048,0 3.048,-2.16 z m -2.256,-3.24 v -0.384 q 0,-1.488 -0.84,-2.28 -0.816,-0.816 -2.304,-0.816 -1.488,0 -2.328,0.816 -0.84,0.816 -0.84,2.304 v 0.36 z"
       style="font-style:normal;font-variant:normal;font-weight:normal;font-stretch:normal;font-size:24px;font-family:KonsensMedium;-inkscape-font-specification:'KonsensMedium, Normal';font-variant-ligatures:normal;font-variant-caps:normal;font-variant-numeric:normal;font-feature-settings:normal;text-align:start;writing-mode:lr-tb;text-anchor:start;fill:#ffffff"
       id="path1090"
       inkscape:connector-curvature="0" /><path
       d="m 88.125219,434.0675 h -2.448 v -12.624 h 2.4 v 1.92 l 0.576,-0.576 q 1.512,-1.392 3.288,-1.392 h 0.648 v 2.496 h -0.624 q -1.632,0 -2.784,0.96 l -1.056,0.864 z"
       style="font-style:normal;font-variant:normal;font-weight:normal;font-stretch:normal;font-size:24px;font-family:KonsensMedium;-inkscape-font-specification:'KonsensMedium, Normal';font-variant-ligatures:normal;font-variant-caps:normal;font-variant-numeric:normal;font-feature-settings:normal;text-align:start;writing-mode:lr-tb;text-anchor:start;fill:#ffffff"
       id="path1092"
       inkscape:connector-curvature="0" /><path
       d="m 103.48522,429.6995 v -3.816 q 0,-1.056 -0.6,-1.68 -0.6,-0.648 -1.608,-0.648 -0.984,0 -1.992001,0.528 l -2.232,1.272 v 4.872 l 2.232,1.248 q 1.056001,0.552 1.992001,0.552 1.008,0 1.608,-0.624 0.6,-0.648 0.6,-1.704 z m -4.896001,3.72 -1.56,-0.84 v 1.488 h -2.352 v -17.856 h 2.376 v 6.792 l 1.536,-0.864 q 1.512001,-0.816 3.000001,-0.816 1.896,0 3.072,1.2 1.2,1.176 1.2,3.096 v 4.32 q 0,1.872 -1.2,3.096 -1.2,1.2 -3.12,1.2 -1.44,0 -2.952001,-0.816 z"
       style="font-style:normal;font-variant:normal;font-weight:normal;font-stretch:normal;font-size:24px;font-family:KonsensMedium;-inkscape-font-specification:'KonsensMedium, Normal';font-variant-ligatures:normal;font-variant-caps:normal;font-variant-numeric:normal;font-feature-settings:normal;text-align:start;writing-mode:lr-tb;text-anchor:start;fill:#ffffff"
       id="path1094"
       inkscape:connector-curvature="0" /><path
       d="m 111.54097,434.0675 h -2.472 v -12.624 h 2.472 z m 0.168,-16.752 v 0.504 q 0,0.552 -0.408,0.888 -0.384,0.336 -0.984,0.336 -0.648,0 -1.032,-0.312 -0.384,-0.336 -0.384,-0.912 v -0.504 q 0,-0.576 0.384,-0.888 0.384,-0.336 1.032,-0.336 0.6,0 0.984,0.336 0.408,0.336 0.408,0.888 z"
       style="font-style:normal;font-variant:normal;font-weight:normal;font-stretch:normal;font-size:24px;font-family:KonsensMedium;-inkscape-font-specification:'KonsensMedium, Normal';font-variant-ligatures:normal;font-variant-caps:normal;font-variant-numeric:normal;font-feature-settings:normal;text-align:start;writing-mode:lr-tb;text-anchor:start;fill:#ffffff"
       id="path1096"
       inkscape:connector-curvature="0" /><path
       d="m 125.74784,434.0675 h -2.448 v -8.424 q 0,-0.912 -0.504,-1.488 -0.48,-0.6 -1.368,-0.6 -0.816,0 -1.896,0.624 l -2.064,1.224 v 8.664 h -2.4 v -12.624 h 2.376 v 1.656 l 1.44,-0.888 q 1.416,-0.888 3,-0.888 1.776,0 2.808,1.104 1.056,1.104 1.056,2.928 z"
       style="font-style:normal;font-variant:normal;font-weight:normal;font-stretch:normal;font-size:24px;font-family:KonsensMedium;-inkscape-font-specification:'KonsensMedium, Normal';font-variant-ligatures:normal;font-variant-caps:normal;font-variant-numeric:normal;font-feature-settings:normal;text-align:start;writing-mode:lr-tb;text-anchor:start;fill:#ffffff"
       id="path1098"
       inkscape:connector-curvature="0" /><path
       d="m 137.57947,430.2275 v -4.872 l -2.256,-1.272 q -0.984,-0.528 -1.968,-0.528 -1.008,0 -1.632,0.648 -0.6,0.624 -0.6,1.68 v 3.816 q 0,1.056 0.6,1.704 0.624,0.624 1.632,0.624 0.96,0 1.968,-0.552 z m 2.376,3.84 h -2.352 v -1.512 l -1.584,0.864 q -1.464,0.816 -3,0.816 -1.896,0 -3.096,-1.176 -1.176,-1.176 -1.176,-3.072 v -4.32 q 0,-1.896 1.224,-3.12 1.224,-1.224 3.12,-1.224 1.464,0 2.928,0.816 l 1.56,0.864 v -6.792 h 2.376 z"
       style="font-style:normal;font-variant:normal;font-weight:normal;font-stretch:normal;font-size:24px;font-family:KonsensMedium;-inkscape-font-specification:'KonsensMedium, Normal';font-variant-ligatures:normal;font-variant-caps:normal;font-variant-numeric:normal;font-feature-settings:normal;text-align:start;writing-mode:lr-tb;text-anchor:start;fill:#ffffff"
       id="path1100"
       inkscape:connector-curvature="0" /><path
       d="m 153.98722,434.0675 h -2.376 v -1.656 l -1.44,0.888 q -1.512,0.912 -3,0.888 -1.776,0 -2.832,-1.08 -1.032,-1.104 -1.032,-2.928 v -8.736 h 2.448 v 8.448 q 0,0.936 0.504,1.512 0.504,0.552 1.368,0.552 0.816,0 1.896,-0.624 l 2.064,-1.224 v -8.664 h 2.4 z"
       style="font-style:normal;font-variant:normal;font-weight:normal;font-stretch:normal;font-size:24px;font-family:KonsensMedium;-inkscape-font-specification:'KonsensMedium, Normal';font-variant-ligatures:normal;font-variant-caps:normal;font-variant-numeric:normal;font-feature-settings:normal;text-align:start;writing-mode:lr-tb;text-anchor:start;fill:#ffffff"
       id="path1102"
       inkscape:connector-curvature="0" /><path
       d="m 168.12284,434.0675 h -2.448 v -8.424 q 0,-0.912 -0.504,-1.488 -0.48,-0.6 -1.368,-0.6 -0.816,0 -1.896,0.624 l -2.064,1.224 v 8.664 h -2.4 v -12.624 h 2.376 v 1.656 l 1.44,-0.888 q 1.416,-0.888 3,-0.888 1.776,0 2.808,1.104 1.056,1.104 1.056,2.928 z"
       style="font-style:normal;font-variant:normal;font-weight:normal;font-stretch:normal;font-size:24px;font-family:KonsensMedium;-inkscape-font-specification:'KonsensMedium, Normal';font-variant-ligatures:normal;font-variant-caps:normal;font-variant-numeric:normal;font-feature-settings:normal;text-align:start;writing-mode:lr-tb;text-anchor:start;fill:#ffffff"
       id="path1104"
       inkscape:connector-curvature="0" /><path
       d="m 178.32247,433.1075 h -4.32 v 0.552 q 0,1.56 0.744,2.304 0.768,0.768 2.592,0.768 3.408,0 3.408,-2.016 0,-0.888 -0.624,-1.248 -0.6,-0.36 -1.8,-0.36 z m -2.232,-5.544 h 0.984 q 2.688,0 2.688,-2.112 0,-2.04 -2.424,-2.04 h -1.176 q -1.224,0 -1.848,0.48 -0.624,0.456 -0.624,1.632 0,2.04 2.4,2.04 z m 1.224,1.848 h -3.72 q -0.96,0 -0.96,0.912 0,0.888 0.912,0.888 h 5.04 q 4.488,0 4.488,3.432 0,1.92 -1.56,2.952 -1.56,1.056 -4.152,1.056 -5.544,0 -5.544,-4.872 v -1.224 q -1.248,-0.576 -1.248,-2.232 0,-0.96 0.48,-1.584 0.48,-0.624 1.272,-0.84 -0.096,-0.072 -0.264,-0.24 -0.144,-0.192 -0.408,-0.816 -0.264,-0.624 -0.264,-1.368 0,-1.968 1.224,-3 1.224,-1.032 3.312,-1.032 h 7.2 v 2.088 h -1.896 q 0.744,0.528 0.744,1.968 0,1.824 -1.272,2.88 -1.248,1.032 -3.384,1.032 z"
       style="font-style:normal;font-variant:normal;font-weight:normal;font-stretch:normal;font-size:24px;font-family:KonsensMedium;-inkscape-font-specification:'KonsensMedium, Normal';font-variant-ligatures:normal;font-variant-caps:normal;font-variant-numeric:normal;font-feature-settings:normal;text-align:start;writing-mode:lr-tb;text-anchor:start;fill:#ffffff"
       id="path1106"
       inkscape:connector-curvature="0" /></g></svg>