<?xml version="1.0" encoding="UTF-8" standalone="no"?>
<!-- Generator: Adobe Illustrator 19.1.0, SVG Export Plug-In . SVG Version: 6.00 Build 0)  -->

<svg
   xmlns:dc="http://purl.org/dc/elements/1.1/"
   xmlns:cc="http://creativecommons.org/ns#"
   xmlns:rdf="http://www.w3.org/1999/02/22-rdf-syntax-ns#"
   xmlns:svg="http://www.w3.org/2000/svg"
   xmlns="http://www.w3.org/2000/svg"
   xmlns:sodipodi="http://sodipodi.sourceforge.net/DTD/sodipodi-0.dtd"
   xmlns:inkscape="http://www.inkscape.org/namespaces/inkscape"
   version="1.1"
   id="Layer_1"
   x="0px"
   y="0px"
   viewBox="-240 15.3 360 565"
   style="enable-background:new -240 15.3 360 565;"
   xml:space="preserve"
   sodipodi:docname="noimg2.svg"
   inkscape:version="0.92.2 5c3e80d, 2017-08-06"><metadata
     id="metadata175"><rdf:RDF><cc:Work
         rdf:about=""><dc:format>image/svg+xml</dc:format><dc:type
           rdf:resource="http://purl.org/dc/dcmitype/StillImage" /></cc:Work></rdf:RDF></metadata><defs
     id="defs173" /><sodipodi:namedview
     pagecolor="#ffffff"
     bordercolor="#666666"
     borderopacity="1"
     objecttolerance="10"
     gridtolerance="10"
     guidetolerance="10"
     inkscape:pageopacity="0"
     inkscape:pageshadow="2"
     inkscape:window-width="1848"
     inkscape:window-height="1006"
     id="namedview171"
     showgrid="false"
     inkscape:zoom="0.67"
     inkscape:cx="-331.0236"
     inkscape:cy="282.5"
     inkscape:window-x="0"
     inkscape:window-y="0"
     inkscape:window-maximized="0"
     inkscape:current-layer="Layer_1" /><style
     type="text/css"
     id="style2">
	.st0{clip-path:url(#SVGID_2_);}
	.st1{clip-path:url(#SVGID_4_);fill:url(#SVGID_5_);}
	.st2{clip-path:url(#SVGID_7_);}
	.st3{clip-path:url(#SVGID_9_);}
	.st4{opacity:0.5;}
	.st5{clip-path:url(#SVGID_11_);}
	.st6{clip-path:url(#SVGID_13_);fill:url(#SVGID_14_);}
	.st7{clip-path:url(#SVGID_16_);}
	.st8{clip-path:url(#SVGID_18_);}
	.st9{clip-path:url(#SVGID_20_);fill:url(#SVGID_21_);}
	.st10{opacity:0.42;}
	.st11{clip-path:url(#SVGID_23_);}
	.st12{clip-path:url(#SVGID_25_);fill:url(#SVGID_26_);}
	.st13{fill:#FFFFFF;stroke:#000000;stroke-miterlimit:10;}
	.st14{fill:none;stroke:#000000;stroke-width:5;stroke-miterlimit:10;}
</style><path
     style="fill:#ffffff;stroke:#000000;stroke-miterlimit:10"
     d="m 10,297.60001 a 69,68 0 0 1 -69,68 69,68 0 0 1 -69,-68 69,68 0 0 1 69,-68 69,68 0 0 1 69,68 z"
     id="ellipse154" /><g
     id="g160"><g
       id="g158"><path
         d="M-21.3,270.7h-73c-0.7,0-1.5,0.5-1.5,1.3v51.4c0,0.7,0.7,1.4,1.5,1.4h73c0.7,0,1.2-0.7,1.2-1.4V272    C-20.1,271.2-20.6,270.7-21.3,270.7z M-22.8,322.1h-70.3v-6.3l23.1-23l20.7,20.7c0.5,0.5,1.4,0.5,1.9,0l12.6-12.6l12.1,10.9    L-22.8,322.1L-22.8,322.1z M-22.8,308.2L-34,298c-0.5-0.5-1.3-0.5-1.8,0l-12.5,12.6L-69.1,290c-0.5-0.5-1.4-0.5-2,0l-22.1,22    v-38.6h70.3L-22.8,308.2L-22.8,308.2z"
         id="path156" /></g></g><g
     id="g166"><g
       id="g164"><path
         d="M-45.7,280.1c-4.5,0-8.1,3.6-8.1,8.1c0,4.5,3.6,8.1,8.1,8.1s8.1-3.6,8.1-8.1C-37.6,283.7-41.2,280.1-45.7,280.1z     M-45.7,293.6c-3,0-5.4-2.4-5.4-5.4s2.4-5.4,5.4-5.4c3,0,5.4,2.4,5.4,5.4C-40.3,291.2-42.7,293.6-45.7,293.6z"
         id="path162" /></g></g><path
     style="fill:none;stroke:#000000;stroke-width:5;stroke-miterlimit:10"
     d="M -22.799999,249.2 -80,347.60001"
     id="line168" /></svg>