<?xml version="1.0" encoding="UTF-8" standalone="no"?>
<!-- Generator: Adobe Illustrator 19.1.0, SVG Export Plug-In . SVG Version: 6.00 Build 0)  -->

<svg
   xmlns:dc="http://purl.org/dc/elements/1.1/"
   xmlns:cc="http://creativecommons.org/ns#"
   xmlns:rdf="http://www.w3.org/1999/02/22-rdf-syntax-ns#"
   xmlns:svg="http://www.w3.org/2000/svg"
   xmlns="http://www.w3.org/2000/svg"
   xmlns:sodipodi="http://sodipodi.sourceforge.net/DTD/sodipodi-0.dtd"
   xmlns:inkscape="http://www.inkscape.org/namespaces/inkscape"
   version="1.1"
   id="Layer_1"
   x="0px"
   y="0px"
   viewBox="-240 15.3 360 565"
   style="enable-background:new -240 15.3 360 565;"
   xml:space="preserve"
   sodipodi:docname="noimg3_fr_icon.svg"
   inkscape:version="0.92.2 5c3e80d, 2017-08-06"><metadata
     id="metadata1201"><rdf:RDF><cc:Work
         rdf:about=""><dc:format>image/svg+xml</dc:format><dc:type
           rdf:resource="http://purl.org/dc/dcmitype/StillImage" /><dc:title></dc:title></cc:Work></rdf:RDF></metadata><defs
     id="defs1199" /><sodipodi:namedview
     pagecolor="#ffffff"
     bordercolor="#666666"
     borderopacity="1"
     objecttolerance="10"
     gridtolerance="10"
     guidetolerance="10"
     inkscape:pageopacity="0"
     inkscape:pageshadow="2"
     inkscape:window-width="2512"
     inkscape:window-height="1305"
     id="namedview1197"
     showgrid="false"
     inkscape:zoom="1"
     inkscape:cx="-67.727081"
     inkscape:cy="282.5"
     inkscape:window-x="8"
     inkscape:window-y="7"
     inkscape:window-maximized="0"
     inkscape:current-layer="Layer_1"
     inkscape:pagecheckerboard="true" /><style
     type="text/css"
     id="style1028">
	.st0{clip-path:url(#SVGID_2_);}
	.st1{clip-path:url(#SVGID_4_);fill:url(#SVGID_5_);}
	.st2{clip-path:url(#SVGID_7_);}
	.st3{clip-path:url(#SVGID_9_);}
	.st4{opacity:0.5;}
	.st5{clip-path:url(#SVGID_11_);}
	.st6{clip-path:url(#SVGID_13_);fill:url(#SVGID_14_);}
	.st7{clip-path:url(#SVGID_16_);}
	.st8{clip-path:url(#SVGID_18_);}
	.st9{clip-path:url(#SVGID_20_);fill:url(#SVGID_21_);}
	.st10{opacity:0.42;}
	.st11{clip-path:url(#SVGID_23_);}
	.st12{clip-path:url(#SVGID_25_);fill:url(#SVGID_26_);}
	.st13{fill:#FFFFFF;stroke:#000000;stroke-miterlimit:10;}
	.st14{fill:none;stroke:#000000;stroke-width:5;stroke-miterlimit:10;}
</style><path
     style="fill:#ffffff;stroke:#000000;stroke-miterlimit:10"
     d="m 10,297.60001 a 69,68 0 0 1 -69,68 69,68 0 0 1 -69,-68 69,68 0 0 1 69,-68 69,68 0 0 1 69,68 z"
     id="ellipse1180" /><g
     id="g1186"><g
       id="g1184"><path
         d="m -21.3,270.7 h -73 c -0.7,0 -1.5,0.5 -1.5,1.3 v 51.4 c 0,0.7 0.7,1.4 1.5,1.4 h 73 c 0.7,0 1.2,-0.7 1.2,-1.4 V 272 c 0,-0.8 -0.5,-1.3 -1.2,-1.3 z m -1.5,51.4 h -70.3 v -6.3 l 23.1,-23 20.7,20.7 c 0.5,0.5 1.4,0.5 1.9,0 l 12.6,-12.6 12.1,10.9 z m 0,-13.9 L -34,298 c -0.5,-0.5 -1.3,-0.5 -1.8,0 L -48.3,310.6 -69.1,290 c -0.5,-0.5 -1.4,-0.5 -2,0 l -22.1,22 v -38.6 h 70.3 z"
         id="path1182"
         inkscape:connector-curvature="0" /></g></g><g
     id="g1192"><g
       id="g1190"><path
         d="m -45.7,280.1 c -4.5,0 -8.1,3.6 -8.1,8.1 0,4.5 3.6,8.1 8.1,8.1 4.5,0 8.1,-3.6 8.1,-8.1 0,-4.5 -3.6,-8.1 -8.1,-8.1 z m 0,13.5 c -3,0 -5.4,-2.4 -5.4,-5.4 0,-3 2.4,-5.4 5.4,-5.4 3,0 5.4,2.4 5.4,5.4 0,3 -2.4,5.4 -5.4,5.4 z"
         id="path1188"
         inkscape:connector-curvature="0" /></g></g><path
     style="fill:none;stroke:#000000;stroke-width:5;stroke-miterlimit:10"
     d="M -22.799999,249.2 -80,347.60001"
     id="line1194" /><g
     aria-label="Pas de connexion Internet "
     transform="translate(-106.04745,-39.771178)"
     style="font-style:normal;font-variant:normal;font-weight:normal;font-stretch:normal;font-size:40px;line-height:1.25;font-family:KonsensMedium;-inkscape-font-specification:'KonsensMedium, Normal';font-variant-ligatures:normal;font-variant-caps:normal;font-variant-numeric:normal;font-feature-settings:normal;text-align:start;letter-spacing:0px;word-spacing:0px;writing-mode:lr-tb;text-anchor:start;opacity:1;fill:#ffffff;fill-opacity:1;stroke:none"
     id="flowRoot1203"><path
       d="m -98.805531,434.0675 h -2.615999 v -17.856 h 7.319999 q 2.352,0 3.912,1.44 1.56,1.416 1.56,3.96 0,2.52 -1.68,4.032 -1.68,1.488 -3.96,1.488 h -4.536 z m 0,-9.216 h 4.392 q 1.416,0 2.28,-0.864 0.888,-0.888 0.888,-2.376 0,-1.512 -0.816,-2.304 -0.816,-0.816 -2.232,-0.816 h -4.512 z"
       style="font-style:normal;font-variant:normal;font-weight:normal;font-stretch:normal;font-size:24px;font-family:KonsensMedium;-inkscape-font-specification:'KonsensMedium, Normal';font-variant-ligatures:normal;font-variant-caps:normal;font-variant-numeric:normal;font-feature-settings:normal;text-align:start;writing-mode:lr-tb;text-anchor:start;fill:#ffffff"
       id="path919"
       inkscape:connector-curvature="0" /><path
       d="m -77.961906,430.3475 v -1.608 h -3.768 q -2.4,0 -2.4,1.824 0,0.744 0.432,1.176 0.432,0.408 1.224,0.408 1.176,0 2.448,-0.696 z m 2.4,3.72 h -2.4 v -1.632 l -1.392,0.768 q -1.872,1.008 -3.528,1.008 -1.656,0 -2.688,-0.984 -1.008,-0.984 -1.008,-2.568 0,-1.848 1.272,-2.832 1.296,-0.984 3.312,-0.984 h 4.056 v -0.792 q 0,-2.76 -2.904,-2.76 -3.072,0 -3.072,2.472 h -2.376 v -0.12 q 0,-2.064 1.488,-3.24 1.512,-1.176 3.936,-1.176 2.496,0 3.888,1.248 1.416,1.224 1.416,3.456 z"
       style="font-style:normal;font-variant:normal;font-weight:normal;font-stretch:normal;font-size:24px;font-family:KonsensMedium;-inkscape-font-specification:'KonsensMedium, Normal';font-variant-ligatures:normal;font-variant-caps:normal;font-variant-numeric:normal;font-feature-settings:normal;text-align:start;writing-mode:lr-tb;text-anchor:start;fill:#ffffff"
       id="path921"
       inkscape:connector-curvature="0" /><path
       d="m -62.258406,425.4755 h -2.4 q 0,-2.16 -2.832,-2.16 -1.344,0 -2.064,0.48 -0.696,0.48 -0.696,1.272 0,0.744 0.6,1.152 0.6,0.408 1.488,0.504 0.888,0.096 1.92,0.288 1.056,0.192 1.944,0.456 0.888,0.24 1.488,0.984 0.6,0.744 0.6,1.944 0,1.776 -1.416,2.832 -1.416,1.032 -3.888,1.032 -2.496,0 -3.936,-1.128 -1.416,-1.128 -1.416,-2.976 v -0.12 h 2.472 q 0,2.184 2.928,2.184 1.392,0 2.136,-0.456 0.768,-0.48 0.768,-1.272 0,-0.792 -0.84,-1.152 -0.816,-0.36 -1.992,-0.504 -1.176,-0.144 -2.376,-0.384 -1.176,-0.24 -2.016,-1.056 -0.816,-0.84 -0.816,-2.28 0,-1.776 1.368,-2.808 1.392,-1.032 3.792,-1.032 2.472,0 3.816,1.128 1.368,1.104 1.368,2.976 z"
       style="font-style:normal;font-variant:normal;font-weight:normal;font-stretch:normal;font-size:24px;font-family:KonsensMedium;-inkscape-font-specification:'KonsensMedium, Normal';font-variant-ligatures:normal;font-variant-caps:normal;font-variant-numeric:normal;font-feature-settings:normal;text-align:start;writing-mode:lr-tb;text-anchor:start;fill:#ffffff"
       id="path923"
       inkscape:connector-curvature="0" /><path
       d="m -43.826781,430.2275 v -4.872 l -2.256,-1.272 q -0.984,-0.528 -1.968,-0.528 -1.008,0 -1.632,0.648 -0.6,0.624 -0.6,1.68 v 3.816 q 0,1.056 0.6,1.704 0.624,0.624 1.632,0.624 0.96,0 1.968,-0.552 z m 2.376,3.84 h -2.352 v -1.512 l -1.584,0.864 q -1.464,0.816 -3,0.816 -1.896,0 -3.096,-1.176 -1.176,-1.176 -1.176,-3.072 v -4.32 q 0,-1.896 1.224,-3.12 1.224,-1.224 3.12,-1.224 1.464,0 2.928,0.816 l 1.56,0.864 v -6.792 h 2.376 z"
       style="font-style:normal;font-variant:normal;font-weight:normal;font-stretch:normal;font-size:24px;font-family:KonsensMedium;-inkscape-font-specification:'KonsensMedium, Normal';font-variant-ligatures:normal;font-variant-caps:normal;font-variant-numeric:normal;font-feature-settings:normal;text-align:start;writing-mode:lr-tb;text-anchor:start;fill:#ffffff"
       id="path925"
       inkscape:connector-curvature="0" /><path
       d="m -27.419031,430.0595 v 0.12 q 0,1.848 -1.464,2.976 -1.464,1.128 -3.912,1.128 -2.448,0 -3.984,-1.272 -1.536,-1.296 -1.536,-3.528 v -3.024 q 0,-2.352 1.536,-3.768 1.536,-1.416 3.96,-1.416 2.424,0 3.936,1.416 1.512,1.392 1.512,3.792 v 2.136 h -8.616 v 0.72 q 0,1.416 0.864,2.16 0.888,0.72 2.328,0.72 3.048,0 3.048,-2.16 z m -2.256,-3.24 v -0.384 q 0,-1.488 -0.84,-2.28 -0.816,-0.816 -2.304,-0.816 -1.488,0 -2.328,0.816 -0.84,0.816 -0.84,2.304 v 0.36 z"
       style="font-style:normal;font-variant:normal;font-weight:normal;font-stretch:normal;font-size:24px;font-family:KonsensMedium;-inkscape-font-specification:'KonsensMedium, Normal';font-variant-ligatures:normal;font-variant-caps:normal;font-variant-numeric:normal;font-feature-settings:normal;text-align:start;writing-mode:lr-tb;text-anchor:start;fill:#ffffff"
       id="path927"
       inkscape:connector-curvature="0" /><path
       d="m -6.9871562,429.3875 v 0.192 q 0,2.256 -1.4400001,3.48 -1.44,1.224 -3.9119997,1.224 -2.4,0 -3.864,-1.296 -1.44,-1.32 -1.44,-3.624 v -3.192 q 0,-2.28 1.44,-3.576 1.464,-1.32 3.864,-1.32 2.4719997,0 3.9119997,1.224 1.4400001,1.2 1.4400001,3.456 v 0.192 h -2.352 q 0,-2.736 -2.9999998,-2.736 -2.904,0 -2.904,2.976 v 2.76 q 0,2.976 2.904,2.976 2.9999998,0 2.9999998,-2.736 z"
       style="font-style:normal;font-variant:normal;font-weight:normal;font-stretch:normal;font-size:24px;font-family:KonsensMedium;-inkscape-font-specification:'KonsensMedium, Normal';font-variant-ligatures:normal;font-variant-caps:normal;font-variant-numeric:normal;font-feature-settings:normal;text-align:start;writing-mode:lr-tb;text-anchor:start;fill:#ffffff"
       id="path929"
       inkscape:connector-curvature="0" /><path
       d="m 4.5962187,428.9075 v -2.232 q 0,-1.536 -0.912,-2.4 -0.888,-0.864 -2.352,-0.864 -1.48799995,0 -2.376,0.864 -0.888,0.864 -0.888,2.4 v 2.232 q 0,1.536 0.888,2.424 0.88800005,0.864 2.376,0.864 1.464,0 2.352,-0.864 0.912,-0.864 0.912,-2.424 z m 2.3520001,-2.448 v 2.688 q 0,2.352 -1.584,3.768 -1.56,1.416 -4.0320001,1.416 -2.472,0 -4.056,-1.416 -1.5599999,-1.416 -1.5599999,-3.768 v -2.688 q 0,-2.352 1.5599999,-3.768 1.584,-1.416 4.056,-1.416 2.4720001,0 4.0320001,1.416 1.584,1.416 1.584,3.768 z"
       style="font-style:normal;font-variant:normal;font-weight:normal;font-stretch:normal;font-size:24px;font-family:KonsensMedium;-inkscape-font-specification:'KonsensMedium, Normal';font-variant-ligatures:normal;font-variant-caps:normal;font-variant-numeric:normal;font-feature-settings:normal;text-align:start;writing-mode:lr-tb;text-anchor:start;fill:#ffffff"
       id="path931"
       inkscape:connector-curvature="0" /><path
       d="m 20.747844,434.0675 h -2.448 v -8.424 q 0,-0.912 -0.504,-1.488 -0.48,-0.6 -1.368,-0.6 -0.816,0 -1.896,0.624 l -2.064,1.224 v 8.664 h -2.4 v -12.624 h 2.376 v 1.656 l 1.44,-0.888 q 1.416,-0.888 3,-0.888 1.776,0 2.808,1.104 1.056,1.104 1.056,2.928 z"
       style="font-style:normal;font-variant:normal;font-weight:normal;font-stretch:normal;font-size:24px;font-family:KonsensMedium;-inkscape-font-specification:'KonsensMedium, Normal';font-variant-ligatures:normal;font-variant-caps:normal;font-variant-numeric:normal;font-feature-settings:normal;text-align:start;writing-mode:lr-tb;text-anchor:start;fill:#ffffff"
       id="path933"
       inkscape:connector-curvature="0" /><path
       d="m 34.763469,434.0675 h -2.448 v -8.424 q 0,-0.912 -0.504,-1.488 -0.48,-0.6 -1.368,-0.6 -0.816,0 -1.896,0.624 l -2.064,1.224 v 8.664 h -2.4 v -12.624 h 2.376 v 1.656 l 1.44,-0.888 q 1.416,-0.888 3,-0.888 1.776,0 2.808,1.104 1.056,1.104 1.056,2.928 z"
       style="font-style:normal;font-variant:normal;font-weight:normal;font-stretch:normal;font-size:24px;font-family:KonsensMedium;-inkscape-font-specification:'KonsensMedium, Normal';font-variant-ligatures:normal;font-variant-caps:normal;font-variant-numeric:normal;font-feature-settings:normal;text-align:start;writing-mode:lr-tb;text-anchor:start;fill:#ffffff"
       id="path935"
       inkscape:connector-curvature="0" /><path
       d="m 48.659094,430.0595 v 0.12 q 0,1.848 -1.464,2.976 -1.464,1.128 -3.912,1.128 -2.448,0 -3.984,-1.272 -1.536,-1.296 -1.536,-3.528 v -3.024 q 0,-2.352 1.536,-3.768 1.536,-1.416 3.96,-1.416 2.424,0 3.936,1.416 1.512,1.392 1.512,3.792 v 2.136 h -8.616 v 0.72 q 0,1.416 0.864,2.16 0.888,0.72 2.328,0.72 3.048,0 3.048,-2.16 z m -2.256,-3.24 v -0.384 q 0,-1.488 -0.84,-2.28 -0.816,-0.816 -2.304,-0.816 -1.488,0 -2.328,0.816 -0.84,0.816 -0.84,2.304 v 0.36 z"
       style="font-style:normal;font-variant:normal;font-weight:normal;font-stretch:normal;font-size:24px;font-family:KonsensMedium;-inkscape-font-specification:'KonsensMedium, Normal';font-variant-ligatures:normal;font-variant-caps:normal;font-variant-numeric:normal;font-feature-settings:normal;text-align:start;writing-mode:lr-tb;text-anchor:start;fill:#ffffff"
       id="path937"
       inkscape:connector-curvature="0" /><path
       d="m 62.489469,434.0675 h -2.856 l -3.144,-4.848 -3.168,4.848 h -2.808 l 4.392,-6.384 -4.272,-6.24 h 2.832 l 3.072,4.632 3.024,-4.632 h 2.808 l -4.32,6.216 z"
       style="font-style:normal;font-variant:normal;font-weight:normal;font-stretch:normal;font-size:24px;font-family:KonsensMedium;-inkscape-font-specification:'KonsensMedium, Normal';font-variant-ligatures:normal;font-variant-caps:normal;font-variant-numeric:normal;font-feature-settings:normal;text-align:start;writing-mode:lr-tb;text-anchor:start;fill:#ffffff"
       id="path939"
       inkscape:connector-curvature="0" /><path
       d="m 67.150344,434.0675 h -2.472 v -12.624 h 2.472 z m 0.168,-16.752 v 0.504 q 0,0.552 -0.408,0.888 -0.384,0.336 -0.984,0.336 -0.648,0 -1.032,-0.312 -0.384,-0.336 -0.384,-0.912 v -0.504 q 0,-0.576 0.384,-0.888 0.384,-0.336 1.032,-0.336 0.6,0 0.984,0.336 0.408,0.336 0.408,0.888 z"
       style="font-style:normal;font-variant:normal;font-weight:normal;font-stretch:normal;font-size:24px;font-family:KonsensMedium;-inkscape-font-specification:'KonsensMedium, Normal';font-variant-ligatures:normal;font-variant-caps:normal;font-variant-numeric:normal;font-feature-settings:normal;text-align:start;writing-mode:lr-tb;text-anchor:start;fill:#ffffff"
       id="path941"
       inkscape:connector-curvature="0" /><path
       d="m 79.221219,428.9075 v -2.232 q 0,-1.536 -0.912,-2.4 -0.888,-0.864 -2.352,-0.864 -1.488,0 -2.376,0.864 -0.888,0.864 -0.888,2.4 v 2.232 q 0,1.536 0.888,2.424 0.888,0.864 2.376,0.864 1.464,0 2.352,-0.864 0.912,-0.864 0.912,-2.424 z m 2.352,-2.448 v 2.688 q 0,2.352 -1.584,3.768 -1.56,1.416 -4.032,1.416 -2.472,0 -4.056,-1.416 -1.56,-1.416 -1.56,-3.768 v -2.688 q 0,-2.352 1.56,-3.768 1.584,-1.416 4.056,-1.416 2.472,0 4.032,1.416 1.584,1.416 1.584,3.768 z"
       style="font-style:normal;font-variant:normal;font-weight:normal;font-stretch:normal;font-size:24px;font-family:KonsensMedium;-inkscape-font-specification:'KonsensMedium, Normal';font-variant-ligatures:normal;font-variant-caps:normal;font-variant-numeric:normal;font-feature-settings:normal;text-align:start;writing-mode:lr-tb;text-anchor:start;fill:#ffffff"
       id="path943"
       inkscape:connector-curvature="0" /><path
       d="m 95.372844,434.0675 h -2.448 v -8.424 q 0,-0.912 -0.504,-1.488 -0.48,-0.6 -1.368,-0.6 -0.816,0 -1.896,0.624 l -2.064,1.224 v 8.664 h -2.4 v -12.624 h 2.376 v 1.656 l 1.44,-0.888 q 1.416,-0.888 3,-0.888 1.776,0 2.808,1.104 1.056,1.104 1.056,2.928 z"
       style="font-style:normal;font-variant:normal;font-weight:normal;font-stretch:normal;font-size:24px;font-family:KonsensMedium;-inkscape-font-specification:'KonsensMedium, Normal';font-variant-ligatures:normal;font-variant-caps:normal;font-variant-numeric:normal;font-feature-settings:normal;text-align:start;writing-mode:lr-tb;text-anchor:start;fill:#ffffff"
       id="path945"
       inkscape:connector-curvature="0" /><path
       d="m 108.45397,434.0675 h -2.688 v -17.856 h 2.688 z"
       style="font-style:normal;font-variant:normal;font-weight:normal;font-stretch:normal;font-size:24px;font-family:KonsensMedium;-inkscape-font-specification:'KonsensMedium, Normal';font-variant-ligatures:normal;font-variant-caps:normal;font-variant-numeric:normal;font-feature-settings:normal;text-align:start;writing-mode:lr-tb;text-anchor:start;fill:#ffffff"
       id="path947"
       inkscape:connector-curvature="0" /><path
       d="m 122.74784,434.0675 h -2.448 v -8.424 q 0,-0.912 -0.504,-1.488 -0.48,-0.6 -1.368,-0.6 -0.816,0 -1.896,0.624 l -2.064,1.224 v 8.664 h -2.4 v -12.624 h 2.376 v 1.656 l 1.44,-0.888 q 1.416,-0.888 3,-0.888 1.776,0 2.808,1.104 1.056,1.104 1.056,2.928 z"
       style="font-style:normal;font-variant:normal;font-weight:normal;font-stretch:normal;font-size:24px;font-family:KonsensMedium;-inkscape-font-specification:'KonsensMedium, Normal';font-variant-ligatures:normal;font-variant-caps:normal;font-variant-numeric:normal;font-feature-settings:normal;text-align:start;writing-mode:lr-tb;text-anchor:start;fill:#ffffff"
       id="path949"
       inkscape:connector-curvature="0" /><path
       d="m 133.13947,434.0675 h -1.584 q -2.16,0 -3.408,-1.104 -1.248,-1.104 -1.248,-3.216 v -6.192 h -2.016 v -2.112 h 2.04 v -3.408 h 2.448 v 3.408 h 3.672 v 2.112 h -3.672 v 6.072 q 0,1.248 0.552,1.776 0.576,0.504 1.776,0.504 h 1.44 z"
       style="font-style:normal;font-variant:normal;font-weight:normal;font-stretch:normal;font-size:24px;font-family:KonsensMedium;-inkscape-font-specification:'KonsensMedium, Normal';font-variant-ligatures:normal;font-variant-caps:normal;font-variant-numeric:normal;font-feature-settings:normal;text-align:start;writing-mode:lr-tb;text-anchor:start;fill:#ffffff"
       id="path951"
       inkscape:connector-curvature="0" /><path
       d="m 146.20597,430.0595 v 0.12 q 0,1.848 -1.464,2.976 -1.464,1.128 -3.912,1.128 -2.448,0 -3.984,-1.272 -1.536,-1.296 -1.536,-3.528 v -3.024 q 0,-2.352 1.536,-3.768 1.536,-1.416 3.96,-1.416 2.424,0 3.936,1.416 1.512,1.392 1.512,3.792 v 2.136 h -8.616 v 0.72 q 0,1.416 0.864,2.16 0.888,0.72 2.328,0.72 3.048,0 3.048,-2.16 z m -2.256,-3.24 v -0.384 q 0,-1.488 -0.84,-2.28 -0.816,-0.816 -2.304,-0.816 -1.488,0 -2.328,0.816 -0.84,0.816 -0.84,2.304 v 0.36 z"
       style="font-style:normal;font-variant:normal;font-weight:normal;font-stretch:normal;font-size:24px;font-family:KonsensMedium;-inkscape-font-specification:'KonsensMedium, Normal';font-variant-ligatures:normal;font-variant-caps:normal;font-variant-numeric:normal;font-feature-settings:normal;text-align:start;writing-mode:lr-tb;text-anchor:start;fill:#ffffff"
       id="path953"
       inkscape:connector-curvature="0" /><path
       d="m 151.82834,434.0675 h -2.448 v -12.624 h 2.4 v 1.92 l 0.576,-0.576 q 1.512,-1.392 3.288,-1.392 h 0.648 v 2.496 h -0.624 q -1.632,0 -2.784,0.96 l -1.056,0.864 z"
       style="font-style:normal;font-variant:normal;font-weight:normal;font-stretch:normal;font-size:24px;font-family:KonsensMedium;-inkscape-font-specification:'KonsensMedium, Normal';font-variant-ligatures:normal;font-variant-caps:normal;font-variant-numeric:normal;font-feature-settings:normal;text-align:start;writing-mode:lr-tb;text-anchor:start;fill:#ffffff"
       id="path955"
       inkscape:connector-curvature="0" /><path
       d="m 169.06034,434.0675 h -2.448 v -8.424 q 0,-0.912 -0.504,-1.488 -0.48,-0.6 -1.368,-0.6 -0.816,0 -1.896,0.624 l -2.064,1.224 v 8.664 h -2.4 v -12.624 h 2.376 v 1.656 l 1.44,-0.888 q 1.416,-0.888 3,-0.888 1.776,0 2.808,1.104 1.056,1.104 1.056,2.928 z"
       style="font-style:normal;font-variant:normal;font-weight:normal;font-stretch:normal;font-size:24px;font-family:KonsensMedium;-inkscape-font-specification:'KonsensMedium, Normal';font-variant-ligatures:normal;font-variant-caps:normal;font-variant-numeric:normal;font-feature-settings:normal;text-align:start;writing-mode:lr-tb;text-anchor:start;fill:#ffffff"
       id="path957"
       inkscape:connector-curvature="0" /><path
       d="m 182.95597,430.0595 v 0.12 q 0,1.848 -1.464,2.976 -1.464,1.128 -3.912,1.128 -2.448,0 -3.984,-1.272 -1.536,-1.296 -1.536,-3.528 v -3.024 q 0,-2.352 1.536,-3.768 1.536,-1.416 3.96,-1.416 2.424,0 3.936,1.416 1.512,1.392 1.512,3.792 v 2.136 h -8.616 v 0.72 q 0,1.416 0.864,2.16 0.888,0.72 2.328,0.72 3.048,0 3.048,-2.16 z m -2.256,-3.24 v -0.384 q 0,-1.488 -0.84,-2.28 -0.816,-0.816 -2.304,-0.816 -1.488,0 -2.328,0.816 -0.84,0.816 -0.84,2.304 v 0.36 z"
       style="font-style:normal;font-variant:normal;font-weight:normal;font-stretch:normal;font-size:24px;font-family:KonsensMedium;-inkscape-font-specification:'KonsensMedium, Normal';font-variant-ligatures:normal;font-variant-caps:normal;font-variant-numeric:normal;font-feature-settings:normal;text-align:start;writing-mode:lr-tb;text-anchor:start;fill:#ffffff"
       id="path959"
       inkscape:connector-curvature="0" /><path
       d="m 193.18634,434.0675 h -1.584 q -2.16,0 -3.408,-1.104 -1.248,-1.104 -1.248,-3.216 v -6.192 h -2.016 v -2.112 h 2.04 v -3.408 h 2.448 v 3.408 h 3.672 v 2.112 h -3.672 v 6.072 q 0,1.248 0.552,1.776 0.576,0.504 1.776,0.504 h 1.44 z"
       style="font-style:normal;font-variant:normal;font-weight:normal;font-stretch:normal;font-size:24px;font-family:KonsensMedium;-inkscape-font-specification:'KonsensMedium, Normal';font-variant-ligatures:normal;font-variant-caps:normal;font-variant-numeric:normal;font-feature-settings:normal;text-align:start;writing-mode:lr-tb;text-anchor:start;fill:#ffffff"
       id="path961"
       inkscape:connector-curvature="0" /></g></svg>