<?xml version="1.0" encoding="utf-8"?>
<!-- Generator: Adobe Illustrator 20.1.0, SVG Export Plug-In . SVG Version: 6.00 Build 0)  -->
<svg version="1.1" id="Layer_1" xmlns="http://www.w3.org/2000/svg" xmlns:xlink="http://www.w3.org/1999/xlink" x="0px" y="0px"
	 viewBox="0 0 41.5 99.5" style="enable-background:new 0 0 41.5 99.5;" xml:space="preserve">
<style type="text/css">
	.st0{fill:#B6D4E6;}
</style>
<g>
	<g>
		<path class="st0" d="M41,30.1v24.3c0,2.4-1.9,4.3-4.3,4.3c-0.9,0-1.8-0.3-2.5-0.8v5.6c0,0.8-0.6,1.4-1.4,1.4h-2.7v32.7
			c0,0.8-0.6,1.4-1.4,1.4h-16c-0.8,0-1.4-0.6-1.4-1.4V64.9H8.7c-0.8,0-1.4-0.6-1.4-1.4v-5.6c-0.7,0.5-1.5,0.8-2.5,0.8
			c-2.4,0-4.3-1.9-4.3-4.3V30.1c0-2.4,1.9-4.3,4.3-4.3H13c-3.7-2.5-6.1-6.7-6.1-11.5c0-7.7,6.2-13.9,13.9-13.9
			c7.7,0,13.9,6.2,13.9,13.9c0,4.8-2.4,9-6.1,11.5h8.2C39.1,25.8,41,27.7,41,30.1"/>
	</g>
	<g>
		<path d="M28.8,99.5h-16c-1.1,0-1.9-0.9-1.9-1.9V65.4H8.7c-1.1,0-1.9-0.9-1.9-1.9v-4.7c-0.6,0.3-1.3,0.4-2,0.4
			C2.1,59.1,0,57,0,54.4V30.1c0-2.6,2.1-4.8,4.8-4.8h6.7c-3.2-2.7-5.1-6.7-5.1-11C6.4,6.4,12.9,0,20.8,0c7.9,0,14.4,6.4,14.4,14.4
			c0,4.2-1.9,8.2-5.1,11h6.7c2.6,0,4.8,2.1,4.8,4.8v24.3c0,2.6-2.1,4.8-4.8,4.8c-0.7,0-1.4-0.1-2-0.4v4.7c0,1.1-0.9,1.9-1.9,1.9
			h-2.2v32.2C30.7,98.6,29.8,99.5,28.8,99.5z M7.7,56.9v6.6c0,0.5,0.4,0.9,0.9,0.9h3.2v33.2c0,0.5,0.4,0.9,0.9,0.9h16
			c0.5,0,0.9-0.4,0.9-0.9V64.4h3.2c0.5,0,0.9-0.4,0.9-0.9v-6.6l0.8,0.6c0.6,0.5,1.4,0.7,2.2,0.7c2.1,0,3.8-1.7,3.8-3.8V30.1
			c0-2.1-1.7-3.8-3.8-3.8h-9.8l1.3-0.9c3.7-2.5,5.9-6.6,5.9-11.1C34.1,7,28.1,1,20.8,1C13.4,1,7.4,7,7.4,14.4
			c0,4.4,2.2,8.6,5.9,11.1l1.3,0.9H4.8C2.7,26.3,1,28,1,30.1v24.3c0,2.1,1.7,3.8,3.8,3.8c0.8,0,1.5-0.2,2.2-0.7L7.7,56.9z"/>
	</g>
</g>
</svg>
