<?xml version="1.0" encoding="utf-8"?>
<!-- Generator: Adobe Illustrator 20.1.0, SVG Export Plug-In . SVG Version: 6.00 Build 0)  -->
<svg version="1.1" id="Layer_1" xmlns="http://www.w3.org/2000/svg" xmlns:xlink="http://www.w3.org/1999/xlink" x="0px" y="0px"
	 viewBox="0 0 100 100" style="enable-background:new 0 0 100 100;" xml:space="preserve">
<style type="text/css">
	.st0{fill-rule:evenodd;clip-rule:evenodd;fill:#922D2D;}
	.st1{fill:#FFFFFF;}
</style>
<path class="st0" d="M0,50C0,22.4,22.4,0,50,0s50,22.4,50,50c0,27.6-22.4,50-50,50S0,77.6,0,50"/>
<path class="st1" d="M74.8,49.7c-4.8,3-8,3.4-8,3.4s0.1-13.6-8.4-16.7c-8.5-3.1-25-9.7-25.5-15.5c0,0-3.6,7.1,0.6,12.1
	c1.7,2,3.5,3.5,5,4.4c0.9,0.5,2,0.8,2.9,0.9c12.6,2.1,11.4,8.7,11.4,8.7s0.2-2.8-4.3-5.8c-1.1-0.8-3-1.6-6.3-2
	c-2.3-0.3-6.7,0.6-12.2-0.3c-5.9-1-12.4-4.7-12.4-4.7s-1,6.3,6.9,11c7.9,4.7,7.2,3.3,14.5,12.1c1.2,1.4,6.3,4.2,6.3,4.2
	S30,65,24.5,65.8c-5.5,0.8-12.1,3-6.3,7.1c5.9,4.1,6.5,4.8,12.1,4.1c5.6-0.7,10.3-6.8,14.3-6.9c0,0,16.2,1.2,21.3,0.1
	c5.1-1.1,11.1-2.8,12.6-12.6c0,0,0.6-4,4.8-4.4c4.1-0.4,4.5-1.2,4.5-1.2c0,0-0.2-0.1-2.2-1.2C83.2,49.6,79.6,46.7,74.8,49.7"/>
</svg>
