<?xml version="1.0" encoding="utf-8"?>
<!-- Generator: Adobe Illustrator 19.1.0, SVG Export Plug-In . SVG Version: 6.00 Build 0)  -->
<svg version="1.1" id="Layer_1" xmlns="http://www.w3.org/2000/svg" xmlns:xlink="http://www.w3.org/1999/xlink" x="0px" y="0px"
	 viewBox="0 0 109.8 109.8" style="enable-background:new 0 0 109.8 109.8;" xml:space="preserve">
<style type="text/css">
	.st0{fill:#D4A4A2;}
	.st1{fill:#FFFFFF;}
	.st2{fill:#553F19;}
	.st3{fill:#FBB430;}
	.st4{enable-background:new    ;}
	.st5{fill:#707C7F;}
	.st6{fill:#623949;}
	.st7{fill:#FAFBFC;}
	.st8{fill:none;}
	.st9{fill:#786B2B;}
</style>
<circle id="circle31" class="st2" cx="54.9" cy="54.9" r="54.9"/>
<g id="g37">
	<path id="path39" class="st1" d="M62.8,55.7c-0.4,0.5-0.9,0.9-1.5,1l-3,0.8c-0.2,0.1-0.5,0.1-0.7,0.1c-0.5,0-1.1-0.2-1.5-0.5
		c-0.7-0.5-1.1-1.2-1.1-2L54.7,52c-0.1-0.6,0.1-1.3,0.5-1.8l0.1-0.2H44.8c-0.9,0-1.5-0.7-1.5-1.6c0-0.8,0.7-1.6,1.5-1.6h12.8
		l2.9-4.1H44.8c-0.9,0-1.5-0.7-1.5-1.6c0-0.9,0.7-1.6,1.5-1.6h17.9l6.7-9.6v-7.1c0-1.2-0.9-2.1-2.1-2.1h-5.1v4.1
		c0,1.9-1.6,3.4-3.5,3.4H48.3c-1.9,0-3.4-1.5-3.4-3.4V21h-5.2c-1.2,0-2.1,0.9-2.1,2.1v36.3c0,1.2,0.9,2.2,2.1,2.2h27.5
		c1.2,0,2.1-1,2.1-2.2v-13L62.8,55.7z M44.8,32.7h17.4c0.9,0,1.5,0.7,1.5,1.6c0,0.9-0.7,1.6-1.5,1.6H44.8c-0.9,0-1.5-0.7-1.5-1.6
		C43.2,33.4,43.9,32.7,44.8,32.7L44.8,32.7z"/>
	<path id="path41" class="st1" d="M48.4,26.5h10.3c0.8,0,1.4-0.6,1.4-1.4v-5.9c0-0.8-0.6-1.4-1.4-1.4h-1.6c0-2-1.6-3.6-3.6-3.6
		s-3.6,1.6-3.6,3.6h-1.5c-0.8,0-1.4,0.6-1.4,1.4v5.9C47,25.8,47.6,26.5,48.4,26.5L48.4,26.5z M53.5,16.1c0.9,0,1.6,0.7,1.6,1.6h-3.2
		C51.9,16.8,52.6,16.1,53.5,16.1L53.5,16.1z"/>
	<path id="path43" class="st1" d="M82.4,23.6c0-0.3-0.2-0.5-0.4-0.6l-2.6-1.8C79.2,21.1,79,21,78.8,21c-0.3,0-0.6,0.1-0.8,0.4
		L59.7,47.6l4.2,2.9l18.3-26.2C82.3,24.2,82.4,23.9,82.4,23.6L82.4,23.6z"/>
	<path id="path45" class="st1" d="M56.8,51.9l0.3,3.1c0,0.2,0.1,0.3,0.2,0.4c0.1,0.1,0.2,0.1,0.3,0.1s0.1,0,0.2,0l3-0.8
		c0.1,0,0.3-0.1,0.3-0.2l1.1-1.6l-4.2-3l-1.1,1.6C56.8,51.6,56.8,51.8,56.8,51.9L56.8,51.9z"/>
</g>
<g>
	<path class="st1" d="M24.8,86.3h-0.5c-0.2,0-0.2-0.1-0.2-0.2v-6h0l-0.4,1l-1.8,3.8c-0.1,0.1-0.1,0.2-0.3,0.2H21
		c-0.2,0-0.2-0.1-0.3-0.2l-1.9-3.9L18.4,80h0v6c0,0.2-0.1,0.2-0.2,0.2h-0.5c-0.1,0-0.2-0.1-0.2-0.2v-8c0-0.1,0.1-0.2,0.2-0.2h0.6
		c0.2,0,0.2,0.1,0.3,0.2l2.1,4.4l0.6,1.3h0l0.6-1.4l2.1-4.3c0.1-0.1,0.1-0.2,0.3-0.2h0.5c0.1,0,0.2,0.1,0.2,0.2v8
		C25,86.2,24.9,86.3,24.8,86.3z"/>
	<path class="st1" d="M31,83.5h-3.6c0,1.5,0.5,2,1.7,2c0.5,0,1.3-0.1,1.8-0.2c0.2,0,0.3,0,0.3,0.2l0.1,0.3c0,0.1,0,0.2-0.1,0.3
		c-0.5,0.2-1.4,0.3-2,0.3c-2.3,0-2.6-1.6-2.6-3.2c0-1.2,0.3-3.2,2.6-3.2c2.2,0,2.5,1.4,2.6,2.8C31.6,83.2,31.5,83.5,31,83.5z
		 M29,80.8c-1.1,0-1.5,0.7-1.5,1.9h3.1C30.6,81.8,30.4,80.8,29,80.8z"/>
	<path class="st1" d="M33.5,79C33,79,33,78.7,33,78.4c0-0.3,0.1-0.5,0.5-0.5c0.5,0,0.5,0.2,0.5,0.5C34,78.8,34,79,33.5,79z
		 M33.8,86.3h-0.5c-0.2,0-0.2-0.1-0.2-0.2v-5.7c0-0.2,0.1-0.2,0.2-0.2h0.5c0.1,0,0.2,0.1,0.2,0.2V86C34,86.2,33.9,86.3,33.8,86.3z"
		/>
	<path class="st1" d="M40.4,86.3h-0.5c-0.1,0-0.2-0.1-0.2-0.2l0-3.7c0-1.2-0.2-1.5-1-1.5c-0.6,0-1.7,0.5-2.1,0.7V86
		c0,0.2-0.1,0.2-0.2,0.2h-0.5c-0.1,0-0.2-0.1-0.2-0.2v-5.7c0-0.2,0.1-0.2,0.2-0.2h0.5c0.2,0,0.2,0,0.2,0.2v0.5l0,0
		c0.4-0.3,1.3-0.8,2.2-0.8c1.6,0,1.8,1,1.8,2.3V86C40.6,86.2,40.6,86.3,40.4,86.3z"/>
	<path class="st1" d="M46.5,83.5h-3.6c0,1.5,0.5,2,1.7,2c0.5,0,1.3-0.1,1.8-0.2c0.2,0,0.3,0,0.3,0.2l0.1,0.3c0,0.1,0,0.2-0.1,0.3
		c-0.5,0.2-1.4,0.3-2,0.3c-2.3,0-2.6-1.6-2.6-3.2c0-1.2,0.3-3.2,2.6-3.2c2.2,0,2.5,1.4,2.6,2.8C47,83.2,46.9,83.5,46.5,83.5z
		 M44.4,80.8c-1.1,0-1.5,0.7-1.5,1.9H46C46,81.8,45.8,80.8,44.4,80.8z"/>
	<path class="st1" d="M55.1,86.3h-3.1c-0.2,0-0.3-0.1-0.3-0.2v-8c0-0.1,0.1-0.2,0.2-0.2h2.7c1.6,0,2.5,0.9,2.5,2.2
		c0,0.5-0.2,1.4-1.1,1.8l0,0c1,0.3,1.3,1.4,1.3,2.1C57.4,85.4,56.4,86.3,55.1,86.3z M54.6,78.8h-1.8v2.7h2c0.7,0,1.4-0.6,1.4-1.4
		C56.1,79.3,55.7,78.8,54.6,78.8z M54.8,82.3h-2v3h2c1.2,0,1.6-0.7,1.6-1.5C56.4,83.1,55.9,82.3,54.8,82.3z"/>
	<path class="st1" d="M63.1,83.5h-3.6c0,1.5,0.5,2,1.7,2c0.5,0,1.3-0.1,1.8-0.2c0.2,0,0.3,0,0.3,0.2l0.1,0.3c0,0.1,0,0.2-0.1,0.3
		c-0.5,0.2-1.4,0.3-2,0.3c-2.3,0-2.6-1.6-2.6-3.2c0-1.2,0.3-3.2,2.6-3.2c2.2,0,2.5,1.4,2.6,2.8C63.7,83.2,63.6,83.5,63.1,83.5z
		 M61.1,80.8c-1.1,0-1.5,0.7-1.5,1.9h3.1C62.6,81.8,62.4,80.8,61.1,80.8z"/>
	<path class="st1" d="M68.1,81c-0.7,0.1-1.7,0.4-2,0.6V86c0,0.2-0.1,0.2-0.2,0.2h-0.5c-0.1,0-0.2-0.1-0.2-0.2v-5.7
		c0-0.2,0.1-0.2,0.2-0.2h0.5c0.2,0,0.2,0.1,0.2,0.2v0.5l0,0c0.3-0.3,1.3-0.7,1.9-0.8c0.2,0,0.2,0,0.2,0.2l0.1,0.5
		C68.3,80.9,68.3,80.9,68.1,81z"/>
	<path class="st1" d="M69.7,79c-0.5,0-0.5-0.3-0.5-0.6c0-0.3,0.1-0.5,0.5-0.5c0.5,0,0.5,0.2,0.5,0.5C70.3,78.8,70.2,79,69.7,79z
		 M70,86.3h-0.5c-0.2,0-0.2-0.1-0.2-0.2v-5.7c0-0.2,0.1-0.2,0.2-0.2H70c0.1,0,0.2,0.1,0.2,0.2V86C70.2,86.2,70.1,86.3,70,86.3z"/>
	<path class="st1" d="M76.2,86.1c-0.5,0.2-1.3,0.3-1.9,0.3c-2.2,0-2.5-1.5-2.5-3.2c0-1.6,0.3-3.2,2.5-3.2c0.5,0,1.4,0.1,1.9,0.3
		c0.1,0.1,0.1,0.2,0.1,0.3l-0.1,0.3c0,0.1-0.2,0.2-0.3,0.1c-0.5-0.1-1.2-0.1-1.7-0.1c-1.2,0-1.5,0.6-1.5,2.3c0,1.8,0.4,2.4,1.5,2.4
		c0.4,0,1.2-0.1,1.7-0.1c0.2,0,0.3,0,0.3,0.2l0.1,0.3C76.3,85.9,76.3,86,76.2,86.1z"/>
	<path class="st1" d="M82,86.3h-0.5c-0.1,0-0.2-0.1-0.2-0.2l0-3.9c0-1.1-0.2-1.3-1-1.3c-0.6,0-1.7,0.5-2.1,0.7V86
		c0,0.2-0.1,0.2-0.2,0.2h-0.5c-0.1,0-0.2-0.1-0.2-0.2v-8.5c0-0.2,0.1-0.2,0.2-0.2h0.5c0.2,0,0.2,0.1,0.2,0.2v3.2l0,0
		c0.4-0.3,1.4-0.8,2.3-0.8c1.6,0,1.8,1,1.8,2.3V86C82.3,86.2,82.2,86.3,82,86.3z"/>
	<path class="st1" d="M87.1,85.9c0,0.1,0,0.2-0.1,0.2c-0.3,0.2-1.1,0.3-1.4,0.3c-1.1,0-1.4-0.5-1.4-1.3v-4.1h-0.7
		c-0.2,0-0.2-0.1-0.2-0.2v-0.4c0-0.2,0.1-0.2,0.2-0.2h0.7v-1.4c0-0.2,0.1-0.2,0.2-0.2l0.5-0.1c0.1,0,0.2,0,0.2,0.2v1.6h1.4
		c0.2,0,0.2,0.1,0.2,0.2v0.4c0,0.2,0,0.2-0.2,0.2h-1.4v3.8c0,0.6,0.1,0.7,0.9,0.7c0.1,0,0.6,0,0.7-0.1c0.2,0,0.3,0,0.3,0.2
		L87.1,85.9z"/>
	<path class="st1" d="M92.2,83.5h-3.6c0,1.5,0.5,2,1.7,2c0.5,0,1.3-0.1,1.8-0.2c0.2,0,0.3,0,0.3,0.2l0.1,0.3c0,0.1,0,0.2-0.1,0.3
		c-0.5,0.2-1.4,0.3-2,0.3c-2.3,0-2.6-1.6-2.6-3.2c0-1.2,0.3-3.2,2.6-3.2c2.2,0,2.5,1.4,2.6,2.8C92.8,83.2,92.7,83.5,92.2,83.5z
		 M90.2,80.8c-1.1,0-1.5,0.7-1.5,1.9h3.1C91.7,81.8,91.6,80.8,90.2,80.8z"/>
</g>
</svg>
