<?xml version="1.0" encoding="utf-8"?>
<!-- Generator: Adobe Illustrator 20.1.0, SVG Export Plug-In . SVG Version: 6.00 Build 0)  -->
<svg version="1.1" id="Layer_1" xmlns="http://www.w3.org/2000/svg" xmlns:xlink="http://www.w3.org/1999/xlink" x="0px" y="0px"
	 viewBox="0 0 100 100" style="enable-background:new 0 0 100 100;" xml:space="preserve">
<style type="text/css">
	.st0{fill-rule:evenodd;clip-rule:evenodd;fill:#2C3C77;}
	.st1{fill:#FFFFFF;}
</style>
<path class="st0" d="M0,50C0,22.4,22.4,0,50,0s50,22.4,50,50c0,27.6-22.4,50-50,50S0,77.6,0,50"/>
<path class="st1" d="M24.6,37.2c2.1,4.9,5.7,9.8,10.7,11.9c0.6,0.2,1.2,0.4,1.9,0.6c1.3-2,2.9-3.6,4.7-4.9c1.5-1.1,3.2-2,4.8-2.7
	c-0.5-0.3-1-0.6-1.5-0.9c-2.1-1.1-4.4-2.1-6.6-3.1c2.1,0.6,4.4,0.8,6.4,1.5c1.2,0.5,2.4,1.1,3.4,1.8c3.2-1.1,6.5-1.6,9.8-2
	c-2.7-4.5-8.4-8-12.7-9.6C41.1,28,36,27.8,31,27.3c-3.1-0.3-6.4-1.5-8.9-2.8c-0.6-0.3-1.1,0.2-1,0.8C22.4,29.2,23,33.5,24.6,37.2"/>
<path class="st1" d="M77.5,36.6c-5.7,3.1-12.1,3.4-18.5,4.2c-3.1,0.4-6.2,0.8-9.1,1.7c-0.6,0.2-1.3,0.4-1.9,0.6
	c-1.8,0.7-3.6,1.6-5.3,2.9c-1.6,1.2-2.9,2.5-4,4c-1.7,2.4-2.9,5.2-3.9,8.1c-1.8,5.2-2.6,10.8-2.5,16.3c0.1,2.2,0.1,4.6,0.7,6.8
	c0.1,0.5,0.2,1.1,0.6,1.5c0.5,0.5,1.4,0,1.2-0.7c-1.4-4.8-0.5-10.5,1.4-15.1c2.3-5.3,6.6-8.5,11.9-10.4c1.4-0.5,2.9-1,4.3-1.4
	c0,0,0.1,0,0.1,0c0.3,0,0.4,0.4,0.1,0.6c-1.7,0.8-3.5,1.6-5.1,2.4c-8,4.2-11.5,13.9-8.5,13.9c0.2,0,0.5-0.1,0.9-0.2
	c4.6-1.9,10.1-1.9,15.2-2.9c1.8-0.3,3.5-0.8,5.2-1.5c6.5-2.7,11.1-8,13.9-14.4c2.1-4.8,2.9-10.4,4.4-15.3c0.2-0.6-0.2-1.2-0.8-1.2
	C77.8,36.5,77.7,36.5,77.5,36.6"/>
</svg>
