<?xml version="1.0" encoding="utf-8"?>
<!-- Generator: Adobe Illustrator 20.1.0, SVG Export Plug-In . SVG Version: 6.00 Build 0)  -->
<svg version="1.1" id="Layer_1" xmlns="http://www.w3.org/2000/svg" xmlns:xlink="http://www.w3.org/1999/xlink" x="0px" y="0px"
	 viewBox="0 0 100 100" style="enable-background:new 0 0 100 100;" xml:space="preserve">
<style type="text/css">
	.st0{fill:#ED1C24;}
</style>
<path class="st0" d="M49.8,8.1C26.6,8.1,7.7,27,7.7,50.2c0,23.2,18.9,42.1,42.1,42.1c23.2,0,42.1-18.9,42.1-42.1S72.9,8.1,49.8,8.1z
	 M49.8,87.2c-20.4,0-37.1-16.6-37.1-37.1s16.6-37.1,37.1-37.1c20.4,0,37.1,16.6,37.1,37.1S70.2,87.2,49.8,87.2z M49.8,58.3
	c-6.6,0-12.9,2.6-17.6,7.3c-0.8,0.8-0.8,2,0,2.8c0.8,0.8,2,0.8,2.8,0c3.9-3.9,9.2-6.1,14.7-6.1c5.6,0,10.8,2.2,14.7,6.1
	c0.4,0.4,0.9,0.6,1.4,0.6s1-0.2,1.4-0.6c0.8-0.8,0.8-2,0-2.8C62.6,60.9,56.4,58.3,49.8,58.3z M36.6,40.5c-1.8,0-3.3,1.5-3.3,3.3
	s1.5,3.3,3.3,3.3s3.3-1.5,3.3-3.3S38.4,40.5,36.6,40.5z M66.2,43.8c0-1.8-1.5-3.3-3.3-3.3c-1.8,0-3.3,1.5-3.3,3.3s1.5,3.3,3.3,3.3
	C64.8,47.1,66.2,45.6,66.2,43.8z M70,28.6l-11.3,5.8c-1,0.5-1.4,1.7-0.9,2.7c0.4,0.7,1.1,1.1,1.8,1.1c0.3,0,0.6-0.1,0.9-0.2
	l11.3-5.8c1-0.5,1.4-1.7,0.9-2.7C72.2,28.5,71,28.1,70,28.6z M39.9,38.2c0.7,0,1.4-0.4,1.8-1.1c0.5-1,0.1-2.2-0.9-2.7l-11.3-5.8
	c-1-0.5-2.2-0.1-2.7,0.9c-0.5,1-0.1,2.2,0.9,2.7L38.9,38C39.2,38.2,39.5,38.2,39.9,38.2z"/>
</svg>
