<?xml version="1.0" encoding="utf-8"?>
<!-- Generator: Adobe Illustrator 20.1.0, SVG Export Plug-In . SVG Version: 6.00 Build 0)  -->
<svg version="1.1" id="Layer_1" xmlns="http://www.w3.org/2000/svg" xmlns:xlink="http://www.w3.org/1999/xlink" x="0px" y="0px"
	 viewBox="0 0 100 100" style="enable-background:new 0 0 100 100;" xml:space="preserve">
<style type="text/css">
	.st0{fill:#EA9423;}
</style>
<path class="st0" d="M49.8,8.1C26.6,8.1,7.7,27,7.7,50.2c0,23.2,18.9,42.1,42.1,42.1c23.2,0,42.1-18.9,42.1-42.1S72.9,8.1,49.8,8.1z
	 M49.8,87.2c-20.4,0-37.1-16.6-37.1-37.1s16.6-37.1,37.1-37.1s37.1,16.6,37.1,37.1S70.2,87.2,49.8,87.2z M70.4,56.5H29.1
	c-1.1,0-2,0.9-2,2s0.9,2,2,2h41.3c1.1,0,2-0.9,2-2S71.5,56.5,70.4,56.5z M36.3,43.3c1.8,0,3.3-1.5,3.3-3.3c0-1.8-1.5-3.3-3.3-3.3
	c-1.8,0-3.3,1.5-3.3,3.3C33,41.8,34.5,43.3,36.3,43.3z M62.7,43.3c1.8,0,3.3-1.5,3.3-3.3s-1.5-3.3-3.3-3.3s-3.3,1.5-3.3,3.3
	S60.9,43.3,62.7,43.3z"/>
</svg>
